<svg width="102" height="102" viewBox="0 0 102 102" fill="none" xmlns="http://www.w3.org/2000/svg">
<ellipse cx="50.9361" cy="50.9351" rx="37.8296" ry="37.8297" fill="url(#paint0_linear_599_12333)"/>
<g filter="url(#filter0_i_599_12333)">
<ellipse cx="50.9353" cy="50.935" rx="34.0467" ry="34.0467" fill="url(#paint1_linear_599_12333)"/>
</g>
<path d="M84.482 50.935C84.482 69.4624 69.4626 84.4818 50.9353 84.4818C32.408 84.4818 17.3887 69.4624 17.3887 50.935C17.3887 32.4077 32.408 17.3883 50.9353 17.3883C69.4626 17.3883 84.482 32.4077 84.482 50.935Z" stroke="url(#paint2_linear_599_12333)"/>
<path d="M74.8927 58.8775L74.819 58.8146C74.6711 58.3031 74.4404 57.8194 74.1362 57.3829L73.4978 56.6134C73.4641 56.3788 73.4161 56.1465 73.3539 55.9179L72.4793 54.1569L71.9774 51.0346L72.542 47.9122L73.3318 46.4028V46.3584C73.4131 46.0812 73.4724 45.7979 73.5089 45.5113L74.1178 44.8047C74.4566 44.3391 74.7068 43.8148 74.8559 43.2583L74.9223 43.2065C75.8103 42.4706 76.4118 41.4449 76.6214 40.3091C76.831 39.1733 76.6353 37.9997 76.0685 36.994C75.5018 35.9883 74.6002 35.2146 73.5217 34.8083C72.4431 34.402 71.2563 34.389 70.1692 34.7717H70.1471C69.5647 34.5923 68.9535 34.5257 68.3462 34.5756L67.5011 34.7236C67.2123 34.5891 66.9122 34.4802 66.6044 34.398L64.9143 34.2944L64.8737 34.2648L61.9215 33.1291L59.4637 31.0389L58.4157 29.3778L58.3677 29.3186C58.2023 29.1413 58.0247 28.9756 57.8363 28.8229L57.519 27.8832V27.8462C57.2975 27.3499 56.9958 26.8936 56.6259 26.4959L56.6038 26.3739C56.3994 25.1554 55.7737 24.0479 54.8364 23.2456C53.8991 22.4433 52.7101 21.9973 51.4776 21.9858C50.2452 21.9744 49.048 22.3981 48.096 23.1829C47.1441 23.9676 46.498 25.0632 46.271 26.2777L46.2378 26.4404C45.8723 26.8202 45.5695 27.2561 45.3411 27.7316L44.9721 28.7452C44.7964 28.8848 44.6289 29.0342 44.4702 29.1929L43.2967 30.9723L40.8427 32.9626L37.9938 33.9837L37.9274 34.0207L37.8904 34.0466L36.2778 34.1132H36.2261C35.9202 34.1881 35.6214 34.2896 35.3331 34.4165L34.5139 34.2574H34.4954C33.9002 34.1977 33.2992 34.2517 32.7241 34.4165C31.6437 34.0113 30.4555 34.0005 29.368 34.386C28.2805 34.7715 27.3632 35.5287 26.777 36.5247C26.1909 37.5206 25.9734 38.6917 26.1627 39.8324C26.352 40.9731 26.9361 42.0105 27.8123 42.7625L27.8419 42.7847C27.9814 43.359 28.224 43.9031 28.5578 44.3903L29.1076 45.0488C29.1374 45.3515 29.1929 45.651 29.2737 45.9441L30.0117 47.4461V47.5016L30.5062 50.5758L29.949 53.6501L29.0227 55.4259L28.9932 55.4998C28.9298 55.7109 28.8805 55.9259 28.8456 56.1436L28.174 56.9167L28.1481 56.95C27.8443 57.3701 27.6089 57.8359 27.4507 58.3299L27.3326 58.4298C26.376 59.2153 25.7268 60.3143 25.4995 61.5328C25.2723 62.7514 25.4816 64.0112 26.0905 65.0902C26.6995 66.1691 27.6689 66.9978 28.8279 67.43C29.9868 67.8623 31.2608 67.8704 32.4252 67.4529L32.499 67.4233C33.0337 67.5602 33.5873 67.6077 34.1375 67.5638L35.1154 67.3937C35.3549 67.4926 35.6016 67.573 35.8534 67.6341L37.8314 67.7599L40.8279 68.9142L43.2376 70.96L43.3041 71.0007L44.2119 72.4324L44.2414 72.4694C44.4534 72.696 44.6857 72.9028 44.9352 73.0872L45.2341 73.9528C45.4785 74.4979 45.8242 74.9913 46.2526 75.4067V75.4622C46.4212 76.6131 47.0002 77.6637 47.8823 78.4194C48.7643 79.1751 49.8897 79.5847 51.0499 79.5724H51.0979C52.249 79.5943 53.3695 79.2005 54.255 78.4629C55.1404 77.7253 55.7318 76.6931 55.9211 75.5547V75.4548C56.3406 75.0504 56.6833 74.5728 56.9322 74.0453L57.2533 73.1686C57.4877 72.9974 57.7074 72.8068 57.9101 72.5988L58.9065 71.0968L61.3938 69.0769L64.3718 68.0078L66.2169 67.9301H66.2944C66.5379 67.8713 66.7771 67.7959 67.0103 67.7044L67.9255 67.882H67.9661C68.1353 67.8999 68.3053 67.9085 68.4754 67.9079C68.8481 67.9065 69.2194 67.8631 69.5825 67.7784L69.6415 67.8006C70.2596 68.0407 70.9161 68.166 71.5789 68.1706C72.4804 68.1573 73.3629 67.9088 74.1394 67.4495C74.916 66.9902 75.5597 66.336 76.0072 65.5513C76.6599 64.4925 76.9067 63.232 76.7017 62.0043C76.4967 60.7767 75.8538 59.6655 74.8927 58.8775ZM73.1177 63.857C72.3804 65.1917 71.1923 66.2188 69.767 66.7537L69.0289 66.4762C71.2802 64.529 72.8256 61.8898 73.424 58.97L74.0219 59.4805C74.2569 61.0009 73.9358 62.5552 73.1177 63.857ZM58.5338 70.59C58.4046 70.6492 58.2681 70.7084 58.1242 70.7639L58.4748 69.8131L59.1575 69.7391L58.6666 70.479L58.5338 70.59ZM56.9396 72.7283C56.7498 72.8625 56.5527 72.986 56.3492 73.0983L56.5706 71.8996C56.8252 71.8367 57.0725 71.7739 57.3086 71.7036L56.9396 72.7283ZM55.6296 75.1182C54.3494 76.1923 52.7309 76.7769 51.0614 76.7681C49.392 76.7593 47.7798 76.1577 46.5109 75.0701L46.319 73.9048C47.8135 74.5313 49.419 74.8484 51.0389 74.837H51.1754C52.774 74.8618 54.3614 74.5649 55.8436 73.9639L55.6296 75.1182ZM51.0426 74.3006C49.374 74.3117 47.7235 73.9542 46.2083 73.2536L45.9869 71.9218C47.7326 72.3012 49.5146 72.4873 51.3009 72.4768C52.9491 72.487 54.5939 72.3258 56.2089 71.9958L55.9654 73.3128C54.418 74.0046 52.7363 74.3421 51.0426 74.3006ZM44.865 71.6222C45.1086 71.6999 45.3632 71.7701 45.6252 71.833L45.8282 73.0502C45.6176 72.9291 45.4143 72.7957 45.2193 72.6506L44.865 71.6222ZM43.5255 70.3939L43.0236 69.5986L43.7321 69.6873L44.0679 70.6603C43.9019 70.5937 43.7395 70.5234 43.5882 70.4494L43.5255 70.3939ZM29.0375 63.4537C28.2359 62.1227 27.9471 60.5439 28.2256 59.0143L28.8493 58.5001C29.0997 59.9848 29.6147 61.4121 30.3697 62.7138C31.0763 63.9943 31.9961 65.1441 33.0894 66.1136L32.3108 66.3874C30.9085 65.8274 29.7491 64.7882 29.0375 63.4537ZM30.6428 47.4868C30.6428 47.3277 30.6797 47.1612 30.7055 46.991L31.3292 47.7309C31.2332 47.9381 31.1409 48.1453 31.0524 48.3488L30.6538 47.546L30.6428 47.4868ZM29.6316 45.0192C29.6085 44.7857 29.5987 44.551 29.6021 44.3163L30.4951 45.0821C30.4213 45.3263 30.3512 45.5704 30.2922 45.822L29.6316 45.0192ZM29.1445 37.9273C29.9483 36.4633 31.2807 35.3633 32.868 34.8531L33.9234 35.2489C31.3554 37.285 29.6433 40.2133 29.1261 43.4543L28.2736 42.7145C27.9374 41.0659 28.2494 39.3508 29.1445 37.9273ZM31.2295 39.1482C32.0537 37.6958 33.1878 36.4439 34.5508 35.482L35.7685 35.937C33.4762 38.4902 31.7192 41.4795 30.6022 44.727L29.6206 43.8835C29.797 42.2008 30.3468 40.5791 31.2295 39.1371V39.1482ZM36.5619 35.1231C36.3811 35.2933 36.1929 35.4931 36.0121 35.6669L34.905 35.2526C35.1129 35.1312 35.3273 35.0213 35.5471 34.9233L36.5619 35.1231ZM38.241 34.5793L39.1783 34.5423L38.7577 35.0972L37.7871 34.9123C37.9384 34.7939 38.0897 34.6829 38.2373 34.583L38.241 34.5793ZM64.5563 34.8309C64.7076 34.9344 64.8589 35.0528 65.0102 35.1786L64.0065 35.3525C63.8625 35.1527 63.7223 34.9566 63.5821 34.768L64.5452 34.8272L64.5563 34.8309ZM67.2834 35.2267C67.5067 35.3377 67.7235 35.4612 67.9329 35.5967L66.7852 36.0036C66.6007 35.8038 66.4162 35.6115 66.2317 35.4302L67.2834 35.2267ZM73.6491 38.3491C74.528 39.7986 74.8087 41.5344 74.4315 43.188L73.5458 43.9279C73.0981 40.6683 71.4435 37.6969 68.9108 35.6041L70.0179 35.2341C71.5762 35.7713 72.8737 36.8803 73.6491 38.338V38.3491ZM72.3022 46.2659C72.2505 46.0292 72.1878 45.785 72.1214 45.5261L73.0402 44.7862C73.0377 45.0175 73.0217 45.2485 72.9923 45.478L72.3022 46.2659ZM71.911 47.8641L71.8815 48.0306L71.4792 48.7964C71.3981 48.5966 71.3132 48.3895 71.2209 48.1786L71.8667 47.4387C71.884 47.5817 71.8987 47.7235 71.911 47.8641ZM61.3015 67.3086C61.4085 67.094 61.5155 66.8757 61.6262 66.6575L62.8108 66.8831L62.523 67.2531L61.3015 67.3086ZM59.615 68.9474C59.3383 68.9844 59.0504 69.0177 58.7589 69.0473L59.1279 68.0411L60.235 68.1262L59.7147 68.9142L59.615 68.9474ZM45.5256 69.125L45.3153 67.8672C45.317 67.8413 45.317 67.8154 45.3153 67.7895C49.0535 67.6748 53.2678 67.7155 56.9876 67.9079C56.9876 67.9301 56.9876 67.9523 56.9876 67.9745L56.7551 69.2212C53.0129 69.4459 49.2597 69.4137 45.5219 69.125H45.5256ZM56.5964 69.9648L56.3455 71.3114C52.8918 72.025 49.3268 71.9998 45.8836 71.2374L45.6585 69.8723C47.6032 70.024 49.762 70.1017 51.8913 70.1017C53.5077 70.1128 55.1092 70.0536 56.5853 69.9648H56.5964ZM42.5144 68.781L41.9866 67.9486C42.3557 67.9227 42.7247 67.9005 43.1196 67.882L43.4886 68.9179C43.1602 68.8735 42.8391 68.8328 42.5328 68.7847L42.5144 68.781ZM39.6802 67.0422L39.385 66.6464L40.5437 66.4466H40.6028C40.7172 66.6797 40.8242 66.909 40.9312 67.1347L39.6802 67.0422ZM37.669 36.6399C35.6236 39.6466 33.7746 42.7829 32.1336 46.0292L31.1262 45.1672C32.2376 41.8309 34.0354 38.7657 36.4033 36.1701L37.669 36.6399ZM38.3739 36.9063L39.5917 37.3613C37.8388 40.639 35.7132 44.2497 33.6872 47.3499L32.7056 46.5101C34.3712 43.1835 36.2613 39.9748 38.3628 36.9063H38.3739ZM41.0936 34.4498C40.9349 34.7717 40.7689 35.1046 40.5954 35.4413L39.5658 35.2415C39.7651 34.9788 39.957 34.7273 40.1489 34.5016L41.0936 34.4498ZM60.4306 34.1021L59.6741 34.1502C59.6556 34.0947 59.6372 34.0392 59.6224 33.9874L59.2719 32.9663L59.7553 33.0366L60.4306 34.1021ZM62.6448 34.6977C62.833 34.9455 63.0138 35.2082 63.2241 35.482L62.1576 35.6669C61.9879 35.297 61.8255 34.9751 61.6668 34.6385L62.6448 34.6977ZM69.8814 46.9467L68.8702 47.7827C66.9144 44.6271 64.8442 40.9609 63.1429 37.6351L64.3829 37.1874C66.4285 40.312 68.2594 43.5726 69.8629 46.9467H69.8814ZM65.1099 36.9359L66.4015 36.4771C68.7215 39.1296 70.4591 42.2417 71.5014 45.6111L70.4349 46.4657C68.8622 43.1761 67.0772 39.9927 65.0914 36.9359H65.1099ZM71.0143 49.5844V49.6732L70.5936 50.5056C70.398 50.2133 70.2024 49.9136 69.9995 49.6029L70.6858 48.8112C70.8015 49.0726 70.9085 49.3303 71.0069 49.5844H71.0143ZM71.5125 55.9734L70.6157 55.2002C70.6785 55.0744 70.7412 54.9412 70.8002 54.8302L71.5715 55.7551C71.542 55.818 71.542 55.8957 71.5051 55.9734H71.5125ZM72.1509 56.4358L72.3871 56.7207L72.1324 56.5024C72.1324 56.4802 72.1361 56.458 72.1435 56.4247L72.1509 56.4358ZM64.977 64.9446C66.874 62.1177 68.5992 59.1787 70.1434 56.1436L71.173 57.0536C70.0898 60.1411 68.4206 62.989 66.2575 65.4403L64.977 64.9446ZM59.3973 67.2161C59.5043 66.8868 59.615 66.5576 59.7331 66.2246C60.1944 66.3171 60.6446 66.417 61.0912 66.5243C60.9546 66.7944 60.8254 67.0607 60.6963 67.3234L59.3973 67.2161ZM57.4931 67.094C57.5817 66.6871 57.6777 66.2801 57.781 65.8806C58.2902 65.9583 58.7958 66.0434 59.2977 66.1395C59.1759 66.4873 59.0578 66.8387 58.9287 67.1865C58.4637 67.1532 57.9803 67.1273 57.4858 67.1014L57.4931 67.094ZM43.3188 67.0274C43.2118 66.6575 43.0974 66.3134 42.9756 65.9546C43.4923 65.8695 44.0126 65.7955 44.5366 65.7289C44.6326 66.1395 44.7211 66.5502 44.8023 66.9645L43.3188 67.0274ZM41.5327 67.1384C41.4073 66.8646 41.2781 66.5909 41.1416 66.3097C41.5992 66.2098 42.0678 66.1173 42.5402 66.036C42.6546 66.3763 42.7653 66.7167 42.8686 67.0533C42.3889 67.0866 41.9571 67.1125 41.5254 67.1532L41.5327 67.1384ZM40.3297 64.6598C40.8427 64.4896 41.3556 64.3342 41.8759 64.1936C41.9977 64.5118 42.1158 64.8299 42.245 65.1444C41.7357 65.2369 41.2338 65.3405 40.7393 65.4477L40.3297 64.6598ZM32.7241 55.3149L33.8644 54.3715L33.916 54.3271C35.7612 57.3311 37.7096 60.7642 39.3333 63.9236L39.2595 63.9458L37.8535 64.4452C35.9531 61.5134 34.2399 58.4638 32.7241 55.3149ZM37.2225 64.6524L35.8792 65.1259C33.759 62.6252 32.1435 59.7354 31.1225 56.6171L32.2074 55.7218C33.6961 58.7983 35.3709 61.7807 37.2225 64.6524ZM56.578 32.7L56.8104 34.091C56.8104 34.1502 56.8326 34.2057 56.8437 34.2648C53.2936 34.3684 49.3413 34.3277 45.8061 34.1539L45.8393 33.9874L46.0976 32.6075C49.5944 32.4157 53.0998 32.4466 56.5927 32.7H56.578ZM46.2157 31.9601L46.4777 30.5506C49.7039 29.9387 53.0182 29.9639 56.2348 30.6246L56.4709 32.0452C53.0623 31.8091 49.6423 31.7831 46.2305 31.9675L46.2157 31.9601ZM60.7111 34.6163C60.8919 35.0121 61.0801 35.4191 61.2867 35.8334C60.9435 35.9074 60.6003 35.974 60.2498 36.0406C60.0911 35.5819 59.9435 35.1268 59.8069 34.6718L60.7111 34.6163ZM68.2207 48.3303C67.9071 48.604 67.5971 48.8815 67.2945 49.1663C64.7796 45.8128 62.7012 42.1517 61.1096 38.2714C61.5192 38.1567 61.9252 38.0309 62.3311 37.9014C64.0692 41.3308 66.1911 45.0821 68.2207 48.3303ZM70.1397 51.2898C69.9773 51.5229 69.8112 51.7597 69.6452 52.0038C69.3389 51.6709 69.0363 51.3231 68.7374 50.9717C68.9662 50.7127 69.195 50.4612 69.4275 50.2133C69.66 50.5869 69.8961 50.9458 70.1323 51.2935L70.1397 51.2898ZM62.4123 63.9975C61.8883 63.8089 61.3605 63.6276 60.8291 63.4685C62.4285 59.8294 64.4566 56.3953 66.8701 53.2395C67.2637 53.6242 67.6684 53.9942 68.0842 54.3493C66.1394 57.3829 64.1061 60.8345 62.4049 64.0012L62.4123 63.9975ZM44.6805 34.6274C44.5698 35.1527 44.448 35.6743 44.3115 36.1923C43.9868 36.1405 43.6657 36.0887 43.3484 36.0295C43.5255 35.5449 43.6879 35.0602 43.8428 34.5756L44.6805 34.6274ZM66.0287 50.9051C66.2907 50.6276 66.5527 50.3539 66.8221 50.0875C67.1543 50.5166 67.4913 50.9359 67.8333 51.3453C67.6156 51.6006 67.4052 51.8633 67.1912 52.1259C66.7852 51.7227 66.3978 51.3194 66.0066 50.9014L66.0287 50.9051ZM65.7999 50.6461C62.7655 47.2035 60.466 43.1748 59.0431 38.8078C59.4342 38.7227 59.8217 38.6339 60.2092 38.534C61.8484 42.5566 64.0005 46.3493 66.6118 49.8174C66.3276 50.0801 66.0619 50.3613 65.7926 50.6424L65.7999 50.6461ZM65.1025 51.4082C62.134 54.7351 59.8414 58.6106 58.353 62.8174C53.6379 61.7526 48.7524 61.6921 44.0126 62.6398C42.5807 58.367 40.3236 54.4185 37.3701 51.0198C40.5819 47.4978 43.0342 43.3493 44.5735 38.8337C49.0008 39.7796 53.5711 39.8374 58.0208 39.0039C59.4949 43.5848 61.9041 47.8079 65.0951 51.4045L65.1025 51.4082ZM58.936 38.4601C58.7589 37.9014 58.5965 37.3502 58.4489 36.7768C58.7983 36.7299 59.1452 36.6781 59.4896 36.6214C59.6741 37.143 59.8586 37.6684 60.08 38.19C59.6925 38.2973 59.3088 38.3861 58.9287 38.4711L58.936 38.4601ZM57.9212 38.6598C53.5456 39.4742 49.0529 39.4177 44.699 38.4933C44.886 37.9236 45.0594 37.3465 45.2193 36.762C49.2673 37.31 53.3672 37.3572 57.4267 36.9026C57.5706 37.5056 57.733 38.0901 57.9138 38.6672L57.9212 38.6598ZM45.3411 36.344C45.485 35.7964 45.6105 35.2341 45.7286 34.6866C49.3266 34.8679 53.3637 34.9086 56.9765 34.8013C57.0835 35.3636 57.2016 35.9111 57.3455 36.4808C53.3534 36.9246 49.3221 36.8786 45.3411 36.344ZM44.2119 36.6251C44.0569 37.18 43.8871 37.735 43.7063 38.2751C43.3373 38.1863 42.9683 38.0938 42.5992 37.9902C42.8133 37.4797 43.0162 36.9655 43.2044 36.4549L44.2119 36.6251ZM43.5919 38.6006C42.1058 42.9103 39.7618 46.8724 36.7022 50.2466C36.4439 49.9617 36.1819 49.6843 35.9125 49.4105C38.5601 46.0062 40.7626 42.2765 42.4664 38.3121C42.8206 38.412 43.197 38.5081 43.5735 38.6006H43.5919ZM36.4549 50.5056C36.0712 50.9199 35.6763 51.3256 35.2704 51.7227C35.0637 51.4563 34.8534 51.1937 34.6467 50.9384C34.9936 50.5314 35.3392 50.1146 35.6837 49.688C35.9457 49.9506 36.2003 50.2244 36.4549 50.5056ZM37.1413 51.275C40.0396 54.6248 42.2561 58.5107 43.6657 62.7138C43.0753 62.8396 42.4885 62.9802 41.9055 63.1356C40.3366 59.3765 38.318 55.8224 35.894 52.5514C36.3221 52.1296 36.7379 51.7029 37.1413 51.2713V51.275ZM43.9868 63.6868C44.0975 64.0691 44.2045 64.4501 44.3078 64.8299C43.7506 64.9039 43.2007 64.9853 42.662 65.0778C42.5439 64.7485 42.4221 64.4156 42.2929 64.0826C42.8539 63.9347 43.4185 63.8015 43.9868 63.6831V63.6868ZM44.3226 63.6239C48.8495 62.7385 53.5098 62.7964 58.0135 63.7941C57.8917 64.164 57.7773 64.5525 57.6666 64.9372C53.3528 64.3221 48.9776 64.2723 44.651 64.7892C44.5477 64.3971 44.437 64.0086 44.3226 63.6202V63.6239ZM58.3456 63.8681C58.8954 63.9975 59.4527 64.1418 59.9915 64.3009C59.8586 64.6228 59.7295 64.9446 59.6224 65.2665C59.0947 65.1629 58.5633 65.0704 58.0208 64.9853C58.1168 64.608 58.2275 64.2343 58.3493 63.8644L58.3456 63.8681ZM58.6777 62.8951C60.147 58.756 62.4027 54.9418 65.3202 51.6635C65.7151 52.1 66.121 52.5218 66.538 52.9361C64.0789 56.1473 62.0147 59.6439 60.39 63.3501C59.8291 63.18 59.2571 63.0246 58.6814 62.8914L58.6777 62.8951ZM67.4827 52.433C67.6894 52.1777 67.8923 51.9299 68.099 51.6931C68.4237 52.063 68.7558 52.433 69.088 52.8029L68.6267 53.4984C68.254 53.1507 67.8702 52.7955 67.4827 52.433ZM69.4533 53.2247L70.3316 54.279C70.2541 54.4418 70.1729 54.6083 70.0954 54.7747L69.0806 53.9054L69.0326 53.861C69.1876 53.6464 69.3278 53.4318 69.4681 53.2247H69.4533ZM68.4311 50.635C68.1064 50.2651 67.789 49.8507 67.479 49.4401C67.7742 49.1626 68.0768 48.8926 68.3831 48.6262C68.6439 49.0406 68.9022 49.4438 69.1581 49.8359C68.9293 50.0986 68.6857 50.3613 68.4459 50.635H68.4311ZM60.9583 37.9532C60.759 37.4575 60.5708 36.9618 60.3937 36.4734C60.7627 36.4031 61.1317 36.3292 61.5008 36.2515C61.7148 36.6929 61.9362 37.1406 62.165 37.5944C61.7702 37.7165 61.3716 37.8385 60.9731 37.9532H60.9583ZM59.3235 36.2108L58.3271 36.3587C58.198 35.8297 58.0836 35.3007 57.9803 34.7643L58.8549 34.731C59.0135 35.2193 59.1722 35.7076 59.3383 36.2108H59.3235ZM57.888 34.2278C57.888 34.1243 57.8437 34.0207 57.829 33.9171L57.6408 32.7851L58.2312 32.8442L58.6962 34.1946L57.888 34.2278ZM44.8392 33.795C44.8208 33.8949 44.7986 33.9948 44.7765 34.0947L44.0015 34.0503L44.485 32.7222L45.0459 32.6778L44.8392 33.795ZM43.0937 33.8283V33.8505C43.0937 33.8949 43.0642 33.9393 43.0531 33.98L42.3151 33.9208L43.0015 32.8812L43.4554 32.8294L43.0937 33.8283ZM42.876 34.509C42.7321 34.9529 42.5771 35.4006 42.4147 35.8482C42.0789 35.7779 41.7468 35.7039 41.4146 35.6263C41.6176 35.2193 41.8169 34.8235 42.0051 34.435L42.876 34.509ZM41.2117 36.0295C41.5586 36.1109 41.9091 36.1923 42.2634 36.2663C42.0826 36.7509 41.8944 37.2318 41.684 37.7165C41.2966 37.5981 40.9128 37.4686 40.5327 37.3465L41.2117 36.0295ZM40.3666 37.6425C40.7578 37.7793 41.1526 37.9125 41.5475 38.0346C39.897 41.8637 37.7705 45.4684 35.2187 48.7631C34.9235 48.4782 34.6209 48.2008 34.3146 47.927C36.3996 44.7196 38.5768 41.0238 40.374 37.6462L40.3666 37.6425ZM34.1338 48.2119C34.4327 48.4782 34.7279 48.752 35.0157 49.0295C34.6947 49.4327 34.3699 49.8285 34.0378 50.217C33.8053 49.9432 33.5691 49.6806 33.333 49.4179C33.5987 49.0258 33.8644 48.6262 34.1338 48.2119ZM33.0783 49.7952C33.3034 50.0431 33.5249 50.2947 33.7463 50.5351C33.4412 50.8854 33.1312 51.2294 32.8163 51.5673C32.654 51.3194 32.4953 51.0864 32.3403 50.8533C32.5838 50.5056 32.8311 50.1615 33.0783 49.7952ZM34.3515 51.275C34.5544 51.5229 34.75 51.7745 34.9456 52.0149C34.5766 52.3849 34.178 52.7289 33.7758 53.073L33.3367 52.3775C33.6762 52.0223 34.0157 51.6524 34.3515 51.2676V51.275ZM33.3662 53.4429L33.2149 53.5724L32.2776 54.3493L32.0561 53.8351L32.9639 52.7844L33.3662 53.4429ZM34.3256 53.9683C34.7537 53.5983 35.167 53.2284 35.573 52.8584C37.9516 56.0738 39.9341 59.5655 41.4774 63.2577C40.9312 63.4106 40.3888 63.577 39.85 63.7571C38.1967 60.5237 36.2151 57.0166 34.3256 53.9609V53.9683ZM44.8724 65.703C49.0438 65.2155 53.2602 65.264 57.4193 65.8473C57.316 66.2592 57.2201 66.6735 57.1315 67.0903C54.7476 66.9608 52.1792 66.8942 49.6476 66.8942C48.1088 66.8942 46.5884 66.9201 45.1307 66.9682C45.0606 66.5354 44.9721 66.1173 44.8724 65.6956V65.703ZM60.0505 65.359C60.1686 65.0482 60.2904 64.7411 60.4195 64.4304C60.9251 64.5821 61.4233 64.7485 61.9215 64.9224L61.5192 65.6734C61.0358 65.5587 60.5487 65.4514 60.0505 65.3516V65.359ZM62.4307 65.1037L62.4971 65.1259L63.7518 65.5994C63.6411 65.7548 63.5304 65.9139 63.4197 66.0656L62.0654 65.8029C62.1835 65.5661 62.3163 65.3294 62.4307 65.0963V65.1037ZM62.9178 64.1862C64.5895 61.0787 66.5823 57.701 68.4828 54.7378L69.6415 55.7329C68.0711 58.8407 66.306 61.8457 64.357 64.73L62.9178 64.1862ZM70.767 53.343L70.0068 52.4293L70.4054 51.8485L70.9442 52.9324C70.89 53.0656 70.831 53.2 70.767 53.3356V53.343ZM71.3169 53.6797L71.7154 54.4825L71.2209 53.8906L71.3169 53.6797ZM69.7522 49.2107C69.516 48.8408 69.2762 48.4708 69.0363 48.1009L70.0031 47.3018C70.1729 47.6717 70.3353 48.0417 70.4866 48.382L69.7522 49.2107ZM62.9843 37.3243H62.9658C62.7518 36.9026 62.5414 36.4882 62.3385 36.0776L63.4861 35.8778C63.7186 36.2034 63.9511 36.54 64.1873 36.8952L62.9843 37.3243ZM59.0283 32.3041L58.7368 31.4495L59.2977 32.3374L59.0283 32.3041ZM57.5522 32.1487L57.3345 30.8983L57.6002 30.9834L58.0098 32.1746C57.8548 32.1672 57.6961 32.1524 57.5374 32.1413L57.5522 32.1487ZM57.2164 30.114L57.1278 29.5924L57.3197 30.1436L57.2164 30.114ZM46.6364 29.7885L46.8578 28.5972C49.7744 27.458 53.0149 27.4778 55.9174 28.6527L56.1167 29.8588C52.9876 29.2529 49.7741 29.2291 46.6364 29.7885ZM45.4001 30.8391L45.175 32.0452L44.7359 32.0785L45.164 30.9094L45.4001 30.8391ZM45.4739 30.0548L45.6179 29.6849L45.5478 30.0548H45.4739ZM43.4738 32.2005L43.9868 31.4199L43.7137 32.1598L43.4738 32.2005ZM40.3777 35.8593C40.1747 36.2552 39.9607 36.6621 39.743 37.069L38.5621 36.6251C38.8019 36.2848 39.0344 35.9592 39.2669 35.6447L40.3777 35.8593ZM33.5064 47.6644C33.2555 48.0343 33.0119 48.4042 32.7684 48.7742L32.0561 47.9159C32.2148 47.5682 32.3809 47.213 32.5617 46.8468L33.5064 47.6644ZM32.51 49.1441C32.3034 49.4512 32.1004 49.7509 31.8975 50.0431L31.4841 49.2033C31.5949 48.9296 31.7179 48.6447 31.8532 48.3488L32.51 49.1441ZM32.0561 51.4008C32.1853 51.5932 32.3145 51.7708 32.4252 51.9853L32.3735 52.0408L31.6354 52.8917C31.5764 52.7548 31.521 52.618 31.4694 52.4848L32.0561 51.4008ZM31.1889 53.4281L30.7055 53.9868L31.1077 53.2247L31.1889 53.4281ZM31.7794 54.7599L30.8531 55.522C30.8347 55.4444 30.8199 55.3704 30.8051 55.2964L31.6022 54.3715C31.6502 54.501 31.7129 54.6305 31.772 54.7599H31.7794ZM30.211 56.0548L29.9859 56.2434L30.1962 55.9993C30.2029 56.0173 30.2078 56.0358 30.211 56.0548ZM30.521 57.1313C31.5447 60.1501 33.1119 62.955 35.1449 65.407L34.0083 65.8066C31.5885 63.8251 30.015 60.9918 29.6095 57.886L30.521 57.1313ZM36.6542 65.962L37.8166 65.5476L38.086 65.9435L36.8609 66.158L36.6542 65.962ZM35.9715 66.3134L35.3774 66.4133L35.9051 66.2283L35.9715 66.3134ZM38.4403 65.3035L39.6027 64.8928C39.6692 64.8669 39.7393 64.8484 39.8057 64.8262C39.9312 65.0704 40.0529 65.3146 40.1747 65.5661L38.7798 65.8103L38.4403 65.3035ZM43.5661 67.845L44.9536 67.7895L44.9758 67.9116L45.1713 69.0843C44.7507 69.0473 44.3447 69.0029 43.9499 68.9585L43.5661 67.845ZM57.2902 68.0263C57.2902 67.9893 57.3086 67.9523 57.316 67.9153C57.7736 67.9375 58.2238 67.9671 58.6666 67.9967L58.257 69.0954C57.888 69.1324 57.4747 69.1657 57.0651 69.1953L57.2902 68.0263ZM63.5009 67.0089L64.3275 67.168L63.3496 67.2087C63.4013 67.1532 63.4492 67.0866 63.5009 67.02V67.0089ZM64.3681 65.8103L65.4752 66.232L65.2796 66.4096L64.0913 66.1802L64.3681 65.8103ZM66.2501 66.5169L66.6708 66.676L66.1837 66.5798L66.2501 66.5169ZM71.7855 57.5568L72.6675 58.2966C72.1866 61.3841 70.5552 64.1738 68.1027 66.1026L66.9956 65.6882C69.0747 63.2969 70.7005 60.545 71.7929 57.5679L71.7855 57.5568ZM71.2246 51.6376L70.9146 51.0198L71.1545 50.561L71.2763 51.3305L71.2246 51.6376ZM71.018 47.7309C70.8802 47.4227 70.7363 47.1082 70.5862 46.7876L71.5715 45.9737C71.6527 46.277 71.7154 46.573 71.7708 46.8616L71.018 47.7309ZM71.5051 39.5181C72.3662 40.9862 72.8859 42.6301 73.0255 44.3274L72.0106 45.1635C70.963 41.8857 69.2688 38.8525 67.0288 36.2441L68.2835 35.8001C69.6179 36.788 70.7201 38.0571 71.5125 39.5181H71.5051ZM66.1247 36.1886L64.8995 36.6399C64.6929 36.3329 64.4899 36.0295 64.2869 35.7372L65.4457 35.5375C65.6745 35.7446 65.9033 35.9666 66.1321 36.2034L66.1247 36.1886ZM61.9473 34.1169L61.3753 34.0836L60.9768 33.4547L61.3163 33.5841L61.9473 34.1169ZM55.6185 26.8289L55.755 27.6613C52.937 26.6689 49.869 26.6493 47.0386 27.6058L47.1899 26.7845C48.3674 25.8271 49.8481 25.3244 51.3636 25.3676H51.4374C52.9604 25.3387 54.4435 25.8571 55.6185 26.8289ZM41.7431 33.2956L41.3741 33.8468L41.3519 33.8875L40.8094 33.9097L41.4257 33.4066L41.7431 33.2956ZM38.4698 35.4672C38.2669 35.7483 38.0602 36.0406 37.8535 36.3365L36.6653 35.8926C36.8904 35.6632 37.1192 35.4487 37.348 35.2526L38.4698 35.4672ZM31.0265 45.515L31.9823 46.3362C31.8236 46.6544 31.676 46.9689 31.5321 47.2759L30.7941 46.4028C30.8605 46.1217 30.938 45.8294 31.0265 45.5261V45.515ZM31.3218 50.0801L31.5543 50.5499L31.2369 51.1604L31.1852 50.8459L31.3218 50.0801ZM37.7871 66.9127L38.6986 66.7833L38.8573 67.0089L37.813 66.9423L37.7871 66.9127ZM40.6212 67.9227L41.3593 67.9708L41.6656 68.4517L40.8906 68.1558L40.6212 67.9227ZM44.234 69.7428L45.3153 69.8464L45.5293 71.1486C45.2119 71.0636 44.9093 70.9711 44.6215 70.8675L44.234 69.7428ZM56.7182 71.2226L56.9544 69.9426L58.0061 69.8612L57.6039 70.9711C57.3049 71.0562 57.0097 71.1449 56.6997 71.2226H56.7182ZM60.5634 68.6071L60.8624 68.1595L61.5709 68.1299L61.3126 68.337L60.5634 68.6071ZM72.4572 46.954C72.4572 46.906 72.4387 46.8542 72.4277 46.8024L72.697 46.4879L72.4572 46.954ZM73.8115 44.5309L73.6012 44.7788C73.6012 44.6308 73.6012 44.4791 73.6012 44.3274L74.2322 43.8058C74.1127 44.0629 73.9655 44.306 73.7931 44.5309H73.8115ZM75.8079 37.1578C76.3275 38.0352 76.5314 39.0645 76.3857 40.0743C76.24 41.0841 75.7535 42.0133 75.0072 42.7071C75.168 41.1295 74.8407 39.5405 74.0695 38.1559C73.2984 36.7714 72.1209 35.6582 70.6969 34.9677C71.6677 34.7018 72.6998 34.7735 73.6247 35.1713C74.5496 35.569 75.3127 36.2693 75.7895 37.1578H75.8079ZM68.4274 35.0195C68.7488 34.993 69.0722 35.0055 69.3906 35.0565L68.5898 35.3377C68.4495 35.2415 68.3093 35.149 68.1654 35.0639L68.4274 35.0195ZM66.3978 34.927L65.8405 35.0232L65.6782 34.8827L66.3978 34.927ZM51.4448 23.0073C52.2383 23.0029 53.0165 23.2267 53.6869 23.6523C54.3574 24.0779 54.892 24.6873 55.2273 25.4083C54.0558 24.7817 52.7503 24.449 51.4225 24.4387C50.0948 24.4284 48.7843 24.7408 47.6032 25.3491C47.9531 24.6313 48.501 24.0292 49.1819 23.6141C49.8628 23.1991 50.6481 22.9885 51.4448 23.0073ZM37.1266 34.6163L36.9753 34.7421L36.4697 34.6422L37.1266 34.6163ZM34.0267 34.6792C34.1619 34.6717 34.2975 34.6717 34.4327 34.6792L34.6762 34.7273C34.5397 34.805 34.4031 34.8901 34.2629 34.9825L33.5027 34.6977C33.6768 34.6805 33.8519 34.6743 34.0267 34.6792ZM27.0595 36.6991C27.4484 36.0169 28.0079 35.448 28.6828 35.0484C29.3577 34.6488 30.1248 34.4323 30.9085 34.4202C31.3367 34.4226 31.7625 34.4836 32.1742 34.6015C30.746 35.2649 29.554 36.3499 28.758 37.7113C27.9619 39.0726 27.5998 40.6453 27.7201 42.2187C27.0037 41.5091 26.5484 40.577 26.4285 39.5745C26.3085 38.5721 26.531 37.5585 27.0595 36.6991ZM28.4766 43.3397L29.0818 43.8576C29.0818 44.0167 29.0633 44.1683 29.0633 44.3237L28.8973 44.124C28.7277 43.8795 28.5865 43.6163 28.4766 43.3397ZM29.8826 45.9922L30.1741 46.3399L30.1409 46.5101L29.8826 45.9922ZM26.982 64.5636C26.5803 63.8757 26.3845 63.0866 26.4179 62.2903C26.4513 61.4939 26.7124 60.724 27.1702 60.0724C27.2065 61.3979 27.5608 62.6951 28.2032 63.8543C28.8455 65.0134 29.757 66.0003 30.8605 66.7315C30.0755 66.7757 29.2942 66.5955 28.6075 66.2116C27.9208 65.8278 27.3571 65.2563 26.982 64.5636ZM44.1491 71.3706L44.3373 71.4409L44.5145 71.9477L44.1491 71.3706ZM45.6252 73.7864L45.5219 73.483C45.6621 73.5681 45.8061 73.6458 45.9574 73.7198L46.0976 74.5744C45.9088 74.3383 45.7455 74.0828 45.6105 73.8123L45.6252 73.7864ZM51.0868 79.2283H51.0426C50.0309 79.2377 49.0462 78.9018 48.2502 78.2759C47.4541 77.65 46.8941 76.7713 46.6622 75.7841C47.9279 76.7277 49.4691 77.2257 51.0462 77.201H51.1311C52.6963 77.2423 54.2307 76.7607 55.493 75.8322C55.2529 76.8194 54.6838 77.6948 53.8799 78.3137C53.076 78.9326 52.0854 79.2579 51.0721 79.2357L51.0868 79.2283ZM56.5337 73.8715C56.411 74.1338 56.26 74.3819 56.0835 74.6114L56.2385 73.7864C56.3787 73.7161 56.5152 73.6458 56.6444 73.5681L56.5337 73.8715ZM57.6998 71.9588L57.8548 71.5408L58.0135 71.4853L57.6998 71.9588ZM75.1326 65.0186C74.7459 65.7011 74.1743 66.26 73.4841 66.6305C72.7938 67.001 72.013 67.1681 71.232 67.1125C72.3463 66.4086 73.2758 65.4468 73.9423 64.308C74.6089 63.1692 74.993 61.8867 75.0625 60.5681C75.4942 61.2288 75.7287 61.9993 75.7385 62.789C75.7483 63.5787 75.533 64.3548 75.1179 65.026L75.1326 65.0186Z" fill="url(#paint3_linear_599_12333)"/>
<ellipse cx="51.065" cy="51.0647" rx="49.9351" ry="49.9352" fill="white" fill-opacity="0.08" stroke="white" stroke-opacity="0.2" stroke-width="0.5"/>
<ellipse cx="50.9351" cy="50.9352" rx="49.9351" ry="49.9352" fill="white" fill-opacity="0.08" stroke="white" stroke-opacity="0.2" stroke-width="0.5"/>
<path fill-rule="evenodd" clip-rule="evenodd" d="M0.999954 50.3522C0.999954 44.4435 0.999954 29.7126 18.4772 13.4837C15.9805 50.3522 35.1462 77.151 62.1704 77.151C77.1405 77.151 90.2943 70.185 100.87 61.1921C95.909 83.8831 75.6973 100.87 51.5179 100.87C23.6176 100.87 0.999954 78.2525 0.999954 50.3522Z" fill="black" fill-opacity="0.1"/>
<path fill-rule="evenodd" clip-rule="evenodd" d="M96.3311 51.465C96.3311 56.8365 96.3311 70.2282 80.4427 84.9818C82.7125 51.465 65.2891 27.1024 40.7216 27.1024C27.1124 27.1024 15.1544 33.4352 5.54004 41.6105C10.0501 20.9823 28.4245 5.53943 50.4057 5.53943C75.7696 5.53943 96.3311 26.101 96.3311 51.465Z" fill="white" fill-opacity="0.1"/>
<path d="M94.0769 48.3755C94.0769 29.3721 79.3073 8.94406 55.4746 7.80921C50.8437 7.5887 39.5862 10.079 37.3164 21.4279C59.7205 21.4279 82.712 42.1496 82.712 64.5538C91.7911 62.284 94.0769 54.1707 94.0769 48.3755Z" fill="url(#paint4_linear_599_12333)" fill-opacity="0.4"/>
<defs>
<filter id="filter0_i_599_12333" x="16.8887" y="16.8883" width="68.0938" height="68.0935" filterUnits="userSpaceOnUse" color-interpolation-filters="sRGB">
<feFlood flood-opacity="0" result="BackgroundImageFix"/>
<feBlend mode="normal" in="SourceGraphic" in2="BackgroundImageFix" result="shape"/>
<feColorMatrix in="SourceAlpha" type="matrix" values="0 0 0 0 0 0 0 0 0 0 0 0 0 0 0 0 0 0 127 0" result="hardAlpha"/>
<feOffset dy="2"/>
<feComposite in2="hardAlpha" operator="arithmetic" k2="-1" k3="1"/>
<feColorMatrix type="matrix" values="0 0 0 0 1 0 0 0 0 1 0 0 0 0 1 0 0 0 0.6 0"/>
<feBlend mode="normal" in2="shape" result="effect1_innerShadow_599_12333"/>
</filter>
<linearGradient id="paint0_linear_599_12333" x1="13.1064" y1="50.935" x2="81.182" y2="73.6564" gradientUnits="userSpaceOnUse">
<stop stop-color="#5EE6D0"/>
<stop offset="0.515056" stop-color="#BFC6FF"/>
<stop offset="1" stop-color="#FFBA69"/>
</linearGradient>
<linearGradient id="paint1_linear_599_12333" x1="17.9865" y1="50.9231" x2="82.9505" y2="50.9231" gradientUnits="userSpaceOnUse">
<stop stop-color="#151515"/>
<stop offset="1" stop-color="#2C2C2C"/>
</linearGradient>
<linearGradient id="paint2_linear_599_12333" x1="17.9865" y1="50.9231" x2="82.9505" y2="50.9231" gradientUnits="userSpaceOnUse">
<stop stop-color="#7549FA"/>
<stop offset="1" stop-color="#E94CD7"/>
</linearGradient>
<linearGradient id="paint3_linear_599_12333" x1="25.4102" y1="50.7794" x2="72.591" y2="64.8244" gradientUnits="userSpaceOnUse">
<stop stop-color="#5EE6D0"/>
<stop offset="0.515056" stop-color="#BFC6FF"/>
<stop offset="1" stop-color="#FFBA69"/>
</linearGradient>
<linearGradient id="paint4_linear_599_12333" x1="77.834" y1="15.9224" x2="51.1761" y2="48.3754" gradientUnits="userSpaceOnUse">
<stop stop-color="white"/>
<stop offset="1" stop-color="white" stop-opacity="0"/>
</linearGradient>
</defs>
</svg>
