<svg width="101" height="34" viewBox="0 0 101 34" fill="none" xmlns="http://www.w3.org/2000/svg">
<path d="M50.721 5.34958C51.4947 5.75684 52.1245 6.39198 52.5252 7.16901C52.9755 8.07418 53.1953 9.07654 53.1651 10.0871V16.5392H51.005V13.5447H44.9526V16.5392H42.8252V10.0871C42.7968 9.07646 43.0173 8.07434 43.4673 7.16901C43.8688 6.39248 44.4984 5.75753 45.2715 5.34958C46.124 4.94233 47.0569 4.73096 48.0017 4.73096C48.9465 4.73096 49.8794 4.94233 50.732 5.34958H50.721ZM51.005 11.734V9.88832C51.005 8.8137 50.7392 8.00191 50.2077 7.45295C49.6763 6.90399 48.9336 6.62951 47.9799 6.62951C47.0247 6.62951 46.282 6.90399 45.752 7.45295C45.222 8.00191 44.9555 8.8137 44.9526 9.88832V11.734H51.005Z" fill="white"/>
<path d="M67.0805 4.89954V16.5391H65.0034V15.0582C64.2141 16.1547 62.9946 16.7036 61.3448 16.7051C59.9703 16.7051 58.8898 16.2755 58.1035 15.4164C57.3172 14.5573 56.9233 13.3407 56.9219 11.7666V4.89954H59.0842V11.6836C59.0842 12.7146 59.331 13.4929 59.8247 14.0185C60.3183 14.5442 60.9968 14.8077 61.8603 14.8092C62.7908 14.8092 63.5334 14.5296 64.0882 13.9705C64.643 13.4113 64.9204 12.577 64.9204 11.4674V4.89954H67.0805Z" fill="white"/>
<path d="M78.6527 16.5393L76.2741 13.1254C76.1253 13.1388 75.9758 13.1447 75.8264 13.1429H73.2053V16.5349H71.0452V4.89973H75.8329C76.7363 4.88003 77.6337 5.05044 78.467 5.3999C79.1702 5.69402 79.7695 6.19143 80.1882 6.82836C80.5992 7.49176 80.8072 8.26084 80.7866 9.04095C80.8078 9.84199 80.5845 10.6305 80.1467 11.3016C79.6955 11.9515 79.0536 12.4453 78.3098 12.7148L80.9854 16.5393H78.6527ZM77.8708 7.32854C77.383 6.92956 76.668 6.73008 75.7259 6.73008H73.1988V11.378H75.7259C76.6665 11.378 77.3815 11.1756 77.8708 10.7708C78.1166 10.5598 78.3106 10.295 78.4375 9.99684C78.5644 9.69872 78.6208 9.37536 78.6025 9.05187C78.6232 8.72747 78.5679 8.40271 78.4408 8.1035C78.3138 7.80429 78.1186 7.53892 77.8708 7.32854Z" fill="white"/>
<path d="M91.8188 5.34958C92.5915 5.7581 93.221 6.3929 93.623 7.16901C94.0723 8.07454 94.2921 9.07664 94.263 10.0871V16.5392H92.1006V13.5447H86.0591V16.5392H83.9296V10.0871C83.9005 9.07664 84.1202 8.07454 84.5695 7.16901C84.9715 6.3929 85.601 5.7581 86.3737 5.34958C87.2262 4.94233 88.1591 4.73096 89.1039 4.73096C90.0487 4.73096 90.9816 4.94233 91.8341 5.34958H91.8188ZM92.1006 11.734V9.88832C92.1006 8.8137 91.8349 8.00191 91.3034 7.45295C90.7719 6.90399 90.0293 6.62951 89.0755 6.62951C88.1232 6.62951 87.3806 6.90399 86.8476 7.45295C86.3147 8.00191 86.0519 8.8137 86.0591 9.88832V11.734H92.1006Z" fill="white"/>
<path d="M97.62 16.2639C97.4884 16.1357 97.3849 15.9816 97.3161 15.8112C97.2472 15.6409 97.2146 15.4581 97.2203 15.2744C97.213 15.0907 97.2428 14.9074 97.308 14.7355C97.3733 14.5636 97.4726 14.4067 97.6 14.2741C97.7274 14.1415 97.8802 14.036 98.0494 13.9639C98.2185 13.8919 98.4005 13.8547 98.5844 13.8547C98.7682 13.8547 98.9502 13.8919 99.1194 13.9639C99.2885 14.036 99.4414 14.1415 99.5688 14.2741C99.6961 14.4067 99.7954 14.5636 99.8607 14.7355C99.9259 14.9074 99.9557 15.0907 99.9484 15.2744C99.9507 15.5452 99.8727 15.8105 99.7243 16.0369C99.5759 16.2633 99.3637 16.4407 99.1146 16.5465C98.8654 16.6524 98.5905 16.6821 98.3244 16.6318C98.0584 16.5815 97.8133 16.4534 97.62 16.2639Z" fill="white"/>
<path d="M46.4053 22.397C46.7766 22.7683 46.9623 23.3078 46.9623 24.0154V26.8855H46.0559V24.1116C46.0855 23.716 45.9601 23.3244 45.7064 23.0195C45.5748 22.8913 45.4178 22.7921 45.2454 22.7286C45.0731 22.665 44.8893 22.6383 44.706 22.6503C44.4931 22.6398 44.2802 22.6731 44.0807 22.7482C43.8812 22.8234 43.6993 22.9387 43.5462 23.0872C43.3965 23.2536 43.2817 23.4484 43.2085 23.66C43.1354 23.8716 43.1054 24.0957 43.1203 24.3191V26.8855H42.2139V21.8837H43.0875V22.6394C43.2748 22.3768 43.5311 22.1712 43.828 22.0453C44.1626 21.899 44.5243 21.8246 44.8895 21.8269C45.1676 21.8144 45.4453 21.8585 45.7059 21.9565C45.9664 22.0545 46.2044 22.2043 46.4053 22.397Z" fill="white"/>
<path d="M56.3847 24.7014H52.3287C52.3501 24.9078 52.4123 25.1079 52.5117 25.2902C52.6111 25.4724 52.7456 25.6331 52.9075 25.7629C53.2586 26.0364 53.6946 26.1779 54.1394 26.1626C54.4094 26.1734 54.6786 26.125 54.928 26.0209C55.1773 25.9168 55.401 25.7594 55.5831 25.5598L56.0833 26.1451C55.8541 26.4111 55.5642 26.6179 55.238 26.748C54.8798 26.8911 54.4967 26.9617 54.111 26.9555C53.6224 26.9654 53.139 26.8536 52.7044 26.63C52.3069 26.4246 51.9776 26.1082 51.7564 25.7192C51.5419 25.3157 51.4297 24.8657 51.4297 24.4087C51.4297 23.9517 51.5419 23.5017 51.7564 23.0982C51.9637 22.7167 52.274 22.4011 52.652 22.1874C53.0455 21.9677 53.49 21.8555 53.9406 21.8619C54.388 21.8543 54.8292 21.9667 55.2184 22.1874C55.5902 22.4019 55.8932 22.7178 56.0921 23.0982C56.3091 23.5105 56.4181 23.9712 56.4088 24.4371C56.4054 24.5256 56.3974 24.6138 56.3847 24.7014ZM52.842 23.0108C52.5468 23.2809 52.3637 23.6519 52.3287 24.0505H55.5373C55.4985 23.6544 55.315 23.2865 55.0218 23.0174C54.7167 22.7586 54.3297 22.6166 53.9297 22.6166C53.5297 22.6166 53.1427 22.7586 52.8376 23.0174L52.842 23.0108Z" fill="white"/>
<path d="M63.6798 26.5995C63.5364 26.7203 63.3689 26.809 63.1883 26.8595C62.9932 26.92 62.7899 26.9502 62.5855 26.949C62.3732 26.9624 62.1603 26.9333 61.9593 26.8636C61.7583 26.7938 61.5732 26.6848 61.4148 26.5428C61.2697 26.3883 61.158 26.2056 61.0866 26.006C61.0152 25.8065 60.9857 25.5944 60.9998 25.3829V22.6374H60.1501V21.8904H60.9998V20.7983H61.9062V21.8904H63.3434V22.6374H61.9084V25.3567C61.8929 25.5827 61.9657 25.8059 62.1115 25.9792C62.1871 26.0545 62.2777 26.1129 62.3775 26.1506C62.4773 26.1882 62.5839 26.2043 62.6904 26.1977C62.9466 26.2045 63.1971 26.121 63.398 25.9618L63.6798 26.5995Z" fill="white"/>
<path d="M75.4572 21.8903L73.5897 26.8856H72.716L71.2723 23.0938L69.8132 26.8856H68.9396L67.0808 21.8838H67.9392L69.3917 25.8677L70.9031 21.8838H71.6676L73.1485 25.8852L74.6381 21.8838L75.4572 21.8903Z" fill="white"/>
<path d="M80.2406 26.6192C79.8533 26.4067 79.5321 26.0916 79.3123 25.7084C79.0917 25.3049 78.9761 24.8523 78.9761 24.3924C78.9761 23.9325 79.0917 23.48 79.3123 23.0764C79.5309 22.6935 79.8525 22.3795 80.2406 22.17C80.6528 21.9496 81.1143 21.8376 81.5817 21.8446C82.047 21.8373 82.5065 21.9494 82.9162 22.17C83.3027 22.3808 83.6233 22.6946 83.8423 23.0764C84.0616 23.4804 84.1764 23.9328 84.1764 24.3924C84.1764 24.8521 84.0616 25.3044 83.8423 25.7084C83.6222 26.0906 83.302 26.4055 82.9162 26.6192C82.5076 26.8432 82.0476 26.9569 81.5817 26.949C81.1137 26.9566 80.6517 26.843 80.2406 26.6192ZM82.4444 25.9356C82.6986 25.7878 82.9065 25.5723 83.0451 25.3131C83.1873 25.027 83.2613 24.7119 83.2613 24.3924C83.2613 24.073 83.1873 23.7579 83.0451 23.4718C82.9076 23.2129 82.6993 22.9985 82.4444 22.8537C82.179 22.7118 81.8827 22.6376 81.5817 22.6376C81.2807 22.6376 80.9844 22.7118 80.7189 22.8537C80.4633 22.9989 80.2537 23.2131 80.1139 23.4718C79.9689 23.757 79.8933 24.0725 79.8933 24.3924C79.8933 24.7124 79.9689 25.0278 80.1139 25.3131C80.2548 25.572 80.4641 25.7874 80.7189 25.9356C80.9835 26.0803 81.2802 26.1561 81.5817 26.1561C81.8832 26.1561 82.1799 26.0803 82.4444 25.9356Z" fill="white"/>
<path d="M90.2091 22.0804C90.5614 21.9219 90.9457 21.8471 91.3317 21.8619V22.7356C91.2592 22.7272 91.1863 22.7236 91.1133 22.7247C90.9009 22.7131 90.6885 22.746 90.4895 22.8212C90.2906 22.8965 90.1095 23.0124 89.9579 23.1615C89.6576 23.5067 89.506 23.9566 89.5363 24.4131V26.8856H88.6321V21.8838H89.5058V22.7356C89.6649 22.4482 89.9111 22.2188 90.2091 22.0804Z" fill="white"/>
<path d="M97.596 24.5617L96.5585 25.5249V26.8856H95.6521V19.8962H96.5585V24.3869L99.2844 21.8948H100.377L98.2731 23.9632L100.586 26.8856H99.4744L97.596 24.5617Z" fill="white"/>
<path d="M29.2877 21.7811L29.244 21.744C29.1565 21.442 29.02 21.1565 28.8399 20.8987L28.4621 20.4444C28.4421 20.3059 28.4137 20.1688 28.3769 20.0338L27.8592 18.9941L27.5622 17.1507L27.8963 15.3072L28.3638 14.416V14.3898C28.4119 14.2262 28.447 14.0589 28.4686 13.8897L28.829 13.4725C29.0295 13.1976 29.1776 12.8881 29.2658 12.5595L29.3052 12.5289C29.8308 12.0944 30.1868 11.4888 30.3108 10.8183C30.4349 10.1477 30.319 9.45482 29.9836 8.86105C29.6482 8.26729 29.1145 7.81045 28.4762 7.57057C27.8378 7.33068 27.1354 7.32303 26.4919 7.54896H26.4788C26.1341 7.44303 25.7723 7.40375 25.4129 7.4332L24.9127 7.52056C24.7418 7.44116 24.5642 7.37685 24.382 7.32835L23.3816 7.2672L23.3576 7.24972L21.6103 6.57918L20.1556 5.34511L19.5353 4.36441L19.5069 4.32946C19.4089 4.22474 19.3038 4.12694 19.1924 4.03678L19.0045 3.482V3.46016C18.8734 3.16711 18.6948 2.89774 18.4759 2.66293L18.4628 2.59085C18.3419 1.87146 17.9715 1.21761 17.4168 0.743918C16.862 0.270222 16.1582 0.0069075 15.4288 0.000134006C14.6993 -0.00663949 13.9907 0.243561 13.4273 0.706874C12.8638 1.17019 12.4814 1.81705 12.3471 2.53406L12.3274 2.63016C12.1111 2.85439 11.9319 3.11172 11.7967 3.39245L11.5783 3.99091C11.4743 4.0733 11.3751 4.16154 11.2812 4.2552L10.5866 5.3058L9.13416 6.48089L7.44797 7.08372L7.40866 7.10557L7.38681 7.12086L6.43232 7.16017H6.40174C6.22069 7.20442 6.04383 7.26435 5.87317 7.33928L5.38828 7.24536H5.37736C5.02509 7.21011 4.66934 7.24198 4.32895 7.33928C3.68951 7.10004 2.98623 7.09366 2.34256 7.32126C1.69888 7.54887 1.15594 7.99591 0.809021 8.58393C0.4621 9.17195 0.33337 9.86337 0.445425 10.5368C0.55748 11.2103 0.903161 11.8228 1.42179 12.2668L1.43927 12.2799C1.52184 12.619 1.66543 12.9402 1.863 13.2278L2.18844 13.6166C2.20605 13.7953 2.23893 13.9721 2.28673 14.1452L2.72357 15.032V15.0648L3.01625 16.8798L2.68644 18.6949L2.13821 19.7433L2.12073 19.787C2.08319 19.9116 2.054 20.0385 2.03337 20.167L1.63584 20.6235L1.62056 20.6432C1.4407 20.8912 1.30136 21.1662 1.20774 21.4579L1.13785 21.5168C0.571639 21.9806 0.187399 22.6294 0.0529001 23.3489C-0.0815984 24.0683 0.0422884 24.8121 0.402708 25.4491C0.763128 26.0861 1.33692 26.5754 2.02288 26.8306C2.70884 27.0858 3.46289 27.0906 4.15203 26.8441L4.19572 26.8266C4.5122 26.9075 4.83987 26.9355 5.1655 26.9096L5.74431 26.8091C5.88608 26.8675 6.03212 26.915 6.18114 26.9511L7.35187 27.0254L9.12543 27.7068L10.5517 28.9147L10.591 28.9387L11.1283 29.784L11.1458 29.8058C11.2713 29.9397 11.4088 30.0617 11.5564 30.1706L11.7333 30.6817C11.878 31.0035 12.0826 31.2948 12.3362 31.5401V31.5729C12.436 32.2523 12.7787 32.8726 13.3007 33.3188C13.8228 33.7649 14.4889 34.0068 15.1756 33.9995H15.204C15.8853 34.0124 16.5485 33.7799 17.0726 33.3445C17.5967 32.909 17.9467 32.2996 18.0588 31.6275V31.5685C18.3071 31.3297 18.5099 31.0477 18.6572 30.7363L18.8473 30.2187C18.986 30.1176 19.1161 30.0051 19.236 29.8823L19.8258 28.9955L21.2979 27.8029L23.0606 27.1717L24.1526 27.1258H24.1985C24.3426 27.0911 24.4842 27.0466 24.6222 26.9926L25.1639 27.0974H25.188C25.2881 27.108 25.3887 27.1131 25.4894 27.1127C25.71 27.1119 25.9298 27.0863 26.1446 27.0363L26.1796 27.0494C26.5454 27.1911 26.934 27.2651 27.3263 27.2678C27.8599 27.26 28.3822 27.1133 28.8418 26.8421C29.3014 26.5709 29.6824 26.1847 29.9473 25.7214C30.3336 25.0962 30.4797 24.352 30.3583 23.6272C30.237 22.9025 29.8565 22.2464 29.2877 21.7811ZM28.2371 24.721C27.8007 25.5091 27.0974 26.1155 26.2538 26.4313L25.817 26.2675C27.1495 25.1178 28.0642 23.5596 28.4184 21.8357L28.7722 22.1372C28.9113 23.0348 28.7213 23.9525 28.2371 24.721ZM19.6052 28.6963C19.5287 28.7312 19.4479 28.7662 19.3627 28.7989L19.5702 28.2376L19.9743 28.1939L19.6838 28.6308L19.6052 28.6963ZM18.6616 29.9587C18.5493 30.038 18.4326 30.1109 18.3121 30.1772L18.4432 29.4695C18.5939 29.4323 18.7402 29.3952 18.88 29.3537L18.6616 29.9587ZM17.8862 31.3697C17.1285 32.0039 16.1705 32.349 15.1824 32.3439C14.1944 32.3387 13.2401 31.9835 12.4891 31.3413L12.3755 30.6533C13.2601 31.0232 14.2103 31.2104 15.1691 31.2037H15.2499C16.1961 31.2184 17.1356 31.0431 18.0129 30.6883L17.8862 31.3697ZM15.1713 30.887C14.1837 30.8936 13.2068 30.6825 12.31 30.2689L12.1789 29.4826C13.2122 29.7066 14.2669 29.8164 15.3242 29.8102C16.2997 29.8162 17.2732 29.7211 18.2291 29.5263L18.085 30.3038C17.1691 30.7123 16.1738 30.9115 15.1713 30.887ZM11.5149 29.3057C11.6591 29.3515 11.8098 29.393 11.9649 29.4302L12.085 30.1488C11.9604 30.0773 11.84 29.9985 11.7246 29.9129L11.5149 29.3057ZM10.7221 28.5805L10.425 28.1109L10.8444 28.1633L11.0431 28.7378C10.9449 28.6985 10.8488 28.657 10.7592 28.6133L10.7221 28.5805ZM2.14695 24.483C1.67247 23.6971 1.50157 22.765 1.66642 21.8619L2.03555 21.5583C2.18373 22.4349 2.48856 23.2776 2.93544 24.0461C3.35366 24.8021 3.89809 25.481 4.54518 26.0534L4.08432 26.215C3.25436 25.8844 2.5681 25.2709 2.14695 24.483ZM3.09707 15.056C3.09707 14.9621 3.11891 14.8638 3.1342 14.7633L3.50333 15.2002C3.44654 15.3225 3.39193 15.4448 3.33951 15.5649L3.10362 15.091L3.09707 15.056ZM2.4986 13.5992C2.48491 13.4613 2.47908 13.3227 2.48113 13.1842L3.0097 13.6363C2.96601 13.7804 2.92452 13.9246 2.88957 14.0731L2.4986 13.5992ZM2.21029 9.41207C2.68606 8.54773 3.47462 7.89828 4.41414 7.59701L5.03881 7.83072C3.51883 9.03281 2.5055 10.7617 2.19936 12.6753L1.69482 12.2384C1.49583 11.2651 1.68051 10.2525 2.21029 9.41207ZM3.44436 10.1329C3.93218 9.27536 4.60343 8.53623 5.41012 7.96832L6.1309 8.23698C4.77409 9.74442 3.7342 11.5093 3.07304 13.4266L2.49205 12.9286C2.5965 11.9352 2.92189 10.9777 3.44436 10.1263V10.1329ZM6.6005 7.75646C6.49348 7.85693 6.38209 7.97487 6.27506 8.07753L5.61981 7.8329C5.74285 7.76123 5.86972 7.69633 5.99985 7.63851L6.6005 7.75646ZM7.59431 7.43538L8.14909 7.41354L7.9001 7.74117L7.32566 7.63196C7.41521 7.56206 7.50476 7.49654 7.59213 7.43756L7.59431 7.43538ZM23.1698 7.5839C23.2593 7.64506 23.3489 7.71496 23.4384 7.78922L22.8443 7.89188C22.7591 7.77393 22.6761 7.65817 22.5931 7.54677L23.1632 7.58172L23.1698 7.5839ZM24.7839 7.81761C24.916 7.88312 25.0444 7.95604 25.1683 8.03603L24.489 8.27629C24.3798 8.15835 24.2706 8.04477 24.1614 7.93774L24.7839 7.81761ZM28.5516 9.66107C29.0718 10.5169 29.2379 11.5417 29.0147 12.518L28.4904 12.9548C28.2254 11.0304 27.2461 9.27601 25.7471 8.0404L26.4024 7.82198C27.3247 8.13913 28.0926 8.79392 28.5516 9.65452V9.66107ZM27.7544 14.3352C27.7238 14.1954 27.6867 14.0513 27.6474 13.8984L28.1912 13.4616C28.1897 13.5981 28.1803 13.7345 28.1628 13.87L27.7544 14.3352ZM27.5229 15.2788L27.5054 15.3771L27.2673 15.8292C27.2192 15.7113 27.169 15.589 27.1144 15.4645L27.4966 15.0276C27.5068 15.1121 27.5156 15.1958 27.5229 15.2788ZM21.2433 26.7589C21.3066 26.6322 21.37 26.5033 21.4355 26.3745L22.1366 26.5077L21.9663 26.7261L21.2433 26.7589ZM20.2451 27.7265C20.0813 27.7483 19.9109 27.768 19.7384 27.7855L19.9568 27.1914L20.6121 27.2416L20.3041 27.7068L20.2451 27.7265ZM11.9059 27.8313L11.7814 27.0887C11.7824 27.0734 11.7824 27.0581 11.7814 27.0428C13.994 26.9751 16.4883 26.9992 18.69 27.1127C18.69 27.1258 18.69 27.1389 18.69 27.1521L18.5524 27.8881C16.3375 28.0208 14.1161 28.0018 11.9037 27.8313H11.9059ZM18.4585 28.3271L18.3099 29.1222C16.2658 29.5435 14.1558 29.5286 12.1178 29.0785L11.9845 28.2725C13.1356 28.3621 14.4133 28.408 15.6736 28.408C16.6303 28.4145 17.5782 28.3796 18.4519 28.3271H18.4585ZM10.1236 27.6282L9.81126 27.1368C10.0297 27.1215 10.2481 27.1084 10.4818 27.0974L10.7002 27.709C10.5058 27.6828 10.3158 27.6588 10.1345 27.6304L10.1236 27.6282ZM8.44615 26.6016L8.27141 26.3679L8.95725 26.25H8.99219C9.0599 26.3876 9.12324 26.523 9.18658 26.6562L8.44615 26.6016ZM7.25576 8.65197C6.04514 10.4271 4.95076 12.2788 3.97948 14.1954L3.3832 13.6865C4.04099 11.7168 5.10508 9.90706 6.50659 8.37458L7.25576 8.65197ZM7.67294 8.80923L8.39373 9.07789C7.35624 11.0131 6.09815 13.1448 4.89903 14.9752L4.31803 14.4794C5.30382 12.5153 6.42254 10.6209 7.66639 8.80923H7.67294ZM9.28269 7.35893C9.18877 7.54896 9.09048 7.74553 8.98783 7.9443L8.37844 7.82635C8.49638 7.67127 8.60996 7.52275 8.72354 7.38951L9.28269 7.35893ZM20.7278 7.15362L20.2801 7.18201C20.2692 7.14925 20.2582 7.11649 20.2495 7.08591L20.042 6.48307L20.3281 6.52457L20.7278 7.15362ZM22.0384 7.50527C22.1497 7.65161 22.2568 7.80669 22.3813 7.96832L21.75 8.07753C21.6496 7.85911 21.5535 7.66909 21.4595 7.47033L22.0384 7.50527ZM26.3215 14.7371L25.7231 15.2307C24.5655 13.3676 23.3401 11.2031 22.3332 9.23952L23.0671 8.97523C24.2779 10.82 25.3616 12.7451 26.3106 14.7371H26.3215ZM23.4974 8.82671L24.2619 8.55587C25.635 10.1219 26.6635 11.9593 27.2804 13.9486L26.6492 14.4532C25.7183 12.511 24.6618 10.6315 23.4865 8.82671H23.4974ZM26.9921 16.2944V16.3469L26.7431 16.8383C26.6273 16.6658 26.5116 16.4888 26.3914 16.3054L26.7977 15.838C26.8661 15.9923 26.9295 16.1445 26.9877 16.2944H26.9921ZM27.287 20.0665L26.7562 19.61C26.7933 19.5358 26.8305 19.4572 26.8654 19.3916L27.3219 19.9377C27.3044 19.9748 27.3044 20.0207 27.2826 20.0665H27.287ZM27.6648 20.3396L27.8046 20.5077L27.6539 20.3789C27.6539 20.3658 27.6561 20.3527 27.6605 20.333L27.6648 20.3396ZM23.4188 25.3632C24.5415 23.6942 25.5627 21.959 26.4766 20.167L27.086 20.7043C26.4449 22.5272 25.457 24.2086 24.1767 25.6559L23.4188 25.3632ZM20.1163 26.7043C20.1796 26.5099 20.2451 26.3155 20.315 26.1189C20.5881 26.1735 20.8545 26.2325 21.1188 26.2959C21.038 26.4553 20.9615 26.6126 20.8851 26.7676L20.1163 26.7043ZM18.9892 26.6322C19.0416 26.392 19.0984 26.1517 19.1596 25.9158C19.461 25.9617 19.7602 26.0119 20.0573 26.0687C19.9852 26.274 19.9153 26.4815 19.8389 26.6868C19.5637 26.6672 19.2775 26.6519 18.9849 26.6366L18.9892 26.6322ZM10.5998 26.5929C10.5364 26.3745 10.4687 26.1714 10.3966 25.9595C10.7024 25.9092 11.0104 25.8656 11.3205 25.8262C11.3773 26.0687 11.4297 26.3111 11.4778 26.5558L10.5998 26.5929ZM9.54261 26.6584C9.46834 26.4968 9.3919 26.3352 9.31108 26.1692C9.58192 26.1102 9.85932 26.0556 10.1389 26.0075C10.2066 26.2085 10.2721 26.4094 10.3333 26.6082C10.0493 26.6278 9.79379 26.6431 9.53824 26.6672L9.54261 26.6584ZM8.83057 25.195C9.13417 25.0945 9.43776 25.0028 9.74573 24.9198C9.81781 25.1077 9.88771 25.2955 9.96415 25.4811C9.66273 25.5358 9.36569 25.5969 9.07301 25.6603L8.83057 25.195ZM4.32895 19.6778L5.00386 19.1208L5.03444 19.0946C6.12654 20.8681 7.27979 22.8951 8.24083 24.7604L8.19715 24.7735L7.36497 25.0683C6.24015 23.3374 5.22612 21.5369 4.32895 19.6778ZM6.99148 25.1907L6.19643 25.4702C4.9415 23.9938 3.98532 22.2877 3.38101 20.4466L4.02316 19.918C4.90428 21.7344 5.89557 23.4952 6.99148 25.1907ZM18.4475 6.32581L18.5851 7.14707C18.5851 7.18201 18.5983 7.21478 18.6048 7.24972C16.5036 7.31088 14.1644 7.28686 12.0719 7.1842L12.0916 7.08591L12.2444 6.27121C14.3141 6.15801 16.3889 6.17625 18.4563 6.32581H18.4475ZM12.3143 5.88898L12.4694 5.0568C14.3789 4.69556 16.3406 4.7104 18.2444 5.10048L18.3842 5.93921C16.3667 5.79983 14.3425 5.78451 12.3231 5.89334L12.3143 5.88898ZM20.8938 7.45722C21.0009 7.69093 21.1123 7.93119 21.2346 8.17582C21.0314 8.2195 20.8283 8.25882 20.6208 8.29813C20.5269 8.0273 20.4395 7.75864 20.3587 7.48998L20.8938 7.45722ZM25.3387 15.554C25.153 15.7156 24.9695 15.8795 24.7904 16.0476C23.3019 14.0677 22.0718 11.9061 21.1297 9.6152C21.3722 9.54749 21.6124 9.47323 21.8527 9.39678C22.8815 11.4215 24.1374 13.6363 25.3387 15.554ZM26.4744 17.3014C26.3783 17.439 26.28 17.5788 26.1818 17.7229C26.0005 17.5263 25.8214 17.321 25.6444 17.1135C25.7799 16.9606 25.9153 16.8121 26.0529 16.6658C26.1905 16.8864 26.3303 17.0982 26.4701 17.3035L26.4744 17.3014ZM21.9008 24.804C21.5906 24.6927 21.2783 24.5856 20.9637 24.4917C21.9103 22.3432 23.1107 20.3157 24.5392 18.4524C24.7722 18.6796 25.0118 18.898 25.2578 19.1077C24.1068 20.8987 22.9033 22.9366 21.8964 24.8062L21.9008 24.804ZM11.4057 7.46378C11.3402 7.77393 11.2681 8.0819 11.1873 8.38769C10.9951 8.35711 10.8051 8.32653 10.6172 8.29158C10.7221 8.00545 10.8182 7.71933 10.9099 7.4332L11.4057 7.46378ZM24.0413 17.0742C24.1963 16.9104 24.3514 16.7488 24.5109 16.5915C24.7074 16.8449 24.9069 17.0924 25.1093 17.3341C24.9805 17.4848 24.856 17.6399 24.7293 17.795C24.489 17.5569 24.2597 17.3188 24.0281 17.072L24.0413 17.0742ZM23.9058 16.9213C22.1098 14.8888 20.7488 12.5102 19.9066 9.93191C20.1381 9.88167 20.3674 9.82925 20.5968 9.77028C21.567 12.1452 22.8408 14.3844 24.3864 16.4321C24.2182 16.5871 24.0609 16.7531 23.9015 16.9191L23.9058 16.9213ZM23.493 17.3713C21.7361 19.3355 20.3791 21.6235 19.4981 24.1073C16.7074 23.4786 13.8158 23.4429 11.0104 24.0025C10.1629 21.4797 8.82694 19.1486 7.07884 17.1419C8.97985 15.0625 10.4313 12.6132 11.3424 9.9472C13.9628 10.5057 16.6679 10.5398 19.3016 10.0477C20.174 12.7523 21.6 15.2456 23.4887 17.3691L23.493 17.3713ZM19.8432 9.72659C19.7384 9.39678 19.6423 9.07134 19.5549 8.73279C19.7617 8.70512 19.967 8.67454 20.1709 8.64105C20.2801 8.94902 20.3893 9.25918 20.5203 9.56715C20.291 9.63049 20.0638 9.68291 19.8389 9.73315L19.8432 9.72659ZM19.2426 9.84454C16.6527 10.3254 13.9936 10.292 11.4166 9.74625C11.5273 9.40989 11.63 9.06915 11.7246 8.72405C14.1206 9.04758 16.5472 9.07546 18.9499 8.80705C19.0351 9.16307 19.1312 9.50818 19.2382 9.84891L19.2426 9.84454ZM11.7967 8.47724C11.8819 8.15398 11.9561 7.82198 12.026 7.49872C14.1556 7.60575 16.5451 7.62977 18.6834 7.56643C18.7468 7.89843 18.8167 8.22169 18.9019 8.55805C16.539 8.82006 14.153 8.79292 11.7967 8.47724ZM11.1283 8.64324C11.0366 8.97087 10.9361 9.29849 10.8291 9.61739C10.6107 9.56497 10.3923 9.51036 10.1738 9.4492C10.3005 9.14778 10.4207 8.84418 10.532 8.54276L11.1283 8.64324ZM10.7614 9.80959C9.88179 12.3541 8.49443 14.6933 6.6835 16.6854C6.53061 16.5172 6.37554 16.3534 6.21609 16.1918C7.78317 14.1819 9.08678 11.9798 10.0952 9.63923C10.3049 9.6982 10.5277 9.75499 10.7505 9.80959H10.7614ZM6.53717 16.8383C6.31001 17.0829 6.0763 17.3225 5.83604 17.5569C5.71372 17.3996 5.58922 17.2446 5.46691 17.0939C5.67222 16.8536 5.87681 16.6075 6.08067 16.3556C6.23574 16.5107 6.38646 16.6723 6.53717 16.8383ZM6.94342 17.2926C8.65888 19.2703 9.97074 21.5646 10.8051 24.0461C10.4556 24.1204 10.1083 24.2034 9.76321 24.2951C8.83463 22.0757 7.63986 19.9774 6.20517 18.0462C6.45853 17.7972 6.70462 17.5453 6.94342 17.2904V17.2926ZM10.9951 24.6206C11.0606 24.8463 11.124 25.0712 11.1851 25.2955C10.8553 25.3392 10.5299 25.3872 10.211 25.4418C10.1411 25.2474 10.069 25.0509 9.99255 24.8543C10.3245 24.7669 10.6587 24.6883 10.9951 24.6184V24.6206ZM11.1939 24.5834C13.8733 24.0607 16.6316 24.0949 19.2972 24.6839C19.2251 24.9023 19.1574 25.1317 19.0919 25.3588C16.5387 24.9956 13.949 24.9663 11.3882 25.2715C11.3271 25.0399 11.2616 24.8106 11.1939 24.5813V24.5834ZM19.4938 24.7276C19.8192 24.804 20.149 24.8892 20.4679 24.9832C20.3893 25.1732 20.3128 25.3632 20.2495 25.5532C19.9372 25.4921 19.6226 25.4375 19.3016 25.3872C19.3583 25.1644 19.4239 24.9438 19.496 24.7254L19.4938 24.7276ZM19.6904 24.1532C20.56 21.7094 21.8951 19.4575 23.6219 17.522C23.8556 17.7797 24.0959 18.0287 24.3427 18.2733C22.8872 20.1692 21.6654 22.2336 20.7038 24.4218C20.3718 24.3213 20.0333 24.2296 19.6925 24.151L19.6904 24.1532ZM24.9018 17.9763C25.0241 17.8256 25.1443 17.6792 25.2666 17.5394C25.4588 17.7579 25.6554 17.9763 25.8519 18.1947L25.5789 18.6053C25.3583 18.4 25.1312 18.1903 24.9018 17.9763ZM26.0682 18.4437L26.588 19.0662C26.5422 19.1623 26.4941 19.2606 26.4482 19.3589L25.8476 18.8456L25.8192 18.8194C25.9109 18.6927 25.9939 18.566 26.0769 18.4437H26.0682ZM25.4632 16.9148C25.271 16.6963 25.0831 16.4517 24.8996 16.2093C25.0744 16.0455 25.2535 15.886 25.4348 15.7287C25.5891 15.9734 25.742 16.2115 25.8934 16.443C25.758 16.5981 25.6139 16.7531 25.4719 16.9148H25.4632ZM21.0402 9.42736C20.9222 9.13468 20.8108 8.842 20.706 8.55369C20.9244 8.51219 21.1428 8.4685 21.3613 8.42263C21.4879 8.68328 21.619 8.94757 21.7544 9.21549C21.5207 9.28757 21.2848 9.35965 21.0489 9.42736H21.0402ZM20.0726 8.39861L19.4829 8.48598C19.4064 8.17364 19.3387 7.8613 19.2775 7.54459L19.7952 7.52493C19.8891 7.81325 19.983 8.10156 20.0813 8.39861H20.0726ZM19.2229 7.22788C19.2229 7.16673 19.1967 7.10557 19.188 7.04441L19.0766 6.37605L19.4261 6.411L19.7013 7.20823L19.2229 7.22788ZM11.4996 6.97233C11.4887 7.03131 11.4756 7.09028 11.4625 7.14925L11.0038 7.12304L11.29 6.33892L11.622 6.31271L11.4996 6.97233ZM10.4665 6.99199V7.0051C10.4665 7.03131 10.449 7.05752 10.4425 7.08154L10.0057 7.04659L10.4119 6.43284L10.6806 6.40226L10.4665 6.99199ZM10.3377 7.39388C10.2525 7.65598 10.1607 7.92027 10.0646 8.18456C9.86587 8.14306 9.66929 8.09937 9.47271 8.05351C9.59284 7.81324 9.71079 7.57954 9.82218 7.3502L10.3377 7.39388ZM9.35258 8.29158C9.5579 8.33963 9.7654 8.38769 9.97508 8.43137C9.86805 8.7175 9.75666 9.00144 9.63216 9.28757C9.40282 9.21768 9.17566 9.14123 8.95069 9.06915L9.35258 8.29158ZM8.8524 9.24389C9.08393 9.3247 9.31764 9.40333 9.55134 9.47541C8.57443 11.7361 7.31584 13.8643 5.80546 15.8096C5.63073 15.6414 5.45162 15.4776 5.27033 15.3159C6.5044 13.4222 7.79307 11.2402 8.85677 9.24607L8.8524 9.24389ZM5.16331 15.4841C5.34023 15.6414 5.51496 15.803 5.68533 15.9668C5.4953 16.2049 5.3031 16.4386 5.10652 16.6679C4.96892 16.5063 4.82913 16.3512 4.68934 16.1962C4.8466 15.9646 5.00386 15.7287 5.16331 15.4841ZM4.53863 16.4189C4.67186 16.5653 4.80292 16.7138 4.93397 16.8558C4.75341 17.0626 4.56994 17.2657 4.38355 17.4652C4.28745 17.3188 4.19353 17.1812 4.10179 17.0436C4.24595 16.8383 4.39229 16.6352 4.53863 16.4189ZM5.29218 17.2926C5.41231 17.439 5.52807 17.5875 5.64383 17.7295C5.42541 17.9479 5.18952 18.151 4.95144 18.3541L4.69152 17.9435C4.89247 17.7338 5.09342 17.5154 5.29218 17.2883V17.2926ZM4.709 18.5726L4.61945 18.649L4.06466 19.1077L3.93361 18.8041L4.47092 18.1838L4.709 18.5726ZM5.27689 18.8827C5.53025 18.6643 5.77488 18.4459 6.01514 18.2275C7.42301 20.1259 8.59641 22.1874 9.50984 24.3672C9.18659 24.4575 8.86551 24.5558 8.54662 24.6621C7.5681 22.7531 6.39519 20.6825 5.27689 18.8783V18.8827ZM11.5193 25.811C13.9882 25.5231 16.4838 25.5517 18.9455 25.8961C18.8844 26.1393 18.8276 26.3839 18.7752 26.63C17.3642 26.5536 15.844 26.5143 14.3456 26.5143C13.4348 26.5143 12.5349 26.5296 11.6722 26.558C11.6307 26.3024 11.5783 26.0556 11.5193 25.8066V25.811ZM20.5029 25.6078C20.5728 25.4244 20.6448 25.2431 20.7213 25.0596C21.0205 25.1492 21.3154 25.2474 21.6103 25.3501L21.3722 25.7935C21.086 25.7258 20.7977 25.6624 20.5029 25.6035V25.6078ZM21.9117 25.4571L21.951 25.4702L22.6936 25.7498C22.6281 25.8415 22.5626 25.9355 22.497 26.025L21.6954 25.8699C21.7653 25.7301 21.844 25.5904 21.9117 25.4528V25.4571ZM22.2 24.9154C23.1894 23.0807 24.3689 21.0866 25.4937 19.337L26.1796 19.9246C25.2501 21.7594 24.2054 23.5336 23.0518 25.2365L22.2 24.9154ZM26.8458 18.5136L26.3958 17.9741L26.6317 17.6312L26.9506 18.2711C26.9186 18.3498 26.8836 18.4291 26.8458 18.5092V18.5136ZM27.1712 18.7123L27.4071 19.1863L27.1144 18.8368L27.1712 18.7123ZM26.2451 16.0738C26.1053 15.8554 25.9633 15.637 25.8214 15.4186L26.3936 14.9468C26.4941 15.1652 26.5902 15.3836 26.6798 15.5846L26.2451 16.0738ZM22.2393 9.05605H22.2284C22.1017 8.80705 21.9772 8.56242 21.8571 8.31998L22.5364 8.20203C22.674 8.39424 22.8116 8.593 22.9513 8.80268L22.2393 9.05605ZM19.8978 6.0921L19.7253 5.58756L20.0573 6.11176L19.8978 6.0921ZM19.0242 6.00037L18.8953 5.26211L19.0526 5.31235L19.295 6.01566C19.2033 6.01129 19.1094 6.00255 19.0154 5.996L19.0242 6.00037ZM18.8254 4.79906L18.773 4.49109L18.8866 4.81654L18.8254 4.79906ZM12.5633 4.60686L12.6944 3.90355C14.4207 3.23092 16.3386 3.24264 18.0566 3.93631L18.1745 4.64836C16.3225 4.29067 14.4205 4.27661 12.5633 4.60686ZM11.8316 5.22716L11.6984 5.93921L11.4385 5.95887L11.6918 5.26866L11.8316 5.22716ZM11.8753 4.76412L11.9605 4.5457L11.919 4.76412H11.8753ZM10.6915 6.03095L10.9951 5.57008L10.8335 6.00692L10.6915 6.03095ZM8.85895 8.19111C8.73882 8.42482 8.61214 8.66508 8.48327 8.90534L7.78434 8.64324C7.92631 8.44229 8.06391 8.25008 8.20152 8.06443L8.85895 8.19111ZM4.792 15.1609C4.64347 15.3793 4.49931 15.5977 4.35516 15.8161L3.93361 15.3094C4.02753 15.1041 4.12582 14.8944 4.23284 14.6782L4.792 15.1609ZM4.20227 16.0345C4.07995 16.2158 3.95982 16.3927 3.83969 16.5653L3.59506 16.0695C3.66059 15.9078 3.7334 15.7397 3.81348 15.5649L4.20227 16.0345ZM3.93361 17.3669C4.01006 17.4805 4.0865 17.5853 4.15203 17.712L4.12145 17.7447L3.68461 18.2471C3.64966 18.1663 3.6169 18.0855 3.58633 18.0069L3.93361 17.3669ZM3.42033 18.5638L3.1342 18.8936L3.37227 18.4437L3.42033 18.5638ZM3.7698 19.3501L3.22156 19.8001C3.21064 19.7542 3.20191 19.7105 3.19317 19.6668L3.66495 19.1208C3.69335 19.1972 3.73048 19.2737 3.76543 19.3501H3.7698ZM2.84152 20.1146L2.70828 20.226L2.83278 20.0818C2.83671 20.0925 2.83963 20.1034 2.84152 20.1146ZM3.02499 20.7502C3.63088 22.5325 4.55848 24.1886 5.76178 25.6362L5.08905 25.8721C3.65681 24.7022 2.7255 23.0294 2.48549 21.1958L3.02499 20.7502ZM6.65511 25.9639L7.34313 25.7192L7.50257 25.9529L6.77742 26.0796L6.65511 25.9639ZM6.25103 26.1714L5.89938 26.2303L6.21172 26.1211L6.25103 26.1714ZM7.71226 25.5751L8.40028 25.3326C8.4396 25.3173 8.48109 25.3064 8.52041 25.2933C8.59467 25.4375 8.66675 25.5816 8.73883 25.7301L7.9132 25.8743L7.71226 25.5751ZM10.7461 27.0756L11.5674 27.0428L11.5805 27.1149L11.6962 27.8073C11.4472 27.7855 11.207 27.7593 10.9733 27.733L10.7461 27.0756ZM18.8691 27.1826C18.8691 27.1608 18.88 27.1389 18.8844 27.1171C19.1552 27.1302 19.4217 27.1477 19.6838 27.1652L19.4414 27.8139C19.2229 27.8357 18.9783 27.8554 18.7359 27.8728L18.8691 27.1826ZM22.5451 26.582L23.0343 26.6759L22.4555 26.6999C22.4861 26.6672 22.5145 26.6278 22.5451 26.5885V26.582ZM23.0584 25.8743L23.7136 26.1233L23.5979 26.2281L22.8946 26.0927L23.0584 25.8743ZM24.1723 26.2915L24.4213 26.3854L24.133 26.3286L24.1723 26.2915ZM27.4486 21.0014L27.9706 21.4382C27.6859 23.2611 26.7204 24.9081 25.2688 26.0469L24.6135 25.8022C25.8441 24.3904 26.8064 22.7656 27.453 21.0079L27.4486 21.0014ZM27.1166 17.5067L26.9331 17.1419L27.0751 16.8711L27.1472 17.3254L27.1166 17.5067ZM26.9943 15.2002C26.9127 15.0182 26.8276 14.8325 26.7387 14.6432L27.3219 14.1627C27.37 14.3418 27.4071 14.5165 27.4398 14.6869L26.9943 15.2002ZM27.2826 10.3513C27.7923 11.218 28.0998 12.1886 28.1825 13.1907L27.5818 13.6843C26.9618 11.7491 25.959 9.9583 24.6332 8.41826L25.3758 8.15616C26.1656 8.73943 26.818 9.48871 27.287 10.3513H27.2826ZM24.098 8.3855L23.3729 8.65197C23.2506 8.47069 23.1304 8.29158 23.0103 8.11903L23.6962 8.00109C23.8316 8.1234 23.967 8.25445 24.1024 8.39424L24.098 8.3855ZM21.6255 7.16236L21.287 7.1427L21.0511 6.77139L21.252 6.84783L21.6255 7.16236ZM17.8797 2.8595L17.9605 3.35095C16.2926 2.76502 14.4766 2.75348 12.8014 3.31818L12.891 2.83329C13.5879 2.26805 14.4643 1.97126 15.3613 1.99675H15.405C16.3064 1.97971 17.1842 2.28574 17.8797 2.8595ZM9.66711 6.67747L9.44869 7.00291L9.43558 7.02694L9.11451 7.04004L9.47927 6.74299L9.66711 6.67747ZM7.72973 7.95959C7.6096 8.12558 7.48728 8.29813 7.36497 8.47287L6.66166 8.21077C6.7949 8.07535 6.93032 7.94866 7.06574 7.8329L7.72973 7.95959ZM3.32422 13.8918L3.88992 14.3767C3.796 14.5646 3.70864 14.7502 3.62345 14.9315L3.18662 14.416C3.22593 14.25 3.2718 14.0775 3.32422 13.8984V13.8918ZM3.49896 16.5871L3.63656 16.8645L3.44872 17.2249L3.41815 17.0393L3.49896 16.5871ZM7.32566 26.5252L7.86515 26.4487L7.95907 26.582L7.34095 26.5427L7.32566 26.5252ZM9.00311 27.1215L9.43995 27.1499L9.62124 27.4338L9.16256 27.2591L9.00311 27.1215ZM11.1414 28.1961L11.7814 28.2573L11.9081 29.0261C11.7202 28.9759 11.5411 28.9212 11.3708 28.8601L11.1414 28.1961ZM18.5305 29.0698L18.6703 28.314L19.2928 28.266L19.0548 28.9212C18.8778 28.9715 18.7031 29.0239 18.5196 29.0698H18.5305ZM20.8065 27.5255L20.9834 27.2613L21.4028 27.2438L21.2499 27.3661L20.8065 27.5255ZM27.8461 14.7415C27.8461 14.7131 27.8352 14.6825 27.8286 14.6519L27.9881 14.4663L27.8461 14.7415ZM28.6477 13.3108L28.5232 13.4572C28.5232 13.3698 28.5232 13.2803 28.5232 13.1907L28.8967 12.8827C28.826 13.0345 28.7388 13.1781 28.6368 13.3108H28.6477ZM29.8294 8.95776C30.1369 9.47574 30.2576 10.0835 30.1713 10.6797C30.0851 11.2758 29.7971 11.8245 29.3554 12.234C29.4506 11.3026 29.2568 10.3645 28.8004 9.54705C28.344 8.72958 27.6471 8.07239 26.8043 7.66472C27.3789 7.50769 27.9897 7.55005 28.5371 7.78489C29.0846 8.01973 29.5362 8.43318 29.8184 8.95776H29.8294ZM25.461 7.6953C25.6512 7.67966 25.8426 7.68699 26.0311 7.71714L25.5571 7.88314C25.4741 7.82635 25.3911 7.77175 25.3059 7.72151L25.461 7.6953ZM24.2597 7.64069L23.9299 7.69748L23.8338 7.61448L24.2597 7.64069ZM15.4093 0.603237C15.879 0.600608 16.3396 0.732763 16.7364 0.984021C17.1332 1.23528 17.4497 1.59509 17.6481 2.02078C16.9547 1.65084 16.182 1.45443 15.3962 1.44834C14.6103 1.44225 13.8346 1.62668 13.1356 1.98583C13.3427 1.56206 13.667 1.20656 14.07 0.961504C14.473 0.716448 14.9378 0.59211 15.4093 0.603237ZM6.93468 7.45722L6.84513 7.53148L6.5459 7.47251L6.93468 7.45722ZM5.09997 7.49435C5.17999 7.48995 5.2602 7.48995 5.34023 7.49435L5.48439 7.52275C5.40357 7.56862 5.32276 7.61885 5.23976 7.67346L4.78982 7.50527C4.89287 7.49513 4.99646 7.49148 5.09997 7.49435ZM0.976221 8.68692C1.20642 8.28414 1.53755 7.94826 1.937 7.71234C2.33645 7.47642 2.79047 7.3486 3.25433 7.34146C3.50777 7.34285 3.75982 7.37886 4.00351 7.44849C3.15816 7.84015 2.45266 8.48076 1.9815 9.28451C1.51033 10.0883 1.296 11.0168 1.36719 11.9457C0.943201 11.5267 0.673722 10.9764 0.602717 10.3846C0.531712 9.79275 0.663374 9.19431 0.976221 8.68692ZM1.81495 12.6075L2.17316 12.9133C2.17316 13.0072 2.16223 13.0968 2.16223 13.1885L2.06395 13.0706C1.96357 12.9262 1.88003 12.7709 1.81495 12.6075ZM2.64712 14.1736L2.81967 14.3789L2.80002 14.4794L2.64712 14.1736ZM0.930352 25.1382C0.692612 24.7321 0.576706 24.2662 0.596458 23.7961C0.616209 23.3259 0.770782 22.8714 1.04174 22.4866C1.06322 23.2692 1.27294 24.0351 1.65313 24.7195C2.03333 25.4038 2.57282 25.9865 3.22594 26.4182C2.76133 26.4443 2.29887 26.3379 1.89244 26.1113C1.48601 25.8847 1.15235 25.5472 0.930352 25.1382ZM11.0912 29.1571L11.2026 29.1986L11.3074 29.4979L11.0912 29.1571ZM11.9649 30.5834L11.9037 30.4043C11.9867 30.4545 12.0719 30.5004 12.1615 30.5441L12.2444 31.0486C12.1327 30.9093 12.0361 30.7585 11.9561 30.5987L11.9649 30.5834ZM15.1975 33.7964H15.1713C14.5725 33.8019 13.9897 33.6036 13.5185 33.2341C13.0474 32.8645 12.7159 32.3457 12.5786 31.7629C13.3278 32.32 14.24 32.614 15.1734 32.5994H15.2237C16.1501 32.6238 17.0583 32.3395 17.8054 31.7913C17.6633 32.3741 17.3264 32.891 16.8506 33.2564C16.3748 33.6218 15.7885 33.8138 15.1887 33.8007L15.1975 33.7964ZM18.4213 30.6337C18.3487 30.7886 18.2594 30.935 18.1549 31.0705L18.2466 30.5834C18.3296 30.5419 18.4104 30.5004 18.4869 30.4545L18.4213 30.6337ZM19.1115 29.5044L19.2033 29.2576L19.2972 29.2248L19.1115 29.5044ZM29.4297 25.4069C29.2007 25.8098 28.8625 26.1398 28.4539 26.3586C28.0454 26.5773 27.5832 26.676 27.121 26.6431C27.7805 26.2275 28.3306 25.6597 28.7251 24.9873C29.1197 24.315 29.347 23.5578 29.3882 22.7793C29.6437 23.1694 29.7825 23.6243 29.7883 24.0905C29.7941 24.5568 29.6666 25.015 29.4209 25.4113L29.4297 25.4069Z" fill="url(#paint0_linear_599_14912)"/>
<defs>
<linearGradient id="paint0_linear_599_14912" x1="1.00888e-06" y1="17" x2="27.914" y2="25.3303" gradientUnits="userSpaceOnUse">
<stop stop-color="#5EE6D0"/>
<stop offset="0.515056" stop-color="#BFC6FF"/>
<stop offset="1" stop-color="#FFBA69"/>
</linearGradient>
</defs>
</svg>
