<svg width="142" height="153" viewBox="0 0 142 153" fill="none" xmlns="http://www.w3.org/2000/svg">
<path d="M152.219 113.39L151.992 113.197C151.537 111.625 150.828 110.138 149.892 108.796L147.928 106.431C147.824 105.71 147.676 104.996 147.485 104.294L144.795 98.8811L143.251 89.2843L144.988 79.6875L147.417 75.0482V74.9118C147.667 74.0597 147.85 73.189 147.962 72.3079L149.835 70.1361C150.877 68.7051 151.647 67.0939 152.106 65.3832L152.31 65.224C155.042 62.9621 156.892 59.8096 157.537 56.3186C158.182 52.8276 157.579 49.2207 155.836 46.1296C154.093 43.0385 151.319 40.6603 148.001 39.4115C144.684 38.1626 141.033 38.1228 137.688 39.299H137.62C135.829 38.7476 133.949 38.543 132.081 38.6964L129.481 39.1512C128.592 38.7378 127.669 38.403 126.722 38.1506L121.523 37.8322L121.398 37.7412L112.317 34.2504L104.756 27.826L101.532 22.7206L101.385 22.5387C100.876 21.9935 100.329 21.4844 99.7499 21.015L98.7736 18.1269V18.0132C98.0924 16.4876 97.1642 15.0853 96.0264 13.8629L95.9583 13.4877C95.3296 9.74262 93.4048 6.33876 90.5215 3.87275C87.6382 1.40674 83.9804 0.0359597 80.1891 0.000697619C76.3979 -0.0345644 72.7152 1.26795 69.7867 3.6799C66.8582 6.09186 64.8706 9.45933 64.1726 13.192L64.0704 13.6923C62.9459 14.8596 62.0146 16.1993 61.3119 17.6607L60.1767 20.7762C59.6364 21.2051 59.1209 21.6645 58.6328 22.1521L55.0228 27.6213L47.4737 33.7388L38.7099 36.877L38.5056 36.9908L38.3921 37.0703L33.4312 37.275H33.2723C32.3313 37.5054 31.4121 37.8173 30.5251 38.2074L28.0049 37.7185H27.9482C26.1173 37.535 24.2683 37.7009 22.4992 38.2074C19.1758 36.962 15.5206 36.9288 12.1752 38.1136C8.82975 39.2985 6.00787 41.6258 4.20479 44.6869C2.40171 47.7481 1.73265 51.3476 2.31504 54.8536C2.89743 58.3596 4.69407 61.5481 7.3896 63.8596L7.48042 63.9278C7.90959 65.6929 8.65585 67.3651 9.68272 68.8626L11.3742 70.8866C11.4657 71.8168 11.6366 72.7374 11.885 73.6383L14.1554 78.2548V78.4253L15.6766 87.8743L13.9624 97.3233L11.1131 102.781L11.0223 103.009C10.8271 103.657 10.6754 104.318 10.5682 104.987L8.5021 107.364L8.42264 107.466C7.48785 108.757 6.76366 110.189 6.27711 111.707L5.91383 112.014C2.97103 114.428 0.973981 117.806 0.274942 121.551C-0.424098 125.297 0.219789 129.169 2.09303 132.485C3.96627 135.801 6.94849 138.348 10.5137 139.677C14.0789 141.006 17.998 141.03 21.5797 139.747L21.8067 139.656C23.4516 140.077 25.1546 140.223 26.847 140.088L29.8553 139.565C30.5922 139.869 31.3512 140.116 32.1257 140.304L38.2104 140.691L47.4283 144.239L54.8412 150.526L55.0455 150.652L57.8381 155.052L57.9289 155.166C58.5812 155.862 59.2956 156.498 60.0631 157.065L60.9826 159.725C61.7345 161.401 62.7978 162.917 64.1158 164.194V164.365C64.6345 167.902 66.4156 171.131 69.129 173.454C71.8424 175.776 75.3044 177.035 78.8735 176.997H79.0211C82.5619 177.065 86.0089 175.854 88.7328 173.587C91.4567 171.32 93.2759 168.148 93.8582 164.649V164.342C95.1488 163.099 96.2028 161.631 96.9687 160.01L97.9563 157.315C98.6775 156.789 99.3534 156.203 99.977 155.564L103.042 150.947L110.693 144.739L119.854 141.453L125.53 141.214H125.769C126.518 141.033 127.254 140.801 127.971 140.52L130.786 141.066H130.911C131.432 141.121 131.955 141.148 132.478 141.146C133.624 141.141 134.767 141.008 135.884 140.748L136.065 140.816C137.966 141.554 139.986 141.939 142.025 141.953C144.798 141.912 147.513 141.149 149.902 139.737C152.291 138.325 154.271 136.314 155.647 133.903C157.655 130.648 158.414 126.774 157.784 123.001C157.153 119.227 155.176 115.812 152.219 113.39ZM146.759 128.695C144.491 132.797 140.836 135.954 136.451 137.598L134.181 136.745C141.106 130.76 145.86 122.649 147.701 113.674L149.54 115.243C150.263 119.916 149.275 124.694 146.759 128.695ZM101.895 149.389C101.498 149.571 101.078 149.753 100.635 149.924L101.714 147.002L103.814 146.774L102.304 149.048L101.895 149.389ZM96.9914 155.962C96.4075 156.374 95.8011 156.754 95.175 157.099L95.8562 153.415C96.6395 153.221 97.4 153.028 98.1266 152.812L96.9914 155.962ZM92.9614 163.307C89.0232 166.609 84.0444 168.405 78.9089 168.378C73.7734 168.351 68.8138 166.502 64.9105 163.159L64.3202 159.578C68.9176 161.503 73.8563 162.478 78.8394 162.443H79.2595C84.1772 162.519 89.0603 161.607 93.6198 159.759L92.9614 163.307ZM78.8508 160.794C73.718 160.828 68.6406 159.73 63.9796 157.576L63.2985 153.483C68.6687 154.649 74.1505 155.221 79.6454 155.188C84.7157 155.22 89.7755 154.724 94.7437 153.71L93.9944 157.758C89.2344 159.885 84.0612 160.922 78.8508 160.794ZM59.8474 152.562C60.5967 152.801 61.38 153.017 62.186 153.21L62.8103 156.951C62.1625 156.579 61.537 156.169 60.9373 155.723L59.8474 152.562ZM55.7266 148.787L54.1828 146.342L56.3624 146.615L57.3954 149.605C56.8845 149.401 56.3851 149.185 55.9196 148.957L55.7266 148.787ZM11.1585 127.455C8.69246 123.365 7.80424 118.512 8.66103 113.811L10.5795 112.23C11.3497 116.793 12.934 121.181 15.2566 125.181C17.4302 129.117 20.2598 132.651 23.623 135.631L21.2278 136.472C16.9142 134.751 13.3474 131.557 11.1585 127.455ZM16.0966 78.3798C16.0966 77.8909 16.2101 77.3792 16.2896 76.8562L18.2081 79.1303C17.913 79.7671 17.6292 80.4038 17.3567 81.0292L16.1307 78.5618L16.0966 78.3798ZM12.9862 70.7956C12.915 70.0778 12.8847 69.3565 12.8954 68.6352L15.6425 70.9889C15.4155 71.7394 15.1998 72.4899 15.0182 73.2631L12.9862 70.7956ZM11.4877 48.9981C13.9605 44.4985 18.0589 41.1175 22.9419 39.5491L26.1886 40.7658C18.2887 47.0238 13.022 56.0242 11.4309 65.9859L8.80861 63.7117C7.7744 58.6447 8.73422 53.3733 11.4877 48.9981ZM17.9016 52.7504C20.437 48.2864 23.9258 44.4386 28.1185 41.4822L31.8646 42.8807C24.8127 50.7283 19.408 59.9159 15.9718 69.8974L12.9521 67.3049C13.495 62.1331 15.1862 57.1486 17.9016 52.7163V52.7504ZM34.3053 40.3792C33.7491 40.9022 33.1701 41.5163 32.6139 42.0507L29.2083 40.7772C29.8478 40.404 30.5072 40.0662 31.1835 39.7652L34.3053 40.3792ZM39.4705 38.7077L42.3539 38.594L41.0598 40.2996L38.0742 39.7311C38.5396 39.3672 39.0051 39.0261 39.4592 38.7191L39.4705 38.7077ZM120.422 39.4809C120.887 39.7993 121.353 40.1632 121.818 40.5498L118.731 41.0842C118.288 40.4702 117.856 39.8675 117.425 39.2876L120.388 39.4696L120.422 39.4809ZM128.811 40.6976C129.498 41.0386 130.165 41.4182 130.809 41.8346L127.279 43.0854C126.711 42.4714 126.143 41.8801 125.576 41.323L128.811 40.6976ZM148.393 50.2944C151.097 54.7495 151.96 60.0848 150.8 65.1672L148.076 67.4413C146.698 57.4227 141.608 48.2898 133.817 41.8574L137.223 40.7203C142.017 42.3714 146.008 45.7801 148.393 50.2603V50.2944ZM144.25 74.6275C144.091 73.8998 143.898 73.1493 143.694 72.3534L146.52 70.0793C146.513 70.7903 146.463 71.5003 146.373 72.2056L144.25 74.6275ZM143.047 79.5396L142.956 80.0513L141.718 82.4051C141.469 81.791 141.208 81.1543 140.924 80.5062L142.91 78.232C142.963 78.6717 143.009 79.1076 143.047 79.5396ZM110.41 139.304C110.739 138.644 111.068 137.973 111.408 137.302L115.052 137.996L114.167 139.133L110.41 139.304ZM105.222 144.341C104.37 144.455 103.485 144.557 102.588 144.648L103.723 141.555L107.129 141.817L105.528 144.239L105.222 144.341ZM61.8795 144.887L61.2324 141.021C61.2378 140.941 61.2378 140.861 61.2324 140.782C72.732 140.429 85.6961 140.554 97.1389 141.146C97.1389 141.214 97.1389 141.282 97.1389 141.35L96.4238 145.182C84.9119 145.873 73.3665 145.774 61.8681 144.887H61.8795ZM95.9356 147.468L95.1637 151.607C84.5395 153.8 73.5728 153.723 62.9806 151.379L62.2881 147.184C68.2707 147.65 74.9116 147.889 81.4618 147.889C86.434 147.923 91.3608 147.741 95.9016 147.468H95.9356ZM52.6162 143.829L50.9928 141.271C52.1281 141.191 53.2633 141.123 54.4779 141.066L55.6131 144.25C54.6028 144.113 53.6152 143.988 52.673 143.841L52.6162 143.829ZM43.8978 138.485L42.9896 137.268L46.5542 136.654H46.7358C47.0877 137.371 47.4169 138.076 47.7461 138.769L43.8978 138.485ZM37.7109 45.0412C31.4189 54.2824 25.731 63.9221 20.6828 73.8998L17.5838 71.2505C21.0026 60.9961 26.533 51.575 33.8172 43.5971L37.7109 45.0412ZM39.8792 45.8598L43.6254 47.2584C38.2332 57.3328 31.6944 68.4305 25.4621 77.9591L22.4424 75.378C27.566 65.1534 33.3804 55.2911 39.8451 45.8598H39.8792ZM48.2456 38.3097C47.7575 39.299 47.2467 40.3223 46.7131 41.3571L43.5459 40.7431C44.1589 39.9357 44.7492 39.1625 45.3395 38.4689L48.2456 38.3097ZM107.73 37.2409L105.403 37.3887C105.346 37.2182 105.29 37.0476 105.244 36.8884L104.166 33.7501L105.653 33.9662L107.73 37.2409ZM114.542 39.0716C115.121 39.8334 115.677 40.6407 116.324 41.4822L113.043 42.0507C112.521 40.9136 112.021 39.9244 111.533 38.8896L114.542 39.0716ZM136.803 76.7197L133.693 79.2895C127.676 69.5903 121.307 58.3221 116.074 48.0999L119.888 46.724C126.181 56.3275 131.814 66.3493 136.746 76.7197H136.803ZM122.125 45.9508L126.098 44.5409C133.235 52.6935 138.58 62.2586 141.787 72.6149L138.506 75.2415C133.668 65.1306 128.177 55.3463 122.068 45.9508H122.125ZM140.288 84.827V85.0999L138.994 87.6583C138.392 86.76 137.791 85.839 137.166 84.8838L139.278 82.4505C139.633 83.2541 139.963 84.0462 140.265 84.827H140.288ZM141.821 104.464L139.062 102.088C139.255 101.701 139.448 101.292 139.63 100.951L142.002 103.793C141.911 103.987 141.911 104.225 141.798 104.464H141.821ZM143.785 105.885L144.511 106.761L143.728 106.09C143.728 106.022 143.739 105.954 143.762 105.851L143.785 105.885ZM121.716 132.038C127.552 123.349 132.859 114.316 137.609 104.987L140.776 107.784C137.444 117.274 132.309 126.027 125.655 133.562L121.716 132.038ZM104.552 139.019C104.881 138.007 105.222 136.995 105.585 135.972C107.004 136.256 108.389 136.563 109.762 136.893C109.342 137.723 108.945 138.542 108.548 139.349L104.552 139.019ZM98.6942 138.644C98.9666 137.393 99.2618 136.143 99.5796 134.915C101.146 135.153 102.701 135.415 104.245 135.711C103.871 136.779 103.507 137.86 103.11 138.928C101.68 138.826 100.193 138.747 98.6715 138.667L98.6942 138.644ZM55.0909 138.44C54.7617 137.302 54.4098 136.245 54.0352 135.142C55.6245 134.88 57.2251 134.653 58.8371 134.448C59.1323 135.711 59.4047 136.973 59.6545 138.246L55.0909 138.44ZM49.5965 138.781C49.2106 137.939 48.8132 137.098 48.3932 136.234C49.8009 135.927 51.2426 135.642 52.6957 135.392C53.0476 136.438 53.3881 137.484 53.706 138.519C52.2302 138.621 50.902 138.701 49.5738 138.826L49.5965 138.781ZM45.8958 131.162C47.4737 130.639 49.0516 130.162 50.6523 129.73C51.0269 130.707 51.3902 131.685 51.7875 132.652C50.2209 132.936 48.677 133.255 47.1558 133.584L45.8958 131.162ZM22.4992 102.44L26.007 99.5406L26.1659 99.4041C31.8419 108.637 37.8358 119.189 42.8307 128.9L42.6037 128.968L38.2785 130.503C32.4324 121.492 27.1621 112.119 22.4992 102.44ZM36.3373 131.14L32.2052 132.595C25.6828 124.909 20.7132 116.027 17.5724 106.443L20.9099 103.691C25.4894 113.147 30.6415 122.313 36.3373 131.14ZM95.8789 32.9314L96.594 37.2068C96.594 37.3887 96.6622 37.5593 96.6962 37.7412C85.7756 38.0596 73.6175 37.9345 62.7422 37.4001L62.8444 36.8884L63.639 32.6472C74.3959 32.0579 85.1794 32.1528 95.9243 32.9314H95.8789ZM64.0023 30.6573L64.8083 26.3251C74.7327 24.4445 84.9282 24.5218 94.8231 26.5525L95.5497 30.9188C85.0638 30.1932 74.5433 30.1135 64.0477 30.68L64.0023 30.6573ZM108.593 38.8214C109.149 40.0381 109.728 41.2888 110.364 42.5624C109.308 42.7898 108.253 42.9944 107.174 43.1991C106.686 41.7892 106.232 40.3906 105.812 38.992L108.593 38.8214ZM131.695 80.9723C130.73 81.8138 129.776 82.6666 128.845 83.5421C121.109 73.2348 114.715 61.982 109.819 50.0556C111.079 49.7031 112.328 49.3165 113.577 48.9185C118.924 59.4591 125.451 70.9889 131.695 80.9723ZM137.598 90.0688C137.098 90.7852 136.587 91.5129 136.076 92.2634C135.134 91.24 134.203 90.1712 133.284 89.091C133.988 88.295 134.692 87.5218 135.407 86.76C136.122 87.9084 136.848 89.0114 137.575 90.0802L137.598 90.0688ZM113.826 129.127C112.214 128.547 110.591 127.99 108.956 127.501C113.876 116.316 120.115 105.761 127.54 96.0612C128.751 97.2437 129.996 98.3808 131.275 99.4724C125.292 108.796 119.037 119.405 113.804 129.138L113.826 129.127ZM59.2798 38.8555C58.9393 40.4702 58.5647 42.0734 58.1446 43.6653C57.1456 43.5061 56.158 43.3469 55.1818 43.165C55.7267 41.6755 56.2261 40.1859 56.7029 38.6964L59.2798 38.8555ZM124.951 88.8863C125.757 88.0335 126.563 87.1921 127.392 86.3734C128.414 87.6924 129.451 88.9811 130.503 90.2394C129.833 91.024 129.186 91.8313 128.527 92.6386C127.279 91.3992 126.087 90.1598 124.883 88.8749L124.951 88.8863ZM124.248 88.0904C114.913 77.5093 107.839 65.1265 103.462 51.7043C104.665 51.4428 105.857 51.1699 107.049 50.8629C112.092 63.2265 118.712 74.8836 126.745 85.5433C125.871 86.3507 125.054 87.2148 124.225 88.079L124.248 88.0904ZM122.102 90.4327C112.971 100.658 105.918 112.57 101.339 125.5C86.8348 122.227 71.8059 122.041 57.2251 124.954C52.8202 111.821 45.8769 99.6851 36.7914 89.2388C46.6717 78.4137 54.2154 65.6629 58.9506 51.7839C72.57 54.6912 86.6292 54.869 100.318 52.307C104.852 66.3868 112.263 79.367 122.079 90.4213L122.102 90.4327ZM103.133 50.6355C102.588 48.9185 102.088 47.2243 101.634 45.4619C102.709 45.3178 103.776 45.1587 104.836 44.9843C105.403 46.5876 105.971 48.2022 106.652 49.8055C105.46 50.1352 104.279 50.4081 103.11 50.6696L103.133 50.6355ZM100.011 51.2495C86.5506 53.7526 72.73 53.5788 59.3366 50.7378C59.9118 48.9868 60.4453 47.2129 60.9373 45.4164C73.3899 47.1007 86.0019 47.2458 98.4898 45.8485C98.9326 47.7019 99.4321 49.4984 99.9883 51.2723L100.011 51.2495ZM61.3119 44.1315C61.7546 42.4487 62.1405 40.7203 62.5038 39.0375C73.5721 39.5946 85.9912 39.7197 97.1049 39.39C97.4341 41.1183 97.7974 42.8011 98.2401 44.5522C85.9594 45.9162 73.5584 45.7749 61.3119 44.1315ZM57.8381 44.9957C57.3614 46.7013 56.8392 48.4069 56.2829 50.067C55.1477 49.7941 54.0125 49.5098 52.8773 49.1914C53.5357 47.6223 54.1601 46.0418 54.739 44.4726L57.8381 44.9957ZM55.931 51.0676C51.3594 64.3138 44.1488 76.4916 34.7367 86.8623C33.9421 85.9868 33.1361 85.134 32.3074 84.2926C40.4521 73.8293 47.2275 62.3657 52.4686 50.1807C53.5584 50.4877 54.7163 50.7833 55.8742 51.0676H55.931ZM33.9761 87.6583C32.7955 88.9318 31.5808 90.1788 30.3321 91.3992C29.6964 90.5805 29.0493 89.7732 28.4136 88.9886C29.4807 87.7379 30.544 86.4568 31.6035 85.1454C32.4095 85.9527 33.1928 86.7941 33.9761 87.6583ZM36.0876 90.0234C45.0035 100.319 51.8217 112.263 56.158 125.181C54.3417 125.568 52.5367 126 50.7431 126.478C45.9169 114.924 39.7072 104 32.2506 93.9462C33.5674 92.65 34.8464 91.3386 36.0876 90.012V90.0234ZM57.1456 128.172C57.4862 129.347 57.8154 130.518 58.1333 131.685C56.4191 131.913 54.7277 132.163 53.0703 132.447C52.707 131.435 52.3324 130.412 51.9351 129.388C53.6606 128.934 55.3974 128.524 57.1456 128.16V128.172ZM58.1787 127.979C72.1046 125.257 86.4406 125.435 100.295 128.502C99.9202 129.639 99.5683 130.833 99.2277 132.015C85.9577 130.124 72.4985 129.972 59.189 131.56C58.8712 130.355 58.5306 129.161 58.1787 127.967V127.979ZM101.316 128.729C103.008 129.127 104.722 129.57 106.38 130.059C105.971 131.049 105.574 132.038 105.244 133.027C103.621 132.709 101.986 132.424 100.318 132.163C100.613 131.003 100.953 129.855 101.328 128.718L101.316 128.729ZM102.338 125.739C106.858 113.017 113.797 101.293 122.772 91.2173C123.987 92.559 125.235 93.8553 126.518 95.1288C118.953 104.999 112.603 115.746 107.606 127.137C105.88 126.614 104.12 126.136 102.35 125.727L102.338 125.739ZM129.424 93.5824C130.06 92.7978 130.684 92.036 131.32 91.3083C132.319 92.4453 133.341 93.5824 134.362 94.7194L132.943 96.8571C131.797 95.7883 130.616 94.6967 129.424 93.5824ZM135.486 96.0157L138.188 99.2563C137.95 99.7566 137.7 100.268 137.461 100.78L134.34 98.1079L134.192 97.9714C134.669 97.312 135.1 96.6525 135.532 96.0157H135.486ZM132.342 88.0563C131.343 86.9192 130.366 85.6457 129.413 84.3835C130.321 83.5307 131.252 82.7007 132.194 81.882C132.996 83.1555 133.791 84.3949 134.578 85.6002C133.874 86.4075 133.125 87.2148 132.387 88.0563H132.342ZM109.354 49.0777C108.741 47.5541 108.162 46.0304 107.617 44.5295C108.752 44.3134 109.887 44.086 111.023 43.8472C111.681 45.2041 112.362 46.58 113.066 47.9748C111.851 48.35 110.625 48.7252 109.399 49.0777H109.354ZM104.325 43.7222L101.26 44.177C100.862 42.551 100.511 40.925 100.193 39.2762L102.883 39.1739C103.371 40.6748 103.859 42.1758 104.37 43.7222H104.325ZM99.9089 37.6275C99.9089 37.3091 99.7726 36.9908 99.7272 36.6724L99.1482 33.193L100.965 33.3749L102.395 37.5252L99.9089 37.6275ZM59.768 36.2971C59.7112 36.6042 59.6431 36.9112 59.575 37.2182L57.1911 37.0817L58.6782 32.9997L60.4037 32.8632L59.768 36.2971ZM54.3985 36.3995V36.4677C54.3985 36.6042 54.3076 36.7406 54.2736 36.8657L52.0032 36.6837L54.1147 33.4886L55.511 33.3294L54.3985 36.3995ZM53.7287 38.4917C53.286 39.8562 52.8092 41.232 52.3097 42.6078C51.2767 42.3918 50.2549 42.1644 49.2333 41.9256C49.8576 40.6748 50.4706 39.4582 51.0496 38.2643L53.7287 38.4917ZM48.6089 43.165C49.676 43.4152 50.7545 43.6653 51.8443 43.8927C51.288 45.3823 50.709 46.8605 50.062 48.35C48.87 47.9862 47.6894 47.5882 46.5201 47.2129L48.6089 43.165ZM46.0093 48.1226C47.2126 48.5433 48.4273 48.9527 49.642 49.3279C44.5645 61.0968 38.0232 72.1761 30.1732 82.3027C29.265 81.4272 28.3341 80.5744 27.3919 79.7329C33.8058 69.8746 40.5036 58.5154 46.032 48.134L46.0093 48.1226ZM26.8357 80.6085C27.7552 81.4272 28.6633 82.2686 29.5488 83.1214C28.5612 84.3608 27.5622 85.5775 26.5405 86.7714C25.8253 85.9299 25.0988 85.1226 24.3723 84.3153C25.1896 83.11 26.007 81.882 26.8357 80.6085ZM23.589 85.4751C24.2814 86.2369 24.9626 87.0102 25.6437 87.7492C24.7053 88.8257 23.7517 89.8831 22.783 90.9216C22.2835 90.1598 21.7953 89.4435 21.3186 88.7271C22.0678 87.6583 22.8284 86.6008 23.589 85.4751ZM27.5054 90.0234C28.1298 90.7852 28.7314 91.5584 29.3331 92.2975C28.1979 93.4346 26.9719 94.492 25.7345 95.5495L24.3836 93.4118C25.428 92.3202 26.4724 91.1832 27.5054 90.0006V90.0234ZM24.4744 96.6866L24.009 97.0845L21.1256 99.4724L20.4445 97.8918L23.2371 94.6626L24.4744 96.6866ZM27.426 98.3012C28.7428 97.1641 30.0142 96.0271 31.263 94.89C38.5802 104.773 44.6788 115.505 49.4263 126.853C47.7462 127.323 46.0774 127.835 44.42 128.388C39.3343 118.45 33.2382 107.671 27.426 98.2784V98.3012ZM59.8702 134.369C72.7022 132.87 85.6728 133.019 98.4672 134.812C98.1493 136.078 97.8541 137.352 97.5817 138.633C90.2483 138.235 82.3472 138.03 74.5597 138.03C69.8259 138.03 65.1488 138.11 60.6648 138.258C60.4491 136.927 60.1767 135.642 59.8702 134.346V134.369ZM106.561 133.311C106.924 132.356 107.299 131.412 107.696 130.457C109.252 130.924 110.784 131.435 112.317 131.97L111.079 134.278C109.592 133.925 108.094 133.596 106.561 133.289V133.311ZM113.883 132.527L114.088 132.595L117.947 134.05C117.607 134.528 117.266 135.017 116.926 135.483L112.759 134.676C113.123 133.948 113.531 133.22 113.883 132.504V132.527ZM115.382 129.707C120.524 120.156 126.654 109.774 132.501 100.666L136.065 103.725C131.234 113.277 125.805 122.513 119.809 131.378L115.382 129.707ZM139.528 96.3795L137.189 93.571L138.415 91.7858L140.072 95.1174C139.906 95.5267 139.724 95.9399 139.528 96.3568V96.3795ZM141.219 97.4143L142.445 99.8817L140.924 98.0624L141.219 97.4143ZM136.406 83.6786C135.679 82.5415 134.941 81.4044 134.203 80.2674L137.178 77.8113C137.7 78.9484 138.199 80.0854 138.665 81.1315L136.406 83.6786ZM115.586 47.1447H115.529C114.871 45.8485 114.224 44.575 113.599 43.3128L117.13 42.6988C117.845 43.6994 118.56 44.7341 119.287 45.8257L115.586 47.1447ZM103.417 31.7148L102.52 29.0882L104.245 31.8171L103.417 31.7148ZM98.8758 31.2372L98.206 27.3939L99.0234 27.6555L100.283 31.3168C99.8067 31.2941 99.3185 31.2486 98.8304 31.2145L98.8758 31.2372ZM97.8428 24.9834L97.5703 23.3801L98.1606 25.0743L97.8428 24.9834ZM65.2964 23.9827L65.9775 20.3214C74.9497 16.8198 84.918 16.8808 93.8469 20.492L94.4599 24.1988C84.8341 22.3367 74.9486 22.2635 65.2964 23.9827ZM61.4935 27.212L60.801 30.9188L59.4501 31.0212L60.767 27.428L61.4935 27.212ZM61.7205 24.8014L62.1633 23.6644L61.9476 24.8014H61.7205ZM55.5677 31.3964L57.1456 28.9972L56.3056 31.2713L55.5677 31.3964ZM46.0433 42.642C45.419 43.8586 44.7606 45.1094 44.0908 46.3601L40.4581 44.9957C41.196 43.9496 41.9112 42.949 42.6264 41.9825L46.0433 42.642ZM24.9058 78.9256C24.1339 80.0627 23.3846 81.1998 22.6354 82.3368L20.4445 79.6988C20.9326 78.63 21.4434 77.5384 21.9997 76.4127L24.9058 78.9256ZM21.8408 83.4739C21.2051 84.4177 20.5807 85.3387 19.9563 86.2369L18.6849 83.6558C19.0255 82.8144 19.4039 81.9388 19.8201 81.0292L21.8408 83.4739ZM20.4445 90.41C20.8418 91.0012 21.2391 91.547 21.5797 92.2065L21.4207 92.3771L19.1503 94.9923C18.9687 94.5716 18.7984 94.1509 18.6395 93.7416L20.4445 90.41ZM17.7767 96.6411L16.2896 98.358L17.527 96.0157L17.7767 96.6411ZM19.5931 100.734L16.7437 103.077C16.6869 102.838 16.6415 102.611 16.5961 102.383L19.0481 99.5406C19.1957 99.9386 19.3887 100.337 19.5704 100.734H19.5931ZM14.7684 104.714L14.076 105.294L14.723 104.544C14.7435 104.599 14.7587 104.656 14.7684 104.714ZM15.722 108.023C18.8711 117.301 23.6922 125.923 29.9461 133.459L26.4497 134.687C19.0058 128.597 14.1655 119.889 12.918 110.343L15.722 108.023ZM34.5891 135.165L38.165 133.891L38.9937 135.108L35.2248 135.767L34.5891 135.165ZM32.489 136.245L30.6613 136.552L32.2846 135.983L32.489 136.245ZM40.0835 133.141L43.6594 131.879C43.8638 131.799 44.0794 131.742 44.2838 131.674C44.6698 132.424 45.0444 133.175 45.419 133.948L41.1279 134.699L40.0835 133.141ZM55.8515 140.952L60.1199 140.782L60.188 141.157L60.7897 144.762C59.4955 144.648 58.2468 144.511 57.0322 144.375L55.8515 140.952ZM98.0698 141.51C98.0698 141.396 98.1266 141.282 98.1493 141.168C99.557 141.237 100.942 141.328 102.304 141.419L101.044 144.796C99.9089 144.909 98.6374 145.012 97.3773 145.103L98.0698 141.51ZM117.175 138.383L119.718 138.872L116.71 138.997C116.869 138.826 117.016 138.621 117.175 138.417V138.383ZM119.843 134.699L123.249 135.995L122.647 136.541L118.992 135.836L119.843 134.699ZM125.633 136.87L126.927 137.359L125.428 137.064L125.633 136.87ZM142.661 109.331L145.374 111.605C143.894 121.094 138.876 129.669 131.331 135.597L127.926 134.323C134.322 126.974 139.323 118.515 142.683 109.365L142.661 109.331ZM140.935 91.1377L139.982 89.2388L140.719 87.8288L141.094 90.1939L140.935 91.1377ZM140.299 79.1303C139.876 78.1827 139.433 77.2162 138.971 76.2308L142.002 73.7293C142.252 74.6616 142.445 75.5713 142.615 76.4582L140.299 79.1303ZM141.798 53.8875C144.447 58.3998 146.046 63.4525 146.475 68.6693L143.353 71.2391C140.13 61.1646 134.919 51.8417 128.028 43.8245L131.888 42.46C135.992 45.4965 139.383 49.3971 141.821 53.8875H141.798ZM125.247 43.6539L121.478 45.0412C120.842 44.0974 120.218 43.165 119.593 42.2667L123.158 41.6527C123.862 42.2895 124.566 42.9717 125.269 43.6994L125.247 43.6539ZM112.396 37.2864L110.637 37.1841L109.411 35.251L110.455 35.649L112.396 37.2864ZM92.9273 14.8862L93.3474 17.4446C84.6786 14.3944 75.2406 14.3343 66.5338 17.2741L66.9993 14.7498C70.6215 11.8072 75.1765 10.2621 79.8384 10.3948H80.0654C84.7505 10.3061 89.3128 11.8993 92.9273 14.8862ZM50.2436 34.7621L49.1084 36.4563L49.0403 36.5814L47.3715 36.6496L49.2673 35.1032L50.2436 34.7621ZM40.1743 41.4367C39.55 42.3008 38.9142 43.1991 38.2785 44.1088L34.6232 42.7443C35.3156 42.0393 36.0195 41.3798 36.7233 40.7772L40.1743 41.4367ZM17.2772 72.3193L20.2174 74.8436C19.7293 75.8214 19.2752 76.788 18.8325 77.7317L16.562 75.0482C16.7664 74.1841 17.0048 73.2858 17.2772 72.3534V72.3193ZM18.1854 86.3507L18.9006 87.7947L17.9243 89.6709L17.7654 88.7044L18.1854 86.3507ZM38.0742 138.087L40.8782 137.689L41.3663 138.383L38.1537 138.178L38.0742 138.087ZM46.7926 141.191L49.063 141.339L50.0052 142.817L47.6213 141.908L46.7926 141.191ZM57.9062 146.786L61.2324 147.104L61.8908 151.106C60.9146 150.845 59.9837 150.561 59.0982 150.242L57.9062 146.786ZM96.3102 151.334L97.0368 147.4L100.272 147.149L99.0348 150.561C98.1152 150.822 97.2071 151.095 96.2535 151.334H96.3102ZM108.139 143.295L109.059 141.919L111.238 141.828L110.444 142.465L108.139 143.295ZM144.727 76.7425C144.727 76.5946 144.67 76.4355 144.636 76.2763L145.465 75.3098L144.727 76.7425ZM148.893 69.2947L148.246 70.0565C148.246 69.6017 148.246 69.1355 148.246 68.6693L150.187 67.0661C149.82 67.8562 149.367 68.6036 148.836 69.2947H148.893ZM155.034 46.633C156.633 49.3296 157.26 52.4934 156.812 55.597C156.364 58.7007 154.867 61.5567 152.571 63.689C153.066 58.8403 152.059 53.9565 149.687 49.7008C147.315 45.4452 143.692 42.0239 139.312 39.9016C142.298 39.0842 145.473 39.3047 148.318 40.5272C151.163 41.7498 153.511 43.9021 154.978 46.633H155.034ZM132.33 40.0608C133.319 39.9794 134.314 40.0176 135.293 40.1745L132.83 41.0387C132.398 40.7431 131.967 40.4588 131.524 40.1973L132.33 40.0608ZM126.087 39.7766L124.373 40.0722L123.873 39.6401L126.087 39.7766ZM80.0882 3.14038C82.5292 3.1267 84.923 3.81468 86.9854 5.12269C89.0479 6.43071 90.6925 8.30387 91.724 10.5199C88.1202 8.59409 84.1042 7.57158 80.0197 7.53989C75.9352 7.50821 71.9038 8.4683 68.2707 10.338C69.347 8.13188 71.0323 6.28121 73.1269 5.00548C75.2215 3.72974 77.6374 3.08245 80.0882 3.14038ZM36.0422 38.8214L35.5767 39.208L34.0215 38.901L36.0422 38.8214ZM26.5065 39.0147C26.9224 38.9918 27.3393 38.9918 27.7552 39.0147L28.5044 39.1625C28.0844 39.4013 27.6644 39.6628 27.233 39.9471L24.8945 39.0716C25.4301 39.0188 25.9685 38.9998 26.5065 39.0147ZM5.07379 45.2231C6.27022 43.1263 7.9912 41.3777 10.0673 40.1495C12.1434 38.9214 14.5031 38.2559 16.914 38.2188C18.2312 38.226 19.5412 38.4135 20.8077 38.7759C16.4142 40.8149 12.7474 44.1498 10.2986 48.3341C7.84978 52.5183 6.73579 57.3521 7.1058 62.1881C4.90217 60.0069 3.50159 57.142 3.13255 54.061C2.76351 50.9799 3.4478 47.8645 5.07379 45.2231ZM9.43298 65.6334L11.2947 67.2253C11.2947 67.7142 11.2379 68.1804 11.2379 68.658L10.7271 68.0439C10.2054 67.2924 9.77122 66.4837 9.43298 65.6334ZM13.7581 73.7861L14.6549 74.8549L14.5527 75.378L13.7581 73.7861ZM4.83539 130.867C3.59977 128.753 2.99736 126.327 3.10002 123.88C3.20267 121.432 4.00604 119.066 5.41434 117.063C5.52596 121.137 6.61593 125.124 8.59196 128.687C10.568 132.249 13.3719 135.283 16.7664 137.53C14.3517 137.666 11.9481 137.112 9.83571 135.932C7.72334 134.752 5.98919 132.996 4.83539 130.867ZM57.6451 151.789L58.2241 152.005L58.769 153.562L57.6451 151.789ZM62.186 159.214L61.8681 158.281C62.2995 158.543 62.7422 158.782 63.2077 159.009L63.639 161.636C63.0583 160.91 62.556 160.125 62.1406 159.293L62.186 159.214ZM78.987 175.94H78.8508C75.7388 175.969 72.7095 174.936 70.2608 173.013C67.812 171.089 66.0894 168.388 65.3759 165.354C69.2696 168.254 74.0105 169.785 78.8621 169.709H79.1232C83.938 169.836 88.6582 168.356 92.5414 165.502C91.8027 168.536 90.0521 171.227 87.5791 173.129C85.1061 175.031 82.0589 176.031 78.9416 175.963L78.987 175.94ZM95.7426 159.475C95.3652 160.282 94.9008 161.044 94.3577 161.749L94.8345 159.214C95.2659 158.998 95.6859 158.782 96.0832 158.543L95.7426 159.475ZM99.3299 153.597L99.8067 152.312L100.295 152.141L99.3299 153.597ZM152.957 132.265C151.767 134.363 150.009 136.081 147.886 137.22C145.762 138.358 143.36 138.872 140.958 138.701C144.386 136.537 147.245 133.581 149.295 130.081C151.346 126.581 152.528 122.639 152.741 118.586C154.069 120.617 154.791 122.985 154.821 125.412C154.851 127.84 154.189 130.225 152.912 132.288L152.957 132.265Z" fill="url(#paint0_linear_599_7598)" fill-opacity="0.03"/>
<defs>
<linearGradient id="paint0_linear_599_7598" x1="5.24355e-06" y1="88.5" x2="145.118" y2="131.736" gradientUnits="userSpaceOnUse">
<stop stop-color="#5EE6D0"/>
<stop offset="0.515056" stop-color="#BFC6FF"/>
<stop offset="1" stop-color="#FFBA69"/>
</linearGradient>
</defs>
</svg>
