<svg width="58" height="58" viewBox="0 0 58 58" fill="none" xmlns="http://www.w3.org/2000/svg">
<path fill-rule="evenodd" clip-rule="evenodd" d="M41.1763 7.05178C31.7708 -2.35099 16.4699 -2.35099 7.06336 7.05414C-2.35264 16.4569 -2.35391 31.7688 7.05629 41.1752C16.4665 50.5769 31.7708 50.5769 41.1763 41.1739C50.5818 31.7688 50.5807 16.4558 41.1763 7.05178ZM11.4899 36.7463C4.52639 29.7829 4.52856 18.4463 11.4922 11.4899C18.4559 4.5276 29.7859 4.5276 36.7472 11.4865C43.7064 18.4463 43.704 29.77 36.7472 36.7439C29.7848 43.6852 18.4559 43.7108 11.4899 36.7463ZM56.4712 49.062L46.1179 38.7335C46.0735 38.6891 46.0224 38.6546 45.9744 38.6225L45.9497 38.6059C45.0194 40.0362 43.907 41.3956 42.6518 42.6507C41.3978 43.9058 40.0359 45.0183 38.5906 45.951C38.6143 45.9758 38.6353 46.0026 38.6562 46.0293C38.6803 46.0601 38.7042 46.0907 38.7321 46.1179L49.0645 56.4697C51.1096 58.5112 54.4308 58.509 56.469 56.4697C58.5093 54.4281 58.5106 51.1059 56.4712 49.062ZM12.0583 21.9695C13.8307 21.0402 15.9374 23.9564 16.4491 26.0583C17.8014 31.606 22.3358 34.3577 24.8796 35.9015C26.1502 36.6725 26.9241 37.1423 26.5575 37.5086C25.4381 38.6267 14.6719 36.7581 11.7114 27.9177C11.0491 25.9737 10.6536 22.6863 12.0583 21.9695Z" fill="url(#paint0_linear_599_7379)"/>
<defs>
<linearGradient id="paint0_linear_599_7379" x1="0.744581" y1="24.349" x2="50.8645" y2="45.7282" gradientUnits="userSpaceOnUse">
<stop stop-color="#5EE6D0"/>
<stop offset="0.515056" stop-color="#BFC6FF"/>
<stop offset="1" stop-color="#FFBA69"/>
</linearGradient>
</defs>
</svg>
