<svg width="61" height="68" viewBox="0 0 61 68" fill="none" xmlns="http://www.w3.org/2000/svg">
<path d="M57.8948 43.3345L57.8095 43.262C57.6387 42.6724 57.3721 42.1149 57.0206 41.6117L56.2829 40.7247C56.2439 40.4543 56.1884 40.1866 56.1166 39.923L55.1059 37.8932L54.526 34.294L55.1784 30.6949L56.091 28.9551V28.9039C56.185 28.5843 56.2534 28.2578 56.2957 27.9274L56.9993 27.1129C57.3907 26.5762 57.6799 25.9719 57.8522 25.3304L57.9289 25.2707C58.9552 24.4223 59.6502 23.24 59.8924 21.9308C60.1346 20.6216 59.9084 19.2689 59.2535 18.1096C58.5986 16.9503 57.5568 16.0584 56.3104 15.5901C55.0641 15.1217 53.6927 15.1068 52.4364 15.5479H52.4108C51.7378 15.3411 51.0315 15.2644 50.3298 15.3219L49.3533 15.4925C49.0194 15.3374 48.6727 15.2119 48.317 15.1172L46.364 14.9978L46.317 14.9637L42.9055 13.6545L40.0655 11.2451L38.8544 9.33044L38.799 9.26221C38.6078 9.05774 38.4026 8.86681 38.1849 8.69078L37.8182 7.60763V7.56499C37.5623 6.99285 37.2136 6.46694 36.7862 6.0085L36.7606 5.86777C36.5244 4.46326 35.8014 3.1867 34.7183 2.26186C33.6352 1.33702 32.2611 0.822934 30.8369 0.80971C29.4128 0.796485 28.0294 1.28497 26.9293 2.18954C25.8292 3.0941 25.0826 4.35702 24.8204 5.7569L24.782 5.94453C24.3596 6.3823 24.0097 6.88471 23.7457 7.4328L23.3193 8.60123C23.1164 8.76208 22.9227 8.93436 22.7394 9.11722L21.3833 11.1684L18.5475 13.4626L15.2554 14.6396L15.1786 14.6822L15.136 14.7121L13.2725 14.7888H13.2127C12.8593 14.8752 12.514 14.9922 12.1808 15.1385L11.2341 14.9551H11.2128C10.525 14.8863 9.83044 14.9485 9.16587 15.1385C7.91744 14.6714 6.54438 14.659 5.28768 15.1033C4.03098 15.5477 2.97095 16.4205 2.29363 17.5686C1.61631 18.7166 1.36498 20.0665 1.58375 21.3814C1.80252 22.6963 2.47743 23.8921 3.49 24.7589L3.52411 24.7845C3.68533 25.4465 3.96566 26.0736 4.3514 26.6352L4.98679 27.3943C5.02116 27.7431 5.08536 28.0884 5.17869 28.4263L6.03156 30.1576V30.2216L6.60298 33.7653L5.95906 37.309L4.88871 39.3559L4.85459 39.4411C4.78129 39.6844 4.72431 39.9323 4.68402 40.1831L3.9079 41.0744L3.87805 41.1128C3.5269 41.597 3.25486 42.1339 3.07209 42.7034L2.93563 42.8185C1.83017 43.724 1.07998 44.9907 0.817392 46.3953C0.5548 47.7999 0.796674 49.2522 1.50035 50.4958C2.20403 51.7395 3.32429 52.6947 4.66355 53.193C6.0028 53.6913 7.475 53.7006 8.82046 53.2193L8.90575 53.1852C9.52365 53.3431 10.1634 53.3979 10.7991 53.3472L11.9292 53.1511C12.206 53.2651 12.4911 53.3578 12.7821 53.4283L15.0678 53.5733L18.5304 54.9037L21.3151 57.2619L21.3918 57.3088L22.4408 58.9592L22.475 59.0018C22.72 59.2631 22.9883 59.5014 23.2767 59.714L23.6221 60.7118C23.9045 61.3401 24.3039 61.9088 24.799 62.3877V62.4517C24.9939 63.7783 25.6629 64.9893 26.6822 65.8604C27.7015 66.7315 29.002 67.2036 30.3427 67.1894H30.3982C31.7283 67.2147 33.0231 66.7608 34.0464 65.9106C35.0696 65.0603 35.7529 63.8705 35.9717 62.5583V62.4432C36.4565 61.9769 36.8524 61.4264 37.1401 60.8184L37.5111 59.8078C37.782 59.6105 38.0359 59.3908 38.2702 59.1511L39.4216 57.4197L42.2957 55.0914L45.7371 53.859L47.8693 53.7694H47.9588C48.2402 53.7016 48.5166 53.6147 48.7861 53.5093L49.8437 53.714H49.8906C50.0861 53.7346 50.2825 53.7445 50.4791 53.7438C50.9098 53.7422 51.3389 53.6922 51.7584 53.5946L51.8266 53.6202C52.5408 53.8969 53.2995 54.0414 54.0654 54.0466C55.1072 54.0313 56.127 53.7449 57.0243 53.2155C57.9216 52.686 58.6655 51.9319 59.1827 51.0274C59.9369 49.8069 60.222 48.3539 59.9851 46.9388C59.7482 45.5238 59.0054 44.2429 57.8948 43.3345ZM55.8436 49.0744C54.9916 50.6128 53.6186 51.7968 51.9716 52.4134L51.1187 52.0935C53.7203 49.849 55.5061 46.8068 56.1976 43.4411L56.8884 44.0296C57.16 45.7822 56.789 47.5738 55.8436 49.0744ZM38.9909 56.8355C38.8416 56.9037 38.6838 56.972 38.5175 57.0359L38.9226 55.94L39.7115 55.8547L39.1444 56.7076L38.9909 56.8355ZM37.1487 59.3003C36.9293 59.455 36.7015 59.5974 36.4664 59.7267L36.7222 58.3451C37.0165 58.2726 37.3022 58.2001 37.5751 58.1191L37.1487 59.3003ZM35.6348 62.0551C34.1554 63.2933 32.2851 63.9671 30.356 63.957C28.4269 63.9468 26.5638 63.2533 25.0976 61.9997L24.8758 60.6564C26.6028 61.3786 28.458 61.7441 30.3299 61.731H30.4877C32.3351 61.7596 34.1694 61.4174 35.8821 60.7246L35.6348 62.0551ZM30.3342 61.1127C28.4061 61.1255 26.4988 60.7134 24.7479 59.9059L24.492 58.3707C26.5093 58.808 28.5686 59.0225 30.6327 59.0103C32.5373 59.0221 34.438 58.8363 36.3043 58.456L36.0229 59.9741C34.2348 60.7715 32.2915 61.1605 30.3342 61.1127ZM23.1956 58.0253C23.4771 58.1148 23.7713 58.1958 24.0741 58.2683L24.3086 59.6713C24.0653 59.5317 23.8303 59.3779 23.605 59.2108L23.1956 58.0253ZM21.6477 56.6095L21.0677 55.6927L21.8865 55.795L22.2745 56.9165C22.0826 56.8398 21.895 56.7588 21.7202 56.6735L21.6477 56.6095ZM4.90577 48.6095C3.97941 47.0753 3.64575 45.2554 3.9676 43.4923L4.68828 42.8995C4.97759 44.6109 5.57273 46.2562 6.4452 47.7567C7.26173 49.2326 8.32466 50.558 9.58804 51.6756L8.68826 51.9912C7.06787 51.3457 5.72802 50.1478 4.90577 48.6095ZM6.76077 30.2045C6.76077 30.0212 6.80341 29.8293 6.83326 29.6331L7.55394 30.486C7.44306 30.7248 7.33645 30.9636 7.23411 31.1981L6.77356 30.2728L6.76077 30.2045ZM5.59233 27.3602C5.56561 27.091 5.55423 26.8205 5.55822 26.55L6.59019 27.4327C6.5049 27.7141 6.42388 27.9956 6.35565 28.2856L5.59233 27.3602ZM5.02943 19.1854C5.95832 17.4979 7.4979 16.2299 9.33218 15.6417L10.5518 16.098C7.58421 18.4449 5.60581 21.8204 5.00811 25.5564L4.02304 24.7035C3.63454 22.8032 3.9951 20.8262 5.02943 19.1854ZM7.4388 20.5926C8.39122 18.9185 9.70176 17.4754 11.2767 16.3666L12.684 16.8912C10.0349 19.8343 8.00468 23.2799 6.71386 27.0233L5.57953 26.051C5.78348 24.1115 6.41875 22.2421 7.4388 20.5798V20.5926ZM13.6008 15.953C13.3919 16.1492 13.1744 16.3794 12.9654 16.5799L11.6861 16.1023C11.9263 15.9623 12.174 15.8356 12.4281 15.7227L13.6008 15.953ZM15.5411 15.3261L16.6242 15.2835L16.1381 15.9232L15.0166 15.7099C15.1914 15.5735 15.3663 15.4455 15.5368 15.3304L15.5411 15.3261ZM45.9503 15.6161C46.1252 15.7355 46.3 15.872 46.4748 16.017L45.3149 16.2174C45.1486 15.9871 44.9866 15.7611 44.8245 15.5436L45.9375 15.6119L45.9503 15.6161ZM49.1017 16.0724C49.3597 16.2003 49.6103 16.3427 49.8522 16.4988L48.526 16.9679C48.3128 16.7376 48.0995 16.5159 47.8863 16.3069L49.1017 16.0724ZM56.4577 19.6715C57.4733 21.3424 57.7976 23.3433 57.3618 25.2493L56.3383 26.1022C55.8209 22.3449 53.9089 18.9198 50.9823 16.5074L52.2616 16.0809C54.0623 16.7001 55.5616 17.9785 56.4577 19.6587V19.6715ZM54.9012 28.7973C54.8415 28.5244 54.769 28.2429 54.6923 27.9444L55.7541 27.0915C55.7512 27.3582 55.7327 27.6245 55.6987 27.889L54.9012 28.7973ZM54.4492 30.6395L54.4151 30.8314L53.9503 31.7141C53.8564 31.4838 53.7584 31.245 53.6518 31.002L54.398 30.1491C54.4179 30.314 54.435 30.4774 54.4492 30.6395ZM42.1891 53.053C42.3128 52.8057 42.4365 52.5541 42.5644 52.3025L43.9333 52.5626L43.6006 52.989L42.1891 53.053ZM40.2403 54.9421C39.9205 54.9848 39.5879 55.0231 39.251 55.0573L39.6774 53.8974L40.9567 53.9954L40.3555 54.9037L40.2403 54.9421ZM23.959 55.1468L23.7159 53.6969C23.7179 53.6671 23.7179 53.6372 23.7159 53.6074C28.0357 53.4752 32.9056 53.5221 37.2041 53.7438C37.2041 53.7694 37.2041 53.795 37.2041 53.8206L36.9354 55.2577C32.6111 55.5167 28.274 55.4796 23.9547 55.1468H23.959ZM36.7521 56.1148L36.4621 57.6671C32.4712 58.4896 28.3515 58.4606 24.3726 57.5818L24.1125 56.0082C26.3598 56.1831 28.8545 56.2726 31.315 56.2726C33.1828 56.2854 35.0335 56.2172 36.7393 56.1148H36.7521ZM20.4792 54.7502L19.8694 53.7907C20.2959 53.7609 20.7223 53.7353 21.1786 53.714L21.605 54.908C21.2255 54.8568 20.8545 54.8099 20.5006 54.7545L20.4792 54.7502ZM17.2042 52.746L16.863 52.2897L18.2021 52.0594H18.2703C18.4025 52.3281 18.5262 52.5925 18.6498 52.8526L17.2042 52.746ZM14.8801 17.7014C12.5165 21.1672 10.3799 24.7824 8.48357 28.5244L7.3194 27.5308C8.60367 23.685 10.6812 20.1518 13.4174 17.1598L14.8801 17.7014ZM15.6946 18.0084L17.1019 18.5329C15.0763 22.3112 12.62 26.4732 10.2789 30.0467L9.14455 29.0787C11.0692 25.2442 13.2534 21.5455 15.6818 18.0084H15.6946ZM18.8375 15.1769C18.6541 15.5479 18.4622 15.9317 18.2618 16.3197L17.072 16.0895C17.3023 15.7867 17.524 15.4967 17.7458 15.2366L18.8375 15.1769ZM41.1828 14.776L40.3086 14.8315C40.2872 14.7675 40.2659 14.7035 40.2489 14.6438L39.8437 13.4669L40.4024 13.5479L41.1828 14.776ZM43.7414 15.4626C43.9589 15.7483 44.1678 16.0511 44.4109 16.3666L43.1785 16.5799C42.9823 16.1534 42.7947 15.7824 42.6113 15.3944L43.7414 15.4626ZM52.1038 29.5819L50.9354 30.5457C48.6752 26.9082 46.2829 22.6822 44.3171 18.8485L45.7499 18.3325C48.1138 21.9342 50.2295 25.6927 52.0825 29.5819H52.1038ZM46.59 18.0425L48.0825 17.5138C50.7635 20.5713 52.7714 24.1585 53.9759 28.0425L52.7435 29.0276C50.9261 25.2356 48.8634 21.5662 46.5686 18.0425H46.59ZM53.413 32.6224V32.7248L52.9268 33.6842C52.7008 33.3474 52.4748 33.0019 52.2403 32.6437L53.0334 31.7312C53.167 32.0325 53.2907 32.3296 53.4044 32.6224H53.413ZM53.9887 39.987L52.9524 39.0957C53.0249 38.9507 53.0974 38.7972 53.1656 38.6693L54.0569 39.7354C54.0228 39.8079 54.0228 39.8974 53.9801 39.987H53.9887ZM54.7264 40.52L54.9993 40.8484L54.7051 40.5968C54.7051 40.5712 54.7093 40.5456 54.7179 40.5072L54.7264 40.52ZM46.4364 50.3281C48.6285 47.0695 50.6222 43.6817 52.4066 40.1831L53.5963 41.2322C52.3447 44.791 50.4158 48.0739 47.9162 50.8995L46.4364 50.3281ZM39.9887 52.9464C40.1124 52.5669 40.2403 52.1873 40.3768 51.8036C40.9098 51.9102 41.4301 52.0253 41.9461 52.149C41.7883 52.4603 41.639 52.7673 41.4898 53.0701L39.9887 52.9464ZM37.7883 52.8057C37.8907 52.3366 38.0015 51.8675 38.1209 51.407C38.7094 51.4965 39.2936 51.5946 39.8736 51.7055C39.7329 52.1063 39.5964 52.5114 39.4472 52.9123C38.9098 52.8739 38.3512 52.8441 37.7798 52.8142L37.7883 52.8057ZM21.4089 52.7289C21.2852 52.3025 21.153 51.9059 21.0123 51.4922C21.6093 51.3942 22.2106 51.3089 22.8161 51.2321C22.927 51.7055 23.0293 52.1788 23.1231 52.6564L21.4089 52.7289ZM19.3449 52.8568C19.1999 52.5413 19.0507 52.2257 18.8929 51.9016C19.4217 51.7865 19.9633 51.6799 20.5091 51.5861C20.6413 51.9784 20.7692 52.3707 20.8886 52.7588C20.3342 52.7971 19.8353 52.827 19.3364 52.8739L19.3449 52.8568ZM17.9547 49.9997C18.5475 49.8036 19.1402 49.6245 19.7415 49.4624C19.8822 49.8291 20.0187 50.1959 20.1679 50.5584C19.5795 50.665 18.9995 50.7844 18.4281 50.908L17.9547 49.9997ZM9.16587 39.2279L10.4836 38.1405L10.5433 38.0893C12.6754 41.552 14.927 45.5093 16.8034 49.1511L16.7181 49.1767L15.0933 49.7524C12.8973 46.3729 10.9175 42.8577 9.16587 39.2279ZM14.3641 49.9912L12.8119 50.537C10.3618 47.6545 8.49498 44.3234 7.31513 40.729L8.56886 39.697C10.2891 43.2432 12.2245 46.681 14.3641 49.9912ZM36.7308 13.1598L36.9994 14.7632C36.9994 14.8315 37.025 14.8954 37.0378 14.9637C32.9355 15.0831 28.3683 15.0362 24.2831 14.8357L24.3214 14.6438L24.6199 13.0532C28.6607 12.8322 32.7115 12.8678 36.7478 13.1598H36.7308ZM24.7564 12.307L25.0592 10.6822C28.7873 9.97697 32.6172 10.0059 36.3342 10.7675L36.6071 12.405C32.6681 12.1329 28.7161 12.103 24.7735 12.3155L24.7564 12.307ZM41.5068 15.3688C41.7158 15.8251 41.9333 16.2942 42.1721 16.7718C41.7755 16.857 41.3789 16.9338 40.9738 17.0106C40.7904 16.4818 40.6199 15.9573 40.4621 15.4328L41.5068 15.3688ZM50.1848 31.1768C49.8224 31.4924 49.4641 31.8122 49.1145 32.1405C46.2083 28.275 43.8066 24.0548 41.9674 19.582C42.4407 19.4498 42.9098 19.3048 43.3789 19.1555C45.3874 23.1086 47.8394 27.4327 50.1848 31.1768ZM52.4023 34.5883C52.2147 34.8569 52.0228 35.1299 51.8309 35.4113C51.4769 35.0275 51.1273 34.6267 50.7818 34.2216C51.0462 33.923 51.3106 33.6331 51.5793 33.3474C51.8479 33.7781 52.1208 34.1917 52.3938 34.5926L52.4023 34.5883ZM43.4727 49.2364C42.8672 49.0189 42.2574 48.81 41.6433 48.6266C43.4915 44.4318 45.835 40.4733 48.6241 36.8356C49.0789 37.2791 49.5466 37.7055 50.0271 38.1149C47.7797 41.6117 45.4301 45.5904 43.4642 49.2407L43.4727 49.2364ZM22.9824 15.3816C22.8545 15.9871 22.7138 16.5884 22.556 17.1854C22.1807 17.1257 21.8097 17.066 21.443 16.9978C21.6477 16.4391 21.8353 15.8805 22.0144 15.3219L22.9824 15.3816ZM47.6518 34.1448C47.9546 33.825 48.2573 33.5094 48.5686 33.2024C48.9524 33.697 49.3419 34.1803 49.7371 34.6523C49.4855 34.9465 49.2424 35.2493 48.9951 35.552C48.526 35.0872 48.0782 34.6224 47.6262 34.1405L47.6518 34.1448ZM47.3874 33.8463C43.8809 29.878 41.2237 25.2341 39.5793 20.2003C40.0314 20.1022 40.4791 19.9999 40.9269 19.8848C42.8211 24.5215 45.308 28.8933 48.3256 32.8911C47.9972 33.1938 47.6902 33.5179 47.3789 33.842L47.3874 33.8463ZM46.5814 34.7248C43.1512 38.5597 40.5019 43.0269 38.7819 47.8761C33.3333 46.6487 27.6878 46.579 22.2106 47.6714C20.5559 42.7461 17.9477 38.1947 14.5347 34.277C18.2462 30.2172 21.08 25.4352 22.8588 20.2302C27.9748 21.3205 33.2561 21.3872 38.3981 20.4263C40.1015 25.7067 42.8855 30.5747 46.5729 34.7205L46.5814 34.7248ZM39.4557 19.7995C39.251 19.1555 39.0634 18.5202 38.8928 17.8592C39.2965 17.8052 39.6973 17.7455 40.0953 17.6801C40.3086 18.2814 40.5218 18.8869 40.7776 19.4882C40.3299 19.6118 39.8864 19.7142 39.4472 19.8123L39.4557 19.7995ZM38.283 20.0297C33.2266 20.9685 28.0349 20.9033 23.0037 19.8378C23.2198 19.1811 23.4202 18.5159 23.605 17.8421C28.2828 18.4738 33.0205 18.5282 37.7116 18.0042C37.8779 18.6993 38.0655 19.373 38.2745 20.0383L38.283 20.0297ZM23.7457 17.3602C23.9121 16.7291 24.057 16.0809 24.1935 15.4498C28.3513 15.6588 33.0165 15.7057 37.1913 15.582C37.315 16.2302 37.4514 16.8613 37.6177 17.518C33.0045 18.0296 28.3461 17.9766 23.7457 17.3602ZM22.4408 17.6843C22.2617 18.324 22.0656 18.9636 21.8566 19.5862C21.4302 19.4839 21.0038 19.3773 20.5773 19.2579C20.8247 18.6694 21.0592 18.0767 21.2767 17.4882L22.4408 17.6843ZM21.7244 19.9615C20.0071 24.9293 17.2985 29.4964 13.7629 33.3857C13.4644 33.0574 13.1616 32.7376 12.8503 32.422C15.9098 28.4979 18.455 24.1987 20.4238 19.6289C20.8332 19.744 21.2681 19.8549 21.7031 19.9615H21.7244ZM13.4772 33.6842C13.0337 34.1619 12.5774 34.6295 12.1083 35.0872C11.8695 34.7802 11.6264 34.4774 11.3876 34.1832C11.7885 33.7141 12.1879 33.2336 12.5859 32.7418C12.8887 33.0446 13.1829 33.3602 13.4772 33.6842ZM14.2703 34.5712C17.6195 38.4325 20.1808 42.9118 21.8097 47.7567C21.1274 47.9016 20.4494 48.0637 19.7756 48.2428C17.9627 43.9097 15.63 39.8129 12.829 36.0424C13.3236 35.5563 13.8041 35.0645 14.2703 34.567V34.5712ZM22.1807 48.8782C22.3086 49.3188 22.4323 49.7581 22.5517 50.1959C21.9078 50.2812 21.2724 50.375 20.6498 50.4816C20.5133 50.1021 20.3726 49.7183 20.2234 49.3345C20.8716 49.1639 21.524 49.0104 22.1807 48.8739V48.8782ZM22.5688 48.8057C27.8 47.7851 33.1853 47.8519 38.3896 49.0019C38.2489 49.4283 38.1167 49.8761 37.9887 50.3195C33.0039 49.6105 27.948 49.5531 22.9483 50.149C22.8289 49.6969 22.701 49.2492 22.5688 48.8014V48.8057ZM38.7734 49.0871C39.4088 49.2364 40.0527 49.4027 40.6753 49.5861C40.5218 49.9571 40.3725 50.3281 40.2489 50.6991C39.639 50.5797 39.025 50.4731 38.3981 50.375C38.509 49.94 38.6369 49.5093 38.7776 49.0829L38.7734 49.0871ZM39.1572 47.9656C40.855 43.1945 43.4617 38.7979 46.833 35.019C47.2893 35.5222 47.7584 36.0083 48.2403 36.4859C45.3986 40.1875 43.0133 44.2179 41.1358 48.4901C40.4877 48.294 39.8267 48.1149 39.1614 47.9613L39.1572 47.9656ZM49.332 35.906C49.5708 35.6117 49.8053 35.326 50.0441 35.0531C50.4194 35.4795 50.8032 35.906 51.187 36.3324L50.6539 37.1341C50.2232 36.7333 49.7797 36.3239 49.332 35.906ZM51.6091 36.8186L52.6241 38.0339C52.5345 38.2215 52.4407 38.4134 52.3511 38.6053L51.1784 37.6032L51.123 37.552C51.3021 37.3047 51.4641 37.0574 51.6262 36.8186H51.6091ZM50.4279 33.8335C50.0526 33.4071 49.6859 32.9295 49.3277 32.4561C49.6688 32.1363 50.0185 31.825 50.3725 31.5179C50.6738 31.9956 50.9723 32.4604 51.268 32.9124C51.0036 33.2152 50.7221 33.5179 50.445 33.8335H50.4279ZM41.7926 19.2152C41.5623 18.6438 41.3448 18.0724 41.1401 17.5095C41.5665 17.4285 41.993 17.3432 42.4194 17.2536C42.6668 17.7625 42.9226 18.2785 43.187 18.8016C42.7307 18.9423 42.2702 19.0831 41.8096 19.2152H41.7926ZM39.9034 17.2067L38.7521 17.3773C38.6028 16.7675 38.4706 16.1577 38.3512 15.5394L39.3619 15.501C39.5452 16.0639 39.7286 16.6268 39.9205 17.2067H39.9034ZM38.2446 14.921C38.2446 14.8016 38.1934 14.6822 38.1764 14.5628L37.9589 13.2579L38.6412 13.3262L39.1785 14.8826L38.2446 14.921ZM23.1658 14.4221C23.1445 14.5372 23.1189 14.6524 23.0933 14.7675L22.1978 14.7163L22.7564 13.1854L23.4046 13.1343L23.1658 14.4221ZM21.1487 14.4605V14.4861C21.1487 14.5372 21.1146 14.5884 21.1018 14.6353L20.249 14.5671L21.0421 13.3688L21.5667 13.3091L21.1487 14.4605ZM20.8972 15.2451C20.7308 15.7568 20.5517 16.2728 20.3641 16.7888C19.976 16.7078 19.5922 16.6225 19.2085 16.533C19.443 16.0639 19.6733 15.6076 19.8908 15.1598L20.8972 15.2451ZM18.9739 16.9978C19.3748 17.0916 19.7799 17.1854 20.1893 17.2707C19.9803 17.8293 19.7628 18.3837 19.5198 18.9423C19.072 18.8059 18.6285 18.6566 18.1893 18.5159L18.9739 16.9978ZM17.9974 18.857C18.4494 19.0148 18.9057 19.1683 19.362 19.3091C17.4547 23.7228 14.9974 27.8779 12.0486 31.6757C11.7074 31.3474 11.3578 31.0275 11.0038 30.712C13.4132 27.0148 15.9292 22.7547 18.0059 18.8613L17.9974 18.857ZM10.7949 31.0403C11.1403 31.3474 11.4814 31.6629 11.814 31.9828C11.443 32.4476 11.0678 32.9039 10.684 33.3516C10.4153 33.0361 10.1424 32.7333 9.86949 32.4305C10.1765 31.9785 10.4836 31.5179 10.7949 31.0403ZM9.57524 32.8655C9.83537 33.1512 10.0912 33.4412 10.3471 33.7184C9.99457 34.1221 9.63637 34.5186 9.27248 34.9081C9.08485 34.6224 8.90147 34.3538 8.72237 34.0851C9.00382 33.6842 9.28953 33.2877 9.57524 32.8655ZM11.0465 34.5712C11.281 34.8569 11.507 35.1469 11.733 35.4241C11.3066 35.8505 10.846 36.2471 10.3812 36.6437L9.87375 35.842C10.2661 35.4326 10.6584 35.0062 11.0465 34.5627V34.5712ZM9.90786 37.0702L9.73304 37.2194L8.64988 38.1149L8.39402 37.5222L9.44305 36.3111L9.90786 37.0702ZM11.0166 37.6757C11.5113 37.2493 11.9889 36.8228 12.458 36.3964C15.2067 40.1028 17.4976 44.1277 19.281 48.3835C18.6498 48.5598 18.023 48.7517 17.4004 48.9592C15.4899 45.2322 13.2 41.1895 11.0166 37.6672V37.6757ZM23.2042 51.2023C28.0245 50.6403 32.8969 50.6962 37.703 51.3686C37.5836 51.8433 37.4728 52.321 37.3704 52.8014C34.6156 52.6522 31.6476 52.5754 28.7223 52.5754C26.944 52.5754 25.1871 52.6053 23.5027 52.6607C23.4216 52.1618 23.3193 51.6799 23.2042 51.1937V51.2023ZM40.7435 50.8057C40.88 50.4475 41.0207 50.0935 41.1699 49.7353C41.7542 49.9102 42.3299 50.1021 42.9055 50.3025L42.4407 51.1682C41.8821 51.036 41.3192 50.9123 40.7435 50.7972V50.8057ZM43.494 50.5114L43.5708 50.537L45.0207 51.0829C44.8928 51.262 44.7648 51.4453 44.6369 51.6202L43.0719 51.3174C43.2083 51.0445 43.3618 50.7716 43.494 50.5029V50.5114ZM44.0569 49.4539C45.9887 45.8718 48.2914 41.9784 50.4876 38.5627L51.8266 39.7098C50.0119 43.2921 47.9723 46.756 45.72 50.0807L44.0569 49.4539ZM53.1272 36.955L52.2488 35.9017L52.7093 35.2322L53.3319 36.4817C53.2694 36.6352 53.2012 36.7901 53.1272 36.9465V36.955ZM53.7626 37.3431L54.2232 38.2684L53.6518 37.5861L53.7626 37.3431ZM51.9545 32.1917C51.6816 31.7653 51.4044 31.3388 51.1273 30.9124L52.2445 29.9913C52.4407 30.4177 52.6283 30.8442 52.8032 31.2365L51.9545 32.1917ZM44.1337 18.4903H44.1124C43.865 18.0042 43.622 17.5266 43.3874 17.0532L44.7136 16.8229C44.9823 17.1982 45.251 17.5863 45.5239 17.9956L44.1337 18.4903ZM39.5623 12.7036L39.2254 11.7185L39.8736 12.7419L39.5623 12.7036ZM37.8565 12.5245L37.6049 11.0831L37.912 11.1812L38.3853 12.5543C38.2062 12.5458 38.0228 12.5287 37.8395 12.5159L37.8565 12.5245ZM37.4685 10.179L37.3661 9.57777L37.5879 10.2132L37.4685 10.179ZM25.2425 9.80379L25.4984 8.43066C28.8688 7.11744 32.6133 7.14032 35.9674 8.49462L36.1977 9.88481C32.5818 9.18648 28.8684 9.15901 25.2425 9.80379ZM23.814 11.0149L23.5538 12.405L23.0464 12.4434L23.541 11.0959L23.814 11.0149ZM23.8993 10.1108L24.0656 9.68438L23.9845 10.1108H23.8993ZM21.588 12.5842L22.1807 11.6844L21.8652 12.5372L21.588 12.5842ZM18.0102 16.8016C17.7756 17.2579 17.5283 17.727 17.2767 18.1961L15.9121 17.6843C16.1893 17.292 16.4579 16.9168 16.7266 16.5543L18.0102 16.8016ZM10.0699 30.4092C9.77993 30.8357 9.49849 31.2621 9.21704 31.6885L8.39402 30.6992C8.57739 30.2983 8.76928 29.889 8.97824 29.4668L10.0699 30.4092ZM8.91854 32.115C8.67974 32.4689 8.44519 32.8143 8.21065 33.1512L7.73305 32.1832C7.86098 31.8676 8.00312 31.5393 8.15948 31.1981L8.91854 32.115ZM8.39402 34.7162C8.54327 34.938 8.69252 35.1427 8.82046 35.39L8.76075 35.454L7.90787 36.4348C7.83964 36.277 7.77569 36.1192 7.71599 35.9657L8.39402 34.7162ZM7.39189 37.0531L6.83326 37.697L7.29807 36.8186L7.39189 37.0531ZM8.07419 38.5883L7.00383 39.4667C6.98251 39.3772 6.96545 39.2919 6.94839 39.2066L7.8695 38.1405C7.92493 38.2898 7.99744 38.439 8.06567 38.5883H8.07419ZM6.26183 40.0808L6.00171 40.2983L6.24478 40.0168C6.25245 40.0376 6.25816 40.059 6.26183 40.0808ZM6.62004 41.3217C7.80297 44.8014 9.61401 48.0347 11.9633 50.8611L10.6499 51.3217C7.85361 49.0376 6.03533 45.7717 5.56674 42.1917L6.62004 41.3217ZM13.7074 51.5008L15.0507 51.0232L15.362 51.4795L13.9462 51.7268L13.7074 51.5008ZM12.9185 51.9059L12.2319 52.021L12.8418 51.8078L12.9185 51.9059ZM15.7714 50.7417L17.1147 50.2684C17.1914 50.2385 17.2724 50.2172 17.3492 50.1916C17.4942 50.4731 17.6349 50.7545 17.7756 51.0445L16.1637 51.3259L15.7714 50.7417ZM21.6946 53.6713L23.298 53.6074L23.3236 53.7481L23.5496 55.0999C23.0634 55.0573 22.5944 55.0061 22.1381 54.9549L21.6946 53.6713ZM37.5538 53.8803C37.5538 53.8377 37.5751 53.795 37.5836 53.7524C38.1124 53.778 38.6326 53.8121 39.1444 53.8462L38.671 55.1127C38.2446 55.1553 37.767 55.1937 37.2936 55.2278L37.5538 53.8803ZM44.7307 52.7076L45.6859 52.891L44.5559 52.9379C44.6156 52.8739 44.671 52.7971 44.7307 52.7204V52.7076ZM45.7328 51.3259L47.0121 51.8121L46.7861 52.0168L45.413 51.7524L45.7328 51.3259ZM47.9077 52.1404L48.3938 52.3238L47.8309 52.2129L47.9077 52.1404ZM54.3042 41.8121L55.3234 42.665C54.7676 46.2239 52.8824 49.4395 50.0484 51.6628L48.7691 51.1852C51.1716 48.4288 53.0504 45.2566 54.3127 41.8249L54.3042 41.8121ZM53.656 34.9891L53.2978 34.277L53.575 33.7482L53.7157 34.6352L53.656 34.9891ZM53.4172 30.486C53.258 30.1306 53.0917 29.7681 52.9183 29.3986L54.0569 28.4604C54.1507 28.8101 54.2232 29.1512 54.2871 29.4838L53.4172 30.486ZM53.9801 21.0191C54.9752 22.7113 55.5757 24.6063 55.737 26.5628L54.5643 27.5265C53.3537 23.7482 51.396 20.2518 48.8074 17.2451L50.2573 16.7334C51.7993 17.8721 53.073 19.335 53.9887 21.0191H53.9801ZM47.7627 17.1811L46.3469 17.7014C46.1081 17.3475 45.8736 16.9978 45.639 16.6609L46.978 16.4306C47.2424 16.6694 47.5068 16.9253 47.7712 17.1982L47.7627 17.1811ZM42.9354 14.7931L42.2744 14.7547L41.8139 14.0298L42.2062 14.179L42.9354 14.7931ZM35.622 6.39229L35.7798 7.35177C32.5234 6.20781 28.978 6.1853 25.7074 7.28781L25.8822 6.34112C27.2429 5.23754 28.954 4.6581 30.7052 4.70787H30.7905C32.5504 4.6746 34.2642 5.27207 35.622 6.39229ZM19.588 13.8464L19.1615 14.4818L19.136 14.5287L18.5091 14.5543L19.2213 13.9743L19.588 13.8464ZM15.8055 16.3496C15.571 16.6737 15.3321 17.0106 15.0933 17.3517L13.7202 16.84C13.9803 16.5756 14.2447 16.3283 14.5091 16.1023L15.8055 16.3496ZM7.20426 27.9316L8.30873 28.8783C8.12536 29.245 7.95478 29.6075 7.78847 29.9615L6.9356 28.9551C7.01236 28.631 7.10191 28.2941 7.20426 27.9444V27.9316ZM7.54541 33.1938L7.81407 33.7354L7.44733 34.439L7.38763 34.0766L7.54541 33.1938ZM15.0166 52.5967L16.0699 52.4475L16.2532 52.7076L15.0464 52.6308L15.0166 52.5967ZM18.2916 53.7609L19.1445 53.8163L19.4984 54.3707L18.6029 54.0296L18.2916 53.7609ZM22.4664 55.859L23.7159 55.9784L23.9632 57.4794C23.5965 57.3813 23.2468 57.2747 22.9142 57.1553L22.4664 55.859ZM36.8928 57.5647L37.1657 56.0892L38.3811 55.9954L37.9162 57.2747C37.5708 57.3728 37.2297 57.4752 36.8715 57.5647H36.8928ZM41.3363 54.5498L41.6817 54.0338L42.5004 53.9997L42.2019 54.2385L41.3363 54.5498ZM55.0803 29.5905C55.0803 29.535 55.059 29.4753 55.0462 29.4156L55.3575 29.0531L55.0803 29.5905ZM56.6453 26.7973L56.4023 27.083C56.4023 26.9124 56.4023 26.7376 56.4023 26.5628L57.1315 25.9615C56.9934 26.2578 56.8232 26.5381 56.624 26.7973H56.6453ZM58.9524 18.2984C59.5528 19.3097 59.7884 20.4962 59.62 21.6602C59.4517 22.8242 58.8894 23.8953 58.027 24.695C58.2129 22.8765 57.8346 21.0449 56.9435 19.4489C56.0525 17.8529 54.6917 16.5698 53.0462 15.7739C54.1681 15.4673 55.3607 15.55 56.4295 16.0085C57.4983 16.467 58.3801 17.2742 58.9311 18.2984H58.9524ZM50.4236 15.8336C50.795 15.8031 51.1687 15.8174 51.5366 15.8762L50.6113 16.2003C50.4492 16.0895 50.2872 15.9829 50.1209 15.8848L50.4236 15.8336ZM48.0782 15.727L47.4343 15.8379L47.2467 15.6758L48.0782 15.727ZM30.799 1.9872C31.716 1.98206 32.6152 2.24008 33.3899 2.73063C34.1647 3.22118 34.7825 3.92368 35.17 4.75477C33.8162 4.03252 32.3076 3.64904 30.7733 3.63716C29.239 3.62528 27.7246 3.98534 26.3598 4.68654C26.7641 3.85918 27.3972 3.16511 28.184 2.68667C28.9709 2.20823 29.8784 1.96547 30.799 1.9872ZM14.2533 15.3688L14.0784 15.5138L13.4942 15.3986L14.2533 15.3688ZM10.6712 15.4413C10.8274 15.4327 10.984 15.4327 11.1403 15.4413L11.4217 15.4967C11.2639 15.5863 11.1062 15.6844 10.9441 15.791L10.0657 15.4626C10.2669 15.4428 10.4691 15.4357 10.6712 15.4413ZM2.62007 17.7696C3.0695 16.9832 3.71599 16.3275 4.49587 15.8669C5.27576 15.4063 6.16216 15.1567 7.06781 15.1428C7.56261 15.1455 8.05471 15.2158 8.53048 15.3517C6.88005 16.1164 5.50265 17.3671 4.58275 18.9363C3.66286 20.5056 3.24439 22.3184 3.38339 24.1321C2.5556 23.314 2.02947 22.2396 1.89084 21.0841C1.75221 19.9286 2.00927 18.7602 2.62007 17.7696ZM4.25758 25.4242L4.95694 26.0212C4.95694 26.2045 4.93562 26.3794 4.93562 26.5585L4.74372 26.3282C4.54775 26.0464 4.38464 25.7431 4.25758 25.4242ZM5.88231 28.4817L6.21919 28.8826L6.18081 29.0787L5.88231 28.4817ZM2.53051 49.8888C2.06635 49.096 1.84006 48.1863 1.87862 47.2684C1.91719 46.3505 2.21897 45.463 2.74799 44.7119C2.78992 46.2398 3.19937 47.7351 3.94166 49.0712C4.68395 50.4074 5.73725 51.545 7.01237 52.3878C6.10529 52.4388 5.20238 52.231 4.40887 51.7886C3.61536 51.3461 2.96394 50.6873 2.53051 49.8888ZM22.3683 57.7353L22.5858 57.8163L22.7905 58.4005L22.3683 57.7353ZM24.0741 60.5199L23.9547 60.1702C24.1167 60.2683 24.2831 60.3579 24.4579 60.4432L24.6199 61.4282C24.4018 61.1561 24.2131 60.8617 24.057 60.5498L24.0741 60.5199ZM30.3854 66.7928H30.3342C29.1652 66.8036 28.0273 66.4165 27.1074 65.695C26.1875 64.9735 25.5404 63.9606 25.2724 62.8227C26.735 63.9103 28.516 64.4845 30.3385 64.4559H30.4365C32.2452 64.5035 34.0183 63.9485 35.477 62.8781C35.1995 64.0161 34.5419 65.0252 33.613 65.7386C32.684 66.452 31.5393 66.8269 30.3683 66.8013L30.3854 66.7928ZM36.6796 60.618C36.5378 60.9204 36.3633 61.2064 36.1593 61.4709L36.3384 60.5199C36.5005 60.4389 36.6583 60.3579 36.8075 60.2683L36.6796 60.618ZM38.0271 58.4133L38.2062 57.9314L38.3896 57.8675L38.0271 58.4133ZM58.172 50.4134C57.7251 51.2001 57.0646 51.8443 56.267 52.2714C55.4693 52.6985 54.5671 52.8911 53.6646 52.827C54.9522 52.0156 56.0263 50.9069 56.7965 49.5943C57.5668 48.2816 58.0107 46.8032 58.091 45.2833C58.5898 46.0449 58.8609 46.933 58.8722 47.8433C58.8835 48.7536 58.6347 49.6482 58.1549 50.4219L58.172 50.4134Z" fill="url(#paint0_linear_599_2717)"/>
<defs>
<linearGradient id="paint0_linear_599_2717" x1="0.714113" y1="33.9999" x2="55.2128" y2="50.2638" gradientUnits="userSpaceOnUse">
<stop stop-color="#5EE6D0"/>
<stop offset="0.515056" stop-color="#BFC6FF"/>
<stop offset="1" stop-color="#FFBA69"/>
</linearGradient>
</defs>
</svg>
