<svg width="49" height="49" viewBox="0 0 49 49" fill="none" xmlns="http://www.w3.org/2000/svg">
<ellipse cx="24.4694" cy="24.4694" rx="17.7799" ry="17.78" fill="url(#paint0_linear_599_12903)"/>
<g filter="url(#filter0_i_599_12903)">
<ellipse cx="24.4695" cy="24.4695" rx="16.0019" ry="16.002" fill="url(#paint1_linear_599_12903)"/>
</g>
<path d="M39.9714 24.4695C39.9714 33.031 33.0309 39.9715 24.4695 39.9715C15.908 39.9715 8.96753 33.031 8.96753 24.4695C8.96753 15.908 15.908 8.96753 24.4695 8.96753C33.0309 8.96753 39.9714 15.908 39.9714 24.4695Z" stroke="url(#paint2_linear_599_12903)"/>
<path d="M35.7295 28.2025L35.6948 28.1729C35.6253 27.9325 35.5169 27.7052 35.3739 27.5L35.0739 27.1383C35.058 27.0281 35.0354 26.9189 35.0062 26.8115L34.5952 25.9838L34.3593 24.5163L34.6246 23.0488L34.9958 22.3394V22.3185C35.0341 22.1882 35.0619 22.0551 35.0791 21.9203L35.3653 21.5882C35.5245 21.3694 35.6421 21.123 35.7121 20.8614L35.7434 20.8371C36.1607 20.4912 36.4434 20.0091 36.5419 19.4753C36.6404 18.9415 36.5485 18.3899 36.2821 17.9172C36.0157 17.4446 35.592 17.0809 35.0851 16.8899C34.5782 16.699 34.0204 16.6929 33.5094 16.8727H33.499C33.2253 16.7884 32.938 16.7571 32.6526 16.7806L32.2554 16.8501C32.1196 16.7869 31.9786 16.7357 31.834 16.6971L31.0396 16.6484L31.0205 16.6345L29.633 16.1007L28.4778 15.1183L27.9853 14.3376L27.9627 14.3098C27.885 14.2264 27.8015 14.1486 27.713 14.0768L27.5638 13.6352V13.6178C27.4597 13.3845 27.3179 13.1701 27.1441 12.9831L27.1337 12.9258C27.0376 12.3531 26.7435 11.8326 26.303 11.4555C25.8625 11.0784 25.3036 10.8688 24.7244 10.8634C24.1451 10.858 23.5825 11.0572 23.135 11.426C22.6876 11.7948 22.3839 12.3098 22.2773 12.8806L22.2617 12.9571C22.0898 13.1356 21.9476 13.3404 21.8402 13.5639L21.6668 14.0403C21.5842 14.1059 21.5055 14.1761 21.4309 14.2507L20.8793 15.087L19.7259 16.0225L18.387 16.5024L18.3557 16.5198L18.3384 16.5319L17.5805 16.5632H17.5562C17.4124 16.5985 17.272 16.6462 17.1364 16.7058L16.7514 16.6311H16.7427C16.463 16.603 16.1805 16.6284 15.9102 16.7058C15.4024 16.5154 14.844 16.5103 14.3328 16.6915C13.8217 16.8727 13.3906 17.2285 13.1151 17.6966C12.8396 18.1647 12.7374 18.7152 12.8264 19.2513C12.9153 19.7874 13.1898 20.275 13.6017 20.6284L13.6156 20.6389C13.6811 20.9088 13.7951 21.1645 13.952 21.3935L14.2105 21.703C14.2244 21.8452 14.2506 21.986 14.2885 22.1238L14.6354 22.8297V22.8558L14.8678 24.3007L14.6059 25.7456L14.1706 26.5802L14.1567 26.615C14.1269 26.7142 14.1037 26.8152 14.0873 26.9175L13.7717 27.2809L13.7595 27.2966C13.6167 27.494 13.506 27.7129 13.4317 27.9451L13.3762 27.9921C12.9266 28.3613 12.6215 28.8778 12.5147 29.4505C12.4079 30.0232 12.5062 30.6153 12.7924 31.1224C13.0786 31.6295 13.5343 32.019 14.079 32.2222C14.6237 32.4253 15.2225 32.4291 15.7697 32.2329L15.8044 32.219C16.0557 32.2834 16.3159 32.3057 16.5745 32.2851L17.0341 32.2051C17.1467 32.2516 17.2627 32.2894 17.381 32.3181L18.3106 32.3772L19.719 32.9197L20.8516 33.8812L20.8828 33.9004L21.3095 34.5733L21.3233 34.5906C21.423 34.6972 21.5321 34.7944 21.6494 34.881L21.7899 35.2879C21.9048 35.5441 22.0672 35.776 22.2686 35.9712V35.9973C22.3479 36.5382 22.62 37.032 23.0345 37.3872C23.4491 37.7423 23.978 37.9349 24.5234 37.9291H24.5459C25.0869 37.9394 25.6135 37.7543 26.0297 37.4076C26.4459 37.061 26.7238 36.5758 26.8128 36.0408V35.9938C27.01 35.8037 27.171 35.5793 27.288 35.3314L27.4389 34.9193C27.5491 34.8388 27.6524 34.7492 27.7477 34.6515L28.2159 33.9456L29.385 32.9962L30.7846 32.4937L31.6518 32.4572H31.6883C31.8027 32.4295 31.9151 32.3941 32.0247 32.3511L32.4549 32.4346H32.474C32.5535 32.443 32.6334 32.447 32.7133 32.4468C32.8885 32.4461 33.063 32.4257 33.2336 32.3859L33.2614 32.3963C33.5519 32.5092 33.8604 32.5681 34.172 32.5702C34.5957 32.564 35.0105 32.4472 35.3754 32.2313C35.7404 32.0155 36.043 31.708 36.2533 31.3392C36.56 30.8415 36.676 30.2491 36.5797 29.6721C36.4833 29.0951 36.1812 28.5728 35.7295 28.2025ZM34.8952 30.5428C34.5487 31.1701 33.9903 31.6529 33.3204 31.9043L32.9735 31.7739C34.0316 30.8587 34.7579 29.6182 35.0392 28.2459L35.3202 28.4859C35.4306 29.2005 35.2797 29.931 34.8952 30.5428ZM28.0408 33.7074C27.9801 33.7352 27.9159 33.763 27.8483 33.7891L28.013 33.3422L28.3339 33.3074L28.1032 33.6552L28.0408 33.7074ZM27.2915 34.7124C27.2023 34.7754 27.1096 34.8335 27.014 34.8862L27.1181 34.3229C27.2377 34.2933 27.3539 34.2638 27.4649 34.2307L27.2915 34.7124ZM26.6758 35.8356C26.0741 36.3405 25.3134 36.6152 24.5288 36.6111C23.7441 36.6069 22.9864 36.3242 22.39 35.813L22.2998 35.2653C23.0022 35.5598 23.7568 35.7088 24.5182 35.7035H24.5823C25.3337 35.7151 26.0797 35.5756 26.7764 35.2931L26.6758 35.8356ZM24.5199 35.4513C23.7357 35.4565 22.9599 35.2885 22.2478 34.9593L22.1437 34.3333C22.9642 34.5116 23.8018 34.5991 24.6413 34.5941C25.416 34.5989 26.189 34.5232 26.9481 34.3681L26.8336 34.9871C26.1064 35.3122 25.316 35.4708 24.5199 35.4513ZM21.6165 34.1925C21.7309 34.229 21.8506 34.262 21.9737 34.2916L22.0691 34.8636C21.9702 34.8067 21.8746 34.744 21.783 34.6758L21.6165 34.1925ZM20.9869 33.6152L20.751 33.2414L21.084 33.2831L21.2418 33.7404C21.1638 33.7091 21.0875 33.6761 21.0163 33.6413L20.9869 33.6152ZM14.1775 30.3533C13.8007 29.7277 13.665 28.9857 13.7959 28.2668L14.0891 28.0251C14.2067 28.7229 14.4488 29.3938 14.8036 30.0056C15.1357 30.6074 15.5681 31.1478 16.0819 31.6035L15.7159 31.7321C15.0569 31.4689 14.5119 30.9805 14.1775 30.3533ZM14.932 22.8488C14.932 22.7741 14.9493 22.6958 14.9615 22.6158L15.2546 22.9636C15.2095 23.061 15.1661 23.1583 15.1245 23.254L14.9372 22.8767L14.932 22.8488ZM14.4567 21.6891C14.4459 21.5793 14.4413 21.469 14.4429 21.3587L14.8626 21.7186C14.8279 21.8334 14.795 21.9482 14.7672 22.0664L14.4567 21.6891ZM14.2278 18.3559C14.6056 17.6678 15.2318 17.1508 15.9778 16.911L16.4739 17.097C15.2669 18.054 14.4622 19.4303 14.2191 20.9536L13.8185 20.6058C13.6605 19.831 13.8071 19.0249 14.2278 18.3559ZM15.2078 18.9297C15.5951 18.2471 16.1282 17.6587 16.7687 17.2066L17.3411 17.4204C16.2637 18.6205 15.4379 20.0254 14.9129 21.5517L14.4515 21.1553C14.5345 20.3644 14.7929 19.6022 15.2078 18.9245V18.9297ZM17.714 17.0379C17.629 17.1179 17.5406 17.2118 17.4556 17.2935L16.9352 17.0988C17.033 17.0417 17.1337 16.9901 17.237 16.944L17.714 17.0379ZM18.5032 16.7823L18.9437 16.7649L18.746 17.0257L18.2898 16.9388C18.3609 16.8832 18.4321 16.831 18.5014 16.7841L18.5032 16.7823ZM30.8714 16.9006C30.9425 16.9492 31.0136 17.0049 31.0847 17.064L30.6129 17.1457C30.5453 17.0518 30.4794 16.9597 30.4135 16.871L30.8662 16.8988L30.8714 16.9006ZM32.1531 17.0866C32.258 17.1387 32.3599 17.1968 32.4584 17.2605L31.9189 17.4517C31.8322 17.3579 31.7455 17.2674 31.6588 17.1822L32.1531 17.0866ZM35.145 18.5541C35.5581 19.2354 35.69 20.0512 35.5127 20.8284L35.0964 21.1762C34.886 19.6442 34.1083 18.2476 32.918 17.264L33.4383 17.0901C34.1707 17.3426 34.7805 17.8638 35.145 18.5489V18.5541ZM34.5119 22.275C34.4876 22.1638 34.4581 22.049 34.4269 21.9273L34.8588 21.5795C34.8576 21.6883 34.8501 21.7968 34.8363 21.9047L34.5119 22.275ZM34.3281 23.0262L34.3142 23.1044L34.1251 23.4644C34.087 23.3705 34.0471 23.2731 34.0037 23.174L34.3073 22.8262C34.3153 22.8935 34.3223 22.9601 34.3281 23.0262ZM29.3416 32.1651C29.3919 32.0642 29.4422 31.9617 29.4942 31.8591L30.051 31.9651L29.9157 32.139L29.3416 32.1651ZM28.549 32.9354C28.4189 32.9527 28.2836 32.9684 28.1466 32.9823L28.32 32.5094L28.8403 32.5493L28.5958 32.9197L28.549 32.9354ZM21.9269 33.0188L21.8281 32.4276C21.8289 32.4155 21.8289 32.4033 21.8281 32.3911C23.585 32.3372 25.5657 32.3563 27.314 32.4468C27.314 32.4572 27.314 32.4676 27.314 32.4781L27.2048 33.064C25.4459 33.1696 23.682 33.1545 21.9252 33.0188H21.9269ZM27.1302 33.4135L27.0123 34.0464C25.389 34.3818 23.7135 34.37 22.0952 34.0116L21.9894 33.37C22.9034 33.4413 23.918 33.4778 24.9188 33.4778C25.6785 33.4831 26.4312 33.4552 27.125 33.4135H27.1302ZM20.5116 32.8571L20.2636 32.4659C20.437 32.4537 20.6105 32.4433 20.7961 32.4346L20.9695 32.9214C20.8152 32.9006 20.6643 32.8815 20.5203 32.8588L20.5116 32.8571ZM19.1796 32.0399L19.0408 31.8538L19.5854 31.76H19.6132C19.667 31.8695 19.7173 31.9773 19.7676 32.0834L19.1796 32.0399ZM18.2343 17.7508C17.273 19.1639 16.404 20.638 15.6327 22.1638L15.1592 21.7586C15.6815 20.1906 16.5265 18.7499 17.6394 17.53L18.2343 17.7508ZM18.5656 17.876L19.138 18.0899C18.3141 19.6304 17.3151 21.3274 16.3629 22.7845L15.9015 22.3898C16.6843 20.8263 17.5727 19.3182 18.5604 17.876H18.5656ZM19.8439 16.7215C19.7693 16.8727 19.6912 17.0292 19.6097 17.1875L19.1258 17.0936C19.2195 16.9701 19.3097 16.8519 19.3999 16.7458L19.8439 16.7215ZM28.9323 16.558L28.5767 16.5806C28.568 16.5545 28.5594 16.5285 28.5524 16.5041L28.3877 16.0242L28.6149 16.0573L28.9323 16.558ZM29.9729 16.838C30.0614 16.9545 30.1464 17.0779 30.2452 17.2066L29.744 17.2935C29.6642 17.1196 29.5879 16.9684 29.5133 16.8101L29.9729 16.838ZM33.3741 22.595L32.8989 22.9879C31.9797 21.5048 31.0066 19.7817 30.2071 18.2185L30.7898 18.0081C31.7513 19.4767 32.6118 21.0092 33.3655 22.595H33.3741ZM31.1315 17.8899L31.7386 17.6743C32.829 18.921 33.6457 20.3836 34.1355 21.9673L33.6343 22.3689C32.8951 20.8228 32.0562 19.3266 31.1228 17.8899H31.1315ZM33.9066 23.8347V23.8764L33.7089 24.2677C33.6169 24.1303 33.525 23.9895 33.4296 23.8434L33.7522 23.4713C33.8066 23.5942 33.8569 23.7153 33.9031 23.8347H33.9066ZM34.1407 26.8375L33.7193 26.4741C33.7488 26.415 33.7782 26.3524 33.806 26.3003L34.1685 26.735C34.1546 26.7645 34.1546 26.801 34.1373 26.8375H34.1407ZM34.4408 27.0549L34.5518 27.1888L34.4321 27.0862C34.4321 27.0758 34.4339 27.0653 34.4373 27.0497L34.4408 27.0549ZM31.0691 31.054C31.9607 29.7254 32.7715 28.344 33.4973 26.9175L33.9812 27.3453C33.4721 28.7963 32.6876 30.1349 31.6709 31.287L31.0691 31.054ZM28.4466 32.1216C28.4969 31.9669 28.549 31.8121 28.6045 31.6556C28.8213 31.6991 29.0329 31.746 29.2427 31.7965C29.1786 31.9234 29.1178 32.0486 29.0571 32.172L28.4466 32.1216ZM27.5517 32.0642C27.5933 31.873 27.6384 31.6817 27.6869 31.4939C27.9263 31.5304 28.1639 31.5704 28.3998 31.6156C28.3426 31.7791 28.2871 31.9443 28.2264 32.1077C28.0078 32.0921 27.7806 32.0799 27.5482 32.0677L27.5517 32.0642ZM20.8897 32.0329C20.8394 31.8591 20.7857 31.6974 20.7284 31.5287C20.9713 31.4887 21.2158 31.4539 21.4621 31.4226C21.5072 31.6156 21.5488 31.8086 21.587 32.0034L20.8897 32.0329ZM20.0503 32.0851C19.9913 31.9564 19.9306 31.8278 19.8664 31.6956C20.0815 31.6487 20.3018 31.6052 20.5238 31.567C20.5775 31.7269 20.6296 31.8869 20.6781 32.0451C20.4527 32.0608 20.2497 32.0729 20.0468 32.0921L20.0503 32.0851ZM19.4849 30.9201C19.7259 30.8402 19.967 30.7671 20.2116 30.7011C20.2688 30.8506 20.3243 31.0001 20.385 31.1479C20.1457 31.1914 19.9098 31.2401 19.6774 31.2905L19.4849 30.9201ZM15.9102 26.528L16.4461 26.0847L16.4704 26.0638C17.3376 27.4757 18.2534 29.0892 19.0166 30.5741L18.9819 30.5846L18.321 30.8193C17.4279 29.4413 16.6226 28.0081 15.9102 26.528ZM18.0245 30.9167L17.3931 31.1392C16.3966 29.9639 15.6373 28.6057 15.1575 27.1401L15.6674 26.7193C16.3671 28.1652 17.1542 29.567 18.0245 30.9167ZM27.1215 15.899L27.2308 16.5528C27.2308 16.5806 27.2412 16.6067 27.2464 16.6345C25.5779 16.6832 23.7203 16.6641 22.0587 16.5824L22.0743 16.5041L22.1958 15.8556C23.8393 15.7655 25.4868 15.78 27.1285 15.899H27.1215ZM22.2513 15.5513L22.3744 14.8888C23.8907 14.6012 25.4484 14.6131 26.9602 14.9236L27.0712 15.5913C25.4691 15.4803 23.8618 15.4681 22.2582 15.5548L22.2513 15.5513ZM29.0641 16.7997C29.1491 16.9858 29.2375 17.177 29.3347 17.3718C29.1733 17.4065 29.012 17.4378 28.8473 17.4691C28.7727 17.2535 28.7033 17.0397 28.6391 16.8258L29.0641 16.7997ZM32.5936 23.2453C32.4462 23.3739 32.3005 23.5043 32.1583 23.6382C30.9763 22.0621 29.9995 20.3413 29.2514 18.5176C29.4439 18.4637 29.6347 18.4046 29.8255 18.3437C30.6424 19.9555 31.6397 21.7186 32.5936 23.2453ZM33.4955 24.6363C33.4192 24.7458 33.3412 24.8571 33.2631 24.9719C33.1192 24.8154 32.9769 24.6519 32.8365 24.4867C32.944 24.365 33.0515 24.2468 33.1608 24.1303C33.2701 24.3059 33.3811 24.4746 33.4921 24.638L33.4955 24.6363ZM29.8637 30.6089C29.6174 30.5202 29.3693 30.435 29.1196 30.3603C29.8713 28.6499 30.8245 27.0359 31.9588 25.5526C32.1438 25.7334 32.3341 25.9073 32.5295 26.0742C31.6154 27.5 30.6598 29.1223 29.8602 30.6106L29.8637 30.6089ZM21.5297 16.8049C21.4777 17.0518 21.4205 17.297 21.3563 17.5404C21.2037 17.5161 21.0528 17.4917 20.9036 17.4639C20.9869 17.2361 21.0632 17.0084 21.136 16.7806L21.5297 16.8049ZM31.5634 24.4554C31.6865 24.325 31.8097 24.1964 31.9363 24.0712C32.0924 24.2729 32.2508 24.4699 32.4115 24.6624C32.3092 24.7823 32.2103 24.9058 32.1097 25.0292C31.9189 24.8397 31.7368 24.6502 31.553 24.4537L31.5634 24.4554ZM31.4559 24.3337C30.0297 22.7157 28.9489 20.8222 28.2801 18.7697C28.464 18.7297 28.6461 18.688 28.8282 18.6411C29.5986 20.5316 30.6101 22.3142 31.8374 23.9443C31.7039 24.0677 31.579 24.1998 31.4524 24.332L31.4559 24.3337ZM31.128 24.6919C29.7329 26.2556 28.6553 28.077 27.9558 30.0542C25.7397 29.5538 23.4435 29.5254 21.2158 29.9708C20.5428 27.9625 19.482 26.1068 18.0938 24.5093C19.6034 22.854 20.756 20.9042 21.4794 18.7819C23.5603 19.2265 25.7083 19.2536 27.7997 18.8619C28.4925 21.0149 29.6248 22.9998 31.1246 24.6902L31.128 24.6919ZM28.2298 18.6063C28.1466 18.3437 28.0703 18.0846 28.0009 17.8151C28.1651 17.7931 28.3281 17.7688 28.49 17.7421C28.5767 17.9873 28.6634 18.2342 28.7675 18.4793C28.5854 18.5298 28.405 18.5715 28.2264 18.6115L28.2298 18.6063ZM27.7529 18.7002C25.6963 19.0829 23.5847 19.0563 21.5384 18.6219C21.6263 18.3542 21.7078 18.0829 21.783 17.8082C23.6855 18.0657 25.6125 18.0879 27.5204 17.8743C27.5881 18.1577 27.6644 18.4324 27.7494 18.7036L27.7529 18.7002ZM21.8402 17.6117C21.9078 17.3544 21.9668 17.0901 22.0223 16.8327C23.7134 16.9179 25.6108 16.9371 27.3088 16.8866C27.3591 17.1509 27.4146 17.4083 27.4823 17.676C25.606 17.8846 23.7113 17.863 21.8402 17.6117ZM21.3095 17.7439C21.2366 18.0047 21.1568 18.2655 21.0718 18.5193C20.8984 18.4776 20.725 18.4341 20.5515 18.3855C20.6521 18.1455 20.7475 17.9038 20.836 17.6639L21.3095 17.7439ZM21.0181 18.6723C20.3196 20.6979 19.2179 22.5601 17.7799 24.1459C17.6585 24.0121 17.5354 23.8817 17.4087 23.753C18.6531 22.153 19.6883 20.4 20.4891 18.5367C20.6556 18.5837 20.8325 18.6289 21.0094 18.6723H21.0181ZM17.6637 24.2677C17.4833 24.4624 17.2977 24.6531 17.107 24.8397C17.0098 24.7145 16.911 24.5911 16.8138 24.4711C16.9769 24.2798 17.1393 24.0839 17.3012 23.8834C17.4243 24.0068 17.544 24.1355 17.6637 24.2677ZM17.9863 24.6293C19.3485 26.2037 20.3902 28.0301 21.0528 30.0056C20.7753 30.0647 20.4995 30.1307 20.2254 30.2038C19.4881 28.437 18.5393 26.7666 17.4001 25.2292C17.6013 25.031 17.7967 24.8304 17.9863 24.6276V24.6293ZM21.2037 30.4628C21.2557 30.6425 21.306 30.8216 21.3546 31.0001C21.0927 31.0349 20.8342 31.0731 20.581 31.1166C20.5255 30.9619 20.4683 30.8054 20.4076 30.6489C20.6712 30.5793 20.9366 30.5167 21.2037 30.4611V30.4628ZM21.3615 30.4333C23.4892 30.0172 25.6795 30.0444 27.7962 30.5133C27.739 30.6871 27.6852 30.8697 27.6332 31.0505C25.6057 30.7614 23.5493 30.738 21.5159 30.981C21.4673 30.7967 21.4153 30.6141 21.3615 30.4315V30.4333ZM27.9523 30.548C28.2107 30.6089 28.4726 30.6767 28.7259 30.7515C28.6634 30.9027 28.6027 31.054 28.5524 31.2053C28.3044 31.1566 28.0546 31.1131 27.7997 31.0731C27.8448 30.8958 27.8968 30.7202 27.954 30.5463L27.9523 30.548ZM28.1084 30.0907C28.799 28.1454 29.8592 26.3527 31.2304 24.8119C31.416 25.0171 31.6068 25.2153 31.8027 25.41C30.647 26.9193 29.6768 28.5627 28.9132 30.3046C28.6496 30.2246 28.3807 30.1516 28.1101 30.089L28.1084 30.0907ZM32.2468 25.1736C32.3439 25.0536 32.4393 24.9371 32.5364 24.8258C32.689 24.9997 32.8451 25.1736 33.0012 25.3474L32.7844 25.6743C32.6092 25.5109 32.4289 25.344 32.2468 25.1736ZM33.1729 25.5456L33.5857 26.0412C33.5493 26.1177 33.5111 26.1959 33.4747 26.2742L32.9978 25.8656L32.9752 25.8447C33.0481 25.7439 33.114 25.643 33.1799 25.5456H33.1729ZM32.6925 24.3285C32.5399 24.1546 32.3907 23.9599 32.245 23.7669C32.3838 23.6365 32.526 23.5096 32.67 23.3844C32.7925 23.5791 32.9139 23.7686 33.0342 23.9529C32.9266 24.0764 32.8122 24.1999 32.6994 24.3285H32.6925ZM29.1803 18.3681C29.0866 18.1351 28.9982 17.9021 28.9149 17.6726C29.0884 17.6395 29.2618 17.6048 29.4352 17.5682C29.5358 17.7757 29.6399 17.9861 29.7474 18.1994C29.5619 18.2568 29.3745 18.3142 29.1872 18.3681H29.1803ZM28.4119 17.5491L27.9436 17.6187C27.8829 17.37 27.8292 17.1214 27.7806 16.8693L28.1917 16.8536C28.2662 17.0831 28.3408 17.3126 28.4189 17.5491H28.4119ZM27.7372 16.6171C27.7372 16.5685 27.7164 16.5198 27.7095 16.4711L27.621 15.939L27.8985 15.9668L28.1171 16.6015L27.7372 16.6171ZM21.6043 16.4137C21.5956 16.4607 21.5852 16.5076 21.5748 16.5545L21.2106 16.5337L21.4378 15.9095L21.7014 15.8886L21.6043 16.4137ZM20.7839 16.4294V16.4398C20.7839 16.4607 20.7701 16.4815 20.7649 16.5006L20.418 16.4728L20.7406 15.9842L20.9539 15.9599L20.7839 16.4294ZM20.6816 16.7493C20.614 16.9579 20.5411 17.1683 20.4648 17.3787C20.307 17.3457 20.1509 17.3109 19.9948 17.2744C20.0902 17.0831 20.1838 16.8971 20.2723 16.7145L20.6816 16.7493ZM19.8994 17.4639C20.0624 17.5022 20.2272 17.5404 20.3937 17.5752C20.3087 17.803 20.2202 18.029 20.1214 18.2568C19.9393 18.2011 19.7589 18.1403 19.5802 18.0829L19.8994 17.4639ZM19.5022 18.222C19.686 18.2863 19.8716 18.3489 20.0572 18.4063C19.2815 20.206 18.282 21.9002 17.0827 23.4487C16.9439 23.3148 16.8017 23.1844 16.6577 23.0557C17.6377 21.5482 18.661 19.8112 19.5057 18.2237L19.5022 18.222ZM16.5727 23.1896C16.7132 23.3148 16.852 23.4435 16.9873 23.5739C16.8364 23.7634 16.6838 23.9495 16.5277 24.132C16.4184 24.0034 16.3074 23.8799 16.1964 23.7565C16.3213 23.5722 16.4461 23.3844 16.5727 23.1896ZM16.0767 23.9338C16.1825 24.0503 16.2866 24.1686 16.3906 24.2816C16.2473 24.4462 16.1016 24.6079 15.9536 24.7667C15.8772 24.6502 15.8027 24.5406 15.7298 24.4311C15.8443 24.2677 15.9605 24.106 16.0767 23.9338ZM16.6751 24.6293C16.7705 24.7458 16.8624 24.8641 16.9543 24.9771C16.7809 25.1509 16.5936 25.3127 16.4045 25.4744L16.1981 25.1475C16.3577 24.9805 16.5172 24.8067 16.6751 24.6258V24.6293ZM16.212 25.6482L16.1409 25.7091L15.7003 26.0742L15.5963 25.8325L16.0229 25.3387L16.212 25.6482ZM16.6629 25.8951C16.8641 25.7213 17.0584 25.5474 17.2492 25.3735C18.3671 26.8848 19.2989 28.5259 20.0243 30.2611C19.7676 30.333 19.5126 30.4113 19.2594 30.4959C18.4824 28.9762 17.551 27.3279 16.6629 25.8917V25.8951ZM21.6199 31.4105C23.5805 31.1813 25.5622 31.2041 27.517 31.4783C27.4684 31.6719 27.4233 31.8666 27.3817 32.0625C26.2613 32.0016 25.0541 31.9703 23.8643 31.9703C23.141 31.9703 22.4264 31.9825 21.7413 32.0051C21.7084 31.8017 21.6668 31.6052 21.6199 31.407V31.4105ZM28.7536 31.2488C28.8091 31.1027 28.8664 30.9584 28.9271 30.8123C29.1647 30.8836 29.3988 30.9619 29.633 31.0436L29.4439 31.3966C29.2167 31.3427 28.9878 31.2922 28.7536 31.2453V31.2488ZM29.8723 31.1288L29.9035 31.1392L30.4933 31.3618C30.4412 31.4348 30.3892 31.5096 30.3371 31.5809L29.7006 31.4574C29.7561 31.3461 29.8186 31.2348 29.8723 31.1253V31.1288ZM30.1013 30.6976C30.887 29.237 31.8236 27.6495 32.7168 26.2568L33.2614 26.7245C32.5233 28.1852 31.6937 29.5975 30.7777 30.9532L30.1013 30.6976ZM33.7904 25.6013L33.4331 25.1718L33.6204 24.8988L33.8736 25.4083C33.8482 25.4709 33.8205 25.5341 33.7904 25.5978V25.6013ZM34.0488 25.7595L34.2361 26.1368L34.0037 25.8586L34.0488 25.7595ZM33.3134 23.6591C33.2024 23.4852 33.0897 23.3113 32.9769 23.1375L33.4314 22.7619C33.5111 22.9358 33.5875 23.1096 33.6586 23.2696L33.3134 23.6591ZM30.1325 18.0725H30.1238C30.0232 17.8743 29.9244 17.6795 29.829 17.4865L30.3684 17.3926C30.4776 17.5456 30.5869 17.7039 30.6979 17.8708L30.1325 18.0725ZM28.2732 15.713L28.1362 15.3113L28.3998 15.7286L28.2732 15.713ZM27.5794 15.64L27.4771 15.0523L27.602 15.0923L27.7945 15.6521C27.7216 15.6487 27.6471 15.6417 27.5725 15.6365L27.5794 15.64ZM27.4216 14.6836L27.38 14.4385L27.4701 14.6976L27.4216 14.6836ZM22.449 14.5306L22.553 13.9708C23.9239 13.4353 25.4469 13.4446 26.8111 13.9968L26.9047 14.5637C25.4341 14.2789 23.9237 14.2677 22.449 14.5306ZM21.868 15.0244L21.7621 15.5913L21.5558 15.6069L21.7569 15.0575L21.868 15.0244ZM21.9026 14.6558L21.9703 14.4819L21.9373 14.6558H21.9026ZM20.9626 15.6643L21.2037 15.2974L21.0753 15.6452L20.9626 15.6643ZM19.5074 17.3839C19.412 17.57 19.3114 17.7612 19.2091 17.9525L18.6541 17.7439C18.7668 17.5839 18.8761 17.4309 18.9853 17.2831L19.5074 17.3839ZM16.2779 22.9323C16.16 23.1062 16.0455 23.28 15.931 23.4539L15.5963 23.0505C15.6708 22.8871 15.7489 22.7202 15.8339 22.548L16.2779 22.9323ZM15.8096 23.6278C15.7125 23.7721 15.6171 23.913 15.5217 24.0503L15.3274 23.6556C15.3795 23.5269 15.4373 23.3931 15.5009 23.254L15.8096 23.6278ZM15.5963 24.6884C15.657 24.7789 15.7177 24.8623 15.7697 24.9632L15.7454 24.9892L15.3985 25.3892C15.3708 25.3248 15.3448 25.2605 15.3205 25.1979L15.5963 24.6884ZM15.1887 25.6413L14.9615 25.9038L15.1505 25.5456L15.1887 25.6413ZM15.4662 26.2672L15.0308 26.6254C15.0222 26.5889 15.0152 26.5541 15.0083 26.5193L15.3829 26.0847C15.4055 26.1455 15.435 26.2064 15.4627 26.2672H15.4662ZM14.7291 26.8758L14.6233 26.9645L14.7221 26.8497C14.7252 26.8582 14.7276 26.8669 14.7291 26.8758ZM14.8747 27.3818C15.3559 28.8006 16.0925 30.1189 17.048 31.2714L16.5138 31.4592C15.3765 30.5278 14.6369 29.1962 14.4463 27.7365L14.8747 27.3818ZM17.7574 31.5322L18.3037 31.3374L18.4303 31.5235L17.8545 31.6243L17.7574 31.5322ZM17.4365 31.6974L17.1572 31.7443L17.4053 31.6574L17.4365 31.6974ZM18.5968 31.2227L19.1432 31.0297C19.1744 31.0175 19.2073 31.0088 19.2386 30.9984C19.2975 31.1131 19.3548 31.2279 19.412 31.3461L18.7564 31.4609L18.5968 31.2227ZM21.0059 32.4172L21.6581 32.3911L21.6685 32.4485L21.7604 32.9997C21.5627 32.9823 21.3719 32.9614 21.1863 32.9406L21.0059 32.4172ZM27.4563 32.5024C27.4563 32.485 27.4649 32.4676 27.4684 32.4502C27.6835 32.4607 27.8951 32.4746 28.1032 32.4885L27.9107 33.0049C27.7372 33.0223 27.543 33.0379 27.3505 33.0518L27.4563 32.5024ZM30.3753 32.0242L30.7638 32.099L30.3042 32.1181C30.3285 32.0921 30.351 32.0608 30.3753 32.0295V32.0242ZM30.7829 31.4609L31.3032 31.6591L31.2113 31.7426L30.6528 31.6348L30.7829 31.4609ZM31.6675 31.793L31.8652 31.8678L31.6362 31.8225L31.6675 31.793ZM34.2691 27.5817L34.6836 27.9295C34.4576 29.3806 33.6908 30.6917 32.5381 31.5982L32.0178 31.4035C32.995 30.2796 33.7591 28.9862 34.2726 27.5869L34.2691 27.5817ZM34.0055 24.7997L33.8598 24.5093L33.9725 24.2937L34.0297 24.6554L34.0055 24.7997ZM33.9083 22.9636C33.8436 22.8187 33.7759 22.6709 33.7054 22.5202L34.1685 22.1377C34.2067 22.2803 34.2361 22.4194 34.2622 22.555L33.9083 22.9636ZM34.1373 19.1036C34.542 19.7936 34.7862 20.5662 34.8519 21.3639L34.3749 21.7569C33.8825 20.2163 33.0862 18.7907 32.0334 17.5648L32.6231 17.3561C33.2503 17.8204 33.7683 18.4169 34.1407 19.1036H34.1373ZM31.6085 17.5387L31.0327 17.7508C30.9355 17.6065 30.8401 17.4639 30.7447 17.3266L31.2894 17.2327C31.3969 17.33 31.5044 17.4344 31.612 17.5456L31.6085 17.5387ZM29.6451 16.565L29.3763 16.5493L29.189 16.2537L29.3485 16.3146L29.6451 16.565ZM26.6706 13.1396L26.7347 13.5309C25.4103 13.0644 23.9683 13.0552 22.638 13.5048L22.7091 13.1188C23.2626 12.6688 23.9585 12.4325 24.6708 12.4528H24.7055C25.4213 12.4393 26.1183 12.6829 26.6706 13.1396ZM20.1491 16.179L19.9757 16.438L19.9653 16.4572L19.7103 16.4676L20 16.2311L20.1491 16.179ZM18.6107 17.1996C18.5153 17.3318 18.4182 17.4691 18.321 17.6082L17.7626 17.3996C17.8684 17.2918 17.9759 17.1909 18.0834 17.0988L18.6107 17.1996ZM15.1124 21.9221L15.5616 22.3081C15.487 22.4576 15.4176 22.6054 15.35 22.7497L15.0031 22.3394C15.0343 22.2072 15.0707 22.0699 15.1124 21.9273V21.9221ZM15.2511 24.0677L15.3604 24.2885L15.2112 24.5754L15.1869 24.4276L15.2511 24.0677ZM18.2898 31.979L18.7182 31.9182L18.7928 32.0242L18.302 31.9929L18.2898 31.979ZM19.6219 32.4537L19.9688 32.4763L20.1127 32.7024L19.7485 32.5633L19.6219 32.4537ZM21.3199 33.3092L21.8281 33.3579L21.9287 33.9699C21.7795 33.9299 21.6373 33.8865 21.502 33.8378L21.3199 33.3092ZM27.1874 34.0047L27.2984 33.4031L27.7927 33.3648L27.6037 33.8865C27.4632 33.9264 27.3245 33.9682 27.1788 34.0047H27.1874ZM28.9947 32.7754L29.1352 32.565L29.4682 32.5511L29.3468 32.6485L28.9947 32.7754ZM34.5848 22.5985C34.5848 22.5759 34.5761 22.5515 34.5709 22.5272L34.6975 22.3794L34.5848 22.5985ZM35.2213 21.4596L35.1224 21.5761C35.1224 21.5065 35.1224 21.4352 35.1224 21.3639L35.419 21.1188C35.3629 21.2396 35.2936 21.3539 35.2126 21.4596H35.2213ZM36.1596 17.9942C36.4038 18.4066 36.4997 18.8904 36.4312 19.365C36.3627 19.8396 36.134 20.2763 35.7833 20.6024C35.8589 19.8609 35.705 19.1141 35.3426 18.4633C34.9801 17.8126 34.4267 17.2894 33.7574 16.9649C34.2137 16.8399 34.6988 16.8736 35.1335 17.0606C35.5682 17.2475 35.9269 17.5766 36.1509 17.9942H36.1596ZM32.6908 16.9892C32.8418 16.9768 32.9938 16.9826 33.1435 17.0066L32.7671 17.1388C32.7012 17.0936 32.6353 17.0501 32.5676 17.0101L32.6908 16.9892ZM31.7368 16.9458L31.4749 16.991L31.3986 16.9249L31.7368 16.9458ZM24.7089 11.3435C25.0819 11.3414 25.4476 11.4466 25.7627 11.6466C26.0778 11.8466 26.3291 12.1331 26.4867 12.4719C25.9361 12.1775 25.3225 12.0211 24.6985 12.0163C24.0744 12.0114 23.4585 12.1582 22.9034 12.4441C23.0678 12.1068 23.3253 11.8238 23.6454 11.6287C23.9654 11.4336 24.3345 11.3346 24.7089 11.3435ZM17.9794 16.7997L17.9083 16.8588L17.6706 16.8119L17.9794 16.7997ZM16.5224 16.8293C16.586 16.8258 16.6497 16.8258 16.7132 16.8293L16.8277 16.8519C16.7635 16.8884 16.6994 16.9284 16.6335 16.9718L16.2762 16.838C16.358 16.8299 16.4403 16.827 16.5224 16.8293ZM13.2479 17.7786C13.4307 17.458 13.6936 17.1906 14.0108 17.0028C14.328 16.815 14.6885 16.7132 15.0569 16.7076C15.2581 16.7087 15.4583 16.7373 15.6518 16.7928C14.9805 17.1045 14.4203 17.6145 14.0461 18.2543C13.672 18.8942 13.5018 19.6333 13.5583 20.3729C13.2216 20.0393 13.0076 19.6012 12.9513 19.1301C12.8949 18.6589 12.9994 18.1825 13.2479 17.7786ZM13.9139 20.8997L14.1983 21.1431C14.1983 21.2179 14.1896 21.2892 14.1896 21.3622L14.1116 21.2683C14.0319 21.1534 13.9656 21.0297 13.9139 20.8997ZM14.5747 22.1464L14.7117 22.3098L14.6961 22.3898L14.5747 22.1464ZM13.2114 30.8749C13.0226 30.5516 12.9306 30.1807 12.9463 29.8065C12.962 29.4322 13.0847 29.0703 13.2999 28.7641C13.3169 29.3871 13.4835 29.9968 13.7854 30.5416C14.0873 31.0863 14.5157 31.5502 15.0343 31.8938C14.6654 31.9147 14.2981 31.8299 13.9754 31.6495C13.6527 31.4691 13.3877 31.2005 13.2114 30.8749ZM21.28 34.0742L21.3684 34.1073L21.4517 34.3455L21.28 34.0742ZM21.9737 35.2096L21.9252 35.0671C21.9911 35.1071 22.0587 35.1436 22.1299 35.1783L22.1958 35.58C22.107 35.4691 22.0303 35.349 21.9668 35.2218L21.9737 35.2096ZM24.5407 37.7674H24.5199C24.0444 37.7718 23.5816 37.6139 23.2075 37.3197C22.8333 37.0256 22.5701 36.6125 22.4611 36.1486C23.056 36.592 23.7804 36.8262 24.5216 36.8145H24.5615C25.2971 36.8339 26.0183 36.6076 26.6116 36.1712C26.4987 36.6352 26.2313 37.0466 25.8534 37.3375C25.4756 37.6284 25.01 37.7813 24.5338 37.7708L24.5407 37.7674ZM27.1007 35.2496C27.043 35.3729 26.9721 35.4896 26.8891 35.5974L26.962 35.2096C27.0279 35.1766 27.092 35.1436 27.1527 35.1071L27.1007 35.2496ZM27.6488 34.3507L27.7216 34.1542L27.7962 34.1281L27.6488 34.3507ZM35.8422 31.0888C35.6605 31.4096 35.3918 31.6722 35.0674 31.8464C34.743 32.0205 34.376 32.0991 34.0089 32.0729C34.5326 31.7421 34.9695 31.29 35.2828 30.7548C35.5961 30.2196 35.7766 29.6168 35.8093 28.9971C36.0122 29.3076 36.1224 29.6697 36.127 30.0409C36.1316 30.412 36.0304 30.7768 35.8353 31.0923L35.8422 31.0888Z" fill="url(#paint3_linear_599_12903)"/>
<ellipse cx="24.5305" cy="24.5303" rx="23.4695" ry="23.4695" fill="white" fill-opacity="0.08" stroke="white" stroke-opacity="0.2" stroke-width="0.5"/>
<ellipse cx="24.4695" cy="24.4695" rx="23.4695" ry="23.4695" fill="white" fill-opacity="0.08" stroke="white" stroke-opacity="0.2" stroke-width="0.5"/>
<path fill-rule="evenodd" clip-rule="evenodd" d="M0.999989 24.1955C0.999989 21.4184 0.999989 14.4949 9.21431 6.86727C8.04083 24.1955 17.0487 36.7909 29.7501 36.7909C36.786 36.7909 42.9683 33.5169 47.939 29.2902C45.6073 39.955 36.1077 47.939 24.7434 47.939C11.6303 47.939 0.999989 37.3086 0.999989 24.1955Z" fill="black" fill-opacity="0.1"/>
<path fill-rule="evenodd" clip-rule="evenodd" d="M45.8054 24.7186C45.8054 27.2432 45.8054 33.5373 38.3378 40.4715C39.4046 24.7186 31.2156 13.2681 19.6689 13.2681C13.2726 13.2681 7.6523 16.2445 3.13354 20.087C5.25328 10.3917 13.8892 3.13354 24.2204 3.13354C36.1414 3.13354 45.8054 12.7975 45.8054 24.7186Z" fill="white" fill-opacity="0.1"/>
<path d="M44.7463 23.2664C44.7463 14.3348 37.8046 4.73361 26.6032 4.20023C24.4267 4.09659 19.1356 5.26703 18.0688 10.601C28.5988 10.601 39.4048 20.3402 39.4048 30.8702C43.6719 29.8034 44.7463 25.9901 44.7463 23.2664Z" fill="url(#paint4_linear_599_12903)" fill-opacity="0.4"/>
<defs>
<filter id="filter0_i_599_12903" x="8.46753" y="8.46753" width="32.0039" height="32.0039" filterUnits="userSpaceOnUse" color-interpolation-filters="sRGB">
<feFlood flood-opacity="0" result="BackgroundImageFix"/>
<feBlend mode="normal" in="SourceGraphic" in2="BackgroundImageFix" result="shape"/>
<feColorMatrix in="SourceAlpha" type="matrix" values="0 0 0 0 0 0 0 0 0 0 0 0 0 0 0 0 0 0 127 0" result="hardAlpha"/>
<feOffset dy="2"/>
<feComposite in2="hardAlpha" operator="arithmetic" k2="-1" k3="1"/>
<feColorMatrix type="matrix" values="0 0 0 0 1 0 0 0 0 1 0 0 0 0 1 0 0 0 0.6 0"/>
<feBlend mode="normal" in2="shape" result="effect1_innerShadow_599_12903"/>
</filter>
<linearGradient id="paint0_linear_599_12903" x1="6.68945" y1="24.4694" x2="38.685" y2="35.1485" gradientUnits="userSpaceOnUse">
<stop stop-color="#5EE6D0"/>
<stop offset="0.515056" stop-color="#BFC6FF"/>
<stop offset="1" stop-color="#FFBA69"/>
</linearGradient>
<linearGradient id="paint1_linear_599_12903" x1="8.9835" y1="24.4639" x2="39.5166" y2="24.4639" gradientUnits="userSpaceOnUse">
<stop stop-color="#151515"/>
<stop offset="1" stop-color="#2C2C2C"/>
</linearGradient>
<linearGradient id="paint2_linear_599_12903" x1="8.9835" y1="24.4639" x2="39.5166" y2="24.4639" gradientUnits="userSpaceOnUse">
<stop stop-color="#7549FA"/>
<stop offset="1" stop-color="#E94CD7"/>
</linearGradient>
<linearGradient id="paint3_linear_599_12903" x1="12.4727" y1="24.3964" x2="34.6477" y2="30.9975" gradientUnits="userSpaceOnUse">
<stop stop-color="#5EE6D0"/>
<stop offset="0.515056" stop-color="#BFC6FF"/>
<stop offset="1" stop-color="#FFBA69"/>
</linearGradient>
<linearGradient id="paint4_linear_599_12903" x1="37.1121" y1="8.01345" x2="24.5829" y2="23.2664" gradientUnits="userSpaceOnUse">
<stop stop-color="white"/>
<stop offset="1" stop-color="white" stop-opacity="0"/>
</linearGradient>
</defs>
</svg>
