<svg width="120" height="32" viewBox="0 0 120 32" fill="none" xmlns="http://www.w3.org/2000/svg">
<path d="M43.0755 17.2873C42.7905 16.7594 42.3808 16.2842 41.8822 15.9323C41.5437 15.6859 41.1697 15.4924 40.7779 15.3515C41.2766 15.1404 41.7041 14.8061 42.0247 14.3661C42.4699 13.7149 42.7014 12.9407 42.6836 12.1488C42.7014 11.4273 42.5055 10.7234 42.1137 10.1251C41.7041 9.52675 41.1163 9.0868 40.4395 8.82286C39.5668 8.5061 38.6585 8.34767 37.7323 8.36535H30.8574V23.728H37.946C38.6941 23.728 39.4599 23.6401 40.1724 23.4465C40.8136 23.2705 41.4191 22.9713 41.9356 22.5666C42.4343 22.1795 42.8261 21.6867 43.0933 21.106C43.3782 20.4724 43.503 19.7685 43.503 19.0822C43.503 18.4664 43.3604 17.8504 43.0755 17.2873ZM34.4017 11.4977H37.0555C37.7145 11.4977 38.1954 11.6385 38.5159 11.9025C38.8365 12.184 39.0324 12.5888 39.0146 13.011C39.0146 13.2927 38.9434 13.5919 38.8009 13.8381C38.6585 14.0669 38.4447 14.2605 38.1775 14.3661C37.8569 14.5069 37.5185 14.5597 37.1801 14.5597H34.4017V11.4977ZM39.5312 19.8566C39.3708 20.1205 39.1393 20.3141 38.8544 20.4373C38.5159 20.578 38.1597 20.6484 37.8035 20.6308H34.4017V17.3401H37.6967C38.0707 17.3225 38.4447 17.3929 38.8009 17.5337C39.0859 17.6393 39.3352 17.8329 39.5312 18.0792C39.7093 18.3255 39.7983 18.6247 39.7805 18.9414C39.7983 19.2582 39.7093 19.575 39.5312 19.8566Z" fill="white"/>
<path d="M52.8535 8.3833H49.6476L43.5029 23.746H47.2253L48.3296 20.8071H54.029L55.1333 23.746H58.9626L52.8535 8.3833ZM49.3983 18.0091L50.1641 15.9854C50.2888 15.6159 50.4135 15.2639 50.5381 14.912C50.6628 14.56 50.7874 14.2256 50.9122 13.8736C51.0191 13.5569 51.108 13.2578 51.2149 12.9411C51.304 13.2401 51.4108 13.5569 51.4999 13.8736C51.6246 14.2432 51.7314 14.6128 51.8561 14.9648C51.9808 15.3167 52.0876 15.6511 52.2124 15.9502L52.9782 17.9916L49.3983 18.0091Z" fill="white"/>
<path d="M70.0766 17.833C70.1657 17.7978 70.2547 17.745 70.3438 17.6922C71.1274 17.2699 71.7864 16.6364 72.2317 15.8797C72.6948 15.0877 72.9263 14.1903 72.9263 13.2752C72.9441 12.3953 72.6948 11.5155 72.2317 10.7588C71.7686 10.0197 71.1096 9.4213 70.326 9.01659C69.4888 8.59422 68.5627 8.36551 67.6187 8.38308H60.6191V23.7457H64.217V18.3433H66.1582L69.2395 23.7457H73.5497L70.0766 17.833ZM64.2348 11.4978H66.9598C67.3694 11.4803 67.7969 11.5682 68.1709 11.7442C68.4915 11.885 68.7586 12.1313 68.9367 12.4305C69.1149 12.7473 69.2039 13.1168 69.2039 13.4687C69.2039 13.8383 69.1327 14.1903 68.9723 14.5246C68.8299 14.8238 68.5983 15.0702 68.3133 15.2462C68.0106 15.4221 67.6543 15.5101 67.2982 15.4924H64.2348V11.4978Z" fill="white"/>
<path d="M88.5457 8.3833L82.8463 16.9004V23.746H79.0527V16.9533L72.9258 8.3833H77.2004L80.9584 13.7153L84.378 8.3833H88.5457Z" fill="white"/>
<path d="M96.1689 23.9745C95.0642 23.9921 93.96 23.7809 92.927 23.3762C91.0034 22.6019 89.4717 21.0885 88.688 19.1879C87.8866 17.1466 87.8866 14.8765 88.688 12.8176C89.4717 10.8995 91.0034 9.3861 92.927 8.6294C94.993 7.83756 97.2903 7.83756 99.3748 8.6294C100.336 9.01653 101.209 9.57966 101.939 10.3012C102.67 11.0227 103.24 11.885 103.613 12.8176C104.397 14.859 104.397 17.1291 103.613 19.1704C103.24 20.1206 102.67 20.9829 101.939 21.7044C101.209 22.426 100.336 22.9891 99.3924 23.3762C98.3413 23.7809 97.2551 23.9921 96.1689 23.9745ZM96.1327 20.4549C96.7027 20.4549 97.2727 20.3494 97.8075 20.1206C98.3062 19.9095 98.7686 19.5927 99.1431 19.1879C99.5165 18.7832 99.8197 18.2905 100.015 17.7626C100.425 16.6188 100.425 15.3517 100.015 14.2079C99.8197 13.6799 99.5165 13.2048 99.1431 12.8C98.7686 12.3953 98.3062 12.0786 97.8075 11.8673C96.7389 11.4274 95.5274 11.4274 94.4587 11.8673C93.4256 12.3073 92.6242 13.1696 92.2323 14.2079C92.0364 14.7709 91.9295 15.3869 91.9474 15.9852C91.9474 16.6011 92.0364 17.1995 92.2501 17.7802C92.4461 18.308 92.7311 18.7832 93.1228 19.1879C93.9066 20.015 95.0108 20.4726 96.1327 20.4549Z" fill="white"/>
<path d="M120 8.3833V23.746H116.58L109.634 14.5248V23.746H105.983V8.3833H109.349L116.331 17.7803V8.3833H120Z" fill="white"/>
<path d="M5.63783 6.50016C5.63783 7.04573 5.58435 7.60886 5.45969 8.17199C4.78291 11.0932 3.6074 12.3074 1.96882 15.035C0.686452 17.1467 0.259002 18.9065 0.169941 20.3847C0.169941 20.4903 0.152137 20.6135 0.152137 20.719C0.152137 20.6839 0.152137 20.631 0.134322 20.5958V20.5782C-0.417807 15.7037 0.811131 12.8354 2.37846 10.0549C2.62782 9.61501 2.87713 9.17506 3.12655 8.71745C5.1213 5.05715 3.99927 0.939355 3.92799 0.745789C3.92799 0.763378 3.94578 0.780978 3.96358 0.798577C3.96358 0.798577 3.96358 0.816177 3.98137 0.816177C4.17731 1.13293 5.63783 3.68461 5.63783 6.50016Z" fill="url(#paint0_linear_392_12550)"/>
<path d="M20.3849 27.2303C20.3671 27.2479 20.3315 27.2831 20.3136 27.3183C20.278 27.3535 20.2602 27.4063 20.2246 27.4239C20.0821 27.5823 19.9218 27.7582 19.7615 27.9166C19.5122 28.163 19.2451 28.4094 18.96 28.6205C17.7489 29.606 16.3419 30.345 14.828 30.7674H14.7923L14.7211 30.785L14.5074 30.8202H14.4896L14.3827 30.8378L14.2402 30.8554H14.2046C14.169 30.8554 14.1155 30.873 14.0799 30.873L13.8484 30.9082H13.8306L13.5634 30.9434L13.3853 30.961H13.225L12.9222 30.9786H12.4236C12.3167 30.9786 12.192 30.961 12.0851 30.961C11.9782 30.961 11.8714 30.9434 11.7645 30.9434C11.7111 30.9434 11.6576 30.9257 11.6043 30.9257C11.5152 30.9257 11.4261 30.9082 11.3192 30.8906H11.2837L10.9809 30.8378L10.8206 30.8027C10.7137 30.785 10.6247 30.7499 10.5178 30.7322L10.3575 30.697L10.1972 30.6442C10.1437 30.6267 10.0903 30.609 10.0369 30.5914L10.0013 30.5739L9.91221 30.5386L9.80534 30.4859L9.71637 30.4507L9.66289 30.4331L9.48475 30.3627L9.41357 30.345L9.27102 30.2922L9.12856 30.2219L8.96832 30.1515L8.80797 30.0635L8.64772 29.9755L8.52296 29.9051L8.3983 29.8347C8.30933 29.7819 8.20247 29.7292 8.1134 29.6587L7.97084 29.5532L7.82839 29.4476C7.75711 29.3948 7.70373 29.342 7.63245 29.2893L7.59687 29.254C7.56128 29.2188 7.52559 29.2012 7.49 29.1661L7.41872 29.1133L7.24068 28.9373C7.20499 28.902 7.1872 28.8669 7.15161 28.8493C7.11592 28.8317 7.09813 28.7965 7.06254 28.7613C7.00916 28.7085 6.93788 28.6381 6.8844 28.5677C6.83102 28.4973 6.74195 28.427 6.70636 28.3566C6.67067 28.2862 6.61729 28.2334 6.5638 28.163C6.54601 28.1278 6.52822 28.1102 6.51042 28.0926C6.49263 28.075 6.45694 28.0398 6.43914 28.0046L6.35007 27.8814C6.31449 27.8462 6.29669 27.7934 6.26111 27.7582C6.17203 27.635 6.08296 27.4943 6.01168 27.3535C5.99389 27.3183 5.9761 27.3007 5.9583 27.2655V27.2479C5.92261 27.1951 5.88703 27.1247 5.85144 27.0543C5.79795 26.9664 5.76237 26.8783 5.72678 26.7904C5.69109 26.7024 5.6555 26.6144 5.61991 26.5089C5.19245 25.3826 5.01431 24.1683 5.08559 22.9717V22.8133C5.10338 22.5141 5.13897 22.215 5.21025 21.9159C5.21025 21.8983 5.21025 21.8983 5.21025 21.8806L5.24584 21.7574C5.33491 21.3352 5.47736 20.9479 5.6555 20.5608C5.6555 20.5608 5.6555 20.5785 5.63771 20.5785L5.6555 20.5432C5.74457 20.3321 5.85144 20.1033 5.9761 19.8745C5.99389 19.8218 6.02948 19.7865 6.04738 19.7337C6.06517 19.6809 6.10076 19.6282 6.11855 19.593C6.13634 19.5577 6.17203 19.4873 6.18983 19.4522C6.20762 19.417 6.22541 19.3994 6.24321 19.3641L6.29669 19.2762C6.31449 19.241 6.35007 19.2058 6.36797 19.1706L6.43914 19.0651C6.77753 18.5371 7.06254 18.0444 7.31186 17.5692C7.36534 17.4636 7.40093 17.3757 7.45441 17.2877L7.56128 17.094C7.66814 16.9005 7.75711 16.7069 7.84618 16.531C7.88187 16.4605 7.89967 16.4078 7.93525 16.3374L7.95305 16.3022C8.00653 16.179 8.05991 16.0734 8.1134 15.9679C8.13119 15.9327 8.14899 15.8974 8.16678 15.8623L8.25585 15.6687C8.25585 15.6511 8.27364 15.6335 8.27364 15.6335C8.27364 15.6335 8.27364 15.6335 8.27364 15.6159C8.30933 15.5279 8.34492 15.4576 8.38051 15.3871C8.4162 15.2991 8.45179 15.2112 8.48737 15.1231C8.50517 15.0703 8.52296 15.0176 8.54086 14.9824C8.55865 14.912 8.59424 14.8416 8.61203 14.7888C8.27364 16.1615 7.59687 17.7804 7.00916 19.7514C6.72415 20.684 6.67067 21.6695 6.84881 22.6373C6.95568 23.2533 7.16941 23.834 7.47221 24.3795C7.52559 24.5027 7.59687 24.6082 7.66814 24.7138C7.68594 24.7491 7.84618 25.013 8.07771 25.3473C8.13119 25.4002 8.18457 25.453 8.23806 25.5058L8.29144 25.5585C8.32713 25.5937 8.34492 25.629 8.38051 25.6641L8.55865 25.8401L8.57645 25.8753C8.61203 25.9105 8.64772 25.9457 8.68331 25.9984L8.91483 26.2272C9.05729 26.368 9.23543 26.5089 9.41357 26.6672L9.53823 26.7728L9.66289 26.8607L9.71637 26.896L9.80534 26.9664L9.85883 27.0015L9.9479 27.0719C10.0369 27.1424 10.1437 27.2127 10.2506 27.2831L10.3219 27.3359L10.5534 27.4767C10.5712 27.4767 10.5891 27.4943 10.5891 27.4943L10.7137 27.5646L10.8028 27.6174C10.8384 27.635 10.874 27.6527 10.9097 27.6703L11.0165 27.7231L11.0699 27.7406L11.159 27.7759C11.159 27.7759 11.159 27.7759 11.1768 27.7759L11.2481 27.811L11.2837 27.8286L11.3727 27.8638L11.4796 27.9166H11.4974L11.6576 27.987L11.6755 28.0046L11.7289 28.0221L11.7824 28.0398L11.8893 28.0926L12.0851 28.163H12.103L12.3167 28.251L12.4236 28.2862C12.8688 28.4621 13.3319 28.6029 13.8127 28.6909H13.884C14.4361 28.7965 15.006 28.8493 15.5582 28.8493C16.5199 28.8493 17.4817 28.7085 18.3901 28.4094L18.497 28.3566C18.5148 28.3566 18.5148 28.339 18.5326 28.339L18.7819 28.2334L18.871 28.1981L18.9066 28.1806H18.9245L18.96 28.163L18.9956 28.1453L19.0491 28.1278L19.0847 28.1102H19.1025L19.156 28.075C19.1738 28.075 19.1916 28.0574 19.2094 28.0398L19.2451 28.0221H19.2628L19.3162 27.987L19.334 27.9694L19.4053 27.9166L19.4588 27.8814L19.4944 27.8638L19.6724 27.7406L19.8328 27.635L19.9218 27.5823L19.9396 27.5646L20.0465 27.4943C20.0999 27.4414 20.1711 27.4063 20.2067 27.3535L20.3849 27.2303Z" fill="url(#paint1_linear_392_12550)"/>
<path d="M5.63732 20.5782L5.62012 20.6293C5.62012 20.6123 5.62012 20.5953 5.63732 20.5782Z" fill="url(#paint2_linear_392_12550)"/>
<path d="M14.7037 30.82L14.5077 30.8904C8.43432 32.439 2.254 28.9019 0.544176 22.9891C0.152344 21.8805 0.152344 20.719 0.152344 20.719C0.152344 20.6135 0.152344 20.5079 0.170158 20.3847C0.259209 18.9065 0.704473 17.1467 1.96903 15.035C3.6076 12.3074 4.78312 11.0932 5.4599 8.17199C5.58455 7.60886 5.63804 7.04573 5.63804 6.50016C5.63804 3.68461 4.17752 1.13293 3.98158 0.816177C3.96379 0.816177 3.96378 0.798577 3.96378 0.798577C3.94599 0.780978 3.94599 0.763378 3.9282 0.745789C4.12413 0.904166 8.71923 4.51169 9.09331 9.94933C9.09331 9.94933 9.1289 10.4244 9.1289 11.0932C9.1289 12.0962 9.05762 13.5393 8.70144 14.4543C8.68364 14.5423 8.66585 14.6478 8.61236 14.7887C8.59457 14.8414 8.55898 14.9118 8.54119 14.9823C8.52329 15.0174 8.5055 15.0702 8.4877 15.123C8.45212 15.211 8.41643 15.299 8.38084 15.387C8.34525 15.4573 8.30956 15.5277 8.27397 15.6158C8.27397 15.6333 8.27397 15.6333 8.27397 15.6333C8.27397 15.6333 8.25618 15.6509 8.25618 15.6685L8.16711 15.8622C8.14932 15.8973 8.13152 15.9325 8.11373 15.9677C8.06024 16.0733 8.00686 16.1789 7.95338 16.302L7.93559 16.3372C7.9 16.4076 7.88221 16.4604 7.84651 16.5308C7.75744 16.7068 7.66848 16.9004 7.56161 17.0939L7.45474 17.2875C7.40126 17.3754 7.36567 17.4635 7.31219 17.5691C7.06287 18.0442 6.77786 18.537 6.43947 19.0648L6.3683 19.1705C6.3504 19.2056 6.31482 19.2408 6.29702 19.2761L6.24354 19.364C6.22574 19.3993 6.20795 19.4168 6.19016 19.452C6.17236 19.4872 6.13667 19.5576 6.11888 19.5928C6.10109 19.628 6.0655 19.6808 6.04771 19.7336C6.02981 19.7864 5.99422 19.8215 5.97643 19.8743C5.85177 20.1032 5.7449 20.3319 5.65583 20.5431L5.63804 20.5782C5.63804 20.5782 5.63804 20.5782 5.65583 20.5782C5.47769 20.9654 5.33524 21.3349 5.24617 21.7573L5.21058 21.8805C5.21058 21.8981 5.21058 21.8981 5.21058 21.9156C5.1393 22.2148 5.10371 22.514 5.08592 22.8132V22.9715C5.01464 24.1682 5.19278 25.3824 5.62024 26.5086C5.65583 26.6143 5.69142 26.7022 5.72711 26.7902C5.7627 26.8782 5.79828 26.9661 5.85177 27.0542C5.88736 27.1246 5.92294 27.195 5.95863 27.2478V27.2653C5.97643 27.3006 5.99422 27.3181 6.01201 27.3533C6.08329 27.4941 6.17236 27.6349 6.26144 27.7581C6.29702 27.7932 6.31482 27.846 6.3504 27.8813L6.43947 28.0045C6.45727 28.0396 6.49296 28.0748 6.51075 28.0924C6.52855 28.11 6.54634 28.1276 6.56413 28.1628C6.61762 28.2332 6.671 28.286 6.70669 28.3563C6.74228 28.4267 6.83135 28.4972 6.88473 28.5676C6.93821 28.638 7.00939 28.7083 7.06287 28.7612C7.09846 28.7963 7.11625 28.8315 7.15194 28.8491C7.18753 28.8667 7.20532 28.9019 7.24101 28.9372L7.41905 29.113L7.49033 29.1659C7.52592 29.2011 7.56161 29.2187 7.5972 29.2539L7.63278 29.289C7.70406 29.3419 7.75744 29.3947 7.82872 29.4475L7.97117 29.553L8.11373 29.6586C8.2027 29.729 8.30956 29.7818 8.39863 29.8346L8.52329 29.905L8.64805 29.9754L8.8083 30.0633L8.96865 30.1514L9.1289 30.2217L9.27135 30.2921L9.4139 30.3449L9.48508 30.3625L9.66322 30.4329L9.7166 30.4506L9.80567 30.4857L9.91254 30.5385L10.0016 30.5736L10.0372 30.5913C10.0907 30.6089 10.1441 30.6264 10.1975 30.6441L10.3578 30.6968L10.5181 30.7321C10.625 30.7496 10.7141 30.7849 10.8209 30.8024L10.9812 30.8377L11.284 30.8904H11.3196C11.4264 30.9081 11.5155 30.9256 11.6046 30.9256C11.658 30.9256 11.7114 30.9432 11.7648 30.9432C11.8717 30.9432 11.9786 30.9609 12.0854 30.9609C12.1923 30.9609 12.3169 30.9784 12.4238 30.9784H12.9226L13.2254 30.9609H13.3856L13.5637 30.9432L13.8309 30.9081H13.8488L14.0803 30.8728C14.1159 30.8728 14.1693 30.8553 14.2049 30.8553H14.2405L14.3831 30.8377L14.4899 30.82H14.5255L14.6324 30.8024L14.7037 30.82Z" fill="url(#paint3_linear_392_12550)"/>
<path d="M21.5066 25.523C21.5066 25.5406 21.5066 25.5582 21.4888 25.5758C21.4888 25.5934 21.4888 25.5934 21.471 25.611C21.471 25.6638 21.4531 25.6814 21.4531 25.7166C21.4353 25.7694 21.3997 25.8398 21.3819 25.8926C21.3106 25.9981 21.2394 26.1037 21.1682 26.2093C20.9544 26.5437 20.705 26.8604 20.4557 27.1596L20.4379 27.1772L20.4201 27.1947L20.3133 27.3179L20.2955 27.3356L20.2064 27.406C20.1529 27.4411 20.0995 27.4939 20.046 27.5467L19.9927 27.5819L19.9392 27.6171L19.9214 27.6347L19.8323 27.6875L19.7789 27.7227L19.6365 27.8283L19.4583 27.9514L19.4228 27.9691L19.3693 28.0043L19.298 28.0571L19.2802 28.0746L19.2268 28.1099H19.209L19.1733 28.1274C19.1555 28.145 19.1377 28.145 19.1199 28.1627L19.0665 28.1978H19.0487L19.0131 28.2154L18.9596 28.2331L18.924 28.2506L18.8884 28.2682H18.8706L18.8349 28.2859L18.7459 28.321L18.6212 28.3738L18.4966 28.4266C18.4788 28.4266 18.4788 28.4442 18.461 28.4442L18.3541 28.497C16.8936 28.9721 15.3263 29.0601 13.8124 28.7785H13.7946C13.3136 28.6906 12.8506 28.5498 12.4053 28.3738L12.2985 28.3386L12.0848 28.2506H12.067L11.871 28.1803L11.7642 28.1274L11.7107 28.1099L11.6573 28.0922L11.6395 28.0746L11.4791 28.0043H11.4614L11.3545 27.9514L11.2654 27.9163L11.2298 27.8986L11.1586 27.8635C11.1586 27.8635 11.1586 27.8635 11.1408 27.8635L11.0517 27.8283L10.9983 27.8107L10.8914 27.7579C10.8558 27.7403 10.8202 27.7227 10.7846 27.7051L10.6955 27.6524L10.5708 27.5819C10.5531 27.5819 10.5531 27.5643 10.5353 27.5643L10.3036 27.4236L10.2325 27.3707C10.1256 27.3004 10.0365 27.23 9.92966 27.1596L9.84059 27.0892L9.7872 27.054L9.69813 26.9836L9.64465 26.9484L9.51999 26.8604L9.39533 26.7548C9.21719 26.5965 9.03915 26.4557 8.89659 26.3149L8.75414 26.1741L8.66507 26.0862C8.62948 26.0509 8.5939 25.9981 8.55821 25.963L8.36227 25.7517L8.34448 25.7342C8.32668 25.7166 8.30889 25.699 8.29109 25.6814C8.29109 25.6814 8.29109 25.6638 8.2733 25.6638C8.20202 25.5758 8.13074 25.4702 8.05957 25.3823C8.11295 25.435 8.16643 25.4878 8.21982 25.5406C8.2733 25.5934 8.32668 25.6462 8.38017 25.6814C8.576 25.8574 8.77194 26.0158 8.98567 26.139L9.09253 26.1917C10.0543 26.7548 11.3723 26.9836 13.1712 26.5612C13.5452 26.4557 13.9193 26.3149 14.2576 26.1565C14.7564 25.9277 15.2372 25.6285 15.6469 25.2767C15.8962 25.0478 16.1277 24.7839 16.3237 24.4847C16.4839 24.256 16.6265 24.0096 16.7511 23.7457C16.8758 23.4817 16.9826 23.2177 17.0539 22.9362C17.1786 22.5138 17.2499 22.0915 17.2677 21.6516C17.3032 21.0532 17.232 20.455 17.0717 19.8741C17.0361 19.751 17.0004 19.6454 16.9471 19.5398L16.8045 19.2934L16.7867 19.2759H17.3567L17.5526 19.2934L17.7485 19.311C17.9444 19.3463 18.1582 19.3815 18.3541 19.4166C18.461 19.4342 18.55 19.4694 18.6569 19.487L18.7638 19.5223C18.9953 19.5926 19.2446 19.6983 19.4583 19.8214C19.5474 19.8741 19.6365 19.927 19.7254 19.9798C19.8145 20.0326 19.9036 20.103 19.9749 20.1558C20.0639 20.2261 20.1351 20.279 20.2064 20.3493L20.4201 20.5605C20.5626 20.7012 20.6872 20.8597 20.7941 21.018C20.8476 21.0885 20.901 21.1588 20.9367 21.2292C20.99 21.2996 21.0078 21.3348 21.0435 21.3875C21.1147 21.4932 21.1682 21.6164 21.2216 21.7395C21.2572 21.7923 21.275 21.8627 21.2928 21.9155C21.3819 22.1442 21.471 22.3906 21.5244 22.6194C21.5422 22.6722 21.5422 22.725 21.5599 22.7602V22.7778C21.5778 22.8306 21.5778 22.8834 21.5956 22.9362C21.6134 22.989 21.6134 23.0241 21.6134 23.0594C21.7737 23.8864 21.7203 24.7135 21.5066 25.523Z" fill="url(#paint4_linear_392_12550)"/>
<path d="M5.63732 20.5782L5.62012 20.6293C5.62012 20.6123 5.62012 20.5953 5.63732 20.5782Z" fill="url(#paint5_linear_392_12550)"/>
<path d="M14.8456 30.767L14.7211 30.8374L14.6855 30.8198L14.8456 30.767Z" fill="url(#paint6_linear_392_12550)"/>
<path d="M21.6851 25.4175L21.4001 25.875C21.4179 25.8222 21.4357 25.7694 21.4714 25.699C21.4714 25.6638 21.4892 25.6286 21.4892 25.5935C21.4892 25.5758 21.4892 25.5758 21.507 25.5582C21.7207 25.083 22.0948 24.1328 22.2017 23.6753C22.2017 23.6577 22.2194 23.6401 22.2194 23.6225C22.3797 22.901 22.4688 22.1619 22.4688 21.4227C22.4688 21.3172 22.4688 21.2116 22.4688 21.106C22.4688 21.0005 22.4688 20.8949 22.451 20.7892C22.451 20.6837 22.4332 20.5781 22.4332 20.4725C22.4154 20.367 22.4154 20.2789 22.3975 20.191C22.3797 20.103 22.3619 19.9974 22.3619 19.9095C22.3441 19.8566 22.3441 19.8214 22.3441 19.7686C22.3263 19.6982 22.3263 19.6278 22.3085 19.5575C22.2906 19.4871 22.2728 19.399 22.255 19.3286C22.2372 19.2231 22.2017 19.1351 22.1838 19.0296C22.166 18.9239 22.1304 18.836 22.0948 18.7304C22.0413 18.5368 21.97 18.3432 21.8989 18.1497C21.8276 17.9561 21.7563 17.7625 21.6673 17.5865C21.6316 17.4985 21.5783 17.393 21.5426 17.3049C21.4892 17.217 21.4536 17.1289 21.4001 17.0234C21.3645 16.9354 21.311 16.865 21.2755 16.7946C21.2399 16.7418 21.222 16.6891 21.1864 16.6363C21.1508 16.5659 21.1151 16.4954 21.0617 16.4427C21.0083 16.3371 20.9371 16.2492 20.8658 16.1435C20.8302 16.0732 20.7767 16.0028 20.7233 15.9324C20.7233 15.9324 20.7055 15.9147 20.7055 15.8972C20.5987 15.7387 20.474 15.5804 20.3493 15.422C20.2246 15.2636 20.0999 15.1052 19.9575 14.9469C19.3341 14.2606 18.6216 13.6623 17.8024 13.152C17.1612 12.7472 16.4844 12.4304 15.772 12.184C15.5404 12.1137 15.3267 12.0609 15.1842 12.0257C15.0596 11.9905 14.9705 11.9729 14.917 11.9729V12.008C15.0417 12.4129 15.1486 12.8352 15.2198 13.2575C15.2198 13.2751 15.2198 13.2751 15.2198 13.2927C15.2198 13.3455 15.2198 13.3983 15.2198 13.4511C15.2198 15.7915 11.9961 15.8972 11.4618 19.0296C11.4262 19.2055 11.3906 19.3639 11.3371 19.5222C10.7672 21.2468 8.9327 22.2499 8.71897 22.3554H8.70117C8.77235 22.2675 8.9327 22.1091 9.09294 21.7923C9.25329 21.4756 9.43143 21.018 9.59168 20.3493C9.76982 19.6103 9.89448 18.8536 9.93007 18.0793C9.94786 17.5337 10.0191 16.9706 10.126 16.425C10.1794 16.126 10.2507 15.8443 10.3219 15.5804C10.8028 13.8031 11.6043 12.5536 12.0852 11.6562C12.2633 11.357 12.388 11.0226 12.4592 10.6707C12.5304 10.0547 12.4592 9.56206 12.388 8.78769C12.3167 8.03099 12.0496 7.30953 11.6221 6.67603C11.7646 6.7464 13.6526 7.71424 14.828 8.87574C15.113 9.13969 15.3445 9.43887 15.5404 9.75563C15.6829 10.0724 15.9857 10.3011 16.3419 10.3715C16.8762 10.4595 21.0973 12.2016 22.5044 16.2492C22.5222 16.3019 22.54 16.3547 22.5578 16.425C22.6112 16.5835 22.6647 16.7595 22.7003 16.9354C22.7359 17.1114 22.7894 17.3226 22.8249 17.5162C22.9318 18.0969 23.0031 18.6423 23.0565 19.1528C23.2346 21.3524 22.7538 23.5169 21.6851 25.4175Z" fill="url(#paint7_linear_392_12550)"/>
<path d="M22.4685 21.423C22.4685 22.1621 22.3795 22.9012 22.2192 23.6227C22.2192 23.6403 22.2013 23.6579 22.2013 23.6755C22.0767 24.133 21.7027 25.0833 21.5068 25.5585C21.5068 25.5408 21.5068 25.5232 21.5246 25.5057C21.7383 24.6962 21.7918 23.8691 21.6492 23.0243C21.6492 22.9892 21.6492 22.954 21.6314 22.9012C21.6136 22.8484 21.6136 22.7956 21.5958 22.7428V22.7252C21.578 22.69 21.578 22.6372 21.5601 22.5845C21.5068 22.3557 21.4177 22.1093 21.3286 21.8805C21.3108 21.8278 21.293 21.7573 21.2574 21.7046C21.204 21.5814 21.1506 21.4582 21.0793 21.3526C21.0437 21.2998 21.0259 21.2647 20.9724 21.1942C20.9368 21.1238 20.8834 21.0534 20.83 20.983C20.7231 20.8247 20.5985 20.6663 20.4559 20.5255L20.2422 20.3144C20.171 20.2439 20.0997 20.1912 20.0107 20.1208C19.9395 20.068 19.8504 19.9976 19.7613 19.9448C19.6723 19.892 19.5832 19.8392 19.4941 19.7864C19.2804 19.6632 19.0311 19.5577 18.7995 19.4872L18.6927 19.4521C18.5858 19.4345 18.4967 19.3993 18.3899 19.3817C18.1939 19.3465 17.9802 19.3113 17.7844 19.2761L17.5884 19.2585L17.3925 19.2409H16.8226L16.8404 19.2585H16.7869C15.6293 19.2585 14.5072 19.5577 13.5098 20.1208C13.3851 20.1912 13.3138 20.2439 13.2783 20.2616H13.2605C13.1179 20.3495 12.9755 20.4552 12.833 20.5607C12.5124 20.807 12.2274 21.0887 11.9603 21.4054C11.9425 21.4406 11.9068 21.4582 11.889 21.4934C11.8712 21.5286 11.7999 21.5814 11.7644 21.6341C11.6931 21.7222 11.6575 21.775 11.6575 21.775C11.6575 21.775 10.9985 22.5493 10.1436 22.7428C9.69833 22.8484 9.21739 22.7428 8.84341 22.4789C8.80782 22.4436 8.75434 22.4085 8.71875 22.3733H8.75434C8.96807 22.2676 10.8026 21.2647 11.3725 19.54C11.426 19.3817 11.4616 19.2233 11.4972 19.0473C12.0315 15.915 15.2552 15.8093 15.2552 13.4689C15.2552 13.4161 15.2552 13.3633 15.2552 13.3106C15.2552 13.2929 15.2552 13.2929 15.2552 13.2753C15.184 12.8529 15.0772 12.4307 14.9524 12.0259V11.9907C15.0059 12.0083 15.095 12.0259 15.2196 12.0435C15.3621 12.0787 15.5758 12.1315 15.8073 12.2019C16.5198 12.4482 17.1966 12.765 17.8378 13.1697C18.6571 13.6624 19.3695 14.2784 19.9929 14.9647C20.1353 15.123 20.26 15.2815 20.3847 15.4398C20.5094 15.5982 20.634 15.7565 20.7409 15.915C20.7409 15.915 20.7587 15.9325 20.7587 15.9501C20.8122 16.0206 20.8478 16.091 20.9012 16.1613C20.9724 16.2669 21.0259 16.3549 21.0971 16.4605C21.1328 16.5309 21.1684 16.5836 21.2218 16.6541C21.2574 16.7068 21.2752 16.7596 21.3108 16.8124C21.3464 16.8828 21.3999 16.9709 21.4355 17.0412C21.489 17.1292 21.5246 17.2172 21.578 17.3227C21.6136 17.4108 21.667 17.4987 21.7027 17.6044C21.7918 17.7979 21.8629 17.9738 21.9342 18.1675C22.0055 18.3611 22.0767 18.5546 22.1302 18.7482C22.1657 18.8361 22.1835 18.9418 22.2192 19.0473C22.2548 19.1529 22.2726 19.2409 22.2904 19.3465C22.3082 19.4168 22.3261 19.5049 22.3439 19.5753C22.3617 19.6456 22.3795 19.716 22.3795 19.7864C22.3795 19.8392 22.3973 19.8745 22.3973 19.9272C22.4151 20.0152 22.433 20.1208 22.433 20.2088C22.433 20.2967 22.4508 20.4023 22.4685 20.4903C22.4863 20.5959 22.4863 20.7015 22.4863 20.807C22.4863 20.9127 22.5041 21.0183 22.5041 21.1238C22.4685 21.2119 22.4685 21.3174 22.4685 21.423Z" fill="url(#paint8_linear_392_12550)"/>
<path d="M21.667 17.6041C21.756 17.7976 21.8271 17.9736 21.8983 18.1672C21.8271 17.9736 21.7382 17.7801 21.667 17.6041Z" fill="url(#paint9_linear_392_12550)"/>
<defs>
<linearGradient id="paint0_linear_392_12550" x1="0.00899141" y1="10.736" x2="5.64311" y2="10.736" gradientUnits="userSpaceOnUse">
<stop stop-color="#DF7313"/>
<stop offset="0.38" stop-color="#DF7323"/>
<stop offset="0.68" stop-color="#FFB300"/>
<stop offset="0.88" stop-color="#FFC946"/>
<stop offset="1" stop-color="#FFD66D"/>
</linearGradient>
<linearGradient id="paint1_linear_392_12550" x1="12.7329" y1="30.9822" x2="12.7329" y2="14.7924" gradientUnits="userSpaceOnUse">
<stop offset="0.000530867" stop-color="#D25900"/>
<stop offset="0.3787" stop-color="#DF7323"/>
<stop offset="0.6805" stop-color="#FFB300"/>
<stop offset="0.8182" stop-color="#FFC946"/>
<stop offset="0.9042" stop-color="#FFD66D"/>
</linearGradient>
<linearGradient id="paint2_linear_392_12550" x1="5.63172" y1="20.6333" x2="5.63532" y2="20.5812" gradientUnits="userSpaceOnUse">
<stop stop-color="#FFB300"/>
<stop offset="0.0250874" stop-color="#FAAA05"/>
<stop offset="0.1068" stop-color="#EE9212"/>
<stop offset="0.193" stop-color="#E6811C"/>
<stop offset="0.2861" stop-color="#E17621"/>
<stop offset="0.3984" stop-color="#DF7323"/>
<stop offset="0.6888" stop-color="#FFC300"/>
<stop offset="0.7306" stop-color="#FFC404"/>
<stop offset="0.7705" stop-color="#FFC50F"/>
<stop offset="0.8098" stop-color="#FFC823"/>
<stop offset="0.8486" stop-color="#FFCB3E"/>
<stop offset="0.8868" stop-color="#FFD060"/>
<stop offset="0.8999" stop-color="#FFD26E"/>
<stop offset="0.9338" stop-color="#FED271"/>
<stop offset="0.9617" stop-color="#FCD37B"/>
<stop offset="0.9873" stop-color="#F9D38D"/>
<stop offset="1" stop-color="#F7D498"/>
</linearGradient>
<linearGradient id="paint3_linear_392_12550" x1="7.06194" y1="30.9683" x2="9.12471" y2="1.11133" gradientUnits="userSpaceOnUse">
<stop stop-color="#FFB300"/>
<stop offset="0.0250874" stop-color="#FAAA05"/>
<stop offset="0.1068" stop-color="#EE9212"/>
<stop offset="0.193" stop-color="#E6811C"/>
<stop offset="0.2861" stop-color="#E17621"/>
<stop offset="0.3984" stop-color="#DF7323"/>
<stop offset="0.6888" stop-color="#FFC300"/>
<stop offset="0.7306" stop-color="#FFC404"/>
<stop offset="0.7705" stop-color="#FFC50F"/>
<stop offset="0.8098" stop-color="#FFC823"/>
<stop offset="0.8486" stop-color="#FFCB3E"/>
<stop offset="0.8868" stop-color="#FFD060"/>
<stop offset="0.8999" stop-color="#FFD26E"/>
<stop offset="0.9338" stop-color="#FED271"/>
<stop offset="0.9617" stop-color="#FCD37B"/>
<stop offset="0.9873" stop-color="#F9D38D"/>
<stop offset="1" stop-color="#F7D498"/>
</linearGradient>
<linearGradient id="paint4_linear_392_12550" x1="8.08264" y1="24.0932" x2="21.7155" y2="24.0932" gradientUnits="userSpaceOnUse">
<stop stop-color="#FFD66D"/>
<stop offset="0.0758486" stop-color="#FFC946"/>
<stop offset="0.1973" stop-color="#FFB300"/>
<stop offset="0.444" stop-color="#DF7323"/>
<stop offset="0.858" stop-color="#D25900"/>
</linearGradient>
<linearGradient id="paint5_linear_392_12550" x1="5.63172" y1="20.6333" x2="5.63502" y2="20.5845" gradientUnits="userSpaceOnUse">
<stop stop-color="#FFB300"/>
<stop offset="0.03" stop-color="#FAAA05"/>
<stop offset="0.11" stop-color="#EE9212"/>
<stop offset="0.19" stop-color="#E6811C"/>
<stop offset="0.29" stop-color="#E17621"/>
<stop offset="0.4" stop-color="#DF7323"/>
<stop offset="0.69" stop-color="#FFC300"/>
<stop offset="0.73" stop-color="#FFC404"/>
<stop offset="0.77" stop-color="#FFC50F"/>
<stop offset="0.81" stop-color="#FFC823"/>
<stop offset="0.85" stop-color="#FFCB3E"/>
<stop offset="0.89" stop-color="#FFD060"/>
<stop offset="0.9" stop-color="#FFD26E"/>
<stop offset="0.93" stop-color="#FED271"/>
<stop offset="0.96" stop-color="#FCD37B"/>
<stop offset="0.99" stop-color="#F9D38D"/>
<stop offset="1" stop-color="#F7D498"/>
</linearGradient>
<linearGradient id="paint6_linear_392_12550" x1="14.7676" y1="30.8439" x2="14.773" y2="30.7653" gradientUnits="userSpaceOnUse">
<stop stop-color="#FFB300"/>
<stop offset="0.03" stop-color="#FAAA05"/>
<stop offset="0.11" stop-color="#EE9212"/>
<stop offset="0.19" stop-color="#E6811C"/>
<stop offset="0.29" stop-color="#E17621"/>
<stop offset="0.4" stop-color="#DF7323"/>
<stop offset="0.69" stop-color="#FFC300"/>
<stop offset="0.73" stop-color="#FFC404"/>
<stop offset="0.77" stop-color="#FFC50F"/>
<stop offset="0.81" stop-color="#FFC823"/>
<stop offset="0.85" stop-color="#FFCB3E"/>
<stop offset="0.89" stop-color="#FFD060"/>
<stop offset="0.9" stop-color="#FFD26E"/>
<stop offset="0.93" stop-color="#FED271"/>
<stop offset="0.96" stop-color="#FCD37B"/>
<stop offset="0.99" stop-color="#F9D38D"/>
<stop offset="1" stop-color="#F7D498"/>
</linearGradient>
<linearGradient id="paint7_linear_392_12550" x1="15.917" y1="25.8786" x2="15.917" y2="6.71478" gradientUnits="userSpaceOnUse">
<stop stop-color="#FFB300"/>
<stop offset="0.49" stop-color="#FFC300"/>
<stop offset="0.57" stop-color="#FFC719"/>
<stop offset="0.75" stop-color="#FFD259"/>
<stop offset="1" stop-color="#FFE4BE"/>
</linearGradient>
<linearGradient id="paint8_linear_392_12550" x1="15.5901" y1="25.5674" x2="15.5901" y2="12.0119" gradientUnits="userSpaceOnUse">
<stop stop-color="#FFB38A"/>
<stop offset="0.07" stop-color="#FFB35B"/>
<stop offset="0.15" stop-color="#FFB334"/>
<stop offset="0.22" stop-color="#FFB317"/>
<stop offset="0.28" stop-color="#FFB306"/>
<stop offset="0.32" stop-color="#FFB300"/>
<stop offset="0.81" stop-color="#DF7323"/>
<stop offset="1" stop-color="#D25900"/>
</linearGradient>
<linearGradient id="paint9_linear_392_12550" x1="21.7755" y1="17.5983" x2="21.7755" y2="18.1686" gradientUnits="userSpaceOnUse">
<stop stop-color="#FFB38A"/>
<stop offset="0.07" stop-color="#FFB35B"/>
<stop offset="0.15" stop-color="#FFB334"/>
<stop offset="0.22" stop-color="#FFB317"/>
<stop offset="0.28" stop-color="#FFB306"/>
<stop offset="0.32" stop-color="#FFB300"/>
<stop offset="0.81" stop-color="#DF7323"/>
<stop offset="1" stop-color="#D25900"/>
</linearGradient>
</defs>
</svg>
