<svg width="104" height="30" viewBox="0 0 104 30" fill="none" xmlns="http://www.w3.org/2000/svg">
<path fill-rule="evenodd" clip-rule="evenodd" d="M56.3252 9.59009H60.0352V22.4663H56.3252V9.59009Z" fill="white"/>
<path d="M53.935 14.8437C53.5349 14.1125 52.963 13.4875 52.2732 13.025C53.1261 12.0612 53.629 10.7812 53.5675 9.37999C53.4421 6.60124 51.0591 4.45624 48.2697 4.45624H40.5361V22.465H49.3847C52.2431 22.465 54.5609 20.1562 54.5609 17.305C54.5609 16.4137 54.3351 15.5762 53.935 14.8437ZM48.809 19.4087H44.2449V14.9887H48.7827C49.9742 14.9887 50.9826 15.9325 50.9826 17.2C50.9826 18.4512 49.9767 19.4087 48.809 19.4087ZM47.8395 11.9325H44.2449V7.51374H47.8119C49.0047 7.51374 50.0131 8.45624 50.0131 9.72374C50.0106 10.9737 49.0047 11.9325 47.8395 11.9325Z" fill="white"/>
<path d="M103.923 4.99011H99.6553L96.3216 10.3164L92.9891 4.99011H88.7197L94.1882 13.7276L88.7197 22.4664H92.9891L96.3216 17.1401L99.6553 22.4664H103.923L98.4563 13.7276L103.923 4.99011Z" fill="white"/>
<path d="M73.2662 15.3038V22.4651H69.5575V14.6626C69.5575 13.5276 68.6181 12.6113 67.4692 12.6438C66.363 12.6776 65.5088 13.6413 65.5088 14.7463V22.4626H61.7988V9.5863H65.5088V10.2001C66.3441 9.8063 67.2748 9.5863 68.2593 9.5863C68.7523 9.5863 69.2326 9.6413 69.6942 9.7463C71.7499 10.2126 73.2023 12.0426 73.2549 14.1426C73.2625 14.5201 73.2662 14.9101 73.2662 15.3038Z" fill="white"/>
<path fill-rule="evenodd" clip-rule="evenodd" d="M56.3252 4.4563H60.0352V8.1538H56.3252V4.4563Z" fill="white"/>
<path d="M87.726 9.59002H81.3282C81.3069 9.59002 81.2868 9.58752 81.2642 9.58752C77.6972 9.58752 74.805 12.4713 74.805 16.0275C74.805 19.5663 77.6684 22.4363 81.209 22.4625C81.2254 22.4663 81.2442 22.4663 81.2642 22.4663C82.6414 22.4663 84.016 22.8688 84.016 24.0625C84.016 25.2738 82.7706 26.3025 81.2642 26.3025C79.7454 26.3025 78.5137 25.075 78.5137 23.5613H74.8037C74.8037 27.1163 77.6972 30 81.263 30C84.8325 30 87.7222 27.1163 87.7222 23.5613C87.7222 23.5613 87.7937 21.6375 86.157 20.23C87.1353 19.1038 87.7235 17.6375 87.7235 16.0275C87.7235 14.7863 87.3723 13.6288 86.7615 12.6463H87.726V9.59002ZM81.2642 18.7688C79.7454 18.7688 78.5137 17.5413 78.5137 16.0275C78.5137 14.5138 79.7454 13.2863 81.2642 13.2863C82.7831 13.2863 84.016 14.5138 84.016 16.0275C84.016 17.5413 82.7831 18.7688 81.2642 18.7688Z" fill="white"/>
<path d="M34.4492 0C30.4808 0 26.5576 1 23.101 2.89375C21.2497 3.9075 19.5402 5.165 18.0214 6.63375C17.6639 6.9775 17.314 7.3375 16.9791 7.705C15.8591 8.935 14.8657 10.285 14.0317 11.7163C13.7357 12.23 13.4071 12.7313 13.0559 13.21C13.0095 13.2725 12.9656 13.335 12.9154 13.3963C9.84381 17.4475 5.16429 19.77 0.0771484 19.77V27.255C4.04552 27.255 7.96874 26.255 11.4254 24.3625C13.2729 23.3513 14.9824 22.0913 16.505 20.6225C16.8625 20.2775 17.2124 19.9175 17.5485 19.5513C18.6698 18.32 19.6594 16.9725 20.4934 15.54L20.5486 15.4475C20.8308 14.965 21.1419 14.495 21.4692 14.0475C21.5156 13.9863 21.562 13.9225 21.611 13.8575C24.6813 9.8075 29.3621 7.48375 34.4492 7.48375V0Z" fill="#2954FE"/>
<path d="M34.4492 19.7725C29.3621 19.7725 24.6813 17.4487 21.6084 13.3975C21.5633 13.3362 21.5156 13.275 21.4692 13.2087C21.1193 12.7337 20.7907 12.2312 20.4947 11.7162C19.6606 10.2862 18.6685 8.93747 17.5473 7.70622C17.2124 7.34122 16.8625 6.98122 16.505 6.63622C14.9861 5.16747 13.2779 3.90872 11.4254 2.89622C7.96874 1.00372 4.04552 0.00372314 0.0771484 0.00372314V7.48872C5.16429 7.48872 9.84506 9.81122 12.9179 13.8625C12.9656 13.9237 13.0107 13.9875 13.0571 14.0487C13.387 14.4975 13.698 14.9687 13.9765 15.4462L14.0354 15.5437C14.8682 16.9725 15.8591 18.32 16.9791 19.5525C17.3127 19.9175 17.6639 20.2775 18.0214 20.6225C19.5427 22.0912 21.2522 23.3512 23.101 24.3625C26.5576 26.255 30.4808 27.255 34.4492 27.255V19.7725Z" fill="#2954FE"/>
</svg>
