<svg width="16" height="16" viewBox="0 0 16 16" fill="none" xmlns="http://www.w3.org/2000/svg">
<path opacity="0.3" d="M9.12936 7.97662L15.7656 1.32766C15.8931 1.17178 15.9583 0.973885 15.9484 0.772469C15.9386 0.571053 15.8544 0.380517 15.7123 0.237922C15.5702 0.0953281 15.3803 0.0108709 15.1796 0.000978669C14.9788 -0.0089136 14.7816 0.0564663 14.6263 0.184401L8 6.84339L1.37373 0.184401C1.21838 0.0564663 1.02116 -0.0089136 0.820429 0.000978669C0.6197 0.0108709 0.429815 0.0953281 0.287707 0.237922C0.145599 0.380517 0.0614298 0.571053 0.0515713 0.772469C0.0417127 0.973885 0.10687 1.17178 0.234368 1.32766L6.87064 7.97662L0.234368 14.6256C0.0842274 14.7777 0 14.9831 0 15.1972C0 15.4113 0.0842274 15.6167 0.234368 15.7688C0.387194 15.9171 0.591462 16 0.804048 16C1.01663 16 1.2209 15.9171 1.37373 15.7688L8 9.10985L14.6263 15.7688C14.7791 15.9171 14.9834 16 15.196 16C15.4085 16 15.6128 15.9171 15.7656 15.7688C15.9158 15.6167 16 15.4113 16 15.1972C16 14.9831 15.9158 14.7777 15.7656 14.6256L9.12936 7.97662Z" fill="white"/>
</svg>
