<svg width="18" height="14" viewBox="0 0 18 14" fill="none" xmlns="http://www.w3.org/2000/svg">
<path d="M15.2382 1.27804C14.071 0.742394 12.8394 0.360096 11.5741 0.140674C11.5626 0.138743 11.5508 0.140411 11.5404 0.145447C11.5299 0.150483 11.5212 0.158641 11.5156 0.168799C11.3569 0.450046 11.1814 0.817917 11.0588 1.10591C9.6949 0.898926 8.30754 0.898926 6.94362 1.10591C6.80683 0.78509 6.65209 0.472223 6.48012 0.168799C6.47435 0.158752 6.46567 0.150689 6.45523 0.145669C6.44479 0.140648 6.43307 0.138907 6.42162 0.140674C5.15601 0.358922 3.92415 0.741418 2.75754 1.27804C2.74755 1.28185 2.7392 1.289 2.73391 1.29829C0.400686 4.78463 -0.239432 8.18546 0.0744392 11.5436C0.0755642 11.5593 0.0856891 11.5751 0.098064 11.5852C1.45674 12.5916 2.97645 13.36 4.59239 13.8577C4.6038 13.8613 4.61606 13.8611 4.62739 13.8573C4.63872 13.8534 4.64853 13.8461 4.65539 13.8363C5.00189 13.3638 5.31013 12.8654 5.57563 12.3412C5.58117 12.3304 5.58306 12.3181 5.58103 12.3061C5.57901 12.2942 5.57316 12.2832 5.56438 12.2748C5.55857 12.2693 5.55167 12.2651 5.54413 12.2624C5.05944 12.0761 4.59002 11.8523 4.14015 11.5931C4.12758 11.5859 4.11824 11.5743 4.11405 11.5604C4.10986 11.5466 4.11115 11.5317 4.11765 11.5188C4.12147 11.5104 4.12726 11.5031 4.13452 11.4974C4.22902 11.4266 4.32352 11.3523 4.41352 11.2781C4.42147 11.2717 4.43101 11.2676 4.44111 11.2662C4.45122 11.2648 4.46151 11.2662 4.47089 11.2702C7.41724 12.6157 10.6066 12.6157 13.5169 11.2702C13.5266 11.266 13.5373 11.2645 13.5478 11.2659C13.5583 11.2673 13.5683 11.2715 13.5765 11.2781C13.6665 11.3523 13.761 11.4266 13.8555 11.4974C13.8632 11.503 13.8694 11.5104 13.8734 11.519C13.8775 11.5275 13.8795 11.537 13.879 11.5465C13.8786 11.5559 13.8758 11.5651 13.8709 11.5733C13.866 11.5814 13.8592 11.5882 13.851 11.5931C13.4022 11.8547 12.9322 12.0783 12.4459 12.2613C12.4382 12.2641 12.4311 12.2686 12.4253 12.2744C12.4195 12.2802 12.415 12.2873 12.4122 12.295C12.4096 12.3026 12.4085 12.3105 12.4091 12.3185C12.4097 12.3264 12.4119 12.3341 12.4156 12.3412C12.6856 12.8643 12.9949 13.3638 13.3347 13.8363C13.3415 13.8461 13.3513 13.8534 13.3627 13.8573C13.374 13.8611 13.3863 13.8613 13.3977 13.8577C15.0163 13.3616 16.5385 12.5931 17.8988 11.5852C17.9056 11.5805 17.9112 11.5743 17.9153 11.5671C17.9194 11.5599 17.9218 11.5518 17.9224 11.5436C18.2981 7.66122 17.2935 4.28851 15.2607 1.29941C15.2586 1.29447 15.2555 1.29002 15.2517 1.28634C15.2478 1.28266 15.2432 1.27983 15.2382 1.27804ZM6.0155 9.49833C5.12789 9.49833 4.39777 8.68383 4.39777 7.68484C4.39777 6.68473 5.11439 5.87024 6.0155 5.87024C6.92337 5.87024 7.64673 6.69148 7.63323 7.68484C7.63323 8.68383 6.91662 9.49833 6.0155 9.49833ZM11.9959 9.49833C11.1094 9.49833 10.3782 8.68383 10.3782 7.68484C10.3782 6.68473 11.0948 5.87024 11.9959 5.87024C12.9038 5.87024 13.6283 6.69148 13.6137 7.68484C13.6137 8.68383 12.9038 9.49833 11.9959 9.49833Z" fill="white"/>
</svg>
