<svg width="68" height="46" viewBox="0 0 68 46" fill="none" xmlns="http://www.w3.org/2000/svg">
<path d="M26.7039 28.5477L7.21975 12.9743C6.5139 12.4168 5.46511 12.5114 4.87579 13.2885C4.54951 13.721 4.47959 14.2988 4.63274 14.8225L6.55385 26.2433C6.65707 26.5879 6.86682 26.892 7.14983 27.1083L15.893 34.1668C16.6255 34.7176 17.661 34.5622 18.207 33.8256C18.7531 33.0856 18.5999 32.0381 17.8674 31.4873L9.5637 24.7599L8.30183 18.2285L26.7005 32.7882L30.4895 35.8326L33.173 33.714L26.7005 28.5477H26.7039Z" fill="#A5EC0C"/>
<path d="M63.3915 14.7956C63.598 14.0995 63.3316 13.3494 62.7389 12.9405C62.1463 12.5317 61.3572 12.5587 60.7912 13.0047L46.4678 24.3376V28.5781L59.2696 18.3772L58.344 24.8782L50.1469 31.4874C49.4144 32.0382 49.2612 33.0856 49.8072 33.8256C50.3533 34.5656 51.3887 34.7176 52.1212 34.1669L60.7612 27.2232C61.0476 27.007 61.2573 26.7062 61.3572 26.3582L63.3982 14.7922L63.3915 14.7956Z" fill="#A5EC0C"/>
<path d="M25.888 40.7557V33.3863L22.5552 30.7541V44.1076C22.5552 44.6077 22.7383 45.1044 23.1145 45.4321C23.4375 45.7159 23.8304 45.8511 24.2199 45.8511C24.5862 45.8511 24.9491 45.7295 25.2454 45.4963L41.107 32.7679L41.1137 28.5409L25.8847 40.7557H25.888Z" fill="#A5EC0C"/>
<path d="M46.821 15.8057C52.5577 8.39578 60.948 4.87157 64.677 3.67882C65.0798 5.3007 64.2741 6.92257 63.6681 8.19642C63.2919 8.98033 63.6748 9.97711 64.4472 10.3589C65.2796 10.7712 66.2785 10.413 66.6713 9.57502C68.5958 5.48316 67.8733 1.65485 67.84 1.4217C67.7734 0.965551 67.5204 0.560081 67.1474 0.296526C66.7745 0.0329708 66.3084 -0.0582598 65.8623 0.0363497C65.2663 0.164748 51.8551 3.16522 43.618 14.5488C42.6558 15.8801 42.1564 17.4952 42.1564 19.1407V40.7556L37.3852 36.9881L34.7017 39.1067L42.789 45.4962C43.0853 45.7294 43.4449 45.851 43.8078 45.851C44.194 45.851 44.5836 45.7125 44.9065 45.432C45.2794 45.1043 45.4625 44.6076 45.4625 44.1075V19.8503C45.4625 18.3872 45.932 16.9579 46.8243 15.8057H46.821Z" fill="#A5EC0C"/>
<path d="M22.5419 24.0576L25.8714 26.7709L25.8448 19.138C25.8448 17.489 25.3454 15.8739 24.3831 14.546C16.1493 3.16245 2.73485 0.165354 2.1422 0.0369557C1.69605 -0.0576538 1.23325 0.0369557 0.857022 0.297132C0.48079 0.557308 0.231079 0.966157 0.16116 1.42231C0.127865 1.65546 -0.597961 5.48376 1.32981 9.57563C1.72269 10.4102 2.72153 10.7684 3.5539 10.3595C4.32634 9.97772 4.7059 8.98094 4.333 8.19703C3.7237 6.92318 2.9213 5.3013 3.32417 3.67942C7.05318 4.87556 15.4435 8.39639 21.1802 15.8063C22.0725 16.9586 22.5419 18.3878 22.5419 19.8509V24.061V24.0576Z" fill="#A5EC0C"/>
</svg>
