<svg width="112" height="32" viewBox="0 0 112 32" fill="none" xmlns="http://www.w3.org/2000/svg">
<path d="M68.4586 8.34893C68.6892 8.60637 68.8045 8.94807 68.8045 9.37168V30.524C68.8045 30.95 68.6892 31.2893 68.4586 31.5468C68.228 31.8042 67.9028 31.9329 67.4831 31.9329C67.0634 31.9329 66.7336 31.8042 66.4915 31.5468C66.2493 31.2893 66.1271 30.95 66.1271 30.524V20.9589C66.1271 20.9472 66.1179 20.9378 66.1063 20.9378H52.2095C52.198 20.9378 52.1888 20.9472 52.1888 20.9589V30.524C52.1888 30.95 52.0666 31.2893 51.8244 31.5468C51.5823 31.8042 51.2525 31.9329 50.8328 31.9329C50.4131 31.9329 50.0902 31.8042 49.8596 31.5468C49.629 31.2893 49.5137 30.95 49.5137 30.524V9.37168C49.5137 8.94807 49.629 8.60637 49.8596 8.34893C50.0902 8.09149 50.4154 7.96277 50.8328 7.96277C51.2502 7.96277 51.5823 8.09149 51.8244 8.34893C52.0666 8.60637 52.1888 8.94807 52.1888 9.37168V18.5694C52.1888 18.5811 52.198 18.5904 52.2095 18.5904H66.1063C66.1179 18.5904 66.1271 18.5811 66.1271 18.5694V9.37168C66.1271 8.94807 66.247 8.60637 66.4915 8.34893C66.7336 8.09149 67.0634 7.96277 67.4831 7.96277C67.9028 7.96277 68.2257 8.09149 68.4586 8.34893Z" fill="#A5EC0C"/>
<path d="M86.2205 21.4738V30.5919C86.2205 30.9944 86.1051 31.3174 85.8745 31.5632C85.6439 31.8089 85.3303 31.9329 84.9336 31.9329C84.537 31.9329 84.2187 31.8089 83.9766 31.5632C83.7344 31.3174 83.6122 30.9944 83.6122 30.5919V29.0777C83.6122 29.0543 83.5822 29.0496 83.573 29.0707C83.1533 29.9904 82.5283 30.7042 81.6958 31.2121C80.8379 31.7363 79.8463 32.0008 78.7232 32.0008C77.6877 32.0008 76.7353 31.7878 75.8659 31.3642C75.0772 30.9804 74.4384 30.4562 73.9472 29.7962C73.3153 28.9419 72.9555 27.3435 73.0893 26.2856C73.1977 25.429 73.4883 24.7363 73.9679 24.2097C74.5837 23.5286 75.5984 23.0372 77.0074 22.7352C78.4165 22.4333 80.3767 22.2836 82.8881 22.2836H83.5938C83.6053 22.2836 83.6145 22.2742 83.6145 22.2625V21.1766C83.6145 19.8355 83.3447 18.8526 82.8051 18.2277C82.2654 17.6028 81.3891 17.2892 80.1784 17.2892C78.6817 17.2892 77.1619 17.7034 75.6214 18.5296C75.0265 18.9087 74.609 19.0983 74.3669 19.0983C74.1017 19.0983 73.8826 18.9977 73.7073 18.7964C73.5298 18.5951 73.4421 18.3377 73.4421 18.0264C73.4421 17.7151 73.5344 17.439 73.7235 17.2049C73.9103 16.9709 74.2124 16.7298 74.6321 16.4841C75.4023 16.0371 76.2787 15.686 77.2588 15.4286C78.2389 15.1711 79.2121 15.0424 80.183 15.0424C84.2141 15.0424 86.2274 17.1885 86.2274 21.4785L86.2205 21.4738ZM82.3392 28.4973C83.1856 27.5915 83.6099 26.4237 83.6099 24.9937V24.0435C83.6099 24.0318 83.6007 24.0225 83.5891 24.0225H83.0149C81.0778 24.0225 79.6018 24.1067 78.5894 24.2729C77.577 24.4414 76.8552 24.7199 76.4263 25.1107C75.9973 25.5016 75.7829 26.0773 75.7829 26.8379C75.7829 27.7086 76.0965 28.4294 76.7238 29.0004C77.351 29.5715 78.1374 29.8547 79.0853 29.8547C80.4067 29.8547 81.4906 29.403 82.3392 28.4973Z" fill="#A5EC0C"/>
<path d="M90.9362 31.5795C90.6825 31.3455 90.5557 31.0155 90.5557 30.5896V9.30381C90.5557 8.8802 90.6825 8.5502 90.9362 8.31383C91.1899 8.07979 91.515 7.96277 91.9094 7.96277C92.283 7.96277 92.5966 8.07979 92.8503 8.31383C93.1039 8.54786 93.2308 8.87786 93.2308 9.30381V30.5919C93.2308 31.0178 93.1039 31.3455 92.8503 31.5819C92.5966 31.8159 92.283 31.9329 91.9094 31.9329C91.5127 31.9329 91.1875 31.8159 90.9362 31.5819V31.5795Z" fill="#A5EC0C"/>
<path d="M100.325 30.9593C99.1696 30.2666 98.2772 29.2789 97.6499 27.9917C97.0226 26.7069 96.709 25.216 96.709 23.5169C96.709 21.8178 97.0226 20.327 97.6499 19.0421C98.2772 17.7573 99.1696 16.7673 100.325 16.0745C101.48 15.3818 102.818 15.0354 104.338 15.0354C105.857 15.0354 107.2 15.3818 108.369 16.0745C109.536 16.7673 110.433 17.7573 111.06 19.0421C111.687 20.327 112.001 21.8202 112.001 23.5169C112.001 25.2137 111.687 26.7069 111.06 27.9917C110.433 29.2766 109.536 30.2666 108.369 30.9593C107.202 31.6521 105.857 31.9985 104.338 31.9985C102.818 31.9985 101.48 31.6521 100.325 30.9593ZM107.988 28.1602C108.835 27.1001 109.259 25.5507 109.259 23.5169C109.259 21.4831 108.83 19.9923 107.97 18.9064C107.112 17.8228 105.899 17.2798 104.335 17.2798C102.772 17.2798 101.561 17.8228 100.701 18.9064C99.843 19.99 99.4118 21.5276 99.4118 23.5169C99.4118 25.5063 99.8361 27.0696 100.682 28.1439C101.531 29.2158 102.746 29.754 104.333 29.754C105.92 29.754 107.135 29.2228 107.984 28.1626L107.988 28.1602Z" fill="#A5EC0C"/>
<path d="M18.4964 19.7723L5.00087 8.98549C4.51197 8.59932 3.78553 8.66485 3.37735 9.20314C3.15135 9.50271 3.10292 9.90291 3.209 10.2657L4.53964 18.1762C4.61113 18.4149 4.75642 18.6255 4.95244 18.7753L11.0084 23.6643C11.5157 24.0458 12.2329 23.9382 12.6111 23.428C12.9893 22.9154 12.8833 22.1899 12.3759 21.8084L6.62439 17.1487L5.75037 12.6248L18.4941 22.7095L21.1185 24.8181L22.9772 23.3507L18.4941 19.7723H18.4964Z" fill="#A5EC0C"/>
<path d="M43.9077 10.247C44.0506 9.76485 43.8661 9.24529 43.4557 8.9621C43.0452 8.67891 42.4986 8.69764 42.1066 9.00657L32.1855 16.8562V19.7934L41.0527 12.7278L40.4115 17.2307L34.7338 21.8084C34.2265 22.1899 34.1204 22.9154 34.4986 23.428C34.8768 23.9405 35.594 24.0458 36.1014 23.6644L42.0858 18.8549C42.2841 18.7051 42.4294 18.4968 42.4986 18.2557L43.9123 10.2446L43.9077 10.247Z" fill="#A5EC0C"/>
<path d="M17.9315 28.2281V23.1237L15.623 21.3006V30.5498C15.623 30.8961 15.7499 31.2402 16.0105 31.4672C16.2342 31.6638 16.5063 31.7574 16.7761 31.7574C17.0298 31.7574 17.2812 31.6731 17.4864 31.5117L28.4729 22.6955L28.4775 19.7676L17.9292 28.2281H17.9315Z" fill="#A5EC0C"/>
<path d="M32.4305 10.9467C36.404 5.8143 42.2154 3.37328 44.7983 2.54713C45.0774 3.67051 44.5193 4.79389 44.0996 5.67622C43.839 6.21918 44.1042 6.9096 44.6392 7.17406C45.2157 7.45958 45.9076 7.2115 46.1797 6.63109C47.5126 3.79689 47.0122 1.14524 46.9891 0.983756C46.943 0.667805 46.7678 0.38696 46.5095 0.20441C46.2512 0.0218604 45.9283 -0.0413298 45.6193 0.0242008C45.2065 0.113135 35.9174 2.19139 30.212 10.0761C29.5455 10.9982 29.1996 12.1169 29.1996 13.2567V28.2281L25.8949 25.6186L24.0361 27.086L29.6377 31.5117C29.843 31.6731 30.0921 31.7574 30.3434 31.7574C30.6109 31.7574 30.8808 31.6614 31.1045 31.4672C31.3627 31.2402 31.4896 30.8961 31.4896 30.5498V13.7482C31.4896 12.7348 31.8147 11.7448 32.4328 10.9467H32.4305Z" fill="#A5EC0C"/>
<path d="M15.6135 16.6621L17.9196 18.5414L17.9012 13.2545C17.9012 12.1124 17.5553 10.9937 16.8888 10.0739C11.1857 2.1892 1.89427 0.113282 1.48378 0.0243479C1.17476 -0.0411827 0.854203 0.0243479 0.59361 0.204557C0.333016 0.384766 0.160055 0.667952 0.111626 0.983903C0.088565 1.14539 -0.414174 3.79704 0.921082 6.63124C1.19321 7.20931 1.88505 7.45739 2.46158 7.17421C2.99661 6.90974 3.25951 6.21933 3.00122 5.67636C2.5792 4.79404 2.02342 3.67066 2.30246 2.54728C4.88534 3.37577 10.6968 5.81445 14.6703 10.9469C15.2883 11.745 15.6135 12.7349 15.6135 13.7483V16.6644V16.6621Z" fill="#A5EC0C"/>
</svg>
