<svg width="120" height="30" viewBox="0 0 120 30" fill="none" xmlns="http://www.w3.org/2000/svg">
<path d="M3.78444 10.0627C5.86428 10.0627 7.55032 8.37847 7.55032 6.3009C7.55032 4.22333 5.86428 2.53912 3.78444 2.53912C1.7046 2.53912 0.0185547 4.22333 0.0185547 6.3009C0.0185547 8.37847 1.7046 10.0627 3.78444 10.0627Z" fill="white"/>
<path d="M21.0325 10.0628H15.8168C15.1766 10.0628 14.6494 9.53616 14.6494 8.89665V3.6866C14.6494 3.0471 15.1766 2.52045 15.8168 2.52045H21.0325C21.6727 2.52045 22.2 3.0471 22.2 3.6866V8.89665C22.2 9.55497 21.6727 10.0628 21.0325 10.0628Z" fill="#00FFB9"/>
<path d="M7.5506 13.2769H7.32464H1.6005C0.715518 13.2769 0 13.9916 0 14.8756V20.8192V26.744C0 27.628 0.715518 28.3428 1.6005 28.3428H5.95009C6.83508 28.3428 7.5506 27.628 7.5506 26.744V22.418C7.5506 21.534 8.26611 20.8192 9.1511 20.8192H13.2747C14.1597 20.8192 14.8752 20.1046 14.8752 19.2204V14.8756C14.8752 13.9916 14.1597 13.2769 13.2747 13.2769H7.5506Z" fill="#00DAFF"/>
<path d="M36.4355 0H38.6574V13.1286H36.4355V0Z" fill="white"/>
<path d="M41.0293 4.53287H43.2512V5.37926C43.7596 4.73976 44.4939 4.36359 45.3412 4.36359C46.3204 4.36359 47.2054 4.87142 47.8079 5.71782C48.3728 4.89023 49.2578 4.36359 50.3687 4.36359C52.1952 4.36359 53.5509 5.81187 53.5509 7.69275V13.1285H51.329V7.86203C51.329 7.01563 50.7265 6.33852 49.898 6.33852C48.9941 6.33852 48.4104 7.07205 48.4104 7.95608V13.1285H46.1886V7.86203C46.1886 7.01563 45.586 6.33852 44.7199 6.33852C43.8349 6.33852 43.27 7.07205 43.27 7.95608V13.1285H41.0293V4.53287Z" fill="white"/>
<path d="M55.6035 4.53287H57.8254V5.4545C58.5032 4.77738 59.4259 4.36359 60.5556 4.36359C62.8717 4.36359 64.7923 6.33852 64.7923 8.84009C64.7923 11.3417 62.8717 13.3166 60.5556 13.3166C59.4259 13.3166 58.5032 12.9028 57.8254 12.2257V17.0784H55.6035V4.53287ZM62.5892 8.84009C62.5892 7.46704 61.4971 6.37613 60.1414 6.37613C58.7857 6.37613 57.6747 7.46704 57.6747 8.84009C57.6747 10.2132 58.7857 11.304 60.1414 11.304C61.4971 11.2852 62.5892 10.1943 62.5892 8.84009Z" fill="white"/>
<path d="M65.9033 8.84009C65.9033 6.35732 67.8615 4.36359 70.46 4.36359C73.0208 4.36359 74.9979 6.33852 74.9979 8.84009C74.9979 11.3417 73.0208 13.3166 70.46 13.3166C67.8615 13.2978 65.9033 11.3229 65.9033 8.84009ZM72.8513 8.84009C72.8513 7.48586 71.7781 6.43256 70.46 6.43256C69.0855 6.43256 68.0122 7.48586 68.0122 8.84009C68.0122 10.1943 69.0855 11.2664 70.46 11.2664C71.7781 11.2477 72.8513 10.1755 72.8513 8.84009Z" fill="white"/>
<path d="M75.9014 12.0189L77.1442 10.4953C77.7467 11.1161 78.5375 11.4922 79.2154 11.4922C79.8932 11.4922 80.3075 11.1349 80.3075 10.6647C80.3075 10.0627 79.6108 9.91227 78.5752 9.5549C77.2383 9.08467 76.1085 8.48279 76.1085 6.97808C76.1085 5.22886 77.6149 4.34485 79.2719 4.34485C80.5146 4.34485 81.569 4.83387 82.2281 5.56742L80.9289 6.88405C80.4393 6.39501 79.7803 6.05646 79.1966 6.05646C78.6505 6.05646 78.2928 6.33858 78.2928 6.79C78.2928 7.37307 78.9141 7.54235 79.9121 7.8621C81.1925 8.29471 82.4917 8.87778 82.4917 10.5894C82.4917 12.3386 81.136 13.279 79.2719 13.279C77.8032 13.2978 76.5981 12.696 75.9014 12.0189Z" fill="white"/>
<path d="M83.2637 12.0189L84.5064 10.4953C85.1089 11.1161 85.8998 11.4922 86.5776 11.4922C87.2555 11.4922 87.6697 11.1349 87.6697 10.6647C87.6697 10.0627 86.9731 9.91227 85.9374 9.5549C84.6005 9.08467 83.4708 8.48279 83.4708 6.97808C83.4708 5.22886 84.9771 4.34485 86.6341 4.34485C87.8769 4.34485 88.9313 4.83387 89.5904 5.56742L88.2911 6.88405C87.8016 6.39501 87.1425 6.05646 86.5588 6.05646C86.0128 6.05646 85.655 6.33858 85.655 6.79C85.655 7.37307 86.2764 7.54235 87.2743 7.8621C88.5547 8.29471 89.854 8.87778 89.854 10.5894C89.854 12.3386 88.4982 13.279 86.6341 13.279C85.1654 13.2978 83.9603 12.696 83.2637 12.0189Z" fill="white"/>
<path d="M91.3223 1.73036C91.3223 1.01563 91.9248 0.451355 92.6215 0.451355C93.337 0.451355 93.9207 1.01563 93.9207 1.73036C93.9207 2.44509 93.337 3.00936 92.6215 3.00936C91.906 3.00936 91.3223 2.44509 91.3223 1.73036ZM91.5294 4.53288H93.7136V13.1285H91.5294V4.53288Z" fill="white"/>
<path d="M98.158 12.0189L98.1015 13.1286H96.0303V0H98.2522V5.51098C98.9112 4.72102 99.9468 4.32603 101.001 4.32603C103.411 4.32603 105.313 6.31977 105.313 8.82134C105.313 11.3229 103.411 13.3166 101.001 13.3166C99.815 13.2978 98.7982 12.8277 98.158 12.0189ZM103.091 8.82134C103.091 7.41068 102.018 6.31978 100.624 6.31978C99.2501 6.31978 98.158 7.41068 98.158 8.82134C98.158 10.232 99.2501 11.3417 100.624 11.3417C102.018 11.3417 103.091 10.232 103.091 8.82134Z" fill="white"/>
<path d="M107.045 0H109.248V13.1286H107.045V0Z" fill="white"/>
<path d="M119.981 9.21634H113.203C113.372 10.6082 114.37 11.511 115.632 11.511C116.535 11.511 117.383 11.0596 117.835 10.2696L119.605 11.0032C118.908 12.4138 117.458 13.2978 115.65 13.2978C112.92 13.2978 111.037 11.323 111.037 8.82135C111.037 6.31978 112.958 4.34485 115.575 4.34485C118.061 4.34485 119.962 6.09407 120 8.72732L119.981 9.21634ZM113.429 7.54235H117.646C117.289 6.67714 116.611 6.13169 115.594 6.13169C114.539 6.11289 113.805 6.65834 113.429 7.54235Z" fill="white"/>
<path d="M36.4355 16.6834H44.6263V18.9028H38.6574V22.138H43.9484V24.3575H38.6574V29.812H36.4355V16.6834Z" fill="white"/>
<path d="M46.0381 18.4139C46.0381 17.6992 46.6407 17.1349 47.3373 17.1349C48.0529 17.1349 48.6366 17.6992 48.6366 18.4139C48.6366 19.1287 48.0529 19.693 47.3373 19.693C46.6218 19.693 46.0381 19.1287 46.0381 18.4139ZM46.2452 21.2164H48.4295V29.8122H46.2452V21.2164Z" fill="white"/>
<path d="M50.7454 21.2163H52.9485V22.0063C53.5698 21.3856 54.3795 21.047 55.2457 21.047C56.978 21.047 58.3337 22.4577 58.3337 24.2634V29.8308H56.1118V24.5455C56.1118 23.6426 55.434 23.0032 54.549 23.0032C53.6263 23.0032 52.9485 23.6615 52.9297 24.5455V29.8308H50.7266V21.2163H50.7454Z" fill="white"/>
<path d="M59.8779 25.5049C59.8779 23.0221 61.8173 21.0096 64.1333 21.0096C65.3573 21.0096 66.2987 21.461 66.9389 22.1945V21.2165H69.1608V29.8121H67.0896L67.0331 28.7024C66.3929 29.5112 65.4137 29.9814 64.1333 29.9814C61.7985 29.9814 59.8779 28.0064 59.8779 25.5049ZM66.9954 25.5049C66.9954 24.1318 65.9221 23.0409 64.5476 23.0409C63.173 23.0409 62.0809 24.1318 62.0809 25.5049C62.0809 26.878 63.1542 27.9877 64.5476 27.9877C65.9221 27.9689 66.9954 26.8591 66.9954 25.5049Z" fill="white"/>
<path d="M71.4583 21.2163H73.6613V22.0063C74.2826 21.3856 75.0923 21.047 75.9585 21.047C77.6908 21.047 79.0465 22.4577 79.0465 24.2634V29.8308H76.8246V24.5455C76.8246 23.6426 76.1467 23.0032 75.2618 23.0032C74.3391 23.0032 73.6613 23.6615 73.6424 24.5455V29.8308H71.4395V21.2163H71.4583Z" fill="white"/>
<path d="M80.5898 25.5235C80.5898 23.0408 82.548 21.047 85.1465 21.047C85.7867 21.047 86.4269 21.1787 86.973 21.4232V23.8872C86.5399 23.3794 85.8997 23.0595 85.1465 23.0595C83.7531 23.0595 82.7175 24.1505 82.7175 25.5235C82.7175 26.8966 83.7343 27.9687 85.1465 27.9687C85.8997 27.9687 86.5399 27.6489 86.973 27.1411V29.6239C86.4269 29.8684 85.7867 30 85.1465 30C82.548 29.9812 80.5898 28.0063 80.5898 25.5235Z" fill="white"/>
<path d="M97.2165 25.8997H90.4378C90.6073 27.2916 91.6053 28.1944 92.8668 28.1944C93.7707 28.1944 94.618 27.743 95.0699 26.953L96.8399 27.6865C96.1432 29.0972 94.6933 29.9812 92.8857 29.9812C90.1554 29.9812 88.2725 28.0063 88.2725 25.5048C88.2725 23.0031 90.1931 21.0283 92.8104 21.0283C95.2958 21.0283 97.1976 22.7774 97.2353 25.4106L97.2165 25.8997ZM90.645 24.2257H94.8628C94.505 23.3605 93.8271 22.8151 92.8104 22.8151C91.7747 22.7963 91.0216 23.3417 90.645 24.2257Z" fill="white"/>
</svg>
