<svg width="158" height="108" viewBox="0 0 158 108" fill="none" xmlns="http://www.w3.org/2000/svg">
<path d="M82.0038 65.8309L81.5675 65.5779C81.1926 65.3642 80.7507 65.2011 80.2863 65.1055C80.1744 65.0774 80.0626 65.0605 79.9451 65.0436C80.0066 65.0999 80.057 65.1617 80.0905 65.2236C80.1856 65.2405 80.2751 65.2629 80.3703 65.2798C80.7451 65.3698 81.0919 65.5048 81.394 65.6791L82.2164 66.1571C82.1269 66.0559 82.0542 65.9434 82.0038 65.8309ZM93.825 73.0683C93.7747 72.9614 93.7075 72.8546 93.6236 72.7534C93.4558 72.5397 93.2208 72.3485 92.9243 72.1741L82.4178 66.0727L82.0038 65.8365L81.5675 65.5835C81.1926 65.3698 80.7507 65.2067 80.2863 65.1111C80.1744 65.083 80.0626 65.0661 79.9451 65.0493C79.2514 64.948 78.5129 64.9762 77.8415 65.128C77.7297 65.1505 77.629 65.1786 77.5171 65.2123C77.2038 65.3023 76.9073 65.426 76.6387 65.5835L76.1072 65.8928L75.6541 66.1571L65.3602 72.1685C65.1197 72.3091 64.9239 72.4609 64.7672 72.6296C64.6609 72.7477 64.5714 72.8602 64.5099 72.9895C64.2301 73.5069 64.3141 74.0805 64.7728 74.5641C64.8176 74.6147 64.8679 74.6653 64.9239 74.7159C65.0525 74.834 65.2036 74.9409 65.377 75.0421L76.7282 81.6327C78.0933 82.42 80.3031 82.42 81.657 81.6327L92.9411 75.0421C93.1089 74.9465 93.2488 74.8453 93.3774 74.7328C93.4334 74.6878 93.4837 74.6372 93.5285 74.581C93.9649 74.1198 94.06 73.5744 93.8194 73.0739L93.825 73.0683ZM93.3774 74.4291C93.3383 74.4854 93.2879 74.5304 93.2376 74.5753C93.1033 74.7103 92.9467 74.8284 92.762 74.9352L81.478 81.5259C80.2248 82.2569 78.1772 82.2569 76.9073 81.5259L65.556 74.9352C65.3602 74.8228 65.198 74.7047 65.0637 74.5697C65.0078 74.5191 64.963 74.4685 64.9239 74.4179C64.4763 73.8837 64.4987 73.2482 64.9798 72.7196C65.1253 72.5622 65.3099 72.4103 65.5448 72.2754L75.8499 66.2527L76.8233 65.6847C77.0192 65.5666 77.2429 65.471 77.4779 65.3923C77.5674 65.3585 77.6513 65.3304 77.7408 65.3079C78.4793 65.1111 79.3185 65.0774 80.0905 65.2236C80.1856 65.2405 80.2751 65.2629 80.3703 65.2798C80.7451 65.3698 81.0919 65.5048 81.394 65.6791L82.2164 66.1571L92.7509 72.2697C93.0306 72.4328 93.2544 72.6184 93.4054 72.8208C93.8082 73.3269 93.797 73.9174 93.383 74.4235L93.3774 74.4291Z" fill="#292929"/>
<path d="M80.4152 42.7918C80.404 42.5838 80.2586 42.3813 79.99 42.2239C79.4194 41.8977 78.4907 41.8977 77.9257 42.2239C77.6403 42.3926 77.5005 42.6119 77.5005 42.8312C77.5005 42.8874 77.5117 42.9437 77.5341 42.9999C77.59 43.1574 77.7243 43.3092 77.9313 43.4273C78.5019 43.7534 79.4306 43.7534 79.9956 43.4273C80.225 43.2923 80.3593 43.1292 80.404 42.9549C80.4152 42.8987 80.4264 42.8424 80.4152 42.7862V42.7918ZM79.8166 43.3261C79.3467 43.6016 78.5802 43.6016 78.1103 43.3261C77.976 43.253 77.8809 43.1574 77.8306 43.0618C77.7914 43.0055 77.7746 42.9549 77.7578 42.8931C77.7243 42.6962 77.8362 42.4769 78.1047 42.3251C78.5746 42.0495 79.3411 42.0495 79.811 42.3251C80.0628 42.4713 80.1802 42.6681 80.1635 42.8593C80.1635 42.9155 80.1467 42.9718 80.1187 43.028C80.0628 43.1349 79.9677 43.2361 79.8166 43.3204V43.3261Z" fill="#292929"/>
<path d="M82.3397 41.9933L81.8809 42.2576C81.6012 42.7749 81.6907 43.3485 82.1439 43.8265C82.1886 43.7759 82.239 43.7253 82.2949 43.6747C81.8529 43.1404 81.8697 42.5106 82.3397 41.9876V41.9933ZM110.295 41.4365L98.9385 34.8459C97.7357 34.1486 95.8671 34.0699 94.5133 34.6097C94.3343 34.6772 94.172 34.7559 94.0154 34.8459L93.4839 35.1552L93.0307 35.4195L91.565 36.2742L82.7369 41.4309C82.4963 41.5715 82.3005 41.7233 82.1495 41.892C82.0376 42.0101 81.9536 42.1282 81.8865 42.2519C81.6068 42.7693 81.6963 43.3429 82.1495 43.8209C82.1942 43.8771 82.2446 43.9221 82.3005 43.9727C82.4292 44.0908 82.5802 44.1976 82.7537 44.2989L84.6166 45.3786L85.7803 46.0534L94.1105 50.8895C95.4699 51.6768 97.6798 51.6768 99.0336 50.8895L110.318 44.2989C110.486 44.1976 110.631 44.0964 110.754 43.9896C110.81 43.939 110.855 43.8884 110.905 43.8377C111.627 43.0673 111.42 42.0832 110.301 41.4309L110.295 41.4365ZM110.748 43.6915C110.709 43.7478 110.659 43.7928 110.614 43.8434C110.48 43.9727 110.323 44.0908 110.139 44.2033L98.8546 50.7939C97.5958 51.525 95.5483 51.525 94.2839 50.7939L85.881 45.9184L84.7173 45.2436L82.9271 44.2033C82.7313 44.0908 82.569 43.9671 82.4348 43.8321C82.3788 43.7871 82.3341 43.7309 82.2949 43.6803C81.8529 43.1461 81.8697 42.5162 82.3397 41.9933C82.4851 41.8246 82.6753 41.6784 82.9047 41.5378L91.2629 36.6566L93.2098 35.5207L94.1832 34.9527C94.2168 34.9302 94.2503 34.9134 94.2839 34.8965C95.5427 34.2217 97.5175 34.2329 98.7483 34.9527L110.105 41.5434C111.112 42.1226 111.319 42.9999 110.732 43.6972L110.748 43.6915Z" fill="#292929"/>
<path d="M75.8556 42.6624C75.9171 43.0055 75.8164 43.3541 75.5535 43.669C75.5143 43.7253 75.464 43.7703 75.4136 43.8209C75.2793 43.9558 75.1227 44.0739 74.9381 44.1808L72.6611 45.5079V45.7103L75.1171 44.2764C75.2849 44.1751 75.4304 44.0739 75.5535 43.9671C75.6094 43.9165 75.6542 43.8715 75.7045 43.8152C75.9954 43.5116 76.1409 43.1629 76.1241 42.8199L75.8556 42.6624ZM76.001 42.3138C75.9507 42.2013 75.8835 42.0945 75.794 41.9876C75.6262 41.7796 75.3968 41.5827 75.1003 41.414L73.4443 40.4524L68.8401 37.7813L67.6764 37.1065L64.5883 35.3126L64.1743 35.0708L63.7379 34.8178C62.3784 34.0305 60.163 34.0305 58.8147 34.8178L47.5307 41.4084C46.4229 42.0551 46.2271 43.0336 46.9432 43.7984C46.988 43.8546 47.0383 43.8996 47.0943 43.9502C47.223 44.0683 47.374 44.1808 47.5474 44.2764L58.0595 50.3722L58.9043 50.8614C59.0553 50.9514 59.212 51.0245 59.3798 51.092C60.7337 51.6487 62.619 51.5699 63.8218 50.8614L66.8205 49.1125L72.6499 45.7047L75.1059 44.2707C75.2737 44.1695 75.4192 44.0683 75.5423 43.9614C75.5982 43.9108 75.643 43.8659 75.6933 43.8096C75.9842 43.506 76.1297 43.1573 76.1129 42.8143C76.1129 42.6456 76.0738 42.4712 75.9898 42.3082L76.001 42.3138ZM75.5535 43.669C75.5143 43.7253 75.464 43.7703 75.4136 43.8209C75.2793 43.9558 75.1227 44.0739 74.9381 44.1808L72.6611 45.5079L67.1114 48.747L63.654 50.7658C62.4903 51.4406 60.6385 51.4912 59.3686 50.9064C59.2679 50.867 59.1784 50.8164 59.0889 50.7658L58.1098 50.1978L47.7377 44.1751C47.5418 44.0627 47.3796 43.939 47.2453 43.804C47.1894 43.759 47.1446 43.7028 47.1055 43.6522C46.5292 42.9549 46.7306 42.0945 47.7209 41.5153L59.005 34.9246C60.2581 34.1879 62.3057 34.1879 63.5757 34.9246L64.3981 35.4026L67.5757 37.2471L68.7394 37.9219L73.3436 40.5874L74.9325 41.5096C75.2122 41.6727 75.4304 41.8583 75.587 42.0607C75.7381 42.2463 75.8332 42.4487 75.8668 42.6568C75.9283 42.9998 75.8276 43.3485 75.5647 43.6634L75.5535 43.669Z" fill="#292929"/>
<path d="M97.7244 52.5203C97.1538 52.1885 96.2251 52.1885 95.6545 52.5203C95.3747 52.6778 95.2349 52.8971 95.2349 53.1052C95.2349 53.1614 95.2405 53.2176 95.2572 53.2739C95.3076 53.4369 95.4419 53.6 95.66 53.7237C96.2307 54.0499 97.1594 54.0499 97.7244 53.7237C97.9706 53.5775 98.1104 53.3976 98.144 53.2064C98.1552 53.1501 98.1552 53.0939 98.144 53.0377C98.1104 52.8521 97.9706 52.6665 97.7244 52.5203ZM97.551 53.6169C97.081 53.8924 96.3146 53.8924 95.8447 53.6169C95.6992 53.5325 95.5985 53.4313 95.5426 53.3301C95.5146 53.2739 95.4922 53.2232 95.4866 53.1614C95.4642 52.9646 95.5761 52.7678 95.8335 52.6159C96.3034 52.3404 97.0699 52.3404 97.5454 52.6159C97.7748 52.7509 97.8922 52.9252 97.9034 53.0995C97.9034 53.1558 97.8978 53.212 97.8755 53.2682C97.8307 53.392 97.7244 53.5157 97.551 53.6113V53.6169Z" fill="#292929"/>
<path d="M62.4399 53.1445C62.4399 53.1445 62.4175 53.1501 62.4119 53.1445C62.4119 53.1951 62.4119 53.2457 62.4063 53.3019C62.4846 53.2907 62.5629 53.2738 62.6413 53.257L62.4455 53.1389L62.4399 53.1445ZM62.6469 53.0995C62.6133 52.9139 62.4734 52.7396 62.2329 52.599C61.9252 52.4191 61.5 52.3347 61.0972 52.3572C60.7559 52.3684 60.4314 52.4472 60.1685 52.599C59.9727 52.7171 59.8384 52.8577 59.7825 53.0095C59.7601 53.0489 59.7545 53.0826 59.7489 53.122C59.7489 53.1389 59.7489 53.1501 59.7489 53.167C59.7321 53.3975 59.872 53.6225 60.1741 53.7968C60.493 53.9824 60.9182 54.0611 61.3321 54.0442C61.6678 54.0274 61.9923 53.9486 62.244 53.7968C62.4958 53.6506 62.6357 53.4594 62.658 53.2626C62.658 53.2626 62.658 53.257 62.658 53.2513C62.6636 53.1951 62.658 53.1501 62.6469 53.0939V53.0995ZM62.065 53.7012C61.7965 53.8587 61.4329 53.9261 61.0748 53.898C60.8119 53.8868 60.5545 53.8193 60.3531 53.7012C60.1517 53.5831 60.0286 53.4257 60.0007 53.2682V53.2345C59.9951 53.1838 60.0007 53.1332 60.0118 53.077C60.051 52.942 60.1629 52.8127 60.3475 52.7002C60.6216 52.5428 60.9909 52.4697 61.3545 52.5034C61.6119 52.5203 61.858 52.5821 62.0594 52.7002C62.2608 52.8183 62.3839 52.9645 62.4119 53.122C62.4119 53.122 62.4119 53.1332 62.4119 53.1445C62.4119 53.1951 62.4119 53.2457 62.4063 53.3019C62.3671 53.4481 62.2552 53.5831 62.065 53.6956V53.7012Z" fill="#292929"/>
<path d="M100.013 52.2504L99.5543 52.5147C99.2745 53.0321 99.364 53.6057 99.8172 54.0836C99.862 54.033 99.9123 53.9824 99.9683 53.9318C99.5263 53.3976 99.5431 52.7678 100.013 52.2448V52.2504ZM127.969 51.6937L116.612 45.103C115.252 44.3158 113.037 44.3158 111.689 45.103L111.163 45.4123L110.71 45.6766L100.41 51.6881C100.17 51.8287 99.9738 51.9805 99.8228 52.1492C99.7109 52.2673 99.627 52.3854 99.5599 52.5091C99.2801 53.0264 99.3696 53.6 99.8228 54.078C99.8675 54.1343 99.9179 54.1792 99.9738 54.2299C100.103 54.3479 100.254 54.4548 100.427 54.556L111.784 61.1467C113.143 61.934 115.359 61.934 116.707 61.1467L127.991 54.556C128.159 54.4548 128.304 54.3536 128.427 54.2467C128.483 54.1961 128.528 54.1455 128.578 54.0949C129.3 53.3245 129.093 52.3404 127.974 51.6881L127.969 51.6937ZM128.422 53.9487C128.383 54.0049 128.332 54.0499 128.288 54.1005C128.153 54.2299 127.997 54.3479 127.812 54.4604L116.528 61.0511C115.269 61.7821 113.222 61.7821 111.957 61.0511L100.6 54.4604C100.405 54.3479 100.242 54.2299 100.108 54.0893C100.052 54.0443 100.007 53.9937 99.9683 53.9374C99.5263 53.4032 99.5431 52.7734 100.013 52.2504C100.158 52.0817 100.349 51.9355 100.578 51.7949L110.894 45.7666L111.862 45.1986C113.121 44.4676 115.168 44.4676 116.433 45.1986L127.784 51.7893C128.791 52.3685 128.998 53.2458 128.411 53.9431L128.422 53.9487Z" fill="#292929"/>
<path d="M93.6743 52.5709C93.624 52.4584 93.5569 52.346 93.4618 52.2448C93.2939 52.0367 93.0701 51.8455 92.7736 51.6768L91.0282 50.6646L88.0127 48.9157L84.9525 47.1387L83.7889 46.4639L82.2616 45.581L81.8476 45.3392L81.4112 45.0861C81.1091 44.9118 80.7679 44.7768 80.4042 44.6812C80.3147 44.6588 80.2252 44.6363 80.1357 44.6138C79.3748 44.4507 78.5301 44.4507 77.7692 44.6138C77.6797 44.6363 77.5846 44.6531 77.5007 44.6756C77.4056 44.6981 77.3161 44.7319 77.2265 44.76C76.958 44.8499 76.7119 44.9568 76.4825 45.0861L75.951 45.3954L75.4867 45.6653L73.1202 47.0431L72.6502 47.3243L65.1984 51.6768C64.9634 51.8118 64.7676 51.9692 64.6166 52.1323C64.5047 52.2504 64.4208 52.3685 64.3536 52.4922C64.0739 53.0095 64.1578 53.5831 64.6166 54.0667C64.6613 54.123 64.7117 54.168 64.7676 54.2186C64.8963 54.3367 65.0473 54.4435 65.2208 54.5447L66.0208 55.0115L67.5649 55.9112L74.6922 60.0444L76.5776 61.1354C77.937 61.9227 80.1469 61.9227 81.5007 61.1354L92.7848 54.5447C92.9527 54.4435 93.0981 54.3423 93.2212 54.2354C93.2771 54.1848 93.3219 54.1342 93.3722 54.0836C93.8086 53.6225 93.9037 53.077 93.6632 52.5765L93.6743 52.5709ZM93.2268 53.9318C93.1876 53.988 93.1373 54.033 93.0869 54.078C92.9527 54.213 92.796 54.331 92.6114 54.4379L81.3329 61.0285C80.0741 61.7596 78.0266 61.7596 76.7622 61.0285L74.8825 59.9376L67.7551 55.7988L66.1774 54.8821L65.4054 54.4323C65.2375 54.3367 65.0921 54.2298 64.969 54.123C64.9466 54.1005 64.9299 54.0836 64.9131 54.0667C64.8627 54.0218 64.8124 53.9711 64.7788 53.9149C64.3312 53.3807 64.348 52.7452 64.8292 52.2166C64.9746 52.0592 65.1592 51.9074 65.3886 51.7724L72.4153 47.6729L72.6614 47.5267L75.6937 45.7497L76.6671 45.1817C76.8405 45.0805 77.0307 44.9905 77.2321 44.9174C77.3216 44.8837 77.4112 44.8556 77.5063 44.8275C77.5846 44.805 77.6685 44.7825 77.7524 44.76C78.5245 44.58 79.3916 44.58 80.1692 44.76C80.2532 44.7825 80.3371 44.7993 80.4154 44.8275C80.7119 44.9118 80.9916 45.0243 81.2434 45.1705L82.0658 45.6485L83.6826 46.5876L84.8462 47.2624L87.0057 48.5164L91.017 50.8445L92.6002 51.7611C92.8799 51.9242 93.0981 52.1098 93.2548 52.3122C93.6576 52.8183 93.652 53.4144 93.2324 53.9149L93.2268 53.9318Z" fill="#292929"/>
<path d="M58.4736 52.554C58.4233 52.4415 58.3561 52.3291 58.261 52.2278C58.0988 52.0198 57.8694 51.8286 57.5729 51.6599L47.0664 45.5585L46.6524 45.3223L46.2161 45.0692C44.851 44.2819 42.6412 44.2819 41.2929 45.0692L30.0144 51.6543C28.9011 52.3009 28.7053 53.2794 29.4214 54.0498C29.4662 54.1004 29.5221 54.1511 29.5725 54.2017C29.7011 54.3198 29.8522 54.4266 30.0256 54.5278L41.3768 61.1129C42.7419 61.9058 44.9517 61.9058 46.3 61.1129L57.5841 54.5222C57.7519 54.421 57.8974 54.3198 58.0205 54.2129C58.0764 54.1623 58.1212 54.1117 58.1715 54.0611C58.6079 53.6 58.703 53.0545 58.4624 52.554H58.4736ZM58.0316 53.9092C57.9925 53.9655 57.9421 54.0161 57.8918 54.0611C57.7575 54.196 57.6009 54.3141 57.4162 54.421L46.1322 61.006C44.879 61.7427 42.8314 61.7427 41.5615 61.006L30.2102 54.4154C30.0144 54.3029 29.8522 54.1792 29.7179 54.0442C29.662 53.9992 29.6172 53.943 29.5781 53.8924C29.0018 53.1951 29.2032 52.3347 30.1935 51.7555L41.4775 45.1648C42.7307 44.4281 44.7783 44.4281 46.0482 45.1648L46.8706 45.6428L57.3995 51.7555C57.6792 51.9186 57.903 52.1041 58.0596 52.3066C58.4624 52.8127 58.4568 53.4031 58.0372 53.9092H58.0316Z" fill="#292929"/>
<path d="M80.3702 63.3454C80.3255 63.1767 80.1856 63.0192 79.9674 62.8899C79.3968 62.5637 78.4681 62.5637 77.9031 62.8899C77.7073 63.008 77.5786 63.1429 77.5171 63.2891C77.4947 63.3398 77.4835 63.3904 77.4779 63.441C77.4555 63.6715 77.5954 63.9133 77.9031 64.0933C78.4737 64.4195 79.4024 64.4195 79.9674 64.0933C80.2528 63.9246 80.3926 63.7165 80.3926 63.4972C80.3926 63.441 80.387 63.396 80.3702 63.3454ZM79.794 63.9921C79.3241 64.2676 78.5576 64.2676 78.0877 63.9921C77.8639 63.8627 77.7464 63.6884 77.7296 63.5141C77.7296 63.4635 77.7296 63.4129 77.752 63.3566C77.7968 63.2217 77.9031 63.0979 78.0821 62.9967C78.552 62.7212 79.3185 62.7212 79.7884 62.9967C79.9842 63.1092 80.0961 63.2554 80.1297 63.4016C80.1409 63.4522 80.1465 63.5028 80.1353 63.5534C80.1129 63.7109 80.001 63.8684 79.7884 63.9921H79.794Z" fill="#292929"/>
<path d="M99.526 55.5907L99.0896 55.3433C98.8043 55.1746 98.4798 55.0509 98.1386 54.9553C98.0491 54.9328 97.9539 54.9046 97.8588 54.8878C97.1092 54.7191 96.2812 54.7078 95.5203 54.8597C95.4308 54.8765 95.3357 54.899 95.2462 54.9159C94.849 55.0171 94.4798 55.1577 94.1609 55.3433L93.635 55.6526L93.1707 55.9225L82.8768 61.9339C82.6362 62.0745 82.4404 62.2263 82.2894 62.395C82.1775 62.5131 82.0936 62.6312 82.0264 62.7549C81.7467 63.2723 81.8362 63.8459 82.2894 64.3239C82.3341 64.2733 82.3845 64.2227 82.4404 64.1721C81.9985 63.6378 82.0152 63.008 82.4852 62.485C82.6306 62.3163 82.8208 62.1701 83.0502 62.0295L93.3665 56.0012L94.3343 55.4332C94.5972 55.2814 94.8994 55.1521 95.2294 55.0677C95.3077 55.0452 95.3917 55.0227 95.4756 55.0059C96.2532 54.8372 97.126 54.8428 97.8924 55.0396C97.9763 55.0565 98.0602 55.079 98.1386 55.1071C98.4183 55.1914 98.6756 55.3039 98.905 55.4332L99.7218 55.9056C99.6323 55.8044 99.5652 55.6919 99.5204 55.5795L99.526 55.5907ZM111.347 62.8281C111.297 62.7212 111.23 62.6144 111.14 62.5075C110.972 62.2995 110.743 62.1026 110.446 61.9283L99.94 55.8325L99.526 55.5851L99.0896 55.3376C98.8043 55.1689 98.4798 55.0452 98.1386 54.9496C98.0491 54.9271 97.9539 54.899 97.8588 54.8821C97.1092 54.7134 96.2812 54.7022 95.5203 54.854C95.4308 54.8709 95.3357 54.8934 95.2462 54.9103C94.849 55.0115 94.4798 55.1521 94.1609 55.3376L93.635 55.6469L93.1707 55.9169L82.8768 61.9283C82.6362 62.0689 82.4404 62.2207 82.2894 62.3894C82.1775 62.5075 82.0936 62.6256 82.0264 62.7493C81.7467 63.2667 81.8362 63.8403 82.2894 64.3183C82.3341 64.3745 82.3845 64.4195 82.4404 64.4701C82.5691 64.5882 82.7201 64.695 82.8936 64.7963L94.2504 71.3869C95.6099 72.1742 97.8197 72.1742 99.1735 71.3869L110.458 64.7963C110.625 64.7007 110.771 64.5994 110.894 64.487C110.95 64.442 110.995 64.3914 111.045 64.3351C111.481 63.874 111.577 63.3285 111.336 62.8281H111.347ZM110.9 64.1889C110.86 64.2395 110.816 64.2901 110.765 64.3408C110.637 64.4701 110.474 64.5882 110.284 64.7007L99.0001 71.2913C97.7469 72.0224 95.6994 72.0224 94.4294 71.2913L83.0782 64.7007C82.8824 64.5882 82.7201 64.4701 82.5859 64.3351C82.5299 64.2845 82.4852 64.2339 82.446 64.1833C82.004 63.6491 82.0208 63.0192 82.4908 62.4963C82.6362 62.3276 82.8264 62.1814 83.0558 62.0408L93.3721 56.0125L94.3399 55.4445C94.6028 55.2927 94.9049 55.1633 95.235 55.079C95.3133 55.0565 95.3973 55.034 95.4812 55.0171C96.2588 54.8484 97.1316 54.854 97.898 55.0509C97.9819 55.0677 98.0658 55.0902 98.1442 55.1183C98.4239 55.2027 98.6812 55.3152 98.9106 55.4445L99.7274 55.9169L110.273 62.0351C110.558 62.2039 110.777 62.3894 110.928 62.5862C111.33 63.0924 111.325 63.6828 110.905 64.1889H110.9Z" fill="#292929"/>
<path d="M76.152 62.8056C76.1016 62.6931 76.0345 62.5806 75.9394 62.4794L73.1645 60.8711L73.3156 60.7867L66.1882 56.6479L64.7392 55.81L64.37 55.5963L64.3308 55.5738L63.8944 55.3208C63.5588 55.124 63.1728 54.9777 62.7644 54.8821C62.7028 54.8653 62.6413 54.854 62.5741 54.8428C62.4734 54.8203 62.3616 54.8034 62.2553 54.7866C62.3112 54.8428 62.3504 54.899 62.3783 54.9609C62.4678 54.9777 62.563 54.9946 62.6469 55.0171C62.9378 55.0846 63.2063 55.1746 63.4637 55.2983H63.4749C63.514 55.3208 63.5476 55.3376 63.5812 55.3601C63.5923 55.3658 63.6035 55.377 63.6203 55.3826C63.6539 55.3995 63.6874 55.4164 63.7154 55.4332L64.5378 55.9112L66.0036 56.7604L73.1365 60.8992L75.0778 62.0239C75.3576 62.187 75.5757 62.3726 75.7324 62.575C76.1352 63.0811 76.1296 63.6772 75.71 64.1777C75.766 64.2227 75.8163 64.2733 75.8611 64.3239C76.2974 63.8628 76.3925 63.3173 76.152 62.8168V62.8056ZM76.152 62.8056C76.1016 62.6931 76.0345 62.5806 75.9394 62.4794C75.7715 62.2713 75.5422 62.0801 75.2513 61.9114L73.3212 60.7867L66.1938 56.6479L64.7448 55.81L64.3756 55.5963L64.3364 55.5738L63.9 55.3208C63.5644 55.124 63.1783 54.9777 62.7699 54.8821C62.7084 54.8653 62.6469 54.854 62.5797 54.8428C62.479 54.8203 62.3671 54.8034 62.2608 54.7866C61.5392 54.6853 60.7727 54.7191 60.079 54.8878C59.9783 54.9103 59.8776 54.9384 59.7825 54.9721C59.4916 55.0621 59.223 55.1802 58.9825 55.3208L58.451 55.6301L57.9867 55.9L47.6984 61.9114C47.4634 62.0464 47.2676 62.2039 47.1166 62.3669C47.0047 62.485 46.9208 62.6031 46.8536 62.7268C46.5739 63.2442 46.6578 63.8178 47.1166 64.3014C47.1613 64.3576 47.2117 64.4026 47.2676 64.4532C47.3963 64.5713 47.5473 64.6782 47.7208 64.7794L59.0776 71.37C60.437 72.1573 62.6469 72.1573 63.9951 71.37L75.2792 64.7794C75.4471 64.6782 75.5925 64.5769 75.7156 64.4645C75.7715 64.4195 75.8219 64.3689 75.8667 64.3126C76.303 63.8515 76.3981 63.306 76.1576 62.8056H76.152ZM75.7044 64.1664C75.6653 64.2227 75.6149 64.2677 75.5646 64.3126C75.4303 64.4476 75.2736 64.5657 75.089 64.6725L63.8049 71.2632C62.5518 71.9942 60.5042 71.9942 59.2342 71.2632L47.883 64.6725C47.6872 64.5601 47.525 64.4364 47.3907 64.3014C47.3347 64.2564 47.29 64.2058 47.2508 64.1496C46.8033 63.6153 46.8256 62.9799 47.3068 62.4513C47.4522 62.2938 47.6368 62.142 47.8718 62.007L58.1769 55.9843L59.1503 55.4164C59.3349 55.3095 59.5363 55.2196 59.7489 55.1465C59.8328 55.1127 59.9168 55.0902 60.0007 55.0621C60.7391 54.8484 61.5951 54.809 62.3783 54.9496C62.4678 54.9665 62.563 54.9834 62.6469 55.0059C62.9378 55.0733 63.2063 55.1633 63.4637 55.287H63.4749C63.514 55.3095 63.5476 55.3264 63.5812 55.3489C63.5923 55.3545 63.6035 55.3658 63.6203 55.3714C63.6539 55.3883 63.6874 55.4051 63.7154 55.422L64.5378 55.9L66.0036 56.7491L73.1365 60.888L75.0778 62.0127C75.3576 62.1757 75.5757 62.3613 75.7324 62.5638C76.1352 63.0699 76.1296 63.6659 75.71 64.1664H75.7044Z" fill="#292929"/>
<path d="M92.6222 31.185L91.867 30.7464L87.2627 28.0752L85.3326 26.9505L84.376 26.3994L81.2654 24.5943C80.7284 24.285 80.057 24.0938 79.3689 24.0264C78.7759 23.9701 78.1605 24.0039 77.5954 24.1276C77.1367 24.2232 76.7115 24.3806 76.3423 24.5943L65.0582 31.185C63.9561 31.8317 63.7547 32.8102 64.4652 33.5806C64.5099 33.6312 64.5659 33.6818 64.6162 33.7268C64.7449 33.8449 64.8959 33.9573 65.0694 34.0529L68.4932 36.038L69.6569 36.7128L74.2611 39.3839L76.4262 40.638C77.7856 41.4309 79.9955 41.4309 81.3493 40.638L92.6278 34.0473C92.7957 33.9461 92.9411 33.8449 93.0642 33.738C93.1202 33.6874 93.1649 33.6424 93.2153 33.5862C93.9369 32.8214 93.7355 31.8373 92.6166 31.185H92.6222ZM93.0754 33.44C93.0362 33.4906 92.9915 33.5412 92.9411 33.5918C92.8125 33.7211 92.6502 33.8392 92.46 33.9517L81.1815 40.5424C79.9227 41.2734 77.8752 41.2734 76.6108 40.5424L74.3786 39.2434L69.7743 36.5722L68.6107 35.8974L65.2596 33.9461C65.0638 33.8336 64.9015 33.7099 64.7673 33.5749C64.7113 33.53 64.6666 33.4737 64.6274 33.4231C64.0512 32.7258 64.2582 31.8598 65.2428 31.2862L76.5213 24.6955C76.801 24.5325 77.1143 24.4088 77.45 24.3188C78.015 24.1669 78.6472 24.1163 79.2514 24.1669C79.9227 24.2232 80.5717 24.3975 81.092 24.7012L84.2081 26.5063L85.3382 27.1699L87.1229 28.2046L91.7327 30.8757L92.4488 31.2918C93.4502 31.871 93.6628 32.7371 93.0754 33.44Z" fill="#292929"/>
<g opacity="0.56">
<path d="M93.5345 74.5752C93.4897 74.5246 93.4338 74.474 93.3834 74.4234C93.2548 74.3053 93.1037 74.1985 92.9303 74.0973L81.5791 67.5066C80.214 66.7193 78.0042 66.7193 76.6559 67.5066L65.3718 74.0973C65.204 74.1929 65.0585 74.2941 64.9355 74.4065C64.8795 74.4515 64.8348 74.5021 64.7844 74.5584C64.0627 75.3232 64.2697 76.3129 65.3886 76.9652L76.7398 83.5502C78.1049 84.3431 80.3147 84.3431 81.6686 83.5502L92.9527 76.9596C94.0604 76.3129 94.2562 75.3288 93.5401 74.564L93.5345 74.5752ZM92.7681 76.864L81.484 83.449C80.2308 84.1857 78.1832 84.1857 76.9133 83.449L65.562 76.864C64.555 76.2848 64.348 75.4075 64.9355 74.7102C64.9746 74.654 65.025 74.609 65.0697 74.564C65.204 74.429 65.3606 74.3109 65.5453 74.2041L76.8293 67.6134C78.0825 66.8768 80.1301 66.8768 81.4 67.6134L92.7569 74.2041C92.9471 74.3166 93.1149 74.4347 93.2436 74.5696C93.2995 74.6146 93.3443 74.6708 93.3834 74.7215C93.9597 75.4188 93.7583 76.2791 92.7681 76.864Z" fill="#292929"/>
<path d="M80.4156 44.6811C80.3876 44.4899 80.2421 44.3043 79.996 44.1581C79.4253 43.8264 78.4966 43.8264 77.9316 44.1581C77.6854 44.3043 77.5456 44.4843 77.512 44.6755C77.5064 44.7317 77.5064 44.788 77.512 44.8442C77.54 45.0354 77.6854 45.221 77.9316 45.3616C78.5022 45.6933 79.4309 45.6933 79.996 45.3616C80.2421 45.2153 80.382 45.0354 80.4156 44.8442C80.4211 44.7936 80.4267 44.7374 80.4156 44.6811ZM79.8225 45.2547C79.3526 45.5303 78.5862 45.5303 78.1162 45.2547C77.8868 45.1197 77.7694 44.9454 77.7582 44.7711C77.7582 44.7149 77.7638 44.6642 77.7805 44.608C77.8253 44.4787 77.9372 44.3606 78.105 44.2594C78.575 43.9838 79.3414 43.9838 79.8113 44.2594C79.9792 44.3606 80.0911 44.4843 80.1414 44.6136C80.1582 44.6699 80.1638 44.7205 80.1638 44.7767C80.1582 44.951 80.0407 45.1197 79.8113 45.2547H79.8225Z" fill="#292929"/>
<path d="M95.4869 53.1613C95.3974 53.1445 95.3191 53.1276 95.2352 53.1051C94.8883 53.0151 94.5639 52.8914 94.2841 52.7227L93.4617 52.2447L91.0225 50.8332L87.1623 48.5951L84.8574 47.2567L83.6938 46.5819L82.9273 46.1377C82.642 45.969 82.4238 45.7834 82.2672 45.581C81.87 45.0748 81.8811 44.4844 82.3007 43.9839C82.3399 43.9277 82.3902 43.8827 82.435 43.8321C82.3791 43.7871 82.3343 43.7308 82.2951 43.6802C82.2392 43.7308 82.1944 43.7815 82.1441 43.8321C81.7077 44.2932 81.6126 44.8387 81.8532 45.3391C81.9035 45.4516 81.9707 45.5641 82.0658 45.6653C82.2336 45.8734 82.4574 46.0646 82.7539 46.2333L83.5931 46.7169L84.7567 47.3917L86.1721 48.2127L90.961 50.9907L93.2491 52.3178L93.6687 52.5652L94.1051 52.8183C94.4464 53.0151 94.838 53.1613 95.2576 53.2626C95.3471 53.285 95.4422 53.3019 95.5373 53.3188C95.5093 53.2626 95.4869 53.2119 95.4813 53.1501L95.4869 53.1613ZM110.9 43.8433C110.855 43.7871 110.805 43.7421 110.749 43.6915C110.62 43.5734 110.469 43.4665 110.296 43.3653L98.9387 36.7747C97.5793 35.9874 95.3695 35.9874 94.0156 36.7747L91.9288 37.9949L88.8966 39.772L82.7315 43.3709C82.5637 43.4722 82.4182 43.5734 82.2951 43.6802C82.2392 43.7308 82.1944 43.7815 82.1441 43.8321C81.7077 44.2932 81.6126 44.8387 81.8532 45.3391C81.9035 45.4516 81.9707 45.5641 82.0658 45.6653C82.2336 45.8734 82.4574 46.0646 82.7539 46.2333L83.5931 46.7169L84.7567 47.3917L86.1721 48.2127L90.961 50.9907L93.2491 52.3178L93.6687 52.5652L94.1051 52.8183C94.4464 53.0151 94.838 53.1613 95.2576 53.2626C95.3471 53.285 95.4422 53.3019 95.5373 53.3188C96.2981 53.4538 97.1261 53.4369 97.8702 53.2626C97.9597 53.2401 98.0548 53.2176 98.1443 53.1894C98.4632 53.0939 98.7653 52.9701 99.0283 52.8127L99.5541 52.5034L100.013 52.2391L110.307 46.222C110.547 46.0814 110.743 45.9296 110.894 45.7609C111.006 45.6428 111.09 45.5247 111.157 45.401C111.437 44.8836 111.347 44.3157 110.894 43.8321L110.9 43.8433ZM110.704 45.6822C110.558 45.8453 110.368 45.9971 110.133 46.1377L99.8171 52.1604L98.8492 52.7283C98.6366 52.852 98.3961 52.9589 98.1443 53.0376C98.066 53.0601 97.9821 53.0882 97.8982 53.1107C97.1373 53.3132 96.2702 53.3357 95.4813 53.167C95.3918 53.1501 95.3135 53.1332 95.2296 53.1107C94.8827 53.0207 94.5583 52.897 94.2785 52.7283L93.4561 52.2503L91.0169 50.8389L87.1567 48.6007L84.8518 47.2624L83.6882 46.5875L82.9217 46.1433C82.6364 45.9746 82.4182 45.789 82.2616 45.5866C81.8644 45.0805 81.8755 44.49 82.2951 43.9895C82.3343 43.9333 82.3846 43.8883 82.4294 43.8377C82.5637 43.7084 82.7203 43.5903 82.9049 43.4778L88.6001 40.1487L91.6323 38.3773L94.1834 36.8871C95.4422 36.1505 97.4842 36.1505 98.7541 36.8871L110.111 43.4778C110.307 43.5903 110.469 43.7084 110.603 43.8489C110.659 43.8939 110.704 43.9445 110.743 44.0008C111.179 44.535 111.168 45.1536 110.704 45.6822Z" fill="#292929"/>
<path d="M72.6615 47.4423L64.6278 52.1322L64.4488 52.2334L63.6488 52.7002C63.3523 52.8745 63.011 53.0039 62.6418 53.0938C62.5747 53.1107 62.5075 53.1276 62.4348 53.1388C62.4292 53.1388 62.4124 53.1444 62.4068 53.1388C61.6292 53.2963 60.7676 53.2738 60.0068 53.0657C59.9285 53.0488 59.8557 53.0264 59.7774 52.9982C59.5257 52.9195 59.2907 52.8127 59.0725 52.6889L58.748 52.5034C58.748 52.5034 58.7424 52.5034 58.7424 52.4977L58.2557 52.2166C58.3452 52.3178 58.418 52.4303 58.4683 52.5427L58.9047 52.7958C59.1564 52.942 59.4418 53.0601 59.7439 53.1557C59.7942 53.1669 59.8446 53.1782 59.8949 53.1951C59.9285 53.2063 59.9676 53.2175 59.9956 53.2232C60.7621 53.4144 61.618 53.4369 62.3956 53.2963C62.474 53.285 62.5523 53.2682 62.6306 53.2513C62.6362 53.2513 62.6474 53.2513 62.653 53.2513C63.0782 53.1501 63.481 53.0039 63.8222 52.8014L64.2195 52.5709L64.3537 52.4921L64.8181 52.2222L72.0014 48.0271L72.6559 47.6447V47.4592L72.7287 47.4029L72.6559 47.4423H72.6615ZM76.0798 44.4787C76.0238 44.2482 75.8952 44.0232 75.6993 43.8208C75.6546 43.7646 75.6042 43.7196 75.5483 43.669C75.4196 43.5509 75.2686 43.444 75.0951 43.3428L72.6448 41.9201L72.421 41.7907L67.8167 39.1196L66.6531 38.4448L63.7439 36.7521C62.3845 35.9592 60.169 35.9592 58.8208 36.7521L47.5367 43.3428C47.3688 43.444 47.2234 43.5452 47.1003 43.6521C47.0444 43.7027 46.9996 43.7533 46.9493 43.8039C46.5129 44.2707 46.4178 44.8161 46.6583 45.311C46.7087 45.4235 46.7758 45.5359 46.8709 45.6372C47.0388 45.8452 47.2625 46.0364 47.5591 46.2051L58.0599 52.2953L58.4795 52.5427L58.9159 52.7958C59.1676 52.942 59.4529 53.0601 59.755 53.1557C59.8054 53.1669 59.8558 53.1782 59.9061 53.1951C59.9397 53.2063 59.9788 53.2175 60.0068 53.2232C60.7732 53.4144 61.6292 53.4369 62.4068 53.2963C62.4852 53.285 62.5635 53.2682 62.6418 53.2513C62.6474 53.2513 62.6586 53.2513 62.6642 53.2513C63.0894 53.1501 63.4922 53.0039 63.8334 52.8014L64.2306 52.5709L64.3649 52.4921L64.8293 52.2222L72.0126 48.0271L72.6671 47.6447L75.1175 46.2164C75.3525 46.0814 75.5483 45.924 75.6993 45.7609C75.8112 45.6484 75.9008 45.5247 75.9623 45.401C76.1301 45.1086 76.1693 44.788 76.0798 44.4844V44.4787ZM74.9329 46.1095L72.7287 47.3973L72.6559 47.4367L64.6223 52.1266L64.4432 52.2278L63.6432 52.6946C63.3467 52.8689 63.0054 52.9982 62.6362 53.0882C62.5691 53.1051 62.5019 53.1219 62.4292 53.1332C62.4236 53.1332 62.4068 53.1388 62.4012 53.1332C61.6236 53.2907 60.7621 53.2682 60.0012 53.0601C59.9229 53.0432 59.8502 53.0207 59.7718 52.9926C59.5201 52.9139 59.2851 52.807 59.0669 52.6833L58.7424 52.4977C58.7424 52.4977 58.7369 52.4977 58.7369 52.4921L58.2501 52.211L47.7213 46.1039C47.436 45.9352 47.2122 45.744 47.0611 45.5416C46.6639 45.0355 46.6751 44.4506 47.0891 43.9445C47.1283 43.8883 47.1786 43.8433 47.229 43.7983C47.3633 43.6633 47.5199 43.5452 47.7045 43.4384L58.9886 36.8477C60.2418 36.1167 62.2894 36.1167 63.5593 36.8477L66.5412 38.5741L67.7048 39.249L72.3091 41.9145L72.6392 42.1057L74.9161 43.4272C75.1063 43.5396 75.2742 43.6577 75.4028 43.7983C75.4588 43.8433 75.5035 43.8939 75.5427 43.9501C75.7273 44.1694 75.8336 44.4056 75.8504 44.6474C75.8896 44.9905 75.7721 45.3391 75.4868 45.6428C75.3413 45.8002 75.1567 45.9521 74.9217 46.087L74.9329 46.1095Z" fill="#292929"/>
<path d="M98.1441 54.9496C98.1106 54.764 97.9707 54.5897 97.7246 54.4491C97.1539 54.123 96.2252 54.1173 95.6546 54.4491C95.4308 54.5841 95.2965 54.7415 95.2518 54.9159C95.235 54.9721 95.2294 55.0283 95.235 55.0846C95.2462 55.2926 95.3861 55.4951 95.6602 55.6525C96.2308 55.9843 97.1595 55.9843 97.7246 55.6525C97.9819 55.5007 98.1162 55.3151 98.1441 55.1183C98.1553 55.0621 98.1497 55.0115 98.1441 54.9496ZM97.5511 55.5457C97.0812 55.8269 96.3147 55.8269 95.8448 55.5457C95.5931 55.3995 95.47 55.2083 95.4868 55.0171C95.4868 54.9609 95.5091 54.9102 95.5315 54.854C95.5875 54.7415 95.6882 54.6403 95.8392 54.5503C96.3092 54.2748 97.0756 54.2748 97.5511 54.5503C97.7134 54.6459 97.8197 54.764 97.87 54.8821C97.8924 54.9384 97.9092 54.9946 97.9092 55.0508C97.9092 55.2308 97.7917 55.4107 97.5567 55.5457H97.5511Z" fill="#292929"/>
<path d="M62.647 55.0114C62.6358 54.9552 62.6079 54.8933 62.5743 54.8427C62.5463 54.7921 62.5072 54.7471 62.4624 54.7077C62.4009 54.6402 62.3282 54.5896 62.233 54.5334C62.1379 54.4772 62.0428 54.4378 61.9365 54.3984C61.3771 54.2072 60.6442 54.2522 60.1687 54.5334C59.9561 54.6571 59.8218 54.8146 59.7715 54.972C59.7491 55.0339 59.7435 55.0901 59.7491 55.1576C59.7547 55.3713 59.9001 55.5794 60.1743 55.7368C60.7449 56.0686 61.6736 56.0686 62.2442 55.7368C62.5799 55.54 62.7142 55.2757 62.647 55.017V55.0114ZM62.0652 55.6243C61.5953 55.8999 60.8288 55.8999 60.3533 55.6243C60.0904 55.4725 59.9729 55.2644 60.0008 55.0676C60.0064 55.0058 60.0344 54.9439 60.0736 54.882C60.1295 54.7921 60.2246 54.7021 60.3533 54.629C60.8232 54.3534 61.5897 54.3534 62.0596 54.629C62.1379 54.674 62.2051 54.7246 62.2554 54.7808C62.3058 54.8371 62.3505 54.8933 62.3785 54.9552C62.4792 55.1857 62.3785 55.4388 62.0652 55.6243Z" fill="#292929"/>
<path d="M100.108 54.0891C100.052 54.0442 100.007 53.9935 99.968 53.9373C99.912 53.9879 99.8673 54.0385 99.8169 54.0891C99.3806 54.5503 99.2855 55.0901 99.526 55.5906L99.94 55.838C99.5428 55.3319 99.554 54.7415 99.9736 54.241C100.013 54.1847 100.063 54.1398 100.108 54.0891ZM128.925 54.6684C128.925 54.6684 128.914 54.6234 128.903 54.6009C128.836 54.4266 128.729 54.2578 128.578 54.1004C128.533 54.0442 128.483 53.9992 128.427 53.9486C128.298 53.8305 128.147 53.7236 127.974 53.6224L116.617 47.0317C115.258 46.2445 113.042 46.2445 111.694 47.0317L100.41 53.6224C100.242 53.7236 100.097 53.8248 99.9736 53.9317C99.9176 53.9823 99.8729 54.0329 99.8225 54.0835C99.3862 54.5446 99.2911 55.0845 99.5316 55.585C99.5764 55.6974 99.6491 55.8099 99.733 55.9111C99.9009 56.1248 100.13 56.316 100.427 56.4903L110.928 62.5805L111.347 62.8223L111.784 63.0754C113.143 63.8683 115.358 63.8683 116.707 63.0754L124.27 58.6554L124.377 58.5935L127.991 56.4847C128.444 56.2204 128.74 55.8999 128.886 55.5569C128.897 55.5344 128.908 55.5175 128.908 55.5006C129.015 55.2251 129.026 54.9327 128.925 54.6627V54.6684ZM128.679 55.4388C128.556 55.7874 128.271 56.1192 127.812 56.3835L124.651 58.2336L124.533 58.3011L116.528 62.9742C115.269 63.7052 113.221 63.7052 111.957 62.9742L111.14 62.5018L100.6 56.3835C100.315 56.2148 100.097 56.0292 99.94 55.8268C99.5428 55.3207 99.554 54.7302 99.9736 54.2297C100.013 54.1735 100.063 54.1285 100.108 54.0779C100.242 53.9486 100.399 53.8305 100.583 53.718L111.867 47.1273C113.126 46.3907 115.174 46.3907 116.438 47.1273L127.789 53.718C127.985 53.8305 128.147 53.9486 128.282 54.0891C128.338 54.1341 128.382 54.1847 128.422 54.241C128.539 54.3872 128.629 54.539 128.685 54.6965C128.685 54.719 128.696 54.7358 128.696 54.7583C128.757 54.9608 128.757 55.1745 128.696 55.3769C128.696 55.3994 128.69 55.4163 128.679 55.4331V55.4388Z" fill="#292929"/>
<path d="M93.3776 54.0835C93.3328 54.0273 93.2825 53.9823 93.2265 53.9317C93.0979 53.8136 92.9468 53.7068 92.7734 53.6055L89.7859 51.8735L83.9285 48.4713L82.7648 47.7965L82.6977 47.7572L81.4166 47.0149C80.2865 46.3569 78.5634 46.2445 77.2431 46.6887C76.9745 46.7731 76.7228 46.8855 76.4934 47.0149L72.6668 49.253L66.4177 52.9026L65.2093 53.6112C65.0415 53.7068 64.9016 53.808 64.773 53.9204C64.717 53.9654 64.6667 54.016 64.6219 54.0723C64.5604 54.1341 64.5044 54.2016 64.4597 54.2691C64.1632 54.6852 64.1184 55.1464 64.3254 55.5794C64.3254 55.585 64.3254 55.5962 64.331 55.6018C64.3813 55.7087 64.4485 55.8099 64.5324 55.9111C64.6946 56.1192 64.924 56.3104 65.2205 56.4791L65.8471 56.839L72.9801 60.9778L75.727 62.5693L76.1466 62.8167L76.5829 63.0698C76.8515 63.2272 77.1592 63.3509 77.4781 63.4465C77.562 63.469 77.6459 63.4915 77.7242 63.5196C78.4907 63.6996 79.3466 63.7165 80.1354 63.559C80.2249 63.5478 80.3033 63.5253 80.3928 63.5028C80.7956 63.4072 81.176 63.261 81.5061 63.0641L82.032 62.7548L82.4907 62.4905L92.7846 56.4735C93.0251 56.3329 93.2209 56.1811 93.372 56.0124C93.4839 55.8943 93.5678 55.7762 93.6349 55.6525C93.9147 55.1351 93.8251 54.5671 93.372 54.0835H93.3776ZM92.6111 56.3723L82.3005 62.3949L81.3327 62.9629C81.0473 63.1316 80.7229 63.2553 80.376 63.3509C80.2977 63.3734 80.2194 63.3903 80.1354 63.4072C79.369 63.5702 78.513 63.5534 77.7522 63.3622C77.6739 63.3397 77.5955 63.3228 77.5228 63.2947C77.2487 63.2103 76.9913 63.0979 76.7675 62.9685L75.9452 62.4905L73.1703 60.8822L66.0373 56.749L65.4107 56.3835C65.1198 56.2148 64.896 56.0236 64.745 55.8212C64.689 55.7481 64.6443 55.6862 64.6107 55.6131C64.3646 55.1576 64.4205 54.6627 64.7786 54.2297C64.8177 54.1735 64.8681 54.1285 64.9128 54.0779C65.0471 53.9486 65.2037 53.8305 65.3884 53.718L65.696 53.538L72.6668 49.4667L76.6724 47.1273C76.8515 47.0261 77.0417 46.9361 77.2431 46.863C78.4851 46.4075 80.1522 46.4975 81.2431 47.1273L82.4907 47.8528L82.6585 47.954L83.8222 48.6288L89.6069 51.986L92.5944 53.718C92.7846 53.8305 92.9524 53.9486 93.0811 54.0891C93.137 54.1341 93.1818 54.1904 93.2265 54.241C93.6629 54.7752 93.6461 55.3994 93.1762 55.928C93.0307 56.0911 92.8405 56.2429 92.6056 56.3835L92.6111 56.3723Z" fill="#292929"/>
<path d="M58.1772 54.0554C58.1325 54.106 58.0821 54.1566 58.0262 54.2072C58.4737 54.7415 58.4514 55.3769 57.9702 55.9055L58.4346 55.6356C58.7143 55.1182 58.6304 54.5446 58.1716 54.061L58.1772 54.0554ZM29.1083 55.5006C29.1083 55.5006 29.1194 55.54 29.1306 55.5569L29.1642 55.54L29.3376 55.4388C29.3376 55.4388 29.3209 55.3994 29.3153 55.3825L29.1083 55.5006ZM58.1772 54.061C58.1325 54.0048 58.0821 53.9598 58.0262 53.9092C57.8975 53.7911 57.7465 53.6843 57.573 53.583L46.2218 46.998C44.8568 46.2051 42.6469 46.2051 41.2987 46.998L30.0146 53.583C29.8467 53.6843 29.7013 53.7855 29.5782 53.8923C29.5223 53.9429 29.4719 53.9935 29.4271 54.0442C29.2593 54.2129 29.1474 54.4041 29.0803 54.5952C29.0747 54.6177 29.0635 54.6402 29.0579 54.6627C28.974 54.9383 28.9908 55.2251 29.1139 55.5006C29.1139 55.5231 29.125 55.54 29.1362 55.5569C29.2929 55.8886 29.5894 56.1979 30.0314 56.451L33.5391 58.4867L33.651 58.5541L41.3826 63.0416C42.7476 63.8289 44.9575 63.8289 46.3057 63.0416L46.8372 62.7323L47.3015 62.4624L57.5898 56.451C57.8248 56.316 58.0206 56.1586 58.1716 55.9955C58.2835 55.8774 58.3675 55.7593 58.4346 55.6356C58.7143 55.1182 58.6304 54.5446 58.1716 54.061H58.1772ZM57.4108 56.3498L47.1057 62.3724L46.1323 62.9404C44.8791 63.6715 42.8315 63.6771 41.5616 62.9404L33.3769 58.1886L33.2594 58.1211L30.2048 56.3441C29.7572 56.0855 29.4663 55.7705 29.3376 55.4388C29.3376 55.4388 29.3209 55.3994 29.3153 55.3825C29.2425 55.1745 29.2369 54.9664 29.2873 54.764C29.2873 54.7415 29.2873 54.7246 29.2985 54.7021C29.3488 54.5278 29.4383 54.3591 29.5782 54.2016C29.6174 54.1454 29.6677 54.0948 29.7181 54.0498C29.8523 53.9148 30.009 53.7967 30.1936 53.6899L41.4777 47.0992C42.7308 46.3682 44.7784 46.3682 46.0484 47.0992L57.3996 53.6843C57.5954 53.7967 57.7577 53.9204 57.8919 54.0554C57.9479 54.1004 57.9926 54.151 58.0318 54.2072C58.4793 54.7415 58.457 55.3769 57.9758 55.9055C57.8304 56.063 57.6458 56.2148 57.4108 56.3498Z" fill="#292929"/>
<path d="M80.3707 65.2798C80.3595 65.2236 80.3315 65.1617 80.2868 65.1055C80.2141 65.0042 80.1078 64.903 79.9623 64.8187C79.3917 64.4869 78.463 64.4869 77.8979 64.8187C77.7077 64.9311 77.5791 65.0661 77.5175 65.2067C77.4951 65.2629 77.4784 65.3248 77.4784 65.3923C77.4616 65.6228 77.607 65.8534 77.9035 66.0221C78.4742 66.3539 79.4029 66.3539 79.9679 66.0221C80.3148 65.8253 80.449 65.5441 80.3707 65.2798ZM79.7945 65.9152C79.3245 66.1908 78.5581 66.1908 78.0882 65.9152C77.8028 65.7465 77.6853 65.5216 77.7469 65.3023C77.7637 65.2404 77.7972 65.1786 77.8476 65.1167C77.9035 65.0436 77.9819 64.9761 78.0826 64.9199C78.5525 64.6443 79.3189 64.6443 79.7889 64.9199C79.8504 64.9592 79.9064 64.993 79.9511 65.038C80.0127 65.0942 80.063 65.1561 80.0966 65.2179C80.2141 65.4541 80.119 65.724 79.7945 65.9096V65.9152Z" fill="#292929"/>
<path d="M111.056 64.335C111.012 64.2844 110.956 64.2338 110.905 64.1832C110.777 64.0651 110.626 63.9582 110.452 63.857L99.1009 57.2664C97.7414 56.4791 95.526 56.4791 94.1777 57.2664L82.8936 63.857C82.7258 63.9582 82.5803 64.0595 82.4572 64.1663C82.4013 64.2169 82.3565 64.2675 82.3062 64.3181C81.8698 64.7793 81.7747 65.3247 82.0153 65.8252C82.0656 65.9377 82.1328 66.0502 82.2279 66.1514C82.3957 66.3594 82.6195 66.5563 82.916 66.725L93.4168 72.8151L93.8364 73.0569L94.2728 73.31C95.6323 74.1029 97.8421 74.1029 99.196 73.31L110.48 66.7193C111.588 66.0727 111.784 65.0886 111.067 64.3238L111.056 64.335ZM110.29 66.6237L99.0057 73.2144C97.7526 73.9454 95.705 73.9454 94.435 73.2144L93.6238 72.742L83.0782 66.6181C82.7929 66.4494 82.5691 66.2582 82.4181 66.0558C82.0209 65.5497 82.0321 64.9648 82.4516 64.4644C82.4908 64.4081 82.5412 64.3631 82.5859 64.3181C82.7202 64.1832 82.8768 64.0651 83.0614 63.9582L94.3455 57.3676C95.5987 56.6309 97.6463 56.6309 98.9162 57.3676L110.273 63.9582C110.469 64.0707 110.631 64.1888 110.765 64.3294C110.821 64.3744 110.866 64.425 110.905 64.4812C111.481 65.1785 111.28 66.0389 110.284 66.6237H110.29Z" fill="#292929"/>
<path d="M75.8559 64.3125C75.8111 64.2619 75.7552 64.2113 75.7048 64.1663C75.6657 64.2226 75.6153 64.2676 75.565 64.3125C75.6209 64.3575 75.6657 64.4081 75.7048 64.4644C76.1468 64.9986 76.13 65.6284 75.6601 66.157L76.1132 65.8927C76.3985 65.3754 76.309 64.8018 75.8559 64.3182V64.3125ZM75.8559 64.3125C75.8111 64.2619 75.7552 64.2113 75.7048 64.1663C75.5762 64.0482 75.4251 63.9414 75.2517 63.8402L71.5985 61.7201L64.4711 57.5813L63.9005 57.2495C62.5354 56.4622 60.3256 56.4622 58.9773 57.2495L47.6932 63.8402C47.5254 63.9414 47.3799 64.0426 47.2568 64.1495C47.2009 64.2001 47.1561 64.2507 47.1058 64.3013C46.3841 65.0661 46.5855 66.0558 47.71 66.7025L59.0668 73.2932C60.4263 74.0804 62.6361 74.0804 63.9844 73.2932L64.5158 72.9839L64.9802 72.7139L75.2685 66.7025C75.5034 66.5675 75.6992 66.4101 75.8503 66.247C75.9622 66.1345 76.0517 66.0108 76.1132 65.8871C76.3985 65.3697 76.309 64.7962 75.8559 64.3125ZM75.0894 66.6069L64.7732 72.6296L63.8053 73.1976C62.5522 73.9342 60.5046 73.9342 59.2346 73.1976L47.8834 66.6125C46.882 66.0333 46.6694 65.1617 47.2512 64.4588C47.2904 64.4025 47.3408 64.3519 47.3911 64.3069C47.5254 64.172 47.682 64.0539 47.8666 63.947L59.1507 57.362C60.4039 56.6253 62.4515 56.6253 63.7214 57.362L64.2865 57.6881L71.4139 61.8214L75.0782 63.947C75.2685 64.0595 75.4363 64.1776 75.565 64.3182C75.6209 64.3632 75.6657 64.4138 75.7048 64.47C76.1468 65.0042 76.13 65.6341 75.6601 66.1627C75.5146 66.3257 75.3244 66.4776 75.0894 66.6181V66.6069Z" fill="#292929"/>
<path d="M77.7582 42.8985C77.6687 42.876 77.5848 42.8592 77.5009 42.8311C77.1764 42.7411 76.8743 42.6174 76.6057 42.4655L75.7889 41.9932L73.3497 40.5817L73.333 40.6042L73.2434 40.7223L75.5763 42.0719L75.9959 42.3193L76.4323 42.5724C76.7568 42.7636 77.1372 42.9098 77.5344 43.0054C77.6295 43.0279 77.7302 43.0504 77.8253 43.0672C77.7862 43.011 77.7694 42.9604 77.7526 42.8985H77.7582ZM93.4228 33.8392C93.3668 33.7492 93.2997 33.6649 93.2214 33.5861C93.1766 33.5299 93.1263 33.4849 93.0703 33.4343C92.9416 33.3162 92.7906 33.2094 92.6172 33.1081L90.536 31.9047L85.9262 29.2336L85.3331 28.8906L83.2072 27.659L81.2548 26.5231C80.3261 25.9833 79.0002 25.8089 77.8253 26.0058C77.2771 26.0957 76.7624 26.2701 76.3316 26.5231L75.2854 27.1361L65.0475 33.1138C64.8797 33.215 64.7342 33.3162 64.6111 33.4231C64.5552 33.4737 64.5049 33.5243 64.4601 33.5749C64.0293 34.0416 63.9286 34.5815 64.1692 35.082C64.2195 35.1944 64.2867 35.3069 64.3818 35.4081C64.5496 35.6162 64.7734 35.8074 65.0699 35.9761L67.4699 37.3707L68.6336 38.0455L73.2379 40.7166L75.5708 42.0663L75.9903 42.3137L76.4267 42.5667C76.7512 42.7579 77.1316 42.9042 77.5288 42.9998C77.6239 43.0222 77.7246 43.0447 77.8197 43.0616C78.5638 43.2022 79.375 43.191 80.1079 43.0279C80.2086 43.011 80.2981 42.9885 80.3932 42.9548C80.7345 42.8648 81.0589 42.7298 81.3443 42.5667L81.8702 42.2575L82.3289 41.9932L91.0955 36.8646L92.6172 35.9761C92.8521 35.8411 93.0479 35.6837 93.199 35.5206C93.3109 35.4081 93.4004 35.2844 93.4619 35.1607C93.6969 34.7333 93.6745 34.2609 93.406 33.8392H93.4228ZM93.0256 35.425C92.8745 35.5881 92.6899 35.7343 92.4549 35.8749L91.3976 36.4934L82.1443 41.8976L81.1764 42.4655C80.9471 42.6005 80.6897 42.713 80.4156 42.7917C80.3317 42.8142 80.2477 42.8423 80.1638 42.8648C79.3974 43.056 78.5358 43.0672 77.7582 42.8985C77.6687 42.876 77.5848 42.8592 77.5009 42.8311C77.1764 42.7411 76.8743 42.6174 76.6057 42.4655L75.7889 41.9932L73.3497 40.5817L68.7455 37.9106L67.5818 37.2357L65.2489 35.8805C64.9636 35.7118 64.7454 35.5262 64.5888 35.3238C64.1916 34.8177 64.2027 34.2272 64.6167 33.7211C64.6559 33.6705 64.7063 33.6199 64.7566 33.5749C64.8909 33.4399 65.0475 33.3218 65.2321 33.215L75.0113 27.5016L76.5162 26.6243C76.8575 26.4275 77.2603 26.2813 77.6911 26.1913C78.8379 25.9439 80.1694 26.0901 81.0869 26.63L83.1065 27.7996L85.3387 29.0986L85.7919 29.3629L90.3962 32.0341L92.4437 33.2206C92.6395 33.3331 92.8018 33.4568 92.9361 33.5918C92.992 33.6367 93.0368 33.693 93.0703 33.7436C93.1598 33.8448 93.2214 33.9404 93.2661 34.0473C93.4955 34.5028 93.4116 35.0032 93.0256 35.4306V35.425Z" fill="#292929"/>
</g>
<g opacity="0.4" filter="url(#filter0_f_599_8515)">
<ellipse cx="79" cy="54" rx="44" ry="19" fill="url(#paint0_linear_599_8515)"/>
</g>
<path d="M102.997 53.3263V45.1217C102.997 44.4844 102.657 43.8956 102.107 43.5785L95.4423 39.7318C94.8921 39.4148 94.2124 39.4148 93.6589 39.7318L86.9946 43.5785C86.4443 43.8956 86.1045 44.4844 86.1045 45.1185V53.323C86.1045 53.6401 86.2728 53.9345 86.5512 54.093L93.6589 58.1953C94.2092 58.5123 94.8889 58.5123 95.4391 58.1953L102.547 54.093C102.822 53.9345 102.994 53.6401 102.994 53.323L102.997 53.3263Z" fill="url(#paint1_linear_599_8515)"/>
<path d="M101.66 43.323L95.4421 39.7351C94.8918 39.4181 94.2121 39.4181 93.6619 39.7351L87.4442 43.323C86.8519 43.6659 86.8519 44.5232 87.4442 44.8662L93.6619 48.4541C94.2154 48.7711 94.8951 48.7711 95.4453 48.4541L101.663 44.8662C102.255 44.5232 102.255 43.6659 101.663 43.323H101.66Z" fill="url(#paint2_linear_599_8515)"/>
<path d="M94.5524 57.1729V49.9971C94.5524 49.3598 94.2126 48.771 93.6623 48.4539L87.4447 44.8661C86.8523 44.5231 86.1079 44.9502 86.1079 45.636V53.3262C86.1079 53.6432 86.2762 53.9376 86.5546 54.0962L93.2189 57.9429C93.8112 58.2858 94.5557 57.8588 94.5557 57.1729H94.5524Z" fill="url(#paint3_linear_599_8515)"/>
<path d="M94.5522 57.1729V49.9972C94.5522 49.3599 94.8921 48.771 95.4456 48.4508L101.663 44.8629C102.256 44.5199 103 44.947 103 45.6329V53.323C103 53.6401 102.832 53.9345 102.553 54.093L95.889 57.9397C95.2967 58.2826 94.5522 57.8556 94.5522 57.1697V57.1729Z" fill="url(#paint4_linear_599_8515)"/>
<path d="M102.997 36.1892V27.9846C102.997 27.3473 102.657 26.7585 102.107 26.4414L95.4423 22.5947C94.8921 22.2777 94.2124 22.2777 93.6589 22.5947L86.9946 26.4414C86.4443 26.7585 86.1045 27.3473 86.1045 27.9814V36.1859C86.1045 36.503 86.2728 36.7974 86.5512 36.9559L93.6589 41.0582C94.2092 41.3753 94.8889 41.3753 95.4391 41.0582L102.547 36.9559C102.822 36.7974 102.994 36.503 102.994 36.1859L102.997 36.1892Z" fill="url(#paint5_linear_599_8515)"/>
<path d="M101.66 26.1859L95.4421 22.598C94.8918 22.281 94.2121 22.281 93.6619 22.598L87.4442 26.1859C86.8519 26.5288 86.8519 27.3862 87.4442 27.7291L93.6619 31.317C94.2154 31.634 94.8951 31.634 95.4453 31.317L101.663 27.7291C102.255 27.3862 102.255 26.5288 101.663 26.1859H101.66Z" fill="url(#paint6_linear_599_8515)"/>
<path d="M94.5524 40.0326V32.8569C94.5524 32.2195 94.2126 31.6307 93.6623 31.3137L87.4447 27.7258C86.8523 27.3829 86.1079 27.8099 86.1079 28.4958V36.1859C86.1079 36.503 86.2762 36.7974 86.5546 36.9559L93.2189 40.8026C93.8112 41.1455 94.5557 40.7185 94.5557 40.0326H94.5524Z" fill="url(#paint7_linear_599_8515)"/>
<path d="M94.5522 40.0327V32.8569C94.5522 32.2196 94.8921 31.6308 95.4456 31.3105L101.663 27.7226C102.256 27.3797 103 27.8067 103 28.4926V36.1828C103 36.4998 102.832 36.7942 102.553 36.9527L95.889 40.7994C95.2967 41.1424 94.5522 40.7153 94.5522 40.0294V40.0327Z" fill="url(#paint8_linear_599_8515)"/>
<path d="M71.889 53.3263V45.1217C71.889 44.4844 71.5492 43.8956 70.9989 43.5785L64.3346 39.7318C63.7844 39.4148 63.1047 39.4148 62.5512 39.7318L55.8869 43.5785C55.3399 43.8988 55 44.4844 55 45.1217V53.3263C55 53.6433 55.1683 53.9377 55.4467 54.0962L62.5544 58.1985C63.1047 58.5156 63.7844 58.5156 64.3346 58.1985L71.4424 54.0962C71.7175 53.9377 71.889 53.6433 71.889 53.3263Z" fill="url(#paint9_linear_599_8515)"/>
<path d="M70.5523 43.323L64.3347 39.7351C63.7844 39.4181 63.1047 39.4181 62.5545 39.7351L56.3368 43.323C55.7445 43.6659 55.7445 44.5232 56.3368 44.8662L62.5545 48.4541C63.108 48.7711 63.7877 48.7711 64.3379 48.4541L70.5556 44.8662C71.1479 44.5232 71.1479 43.6659 70.5556 43.323H70.5523Z" fill="url(#paint10_linear_599_8515)"/>
<path d="M63.4445 57.173V49.9973C63.4445 49.3599 63.1047 48.7711 62.5544 48.4541L56.3368 44.8662C55.7412 44.52 55 44.9503 55 45.6362V53.3263C55 53.6434 55.1683 53.9378 55.4467 54.0963L62.111 57.943C62.7033 58.2859 63.4478 57.8589 63.4478 57.173H63.4445Z" fill="url(#paint11_linear_599_8515)"/>
<path d="M63.4443 57.1729V49.9972C63.4443 49.3599 63.7842 48.771 64.3377 48.4508L70.5553 44.8629C71.1476 44.5199 71.8921 44.947 71.8921 45.6329V53.323C71.8921 53.6401 71.7238 53.9345 71.4454 54.093L64.7811 57.9397C64.1888 58.2826 63.4443 57.8556 63.4443 57.1697V57.1729Z" fill="url(#paint12_linear_599_8515)"/>
<path d="M71.889 36.1893V27.9847C71.889 27.3474 71.5492 26.7586 70.9989 26.4415L64.3346 22.5948C63.7844 22.2778 63.1047 22.2778 62.5512 22.5948L55.8869 26.4415C55.3399 26.7586 55 27.3474 55 27.9815V36.1861C55 36.5031 55.1683 36.7975 55.4467 36.956L62.5544 41.0583C63.1047 41.3754 63.7844 41.3754 64.3346 41.0583L71.4424 36.956C71.7175 36.7975 71.889 36.5031 71.889 36.1861V36.1893Z" fill="url(#paint13_linear_599_8515)"/>
<path d="M70.5523 26.186L64.3347 22.5981C63.7844 22.2811 63.1047 22.2811 62.5545 22.5981L56.3368 26.186C55.7445 26.5289 55.7445 27.3863 56.3368 27.7292L62.5545 31.3171C63.108 31.6341 63.7877 31.6341 64.3379 31.3171L70.5556 27.7292C71.1479 27.3863 71.1479 26.5289 70.5556 26.186H70.5523Z" fill="url(#paint14_linear_599_8515)"/>
<path d="M63.4445 40.0328V32.857C63.4445 32.2197 63.1047 31.6309 62.5544 31.3138L56.3368 27.7259C55.7412 27.383 55 27.8133 55 28.4991V36.1893C55 36.5064 55.1683 36.8008 55.4467 36.9593L62.111 40.806C62.7033 41.1489 63.4478 40.7219 63.4478 40.036L63.4445 40.0328Z" fill="url(#paint15_linear_599_8515)"/>
<path d="M63.4443 40.0328V32.8571C63.4443 32.2197 63.7842 31.6309 64.3377 31.3106L70.5553 27.7227C71.1476 27.3798 71.8921 27.8069 71.8921 28.4927V36.1829C71.8921 36.4999 71.7238 36.7943 71.4454 36.9529L64.7811 40.7996C64.1888 41.1425 63.4443 40.7154 63.4443 40.0296V40.0328Z" fill="url(#paint16_linear_599_8515)"/>
<path d="M86.9977 61.8932V53.6886C86.9977 53.0513 86.6579 52.4624 86.1076 52.1454L79.4433 48.2987C78.8931 47.9816 78.2134 47.9816 77.6599 48.2987L70.9956 52.1454C70.4453 52.4624 70.1055 53.0513 70.1055 53.6854V61.8899C70.1055 62.207 70.2738 62.5014 70.5521 62.6599L77.6599 66.7622C78.2101 67.0792 78.8898 67.0792 79.4401 66.7622L86.5478 62.6599C86.823 62.5014 86.9945 62.207 86.9945 61.8899L86.9977 61.8932Z" fill="url(#paint17_linear_599_8515)"/>
<path d="M85.6607 51.8899L79.4431 48.302C78.8928 47.9849 78.2131 47.9849 77.6629 48.302L71.4452 51.8899C70.8529 52.2328 70.8529 53.0901 71.4452 53.4331L77.6629 57.021C78.2164 57.338 78.8961 57.338 79.4463 57.021L85.664 53.4331C86.2563 53.0901 86.2563 52.2328 85.664 51.8899H85.6607Z" fill="url(#paint18_linear_599_8515)"/>
<path d="M78.5529 65.7399V58.5641C78.5529 57.9268 78.2131 57.338 77.6628 57.0209L71.4452 53.4331C70.8528 53.0901 70.1084 53.5172 70.1084 54.2031V61.8932C70.1084 62.2103 70.2767 62.5047 70.5551 62.6632L77.2194 66.5099C77.8117 66.8528 78.5561 66.4258 78.5561 65.7399H78.5529Z" fill="url(#paint19_linear_599_8515)"/>
<path d="M78.5532 65.7398V58.5641C78.5532 57.9267 78.8931 57.3379 79.4465 57.0176L85.6642 53.4298C86.2565 53.0868 87.001 53.5139 87.001 54.1998V61.8899C87.001 62.207 86.8327 62.5014 86.5543 62.6599L79.89 66.5066C79.2977 66.8495 78.5532 66.4225 78.5532 65.7366V65.7398Z" fill="url(#paint20_linear_599_8515)"/>
<path d="M86.9977 44.7561V36.5515C86.9977 35.9142 86.6579 35.3254 86.1076 35.0083L79.4433 31.1616C78.8931 30.8446 78.2134 30.8446 77.6599 31.1616L70.9956 35.0083C70.4453 35.3254 70.1055 35.9142 70.1055 36.5483V44.7528C70.1055 45.0699 70.2738 45.3643 70.5521 45.5228L77.6599 49.6251C78.2101 49.9421 78.8898 49.9421 79.4401 49.6251L86.5478 45.5228C86.823 45.3643 86.9945 45.0699 86.9945 44.7528L86.9977 44.7561Z" fill="url(#paint21_linear_599_8515)"/>
<path d="M85.6607 34.7528L79.4431 31.1649C78.8928 30.8479 78.2131 30.8479 77.6629 31.1649L71.4452 34.7528C70.8529 35.0957 70.8529 35.9531 71.4452 36.296L77.6629 39.8839C78.2164 40.2009 78.8961 40.2009 79.4463 39.8839L85.664 36.296C86.2563 35.9531 86.2563 35.0957 85.664 34.7528H85.6607Z" fill="url(#paint22_linear_599_8515)"/>
<path d="M78.5529 48.6028V41.4271C78.5529 40.7897 78.2131 40.2009 77.6628 39.8839L71.4452 36.296C70.8528 35.953 70.1084 36.3801 70.1084 37.066V44.7561C70.1084 45.0732 70.2767 45.3676 70.5551 45.5261L77.2194 49.3728C77.8117 49.7157 78.5561 49.2887 78.5561 48.6028H78.5529Z" fill="url(#paint23_linear_599_8515)"/>
<path d="M78.5532 48.6028V41.427C78.5532 40.7897 78.8931 40.2009 79.4465 39.8806L85.6642 36.2927C86.2565 35.9498 87.001 36.3768 87.001 37.0627V44.7528C87.001 45.0699 86.8327 45.3643 86.5543 45.5228L79.89 49.3695C79.2977 49.7124 78.5532 49.2854 78.5532 48.5995V48.6028Z" fill="url(#paint24_linear_599_8515)"/>
<path d="M76.1679 26.765L73.8861 25.4386C73.7792 25.3771 73.7113 25.2412 73.7113 25.0536L73.6789 13.5912C73.6789 13.4488 73.6271 13.3485 73.5494 13.3L75.8313 14.6264C75.9122 14.6717 75.9608 14.772 75.9608 14.9176L75.9931 26.38C75.9931 26.5709 76.0611 26.7036 76.1679 26.765ZM85.1853 5.25072C85.1853 5.25072 85.1788 5.24748 85.1756 5.24425L77.7992 1.04168C77.6859 0.976977 77.5338 0.986682 77.3752 1.07727C77.2134 1.17109 77.058 1.33609 76.9447 1.53667L69.6104 14.2285C69.3709 14.6361 69.3676 15.0761 69.6039 15.2152C69.6039 15.2152 69.6072 15.2152 69.6104 15.2185L71.8923 16.5449C71.8923 16.5449 71.889 16.5449 71.8858 16.5417C71.6527 16.4026 71.656 15.9626 71.8923 15.5549L79.2233 2.85988C79.3366 2.66253 79.492 2.49754 79.6538 2.40048C79.8124 2.30989 79.9645 2.30019 80.0778 2.36489L87.4575 6.56746C87.4575 6.56746 87.4639 6.5707 87.4672 6.57393L85.1853 5.24748V5.25072Z" fill="url(#paint25_linear_599_8515)"/>
<path d="M79.6538 2.40369C79.8124 2.3131 79.9646 2.30339 80.0778 2.3681L87.4575 6.57067C87.5772 6.63537 87.6452 6.78096 87.642 6.97507C87.6355 7.35683 87.3669 7.81623 87.04 8.00387L83.8292 9.85766C83.5799 10 83.3793 10.3494 83.3793 10.6341L83.4116 22.0965C83.4116 22.4783 83.1462 22.9442 82.8096 23.1383L76.5984 26.7229C76.265 26.917 75.9931 26.7618 75.9899 26.38L75.9575 14.9176C75.9575 14.6296 75.7569 14.5164 75.5044 14.6587L72.313 16.4996C72.1512 16.5934 71.9926 16.6096 71.8793 16.5384C71.6463 16.3993 71.6495 15.9593 71.8858 15.5517L79.2234 2.85985C79.3366 2.6625 79.492 2.49751 79.6538 2.40045V2.40369Z" fill="url(#paint26_linear_599_8515)"/>
<defs>
<filter id="filter0_f_599_8515" x="0" y="0" width="158" height="108" filterUnits="userSpaceOnUse" color-interpolation-filters="sRGB">
<feFlood flood-opacity="0" result="BackgroundImageFix"/>
<feBlend mode="normal" in="SourceGraphic" in2="BackgroundImageFix" result="shape"/>
<feGaussianBlur stdDeviation="17.5" result="effect1_foregroundBlur_599_8515"/>
</filter>
<linearGradient id="paint0_linear_599_8515" x1="42.5122" y1="62.9722" x2="80.3904" y2="16.5688" gradientUnits="userSpaceOnUse">
<stop stop-color="#5FF2DD"/>
<stop offset="0.09" stop-color="#5DE3DF"/>
<stop offset="0.38" stop-color="#5AB5E6"/>
<stop offset="0.64" stop-color="#5793EC"/>
<stop offset="0.86" stop-color="#557FEF"/>
<stop offset="1" stop-color="#5578F1"/>
</linearGradient>
<linearGradient id="paint1_linear_599_8515" x1="86.1077" y1="48.9652" x2="102.997" y2="48.9652" gradientUnits="userSpaceOnUse">
<stop stop-color="#3DF2E1"/>
<stop offset="1" stop-color="#5578F1"/>
</linearGradient>
<linearGradient id="paint2_linear_599_8515" x1="87.2436" y1="44.093" x2="101.657" y2="44.093" gradientUnits="userSpaceOnUse">
<stop stop-color="#1CE9A7"/>
<stop offset="1" stop-color="#7590FF"/>
</linearGradient>
<linearGradient id="paint3_linear_599_8515" x1="85.972" y1="53.9247" x2="93.8224" y2="49.3794" gradientUnits="userSpaceOnUse">
<stop stop-color="#15F981"/>
<stop offset="1" stop-color="#55F4F3"/>
</linearGradient>
<linearGradient id="paint4_linear_599_8515" x1="95.0345" y1="57.697" x2="102.092" y2="46.0603" gradientUnits="userSpaceOnUse">
<stop stop-color="#5FF2DD"/>
<stop offset="0.09" stop-color="#5DE3DF"/>
<stop offset="0.38" stop-color="#5AB5E6"/>
<stop offset="0.64" stop-color="#5793EC"/>
<stop offset="0.86" stop-color="#557FEF"/>
<stop offset="1" stop-color="#5578F1"/>
</linearGradient>
<linearGradient id="paint5_linear_599_8515" x1="54.9999" y1="31.8281" x2="55.3236" y2="31.8281" gradientUnits="userSpaceOnUse">
<stop stop-color="#3DF2E1"/>
<stop offset="1" stop-color="#5578F1"/>
</linearGradient>
<linearGradient id="paint6_linear_599_8515" x1="54.9997" y1="26.9559" x2="55.3234" y2="26.9559" gradientUnits="userSpaceOnUse">
<stop stop-color="#1CE9A7"/>
<stop offset="1" stop-color="#7590FF"/>
</linearGradient>
<linearGradient id="paint7_linear_599_8515" x1="85.972" y1="36.7877" x2="93.8224" y2="32.2424" gradientUnits="userSpaceOnUse">
<stop stop-color="#15F981"/>
<stop offset="1" stop-color="#55F4F3"/>
</linearGradient>
<linearGradient id="paint8_linear_599_8515" x1="95.0345" y1="40.56" x2="102.092" y2="28.9201" gradientUnits="userSpaceOnUse">
<stop stop-color="#5FF2DD"/>
<stop offset="0.09" stop-color="#5DE3DF"/>
<stop offset="0.38" stop-color="#5AB5E6"/>
<stop offset="0.64" stop-color="#5793EC"/>
<stop offset="0.86" stop-color="#557FEF"/>
<stop offset="1" stop-color="#5578F1"/>
</linearGradient>
<linearGradient id="paint9_linear_599_8515" x1="55" y1="0.999591" x2="71.889" y2="0.999591" gradientUnits="userSpaceOnUse">
<stop stop-color="#3DF2E1"/>
<stop offset="1" stop-color="#5578F1"/>
</linearGradient>
<linearGradient id="paint10_linear_599_8515" x1="56.1361" y1="0.999673" x2="70.5491" y2="0.999673" gradientUnits="userSpaceOnUse">
<stop stop-color="#1CE9A7"/>
<stop offset="1" stop-color="#7590FF"/>
</linearGradient>
<linearGradient id="paint11_linear_599_8515" x1="54.8641" y1="53.9248" x2="62.7145" y2="49.3795" gradientUnits="userSpaceOnUse">
<stop stop-color="#15F981"/>
<stop offset="1" stop-color="#55F4F3"/>
</linearGradient>
<linearGradient id="paint12_linear_599_8515" x1="63.9266" y1="57.697" x2="70.9844" y2="46.0603" gradientUnits="userSpaceOnUse">
<stop stop-color="#5FF2DD"/>
<stop offset="0.09" stop-color="#5DE3DF"/>
<stop offset="0.38" stop-color="#5AB5E6"/>
<stop offset="0.64" stop-color="#5793EC"/>
<stop offset="0.86" stop-color="#557FEF"/>
<stop offset="1" stop-color="#5578F1"/>
</linearGradient>
<linearGradient id="paint13_linear_599_8515" x1="55" y1="31.8282" x2="71.889" y2="31.8282" gradientUnits="userSpaceOnUse">
<stop stop-color="#3DF2E1"/>
<stop offset="1" stop-color="#5578F1"/>
</linearGradient>
<linearGradient id="paint14_linear_599_8515" x1="56.1361" y1="26.956" x2="70.5491" y2="26.956" gradientUnits="userSpaceOnUse">
<stop stop-color="#1CE9A7"/>
<stop offset="1" stop-color="#7590FF"/>
</linearGradient>
<linearGradient id="paint15_linear_599_8515" x1="54.8641" y1="36.7878" x2="62.7145" y2="32.2425" gradientUnits="userSpaceOnUse">
<stop stop-color="#15F981"/>
<stop offset="1" stop-color="#55F4F3"/>
</linearGradient>
<linearGradient id="paint16_linear_599_8515" x1="63.9266" y1="40.5601" x2="70.9844" y2="28.9202" gradientUnits="userSpaceOnUse">
<stop stop-color="#5FF2DD"/>
<stop offset="0.09" stop-color="#5DE3DF"/>
<stop offset="0.38" stop-color="#5AB5E6"/>
<stop offset="0.64" stop-color="#5793EC"/>
<stop offset="0.86" stop-color="#557FEF"/>
<stop offset="1" stop-color="#5578F1"/>
</linearGradient>
<linearGradient id="paint17_linear_599_8515" x1="70.1087" y1="57.5353" x2="86.9977" y2="57.5353" gradientUnits="userSpaceOnUse">
<stop stop-color="#3DF2E1"/>
<stop offset="1" stop-color="#5578F1"/>
</linearGradient>
<linearGradient id="paint18_linear_599_8515" x1="71.2445" y1="52.6631" x2="85.6575" y2="52.6631" gradientUnits="userSpaceOnUse">
<stop stop-color="#1CE9A7"/>
<stop offset="1" stop-color="#7590FF"/>
</linearGradient>
<linearGradient id="paint19_linear_599_8515" x1="69.9725" y1="62.495" x2="77.8229" y2="57.9464" gradientUnits="userSpaceOnUse">
<stop stop-color="#15F981"/>
<stop offset="1" stop-color="#55F4F3"/>
</linearGradient>
<linearGradient id="paint20_linear_599_8515" x1="79.0355" y1="66.2672" x2="86.0933" y2="54.6272" gradientUnits="userSpaceOnUse">
<stop stop-color="#5FF2DD"/>
<stop offset="0.09" stop-color="#5DE3DF"/>
<stop offset="0.38" stop-color="#5AB5E6"/>
<stop offset="0.64" stop-color="#5793EC"/>
<stop offset="0.86" stop-color="#557FEF"/>
<stop offset="1" stop-color="#5578F1"/>
</linearGradient>
<linearGradient id="paint21_linear_599_8515" x1="70.1087" y1="40.3982" x2="86.9977" y2="40.3982" gradientUnits="userSpaceOnUse">
<stop stop-color="#3DF2E1"/>
<stop offset="1" stop-color="#5578F1"/>
</linearGradient>
<linearGradient id="paint22_linear_599_8515" x1="71.2445" y1="35.5228" x2="85.6575" y2="35.5228" gradientUnits="userSpaceOnUse">
<stop stop-color="#1CE9A7"/>
<stop offset="1" stop-color="#7590FF"/>
</linearGradient>
<linearGradient id="paint23_linear_599_8515" x1="69.9725" y1="45.3579" x2="77.8229" y2="40.8093" gradientUnits="userSpaceOnUse">
<stop stop-color="#15F981"/>
<stop offset="1" stop-color="#55F4F3"/>
</linearGradient>
<linearGradient id="paint24_linear_599_8515" x1="79.0355" y1="49.1301" x2="86.0933" y2="37.4901" gradientUnits="userSpaceOnUse">
<stop stop-color="#5FF2DD"/>
<stop offset="0.09" stop-color="#5DE3DF"/>
<stop offset="0.38" stop-color="#5AB5E6"/>
<stop offset="0.64" stop-color="#5793EC"/>
<stop offset="0.86" stop-color="#557FEF"/>
<stop offset="1" stop-color="#5578F1"/>
</linearGradient>
<linearGradient id="paint25_linear_599_8515" x1="78.4465" y1="26.4156" x2="78.4465" y2="5.89453" gradientUnits="userSpaceOnUse">
<stop stop-color="#15F981"/>
<stop offset="1" stop-color="#55F4F3"/>
</linearGradient>
<linearGradient id="paint26_linear_599_8515" x1="76.4851" y1="23.0251" x2="82.62" y2="0.956114" gradientUnits="userSpaceOnUse">
<stop stop-color="#5FF2DD"/>
<stop offset="0.09" stop-color="#5DE3DF"/>
<stop offset="0.38" stop-color="#5AB5E6"/>
<stop offset="0.64" stop-color="#5793EC"/>
<stop offset="0.86" stop-color="#557FEF"/>
<stop offset="1" stop-color="#5578F1"/>
</linearGradient>
</defs>
</svg>
