<svg width="158" height="108" viewBox="0 0 158 108" fill="none" xmlns="http://www.w3.org/2000/svg">
<path d="M82.0038 65.8309L81.5675 65.5779C81.1926 65.3642 80.7507 65.2011 80.2863 65.1055C80.1744 65.0774 80.0626 65.0605 79.9451 65.0436C80.0066 65.0999 80.057 65.1617 80.0905 65.2236C80.1856 65.2405 80.2751 65.2629 80.3703 65.2798C80.7451 65.3698 81.0919 65.5048 81.394 65.6791L82.2164 66.1571C82.1269 66.0559 82.0542 65.9434 82.0038 65.8309ZM93.825 73.0683C93.7747 72.9614 93.7075 72.8546 93.6236 72.7534C93.4558 72.5397 93.2208 72.3485 92.9243 72.1741L82.4178 66.0727L82.0038 65.8365L81.5675 65.5835C81.1926 65.3698 80.7507 65.2067 80.2863 65.1111C80.1744 65.083 80.0626 65.0661 79.9451 65.0493C79.2514 64.948 78.5129 64.9762 77.8415 65.128C77.7297 65.1505 77.629 65.1786 77.5171 65.2123C77.2038 65.3023 76.9073 65.426 76.6387 65.5835L76.1072 65.8928L75.6541 66.1571L65.3602 72.1685C65.1197 72.3091 64.9239 72.4609 64.7672 72.6296C64.6609 72.7477 64.5714 72.8602 64.5099 72.9895C64.2301 73.5069 64.3141 74.0805 64.7728 74.5641C64.8176 74.6147 64.8679 74.6653 64.9239 74.7159C65.0525 74.834 65.2036 74.9409 65.377 75.0421L76.7282 81.6327C78.0933 82.42 80.3031 82.42 81.657 81.6327L92.9411 75.0421C93.1089 74.9465 93.2488 74.8453 93.3774 74.7328C93.4334 74.6878 93.4837 74.6372 93.5285 74.581C93.9649 74.1198 94.06 73.5744 93.8194 73.0739L93.825 73.0683ZM93.3774 74.4291C93.3383 74.4854 93.2879 74.5304 93.2376 74.5753C93.1033 74.7103 92.9467 74.8284 92.762 74.9352L81.478 81.5259C80.2248 82.2569 78.1772 82.2569 76.9073 81.5259L65.556 74.9352C65.3602 74.8228 65.198 74.7047 65.0637 74.5697C65.0078 74.5191 64.963 74.4685 64.9239 74.4179C64.4763 73.8837 64.4987 73.2482 64.9798 72.7196C65.1253 72.5622 65.3099 72.4103 65.5448 72.2754L75.8499 66.2527L76.8233 65.6847C77.0192 65.5666 77.2429 65.471 77.4779 65.3923C77.5674 65.3585 77.6513 65.3304 77.7408 65.3079C78.4793 65.1111 79.3185 65.0774 80.0905 65.2236C80.1856 65.2405 80.2751 65.2629 80.3703 65.2798C80.7451 65.3698 81.0919 65.5048 81.394 65.6791L82.2164 66.1571L92.7509 72.2697C93.0306 72.4328 93.2544 72.6184 93.4054 72.8208C93.8082 73.3269 93.797 73.9174 93.383 74.4235L93.3774 74.4291Z" fill="#292929"/>
<path d="M80.4152 42.7918C80.404 42.5838 80.2586 42.3813 79.99 42.2239C79.4194 41.8977 78.4907 41.8977 77.9257 42.2239C77.6403 42.3926 77.5005 42.6119 77.5005 42.8312C77.5005 42.8874 77.5117 42.9437 77.5341 42.9999C77.59 43.1574 77.7243 43.3092 77.9313 43.4273C78.5019 43.7534 79.4306 43.7534 79.9956 43.4273C80.225 43.2923 80.3593 43.1292 80.404 42.9549C80.4152 42.8987 80.4264 42.8424 80.4152 42.7862V42.7918ZM79.8166 43.3261C79.3467 43.6016 78.5802 43.6016 78.1103 43.3261C77.976 43.253 77.8809 43.1574 77.8306 43.0618C77.7914 43.0055 77.7746 42.9549 77.7578 42.8931C77.7243 42.6962 77.8362 42.4769 78.1047 42.3251C78.5746 42.0495 79.3411 42.0495 79.811 42.3251C80.0628 42.4713 80.1802 42.6681 80.1635 42.8593C80.1635 42.9155 80.1467 42.9718 80.1187 43.028C80.0628 43.1349 79.9677 43.2361 79.8166 43.3204V43.3261Z" fill="#292929"/>
<path d="M82.3397 41.9933L81.8809 42.2576C81.6012 42.7749 81.6907 43.3485 82.1439 43.8265C82.1886 43.7759 82.239 43.7253 82.2949 43.6747C81.8529 43.1404 81.8697 42.5106 82.3397 41.9876V41.9933ZM110.295 41.4365L98.9385 34.8459C97.7357 34.1486 95.8671 34.0699 94.5133 34.6097C94.3343 34.6772 94.172 34.7559 94.0154 34.8459L93.4839 35.1552L93.0307 35.4195L91.565 36.2742L82.7369 41.4309C82.4963 41.5715 82.3005 41.7233 82.1495 41.892C82.0376 42.0101 81.9536 42.1282 81.8865 42.2519C81.6068 42.7693 81.6963 43.3429 82.1495 43.8209C82.1942 43.8771 82.2446 43.9221 82.3005 43.9727C82.4292 44.0908 82.5802 44.1976 82.7537 44.2989L84.6166 45.3786L85.7803 46.0534L94.1105 50.8895C95.4699 51.6768 97.6798 51.6768 99.0336 50.8895L110.318 44.2989C110.486 44.1976 110.631 44.0964 110.754 43.9896C110.81 43.939 110.855 43.8884 110.905 43.8377C111.627 43.0673 111.42 42.0832 110.301 41.4309L110.295 41.4365ZM110.748 43.6915C110.709 43.7478 110.659 43.7928 110.614 43.8434C110.48 43.9727 110.323 44.0908 110.139 44.2033L98.8546 50.7939C97.5958 51.525 95.5483 51.525 94.2839 50.7939L85.881 45.9184L84.7173 45.2436L82.9271 44.2033C82.7313 44.0908 82.569 43.9671 82.4348 43.8321C82.3788 43.7871 82.3341 43.7309 82.2949 43.6803C81.8529 43.1461 81.8697 42.5162 82.3397 41.9933C82.4851 41.8246 82.6753 41.6784 82.9047 41.5378L91.2629 36.6566L93.2098 35.5207L94.1832 34.9527C94.2168 34.9302 94.2503 34.9134 94.2839 34.8965C95.5427 34.2217 97.5175 34.2329 98.7483 34.9527L110.105 41.5434C111.112 42.1226 111.319 42.9999 110.732 43.6972L110.748 43.6915Z" fill="#292929"/>
<path d="M75.8556 42.6624C75.9171 43.0055 75.8164 43.3541 75.5535 43.669C75.5143 43.7253 75.464 43.7703 75.4136 43.8209C75.2793 43.9558 75.1227 44.0739 74.9381 44.1808L72.6611 45.5079V45.7103L75.1171 44.2764C75.2849 44.1751 75.4304 44.0739 75.5535 43.9671C75.6094 43.9165 75.6542 43.8715 75.7045 43.8152C75.9954 43.5116 76.1409 43.1629 76.1241 42.8199L75.8556 42.6624ZM76.001 42.3138C75.9507 42.2013 75.8835 42.0945 75.794 41.9876C75.6262 41.7796 75.3968 41.5827 75.1003 41.414L73.4443 40.4524L68.8401 37.7813L67.6764 37.1065L64.5883 35.3126L64.1743 35.0708L63.7379 34.8178C62.3784 34.0305 60.163 34.0305 58.8147 34.8178L47.5307 41.4084C46.4229 42.0551 46.2271 43.0336 46.9432 43.7984C46.988 43.8546 47.0383 43.8996 47.0943 43.9502C47.223 44.0683 47.374 44.1808 47.5474 44.2764L58.0595 50.3722L58.9043 50.8614C59.0553 50.9514 59.212 51.0245 59.3798 51.092C60.7337 51.6487 62.619 51.5699 63.8218 50.8614L66.8205 49.1125L72.6499 45.7047L75.1059 44.2707C75.2737 44.1695 75.4192 44.0683 75.5423 43.9614C75.5982 43.9108 75.643 43.8659 75.6933 43.8096C75.9842 43.506 76.1297 43.1573 76.1129 42.8143C76.1129 42.6456 76.0738 42.4712 75.9898 42.3082L76.001 42.3138ZM75.5535 43.669C75.5143 43.7253 75.464 43.7703 75.4136 43.8209C75.2793 43.9558 75.1227 44.0739 74.9381 44.1808L72.6611 45.5079L67.1114 48.747L63.654 50.7658C62.4903 51.4406 60.6385 51.4912 59.3686 50.9064C59.2679 50.867 59.1784 50.8164 59.0889 50.7658L58.1098 50.1978L47.7377 44.1751C47.5418 44.0627 47.3796 43.939 47.2453 43.804C47.1894 43.759 47.1446 43.7028 47.1055 43.6522C46.5292 42.9549 46.7306 42.0945 47.7209 41.5153L59.005 34.9246C60.2581 34.1879 62.3057 34.1879 63.5757 34.9246L64.3981 35.4026L67.5757 37.2471L68.7394 37.9219L73.3436 40.5874L74.9325 41.5096C75.2122 41.6727 75.4304 41.8583 75.587 42.0607C75.7381 42.2463 75.8332 42.4487 75.8668 42.6568C75.9283 42.9998 75.8276 43.3485 75.5647 43.6634L75.5535 43.669Z" fill="#292929"/>
<path d="M97.7244 52.5203C97.1538 52.1885 96.2251 52.1885 95.6545 52.5203C95.3747 52.6778 95.2349 52.8971 95.2349 53.1052C95.2349 53.1614 95.2405 53.2176 95.2572 53.2739C95.3076 53.4369 95.4419 53.6 95.66 53.7237C96.2307 54.0499 97.1594 54.0499 97.7244 53.7237C97.9706 53.5775 98.1104 53.3976 98.144 53.2064C98.1552 53.1501 98.1552 53.0939 98.144 53.0377C98.1104 52.8521 97.9706 52.6665 97.7244 52.5203ZM97.551 53.6169C97.081 53.8924 96.3146 53.8924 95.8447 53.6169C95.6992 53.5325 95.5985 53.4313 95.5426 53.3301C95.5146 53.2739 95.4922 53.2232 95.4866 53.1614C95.4642 52.9646 95.5761 52.7678 95.8335 52.6159C96.3034 52.3404 97.0699 52.3404 97.5454 52.6159C97.7748 52.7509 97.8922 52.9252 97.9034 53.0995C97.9034 53.1558 97.8978 53.212 97.8755 53.2682C97.8307 53.392 97.7244 53.5157 97.551 53.6113V53.6169Z" fill="#292929"/>
<path d="M62.4399 53.1445C62.4399 53.1445 62.4175 53.1501 62.4119 53.1445C62.4119 53.1951 62.4119 53.2457 62.4063 53.3019C62.4846 53.2907 62.5629 53.2738 62.6413 53.257L62.4455 53.1389L62.4399 53.1445ZM62.6469 53.0995C62.6133 52.9139 62.4734 52.7396 62.2329 52.599C61.9252 52.4191 61.5 52.3347 61.0972 52.3572C60.7559 52.3684 60.4314 52.4472 60.1685 52.599C59.9727 52.7171 59.8384 52.8577 59.7825 53.0095C59.7601 53.0489 59.7545 53.0826 59.7489 53.122C59.7489 53.1389 59.7489 53.1501 59.7489 53.167C59.7321 53.3975 59.872 53.6225 60.1741 53.7968C60.493 53.9824 60.9182 54.0611 61.3321 54.0442C61.6678 54.0274 61.9923 53.9486 62.244 53.7968C62.4958 53.6506 62.6357 53.4594 62.658 53.2626C62.658 53.2626 62.658 53.257 62.658 53.2513C62.6636 53.1951 62.658 53.1501 62.6469 53.0939V53.0995ZM62.065 53.7012C61.7965 53.8587 61.4329 53.9261 61.0748 53.898C60.8119 53.8868 60.5545 53.8193 60.3531 53.7012C60.1517 53.5831 60.0286 53.4257 60.0007 53.2682V53.2345C59.9951 53.1838 60.0007 53.1332 60.0118 53.077C60.051 52.942 60.1629 52.8127 60.3475 52.7002C60.6216 52.5428 60.9909 52.4697 61.3545 52.5034C61.6119 52.5203 61.858 52.5821 62.0594 52.7002C62.2608 52.8183 62.3839 52.9645 62.4119 53.122C62.4119 53.122 62.4119 53.1332 62.4119 53.1445C62.4119 53.1951 62.4119 53.2457 62.4063 53.3019C62.3671 53.4481 62.2552 53.5831 62.065 53.6956V53.7012Z" fill="#292929"/>
<path d="M100.013 52.2504L99.5543 52.5147C99.2745 53.0321 99.364 53.6057 99.8172 54.0836C99.862 54.033 99.9123 53.9824 99.9683 53.9318C99.5263 53.3976 99.5431 52.7678 100.013 52.2448V52.2504ZM127.969 51.6937L116.612 45.103C115.252 44.3158 113.037 44.3158 111.689 45.103L111.163 45.4123L110.71 45.6766L100.41 51.6881C100.17 51.8287 99.9738 51.9805 99.8228 52.1492C99.7109 52.2673 99.627 52.3854 99.5599 52.5091C99.2801 53.0264 99.3696 53.6 99.8228 54.078C99.8675 54.1343 99.9179 54.1792 99.9738 54.2299C100.103 54.3479 100.254 54.4548 100.427 54.556L111.784 61.1467C113.143 61.934 115.359 61.934 116.707 61.1467L127.991 54.556C128.159 54.4548 128.304 54.3536 128.427 54.2467C128.483 54.1961 128.528 54.1455 128.578 54.0949C129.3 53.3245 129.093 52.3404 127.974 51.6881L127.969 51.6937ZM128.422 53.9487C128.383 54.0049 128.332 54.0499 128.288 54.1005C128.153 54.2299 127.997 54.3479 127.812 54.4604L116.528 61.0511C115.269 61.7821 113.222 61.7821 111.957 61.0511L100.6 54.4604C100.405 54.3479 100.242 54.2299 100.108 54.0893C100.052 54.0443 100.007 53.9937 99.9683 53.9374C99.5263 53.4032 99.5431 52.7734 100.013 52.2504C100.158 52.0817 100.349 51.9355 100.578 51.7949L110.894 45.7666L111.862 45.1986C113.121 44.4676 115.168 44.4676 116.433 45.1986L127.784 51.7893C128.791 52.3685 128.998 53.2458 128.411 53.9431L128.422 53.9487Z" fill="#292929"/>
<path d="M93.6743 52.5709C93.624 52.4584 93.5569 52.346 93.4618 52.2448C93.2939 52.0367 93.0701 51.8455 92.7736 51.6768L91.0282 50.6646L88.0127 48.9157L84.9525 47.1387L83.7889 46.4639L82.2616 45.581L81.8476 45.3392L81.4112 45.0861C81.1091 44.9118 80.7679 44.7768 80.4042 44.6812C80.3147 44.6588 80.2252 44.6363 80.1357 44.6138C79.3748 44.4507 78.5301 44.4507 77.7692 44.6138C77.6797 44.6363 77.5846 44.6531 77.5007 44.6756C77.4056 44.6981 77.3161 44.7319 77.2265 44.76C76.958 44.8499 76.7119 44.9568 76.4825 45.0861L75.951 45.3954L75.4867 45.6653L73.1202 47.0431L72.6502 47.3243L65.1984 51.6768C64.9634 51.8118 64.7676 51.9692 64.6166 52.1323C64.5047 52.2504 64.4208 52.3685 64.3536 52.4922C64.0739 53.0095 64.1578 53.5831 64.6166 54.0667C64.6613 54.123 64.7117 54.168 64.7676 54.2186C64.8963 54.3367 65.0473 54.4435 65.2208 54.5447L66.0208 55.0115L67.5649 55.9112L74.6922 60.0444L76.5776 61.1354C77.937 61.9227 80.1469 61.9227 81.5007 61.1354L92.7848 54.5447C92.9527 54.4435 93.0981 54.3423 93.2212 54.2354C93.2771 54.1848 93.3219 54.1342 93.3722 54.0836C93.8086 53.6225 93.9037 53.077 93.6632 52.5765L93.6743 52.5709ZM93.2268 53.9318C93.1876 53.988 93.1373 54.033 93.0869 54.078C92.9527 54.213 92.796 54.331 92.6114 54.4379L81.3329 61.0285C80.0741 61.7596 78.0266 61.7596 76.7622 61.0285L74.8825 59.9376L67.7551 55.7988L66.1774 54.8821L65.4054 54.4323C65.2375 54.3367 65.0921 54.2298 64.969 54.123C64.9466 54.1005 64.9299 54.0836 64.9131 54.0667C64.8627 54.0218 64.8124 53.9711 64.7788 53.9149C64.3312 53.3807 64.348 52.7452 64.8292 52.2166C64.9746 52.0592 65.1592 51.9074 65.3886 51.7724L72.4153 47.6729L72.6614 47.5267L75.6937 45.7497L76.6671 45.1817C76.8405 45.0805 77.0307 44.9905 77.2321 44.9174C77.3216 44.8837 77.4112 44.8556 77.5063 44.8275C77.5846 44.805 77.6685 44.7825 77.7524 44.76C78.5245 44.58 79.3916 44.58 80.1692 44.76C80.2532 44.7825 80.3371 44.7993 80.4154 44.8275C80.7119 44.9118 80.9916 45.0243 81.2434 45.1705L82.0658 45.6485L83.6826 46.5876L84.8462 47.2624L87.0057 48.5164L91.017 50.8445L92.6002 51.7611C92.8799 51.9242 93.0981 52.1098 93.2548 52.3122C93.6576 52.8183 93.652 53.4144 93.2324 53.9149L93.2268 53.9318Z" fill="#292929"/>
<path d="M58.4736 52.554C58.4233 52.4415 58.3561 52.3291 58.261 52.2278C58.0988 52.0198 57.8694 51.8286 57.5729 51.6599L47.0664 45.5585L46.6524 45.3223L46.2161 45.0692C44.851 44.2819 42.6412 44.2819 41.2929 45.0692L30.0144 51.6543C28.9011 52.3009 28.7053 53.2794 29.4214 54.0498C29.4662 54.1004 29.5221 54.1511 29.5725 54.2017C29.7011 54.3198 29.8522 54.4266 30.0256 54.5278L41.3768 61.1129C42.7419 61.9058 44.9517 61.9058 46.3 61.1129L57.5841 54.5222C57.7519 54.421 57.8974 54.3198 58.0205 54.2129C58.0764 54.1623 58.1212 54.1117 58.1715 54.0611C58.6079 53.6 58.703 53.0545 58.4624 52.554H58.4736ZM58.0316 53.9092C57.9925 53.9655 57.9421 54.0161 57.8918 54.0611C57.7575 54.196 57.6009 54.3141 57.4162 54.421L46.1322 61.006C44.879 61.7427 42.8314 61.7427 41.5615 61.006L30.2102 54.4154C30.0144 54.3029 29.8522 54.1792 29.7179 54.0442C29.662 53.9992 29.6172 53.943 29.5781 53.8924C29.0018 53.1951 29.2032 52.3347 30.1935 51.7555L41.4775 45.1648C42.7307 44.4281 44.7783 44.4281 46.0482 45.1648L46.8706 45.6428L57.3995 51.7555C57.6792 51.9186 57.903 52.1041 58.0596 52.3066C58.4624 52.8127 58.4568 53.4031 58.0372 53.9092H58.0316Z" fill="#292929"/>
<path d="M80.3702 63.3454C80.3255 63.1767 80.1856 63.0192 79.9674 62.8899C79.3968 62.5637 78.4681 62.5637 77.9031 62.8899C77.7073 63.008 77.5786 63.1429 77.5171 63.2891C77.4947 63.3398 77.4835 63.3904 77.4779 63.441C77.4555 63.6715 77.5954 63.9133 77.9031 64.0933C78.4737 64.4195 79.4024 64.4195 79.9674 64.0933C80.2528 63.9246 80.3926 63.7165 80.3926 63.4972C80.3926 63.441 80.387 63.396 80.3702 63.3454ZM79.794 63.9921C79.3241 64.2676 78.5576 64.2676 78.0877 63.9921C77.8639 63.8627 77.7464 63.6884 77.7296 63.5141C77.7296 63.4635 77.7296 63.4129 77.752 63.3566C77.7968 63.2217 77.9031 63.0979 78.0821 62.9967C78.552 62.7212 79.3185 62.7212 79.7884 62.9967C79.9842 63.1092 80.0961 63.2554 80.1297 63.4016C80.1409 63.4522 80.1465 63.5028 80.1353 63.5534C80.1129 63.7109 80.001 63.8684 79.7884 63.9921H79.794Z" fill="#292929"/>
<path d="M99.526 55.5907L99.0896 55.3433C98.8043 55.1746 98.4798 55.0509 98.1386 54.9553C98.0491 54.9328 97.9539 54.9046 97.8588 54.8878C97.1092 54.7191 96.2812 54.7078 95.5203 54.8597C95.4308 54.8765 95.3357 54.899 95.2462 54.9159C94.849 55.0171 94.4798 55.1577 94.1609 55.3433L93.635 55.6526L93.1707 55.9225L82.8768 61.9339C82.6362 62.0745 82.4404 62.2263 82.2894 62.395C82.1775 62.5131 82.0936 62.6312 82.0264 62.7549C81.7467 63.2723 81.8362 63.8459 82.2894 64.3239C82.3341 64.2733 82.3845 64.2227 82.4404 64.1721C81.9985 63.6378 82.0152 63.008 82.4852 62.485C82.6306 62.3163 82.8208 62.1701 83.0502 62.0295L93.3665 56.0012L94.3343 55.4332C94.5972 55.2814 94.8994 55.1521 95.2294 55.0677C95.3077 55.0452 95.3917 55.0227 95.4756 55.0059C96.2532 54.8372 97.126 54.8428 97.8924 55.0396C97.9763 55.0565 98.0602 55.079 98.1386 55.1071C98.4183 55.1914 98.6756 55.3039 98.905 55.4332L99.7218 55.9056C99.6323 55.8044 99.5652 55.6919 99.5204 55.5795L99.526 55.5907ZM111.347 62.8281C111.297 62.7212 111.23 62.6144 111.14 62.5075C110.972 62.2995 110.743 62.1026 110.446 61.9283L99.94 55.8325L99.526 55.5851L99.0896 55.3376C98.8043 55.1689 98.4798 55.0452 98.1386 54.9496C98.0491 54.9271 97.9539 54.899 97.8588 54.8821C97.1092 54.7134 96.2812 54.7022 95.5203 54.854C95.4308 54.8709 95.3357 54.8934 95.2462 54.9103C94.849 55.0115 94.4798 55.1521 94.1609 55.3376L93.635 55.6469L93.1707 55.9169L82.8768 61.9283C82.6362 62.0689 82.4404 62.2207 82.2894 62.3894C82.1775 62.5075 82.0936 62.6256 82.0264 62.7493C81.7467 63.2667 81.8362 63.8403 82.2894 64.3183C82.3341 64.3745 82.3845 64.4195 82.4404 64.4701C82.5691 64.5882 82.7201 64.695 82.8936 64.7963L94.2504 71.3869C95.6099 72.1742 97.8197 72.1742 99.1735 71.3869L110.458 64.7963C110.625 64.7007 110.771 64.5994 110.894 64.487C110.95 64.442 110.995 64.3914 111.045 64.3351C111.481 63.874 111.577 63.3285 111.336 62.8281H111.347ZM110.9 64.1889C110.86 64.2395 110.816 64.2901 110.765 64.3408C110.637 64.4701 110.474 64.5882 110.284 64.7007L99.0001 71.2913C97.7469 72.0224 95.6994 72.0224 94.4294 71.2913L83.0782 64.7007C82.8824 64.5882 82.7201 64.4701 82.5859 64.3351C82.5299 64.2845 82.4852 64.2339 82.446 64.1833C82.004 63.6491 82.0208 63.0192 82.4908 62.4963C82.6362 62.3276 82.8264 62.1814 83.0558 62.0408L93.3721 56.0125L94.3399 55.4445C94.6028 55.2927 94.9049 55.1633 95.235 55.079C95.3133 55.0565 95.3973 55.034 95.4812 55.0171C96.2588 54.8484 97.1316 54.854 97.898 55.0509C97.9819 55.0677 98.0658 55.0902 98.1442 55.1183C98.4239 55.2027 98.6812 55.3152 98.9106 55.4445L99.7274 55.9169L110.273 62.0351C110.558 62.2039 110.777 62.3894 110.928 62.5862C111.33 63.0924 111.325 63.6828 110.905 64.1889H110.9Z" fill="#292929"/>
<path d="M76.152 62.8056C76.1016 62.6931 76.0345 62.5806 75.9394 62.4794L73.1645 60.8711L73.3156 60.7867L66.1882 56.6479L64.7392 55.81L64.37 55.5963L64.3308 55.5738L63.8944 55.3208C63.5588 55.124 63.1728 54.9777 62.7644 54.8821C62.7028 54.8653 62.6413 54.854 62.5741 54.8428C62.4734 54.8203 62.3616 54.8034 62.2553 54.7866C62.3112 54.8428 62.3504 54.899 62.3783 54.9609C62.4678 54.9777 62.563 54.9946 62.6469 55.0171C62.9378 55.0846 63.2063 55.1746 63.4637 55.2983H63.4749C63.514 55.3208 63.5476 55.3376 63.5812 55.3601C63.5923 55.3658 63.6035 55.377 63.6203 55.3826C63.6539 55.3995 63.6874 55.4164 63.7154 55.4332L64.5378 55.9112L66.0036 56.7604L73.1365 60.8992L75.0778 62.0239C75.3576 62.187 75.5757 62.3726 75.7324 62.575C76.1352 63.0811 76.1296 63.6772 75.71 64.1777C75.766 64.2227 75.8163 64.2733 75.8611 64.3239C76.2974 63.8628 76.3925 63.3173 76.152 62.8168V62.8056ZM76.152 62.8056C76.1016 62.6931 76.0345 62.5806 75.9394 62.4794C75.7715 62.2713 75.5422 62.0801 75.2513 61.9114L73.3212 60.7867L66.1938 56.6479L64.7448 55.81L64.3756 55.5963L64.3364 55.5738L63.9 55.3208C63.5644 55.124 63.1783 54.9777 62.7699 54.8821C62.7084 54.8653 62.6469 54.854 62.5797 54.8428C62.479 54.8203 62.3671 54.8034 62.2608 54.7866C61.5392 54.6853 60.7727 54.7191 60.079 54.8878C59.9783 54.9103 59.8776 54.9384 59.7825 54.9721C59.4916 55.0621 59.223 55.1802 58.9825 55.3208L58.451 55.6301L57.9867 55.9L47.6984 61.9114C47.4634 62.0464 47.2676 62.2039 47.1166 62.3669C47.0047 62.485 46.9208 62.6031 46.8536 62.7268C46.5739 63.2442 46.6578 63.8178 47.1166 64.3014C47.1613 64.3576 47.2117 64.4026 47.2676 64.4532C47.3963 64.5713 47.5473 64.6782 47.7208 64.7794L59.0776 71.37C60.437 72.1573 62.6469 72.1573 63.9951 71.37L75.2792 64.7794C75.4471 64.6782 75.5925 64.5769 75.7156 64.4645C75.7715 64.4195 75.8219 64.3689 75.8667 64.3126C76.303 63.8515 76.3981 63.306 76.1576 62.8056H76.152ZM75.7044 64.1664C75.6653 64.2227 75.6149 64.2677 75.5646 64.3126C75.4303 64.4476 75.2736 64.5657 75.089 64.6725L63.8049 71.2632C62.5518 71.9942 60.5042 71.9942 59.2342 71.2632L47.883 64.6725C47.6872 64.5601 47.525 64.4364 47.3907 64.3014C47.3347 64.2564 47.29 64.2058 47.2508 64.1496C46.8033 63.6153 46.8256 62.9799 47.3068 62.4513C47.4522 62.2938 47.6368 62.142 47.8718 62.007L58.1769 55.9843L59.1503 55.4164C59.3349 55.3095 59.5363 55.2196 59.7489 55.1465C59.8328 55.1127 59.9168 55.0902 60.0007 55.0621C60.7391 54.8484 61.5951 54.809 62.3783 54.9496C62.4678 54.9665 62.563 54.9834 62.6469 55.0059C62.9378 55.0733 63.2063 55.1633 63.4637 55.287H63.4749C63.514 55.3095 63.5476 55.3264 63.5812 55.3489C63.5923 55.3545 63.6035 55.3658 63.6203 55.3714C63.6539 55.3883 63.6874 55.4051 63.7154 55.422L64.5378 55.9L66.0036 56.7491L73.1365 60.888L75.0778 62.0127C75.3576 62.1757 75.5757 62.3613 75.7324 62.5638C76.1352 63.0699 76.1296 63.6659 75.71 64.1664H75.7044Z" fill="#292929"/>
<path d="M92.6222 31.185L91.867 30.7464L87.2627 28.0752L85.3326 26.9505L84.376 26.3994L81.2654 24.5943C80.7284 24.285 80.057 24.0938 79.3689 24.0264C78.7759 23.9701 78.1605 24.0039 77.5954 24.1276C77.1367 24.2232 76.7115 24.3806 76.3423 24.5943L65.0582 31.185C63.9561 31.8317 63.7547 32.8102 64.4652 33.5806C64.5099 33.6312 64.5659 33.6818 64.6162 33.7268C64.7449 33.8449 64.8959 33.9573 65.0694 34.0529L68.4932 36.038L69.6569 36.7128L74.2611 39.3839L76.4262 40.638C77.7856 41.4309 79.9955 41.4309 81.3493 40.638L92.6278 34.0473C92.7957 33.9461 92.9411 33.8449 93.0642 33.738C93.1202 33.6874 93.1649 33.6424 93.2153 33.5862C93.9369 32.8214 93.7355 31.8373 92.6166 31.185H92.6222ZM93.0754 33.44C93.0362 33.4906 92.9915 33.5412 92.9411 33.5918C92.8125 33.7211 92.6502 33.8392 92.46 33.9517L81.1815 40.5424C79.9227 41.2734 77.8752 41.2734 76.6108 40.5424L74.3786 39.2434L69.7743 36.5722L68.6107 35.8974L65.2596 33.9461C65.0638 33.8336 64.9015 33.7099 64.7673 33.5749C64.7113 33.53 64.6666 33.4737 64.6274 33.4231C64.0512 32.7258 64.2582 31.8598 65.2428 31.2862L76.5213 24.6955C76.801 24.5325 77.1143 24.4088 77.45 24.3188C78.015 24.1669 78.6472 24.1163 79.2514 24.1669C79.9227 24.2232 80.5717 24.3975 81.092 24.7012L84.2081 26.5063L85.3382 27.1699L87.1229 28.2046L91.7327 30.8757L92.4488 31.2918C93.4502 31.871 93.6628 32.7371 93.0754 33.44Z" fill="#292929"/>
<g opacity="0.56">
<path d="M93.5345 74.5752C93.4897 74.5246 93.4338 74.474 93.3834 74.4234C93.2548 74.3053 93.1037 74.1985 92.9303 74.0973L81.5791 67.5066C80.214 66.7193 78.0042 66.7193 76.6559 67.5066L65.3718 74.0973C65.204 74.1929 65.0585 74.2941 64.9355 74.4065C64.8795 74.4515 64.8348 74.5021 64.7844 74.5584C64.0627 75.3232 64.2697 76.3129 65.3886 76.9652L76.7398 83.5502C78.1049 84.3431 80.3147 84.3431 81.6686 83.5502L92.9527 76.9596C94.0604 76.3129 94.2562 75.3288 93.5401 74.564L93.5345 74.5752ZM92.7681 76.864L81.484 83.449C80.2308 84.1857 78.1832 84.1857 76.9133 83.449L65.562 76.864C64.555 76.2848 64.348 75.4075 64.9355 74.7102C64.9746 74.654 65.025 74.609 65.0697 74.564C65.204 74.429 65.3606 74.3109 65.5453 74.2041L76.8293 67.6134C78.0825 66.8768 80.1301 66.8768 81.4 67.6134L92.7569 74.2041C92.9471 74.3166 93.1149 74.4347 93.2436 74.5696C93.2995 74.6146 93.3443 74.6708 93.3834 74.7215C93.9597 75.4188 93.7583 76.2791 92.7681 76.864Z" fill="#292929"/>
<path d="M80.4156 44.6811C80.3876 44.4899 80.2421 44.3043 79.996 44.1581C79.4253 43.8264 78.4966 43.8264 77.9316 44.1581C77.6854 44.3043 77.5456 44.4843 77.512 44.6755C77.5064 44.7317 77.5064 44.788 77.512 44.8442C77.54 45.0354 77.6854 45.221 77.9316 45.3616C78.5022 45.6933 79.4309 45.6933 79.996 45.3616C80.2421 45.2153 80.382 45.0354 80.4156 44.8442C80.4211 44.7936 80.4267 44.7374 80.4156 44.6811ZM79.8225 45.2547C79.3526 45.5303 78.5862 45.5303 78.1162 45.2547C77.8868 45.1197 77.7694 44.9454 77.7582 44.7711C77.7582 44.7149 77.7638 44.6642 77.7805 44.608C77.8253 44.4787 77.9372 44.3606 78.105 44.2594C78.575 43.9838 79.3414 43.9838 79.8113 44.2594C79.9792 44.3606 80.0911 44.4843 80.1414 44.6136C80.1582 44.6699 80.1638 44.7205 80.1638 44.7767C80.1582 44.951 80.0407 45.1197 79.8113 45.2547H79.8225Z" fill="#292929"/>
<path d="M95.4869 53.1613C95.3974 53.1445 95.3191 53.1276 95.2352 53.1051C94.8883 53.0151 94.5639 52.8914 94.2841 52.7227L93.4617 52.2447L91.0225 50.8332L87.1623 48.5951L84.8574 47.2567L83.6938 46.5819L82.9273 46.1377C82.642 45.969 82.4238 45.7834 82.2672 45.581C81.87 45.0748 81.8811 44.4844 82.3007 43.9839C82.3399 43.9277 82.3902 43.8827 82.435 43.8321C82.3791 43.7871 82.3343 43.7308 82.2951 43.6802C82.2392 43.7308 82.1944 43.7815 82.1441 43.8321C81.7077 44.2932 81.6126 44.8387 81.8532 45.3391C81.9035 45.4516 81.9707 45.5641 82.0658 45.6653C82.2336 45.8734 82.4574 46.0646 82.7539 46.2333L83.5931 46.7169L84.7567 47.3917L86.1721 48.2127L90.961 50.9907L93.2491 52.3178L93.6687 52.5652L94.1051 52.8183C94.4464 53.0151 94.838 53.1613 95.2576 53.2626C95.3471 53.285 95.4422 53.3019 95.5373 53.3188C95.5093 53.2626 95.4869 53.2119 95.4813 53.1501L95.4869 53.1613ZM110.9 43.8433C110.855 43.7871 110.805 43.7421 110.749 43.6915C110.62 43.5734 110.469 43.4665 110.296 43.3653L98.9387 36.7747C97.5793 35.9874 95.3695 35.9874 94.0156 36.7747L91.9288 37.9949L88.8966 39.772L82.7315 43.3709C82.5637 43.4722 82.4182 43.5734 82.2951 43.6802C82.2392 43.7308 82.1944 43.7815 82.1441 43.8321C81.7077 44.2932 81.6126 44.8387 81.8532 45.3391C81.9035 45.4516 81.9707 45.5641 82.0658 45.6653C82.2336 45.8734 82.4574 46.0646 82.7539 46.2333L83.5931 46.7169L84.7567 47.3917L86.1721 48.2127L90.961 50.9907L93.2491 52.3178L93.6687 52.5652L94.1051 52.8183C94.4464 53.0151 94.838 53.1613 95.2576 53.2626C95.3471 53.285 95.4422 53.3019 95.5373 53.3188C96.2981 53.4538 97.1261 53.4369 97.8702 53.2626C97.9597 53.2401 98.0548 53.2176 98.1443 53.1894C98.4632 53.0939 98.7653 52.9701 99.0283 52.8127L99.5541 52.5034L100.013 52.2391L110.307 46.222C110.547 46.0814 110.743 45.9296 110.894 45.7609C111.006 45.6428 111.09 45.5247 111.157 45.401C111.437 44.8836 111.347 44.3157 110.894 43.8321L110.9 43.8433ZM110.704 45.6822C110.558 45.8453 110.368 45.9971 110.133 46.1377L99.8171 52.1604L98.8492 52.7283C98.6366 52.852 98.3961 52.9589 98.1443 53.0376C98.066 53.0601 97.9821 53.0882 97.8982 53.1107C97.1373 53.3132 96.2702 53.3357 95.4813 53.167C95.3918 53.1501 95.3135 53.1332 95.2296 53.1107C94.8827 53.0207 94.5583 52.897 94.2785 52.7283L93.4561 52.2503L91.0169 50.8389L87.1567 48.6007L84.8518 47.2624L83.6882 46.5875L82.9217 46.1433C82.6364 45.9746 82.4182 45.789 82.2616 45.5866C81.8644 45.0805 81.8755 44.49 82.2951 43.9895C82.3343 43.9333 82.3846 43.8883 82.4294 43.8377C82.5637 43.7084 82.7203 43.5903 82.9049 43.4778L88.6001 40.1487L91.6323 38.3773L94.1834 36.8871C95.4422 36.1505 97.4842 36.1505 98.7541 36.8871L110.111 43.4778C110.307 43.5903 110.469 43.7084 110.603 43.8489C110.659 43.8939 110.704 43.9445 110.743 44.0008C111.179 44.535 111.168 45.1536 110.704 45.6822Z" fill="#292929"/>
<path d="M72.6615 47.4423L64.6278 52.1322L64.4488 52.2334L63.6488 52.7002C63.3523 52.8745 63.011 53.0039 62.6418 53.0938C62.5747 53.1107 62.5075 53.1276 62.4348 53.1388C62.4292 53.1388 62.4124 53.1444 62.4068 53.1388C61.6292 53.2963 60.7676 53.2738 60.0068 53.0657C59.9285 53.0488 59.8557 53.0264 59.7774 52.9982C59.5257 52.9195 59.2907 52.8127 59.0725 52.6889L58.748 52.5034C58.748 52.5034 58.7424 52.5034 58.7424 52.4977L58.2557 52.2166C58.3452 52.3178 58.418 52.4303 58.4683 52.5427L58.9047 52.7958C59.1564 52.942 59.4418 53.0601 59.7439 53.1557C59.7942 53.1669 59.8446 53.1782 59.8949 53.1951C59.9285 53.2063 59.9676 53.2175 59.9956 53.2232C60.7621 53.4144 61.618 53.4369 62.3956 53.2963C62.474 53.285 62.5523 53.2682 62.6306 53.2513C62.6362 53.2513 62.6474 53.2513 62.653 53.2513C63.0782 53.1501 63.481 53.0039 63.8222 52.8014L64.2195 52.5709L64.3537 52.4921L64.8181 52.2222L72.0014 48.0271L72.6559 47.6447V47.4592L72.7287 47.4029L72.6559 47.4423H72.6615ZM76.0798 44.4787C76.0238 44.2482 75.8952 44.0232 75.6993 43.8208C75.6546 43.7646 75.6042 43.7196 75.5483 43.669C75.4196 43.5509 75.2686 43.444 75.0951 43.3428L72.6448 41.9201L72.421 41.7907L67.8167 39.1196L66.6531 38.4448L63.7439 36.7521C62.3845 35.9592 60.169 35.9592 58.8208 36.7521L47.5367 43.3428C47.3688 43.444 47.2234 43.5452 47.1003 43.6521C47.0444 43.7027 46.9996 43.7533 46.9493 43.8039C46.5129 44.2707 46.4178 44.8161 46.6583 45.311C46.7087 45.4235 46.7758 45.5359 46.8709 45.6372C47.0388 45.8452 47.2625 46.0364 47.5591 46.2051L58.0599 52.2953L58.4795 52.5427L58.9159 52.7958C59.1676 52.942 59.4529 53.0601 59.755 53.1557C59.8054 53.1669 59.8558 53.1782 59.9061 53.1951C59.9397 53.2063 59.9788 53.2175 60.0068 53.2232C60.7732 53.4144 61.6292 53.4369 62.4068 53.2963C62.4852 53.285 62.5635 53.2682 62.6418 53.2513C62.6474 53.2513 62.6586 53.2513 62.6642 53.2513C63.0894 53.1501 63.4922 53.0039 63.8334 52.8014L64.2306 52.5709L64.3649 52.4921L64.8293 52.2222L72.0126 48.0271L72.6671 47.6447L75.1175 46.2164C75.3525 46.0814 75.5483 45.924 75.6993 45.7609C75.8112 45.6484 75.9008 45.5247 75.9623 45.401C76.1301 45.1086 76.1693 44.788 76.0798 44.4844V44.4787ZM74.9329 46.1095L72.7287 47.3973L72.6559 47.4367L64.6223 52.1266L64.4432 52.2278L63.6432 52.6946C63.3467 52.8689 63.0054 52.9982 62.6362 53.0882C62.5691 53.1051 62.5019 53.1219 62.4292 53.1332C62.4236 53.1332 62.4068 53.1388 62.4012 53.1332C61.6236 53.2907 60.7621 53.2682 60.0012 53.0601C59.9229 53.0432 59.8502 53.0207 59.7718 52.9926C59.5201 52.9139 59.2851 52.807 59.0669 52.6833L58.7424 52.4977C58.7424 52.4977 58.7369 52.4977 58.7369 52.4921L58.2501 52.211L47.7213 46.1039C47.436 45.9352 47.2122 45.744 47.0611 45.5416C46.6639 45.0355 46.6751 44.4506 47.0891 43.9445C47.1283 43.8883 47.1786 43.8433 47.229 43.7983C47.3633 43.6633 47.5199 43.5452 47.7045 43.4384L58.9886 36.8477C60.2418 36.1167 62.2894 36.1167 63.5593 36.8477L66.5412 38.5741L67.7048 39.249L72.3091 41.9145L72.6392 42.1057L74.9161 43.4272C75.1063 43.5396 75.2742 43.6577 75.4028 43.7983C75.4588 43.8433 75.5035 43.8939 75.5427 43.9501C75.7273 44.1694 75.8336 44.4056 75.8504 44.6474C75.8896 44.9905 75.7721 45.3391 75.4868 45.6428C75.3413 45.8002 75.1567 45.9521 74.9217 46.087L74.9329 46.1095Z" fill="#292929"/>
<path d="M98.1441 54.9496C98.1106 54.764 97.9707 54.5897 97.7246 54.4491C97.1539 54.123 96.2252 54.1173 95.6546 54.4491C95.4308 54.5841 95.2965 54.7415 95.2518 54.9159C95.235 54.9721 95.2294 55.0283 95.235 55.0846C95.2462 55.2926 95.3861 55.4951 95.6602 55.6525C96.2308 55.9843 97.1595 55.9843 97.7246 55.6525C97.9819 55.5007 98.1162 55.3151 98.1441 55.1183C98.1553 55.0621 98.1497 55.0115 98.1441 54.9496ZM97.5511 55.5457C97.0812 55.8269 96.3147 55.8269 95.8448 55.5457C95.5931 55.3995 95.47 55.2083 95.4868 55.0171C95.4868 54.9609 95.5091 54.9102 95.5315 54.854C95.5875 54.7415 95.6882 54.6403 95.8392 54.5503C96.3092 54.2748 97.0756 54.2748 97.5511 54.5503C97.7134 54.6459 97.8197 54.764 97.87 54.8821C97.8924 54.9384 97.9092 54.9946 97.9092 55.0508C97.9092 55.2308 97.7917 55.4107 97.5567 55.5457H97.5511Z" fill="#292929"/>
<path d="M62.647 55.0114C62.6358 54.9552 62.6079 54.8933 62.5743 54.8427C62.5463 54.7921 62.5072 54.7471 62.4624 54.7077C62.4009 54.6402 62.3282 54.5896 62.233 54.5334C62.1379 54.4772 62.0428 54.4378 61.9365 54.3984C61.3771 54.2072 60.6442 54.2522 60.1687 54.5334C59.9561 54.6571 59.8218 54.8146 59.7715 54.972C59.7491 55.0339 59.7435 55.0901 59.7491 55.1576C59.7547 55.3713 59.9001 55.5794 60.1743 55.7368C60.7449 56.0686 61.6736 56.0686 62.2442 55.7368C62.5799 55.54 62.7142 55.2757 62.647 55.017V55.0114ZM62.0652 55.6243C61.5953 55.8999 60.8288 55.8999 60.3533 55.6243C60.0904 55.4725 59.9729 55.2644 60.0008 55.0676C60.0064 55.0058 60.0344 54.9439 60.0736 54.882C60.1295 54.7921 60.2246 54.7021 60.3533 54.629C60.8232 54.3534 61.5897 54.3534 62.0596 54.629C62.1379 54.674 62.2051 54.7246 62.2554 54.7808C62.3058 54.8371 62.3505 54.8933 62.3785 54.9552C62.4792 55.1857 62.3785 55.4388 62.0652 55.6243Z" fill="#292929"/>
<path d="M100.108 54.0891C100.052 54.0442 100.007 53.9935 99.968 53.9373C99.912 53.9879 99.8673 54.0385 99.8169 54.0891C99.3806 54.5503 99.2855 55.0901 99.526 55.5906L99.94 55.838C99.5428 55.3319 99.554 54.7415 99.9736 54.241C100.013 54.1847 100.063 54.1398 100.108 54.0891ZM128.925 54.6684C128.925 54.6684 128.914 54.6234 128.903 54.6009C128.836 54.4266 128.729 54.2578 128.578 54.1004C128.533 54.0442 128.483 53.9992 128.427 53.9486C128.298 53.8305 128.147 53.7236 127.974 53.6224L116.617 47.0317C115.258 46.2445 113.042 46.2445 111.694 47.0317L100.41 53.6224C100.242 53.7236 100.097 53.8248 99.9736 53.9317C99.9176 53.9823 99.8729 54.0329 99.8225 54.0835C99.3862 54.5446 99.2911 55.0845 99.5316 55.585C99.5764 55.6974 99.6491 55.8099 99.733 55.9111C99.9009 56.1248 100.13 56.316 100.427 56.4903L110.928 62.5805L111.347 62.8223L111.784 63.0754C113.143 63.8683 115.358 63.8683 116.707 63.0754L124.27 58.6554L124.377 58.5935L127.991 56.4847C128.444 56.2204 128.74 55.8999 128.886 55.5569C128.897 55.5344 128.908 55.5175 128.908 55.5006C129.015 55.2251 129.026 54.9327 128.925 54.6627V54.6684ZM128.679 55.4388C128.556 55.7874 128.271 56.1192 127.812 56.3835L124.651 58.2336L124.533 58.3011L116.528 62.9742C115.269 63.7052 113.221 63.7052 111.957 62.9742L111.14 62.5018L100.6 56.3835C100.315 56.2148 100.097 56.0292 99.94 55.8268C99.5428 55.3207 99.554 54.7302 99.9736 54.2297C100.013 54.1735 100.063 54.1285 100.108 54.0779C100.242 53.9486 100.399 53.8305 100.583 53.718L111.867 47.1273C113.126 46.3907 115.174 46.3907 116.438 47.1273L127.789 53.718C127.985 53.8305 128.147 53.9486 128.282 54.0891C128.338 54.1341 128.382 54.1847 128.422 54.241C128.539 54.3872 128.629 54.539 128.685 54.6965C128.685 54.719 128.696 54.7358 128.696 54.7583C128.757 54.9608 128.757 55.1745 128.696 55.3769C128.696 55.3994 128.69 55.4163 128.679 55.4331V55.4388Z" fill="#292929"/>
<path d="M93.3776 54.0835C93.3328 54.0273 93.2825 53.9823 93.2265 53.9317C93.0979 53.8136 92.9468 53.7068 92.7734 53.6055L89.7859 51.8735L83.9285 48.4713L82.7648 47.7965L82.6977 47.7572L81.4166 47.0149C80.2865 46.3569 78.5634 46.2445 77.2431 46.6887C76.9745 46.7731 76.7228 46.8855 76.4934 47.0149L72.6668 49.253L66.4177 52.9026L65.2093 53.6112C65.0415 53.7068 64.9016 53.808 64.773 53.9204C64.717 53.9654 64.6667 54.016 64.6219 54.0723C64.5604 54.1341 64.5044 54.2016 64.4597 54.2691C64.1632 54.6852 64.1184 55.1464 64.3254 55.5794C64.3254 55.585 64.3254 55.5962 64.331 55.6018C64.3813 55.7087 64.4485 55.8099 64.5324 55.9111C64.6946 56.1192 64.924 56.3104 65.2205 56.4791L65.8471 56.839L72.9801 60.9778L75.727 62.5693L76.1466 62.8167L76.5829 63.0698C76.8515 63.2272 77.1592 63.3509 77.4781 63.4465C77.562 63.469 77.6459 63.4915 77.7242 63.5196C78.4907 63.6996 79.3466 63.7165 80.1354 63.559C80.2249 63.5478 80.3033 63.5253 80.3928 63.5028C80.7956 63.4072 81.176 63.261 81.5061 63.0641L82.032 62.7548L82.4907 62.4905L92.7846 56.4735C93.0251 56.3329 93.2209 56.1811 93.372 56.0124C93.4839 55.8943 93.5678 55.7762 93.6349 55.6525C93.9147 55.1351 93.8251 54.5671 93.372 54.0835H93.3776ZM92.6111 56.3723L82.3005 62.3949L81.3327 62.9629C81.0473 63.1316 80.7229 63.2553 80.376 63.3509C80.2977 63.3734 80.2194 63.3903 80.1354 63.4072C79.369 63.5702 78.513 63.5534 77.7522 63.3622C77.6739 63.3397 77.5955 63.3228 77.5228 63.2947C77.2487 63.2103 76.9913 63.0979 76.7675 62.9685L75.9452 62.4905L73.1703 60.8822L66.0373 56.749L65.4107 56.3835C65.1198 56.2148 64.896 56.0236 64.745 55.8212C64.689 55.7481 64.6443 55.6862 64.6107 55.6131C64.3646 55.1576 64.4205 54.6627 64.7786 54.2297C64.8177 54.1735 64.8681 54.1285 64.9128 54.0779C65.0471 53.9486 65.2037 53.8305 65.3884 53.718L65.696 53.538L72.6668 49.4667L76.6724 47.1273C76.8515 47.0261 77.0417 46.9361 77.2431 46.863C78.4851 46.4075 80.1522 46.4975 81.2431 47.1273L82.4907 47.8528L82.6585 47.954L83.8222 48.6288L89.6069 51.986L92.5944 53.718C92.7846 53.8305 92.9524 53.9486 93.0811 54.0891C93.137 54.1341 93.1818 54.1904 93.2265 54.241C93.6629 54.7752 93.6461 55.3994 93.1762 55.928C93.0307 56.0911 92.8405 56.2429 92.6056 56.3835L92.6111 56.3723Z" fill="#292929"/>
<path d="M58.1772 54.0554C58.1325 54.106 58.0821 54.1566 58.0262 54.2072C58.4737 54.7415 58.4514 55.3769 57.9702 55.9055L58.4346 55.6356C58.7143 55.1182 58.6304 54.5446 58.1716 54.061L58.1772 54.0554ZM29.1083 55.5006C29.1083 55.5006 29.1194 55.54 29.1306 55.5569L29.1642 55.54L29.3376 55.4388C29.3376 55.4388 29.3209 55.3994 29.3153 55.3825L29.1083 55.5006ZM58.1772 54.061C58.1325 54.0048 58.0821 53.9598 58.0262 53.9092C57.8975 53.7911 57.7465 53.6843 57.573 53.583L46.2218 46.998C44.8568 46.2051 42.6469 46.2051 41.2987 46.998L30.0146 53.583C29.8467 53.6843 29.7013 53.7855 29.5782 53.8923C29.5223 53.9429 29.4719 53.9935 29.4271 54.0442C29.2593 54.2129 29.1474 54.4041 29.0803 54.5952C29.0747 54.6177 29.0635 54.6402 29.0579 54.6627C28.974 54.9383 28.9908 55.2251 29.1139 55.5006C29.1139 55.5231 29.125 55.54 29.1362 55.5569C29.2929 55.8886 29.5894 56.1979 30.0314 56.451L33.5391 58.4867L33.651 58.5541L41.3826 63.0416C42.7476 63.8289 44.9575 63.8289 46.3057 63.0416L46.8372 62.7323L47.3015 62.4624L57.5898 56.451C57.8248 56.316 58.0206 56.1586 58.1716 55.9955C58.2835 55.8774 58.3675 55.7593 58.4346 55.6356C58.7143 55.1182 58.6304 54.5446 58.1716 54.061H58.1772ZM57.4108 56.3498L47.1057 62.3724L46.1323 62.9404C44.8791 63.6715 42.8315 63.6771 41.5616 62.9404L33.3769 58.1886L33.2594 58.1211L30.2048 56.3441C29.7572 56.0855 29.4663 55.7705 29.3376 55.4388C29.3376 55.4388 29.3209 55.3994 29.3153 55.3825C29.2425 55.1745 29.2369 54.9664 29.2873 54.764C29.2873 54.7415 29.2873 54.7246 29.2985 54.7021C29.3488 54.5278 29.4383 54.3591 29.5782 54.2016C29.6174 54.1454 29.6677 54.0948 29.7181 54.0498C29.8523 53.9148 30.009 53.7967 30.1936 53.6899L41.4777 47.0992C42.7308 46.3682 44.7784 46.3682 46.0484 47.0992L57.3996 53.6843C57.5954 53.7967 57.7577 53.9204 57.8919 54.0554C57.9479 54.1004 57.9926 54.151 58.0318 54.2072C58.4793 54.7415 58.457 55.3769 57.9758 55.9055C57.8304 56.063 57.6458 56.2148 57.4108 56.3498Z" fill="#292929"/>
<path d="M80.3707 65.2798C80.3595 65.2236 80.3315 65.1617 80.2868 65.1055C80.2141 65.0042 80.1078 64.903 79.9623 64.8187C79.3917 64.4869 78.463 64.4869 77.8979 64.8187C77.7077 64.9311 77.5791 65.0661 77.5175 65.2067C77.4951 65.2629 77.4784 65.3248 77.4784 65.3923C77.4616 65.6228 77.607 65.8534 77.9035 66.0221C78.4742 66.3539 79.4029 66.3539 79.9679 66.0221C80.3148 65.8253 80.449 65.5441 80.3707 65.2798ZM79.7945 65.9152C79.3245 66.1908 78.5581 66.1908 78.0882 65.9152C77.8028 65.7465 77.6853 65.5216 77.7469 65.3023C77.7637 65.2404 77.7972 65.1786 77.8476 65.1167C77.9035 65.0436 77.9819 64.9761 78.0826 64.9199C78.5525 64.6443 79.3189 64.6443 79.7889 64.9199C79.8504 64.9592 79.9064 64.993 79.9511 65.038C80.0127 65.0942 80.063 65.1561 80.0966 65.2179C80.2141 65.4541 80.119 65.724 79.7945 65.9096V65.9152Z" fill="#292929"/>
<path d="M111.056 64.335C111.012 64.2844 110.956 64.2338 110.905 64.1832C110.777 64.0651 110.626 63.9582 110.452 63.857L99.1009 57.2664C97.7414 56.4791 95.526 56.4791 94.1777 57.2664L82.8936 63.857C82.7258 63.9582 82.5803 64.0595 82.4572 64.1663C82.4013 64.2169 82.3565 64.2675 82.3062 64.3181C81.8698 64.7793 81.7747 65.3247 82.0153 65.8252C82.0656 65.9377 82.1328 66.0502 82.2279 66.1514C82.3957 66.3594 82.6195 66.5563 82.916 66.725L93.4168 72.8151L93.8364 73.0569L94.2728 73.31C95.6323 74.1029 97.8421 74.1029 99.196 73.31L110.48 66.7193C111.588 66.0727 111.784 65.0886 111.067 64.3238L111.056 64.335ZM110.29 66.6237L99.0057 73.2144C97.7526 73.9454 95.705 73.9454 94.435 73.2144L93.6238 72.742L83.0782 66.6181C82.7929 66.4494 82.5691 66.2582 82.4181 66.0558C82.0209 65.5497 82.0321 64.9648 82.4516 64.4644C82.4908 64.4081 82.5412 64.3631 82.5859 64.3181C82.7202 64.1832 82.8768 64.0651 83.0614 63.9582L94.3455 57.3676C95.5987 56.6309 97.6463 56.6309 98.9162 57.3676L110.273 63.9582C110.469 64.0707 110.631 64.1888 110.765 64.3294C110.821 64.3744 110.866 64.425 110.905 64.4812C111.481 65.1785 111.28 66.0389 110.284 66.6237H110.29Z" fill="#292929"/>
<path d="M75.8559 64.3125C75.8111 64.2619 75.7552 64.2113 75.7048 64.1663C75.6657 64.2226 75.6153 64.2676 75.565 64.3125C75.6209 64.3575 75.6657 64.4081 75.7048 64.4644C76.1468 64.9986 76.13 65.6284 75.6601 66.157L76.1132 65.8927C76.3985 65.3754 76.309 64.8018 75.8559 64.3182V64.3125ZM75.8559 64.3125C75.8111 64.2619 75.7552 64.2113 75.7048 64.1663C75.5762 64.0482 75.4251 63.9414 75.2517 63.8402L71.5985 61.7201L64.4711 57.5813L63.9005 57.2495C62.5354 56.4622 60.3256 56.4622 58.9773 57.2495L47.6932 63.8402C47.5254 63.9414 47.3799 64.0426 47.2568 64.1495C47.2009 64.2001 47.1561 64.2507 47.1058 64.3013C46.3841 65.0661 46.5855 66.0558 47.71 66.7025L59.0668 73.2932C60.4263 74.0804 62.6361 74.0804 63.9844 73.2932L64.5158 72.9839L64.9802 72.7139L75.2685 66.7025C75.5034 66.5675 75.6992 66.4101 75.8503 66.247C75.9622 66.1345 76.0517 66.0108 76.1132 65.8871C76.3985 65.3697 76.309 64.7962 75.8559 64.3125ZM75.0894 66.6069L64.7732 72.6296L63.8053 73.1976C62.5522 73.9342 60.5046 73.9342 59.2346 73.1976L47.8834 66.6125C46.882 66.0333 46.6694 65.1617 47.2512 64.4588C47.2904 64.4025 47.3408 64.3519 47.3911 64.3069C47.5254 64.172 47.682 64.0539 47.8666 63.947L59.1507 57.362C60.4039 56.6253 62.4515 56.6253 63.7214 57.362L64.2865 57.6881L71.4139 61.8214L75.0782 63.947C75.2685 64.0595 75.4363 64.1776 75.565 64.3182C75.6209 64.3632 75.6657 64.4138 75.7048 64.47C76.1468 65.0042 76.13 65.6341 75.6601 66.1627C75.5146 66.3257 75.3244 66.4776 75.0894 66.6181V66.6069Z" fill="#292929"/>
<path d="M77.7582 42.8985C77.6687 42.876 77.5848 42.8592 77.5009 42.8311C77.1764 42.7411 76.8743 42.6174 76.6057 42.4655L75.7889 41.9932L73.3497 40.5817L73.333 40.6042L73.2434 40.7223L75.5763 42.0719L75.9959 42.3193L76.4323 42.5724C76.7568 42.7636 77.1372 42.9098 77.5344 43.0054C77.6295 43.0279 77.7302 43.0504 77.8253 43.0672C77.7862 43.011 77.7694 42.9604 77.7526 42.8985H77.7582ZM93.4228 33.8392C93.3668 33.7492 93.2997 33.6649 93.2214 33.5861C93.1766 33.5299 93.1263 33.4849 93.0703 33.4343C92.9416 33.3162 92.7906 33.2094 92.6172 33.1081L90.536 31.9047L85.9262 29.2336L85.3331 28.8906L83.2072 27.659L81.2548 26.5231C80.3261 25.9833 79.0002 25.8089 77.8253 26.0058C77.2771 26.0957 76.7624 26.2701 76.3316 26.5231L75.2854 27.1361L65.0475 33.1138C64.8797 33.215 64.7342 33.3162 64.6111 33.4231C64.5552 33.4737 64.5049 33.5243 64.4601 33.5749C64.0293 34.0416 63.9286 34.5815 64.1692 35.082C64.2195 35.1944 64.2867 35.3069 64.3818 35.4081C64.5496 35.6162 64.7734 35.8074 65.0699 35.9761L67.4699 37.3707L68.6336 38.0455L73.2379 40.7166L75.5708 42.0663L75.9903 42.3137L76.4267 42.5667C76.7512 42.7579 77.1316 42.9042 77.5288 42.9998C77.6239 43.0222 77.7246 43.0447 77.8197 43.0616C78.5638 43.2022 79.375 43.191 80.1079 43.0279C80.2086 43.011 80.2981 42.9885 80.3932 42.9548C80.7345 42.8648 81.0589 42.7298 81.3443 42.5667L81.8702 42.2575L82.3289 41.9932L91.0955 36.8646L92.6172 35.9761C92.8521 35.8411 93.0479 35.6837 93.199 35.5206C93.3109 35.4081 93.4004 35.2844 93.4619 35.1607C93.6969 34.7333 93.6745 34.2609 93.406 33.8392H93.4228ZM93.0256 35.425C92.8745 35.5881 92.6899 35.7343 92.4549 35.8749L91.3976 36.4934L82.1443 41.8976L81.1764 42.4655C80.9471 42.6005 80.6897 42.713 80.4156 42.7917C80.3317 42.8142 80.2477 42.8423 80.1638 42.8648C79.3974 43.056 78.5358 43.0672 77.7582 42.8985C77.6687 42.876 77.5848 42.8592 77.5009 42.8311C77.1764 42.7411 76.8743 42.6174 76.6057 42.4655L75.7889 41.9932L73.3497 40.5817L68.7455 37.9106L67.5818 37.2357L65.2489 35.8805C64.9636 35.7118 64.7454 35.5262 64.5888 35.3238C64.1916 34.8177 64.2027 34.2272 64.6167 33.7211C64.6559 33.6705 64.7063 33.6199 64.7566 33.5749C64.8909 33.4399 65.0475 33.3218 65.2321 33.215L75.0113 27.5016L76.5162 26.6243C76.8575 26.4275 77.2603 26.2813 77.6911 26.1913C78.8379 25.9439 80.1694 26.0901 81.0869 26.63L83.1065 27.7996L85.3387 29.0986L85.7919 29.3629L90.3962 32.0341L92.4437 33.2206C92.6395 33.3331 92.8018 33.4568 92.9361 33.5918C92.992 33.6367 93.0368 33.693 93.0703 33.7436C93.1598 33.8448 93.2214 33.9404 93.2661 34.0473C93.4955 34.5028 93.4116 35.0032 93.0256 35.4306V35.425Z" fill="#292929"/>
</g>
<g opacity="0.4" filter="url(#filter0_f_599_10690)">
<ellipse cx="79" cy="54" rx="44" ry="19" fill="url(#paint0_linear_599_10690)"/>
</g>
<path d="M67.3326 17.5142V7.1245C67.3326 6.31741 66.903 5.57178 66.2073 5.17029L57.7819 0.303196C57.0863 -0.0982983 56.227 -0.0982983 55.5273 0.303196L47.1019 5.17439C46.4062 5.57588 45.9766 6.32151 45.9766 7.1245V17.5142C45.9766 17.9157 46.1893 18.2885 46.5413 18.4892L55.5273 23.6841C56.2229 24.0856 57.0822 24.0856 57.7778 23.6841L66.7638 18.4892C67.1117 18.2885 67.3285 17.9157 67.3285 17.5142H67.3326Z" fill="url(#paint1_linear_599_10690)"/>
<path d="M65.6425 4.84663L57.7818 0.303196C57.0862 -0.0982983 56.2268 -0.0982983 55.5312 0.303196L47.6705 4.84663C46.9217 5.2809 46.9217 6.36658 47.6705 6.80085L55.5312 11.3443C56.2309 11.7458 57.0903 11.7458 57.7859 11.3443L65.6466 6.80085C66.3954 6.36658 66.3954 5.2809 65.6466 4.84663H65.6425Z" fill="url(#paint2_linear_599_10690)"/>
<path d="M56.6565 22.3854V13.2985C56.6565 12.4914 56.2268 11.7458 55.5312 11.3443L47.6705 6.80085C46.9216 6.36658 45.9805 6.90737 45.9805 7.77591V17.5142C45.9805 17.9157 46.1933 18.2885 46.5452 18.4892L54.9706 23.3604C55.7194 23.7947 56.6605 23.2539 56.6605 22.3854H56.6565Z" fill="url(#paint3_linear_599_10690)"/>
<path d="M56.6567 22.3853V13.2984C56.6567 12.4914 57.0864 11.7457 57.7861 11.3401L65.6468 6.7967C66.3957 6.36243 67.3368 6.90322 67.3368 7.77176V17.51C67.3368 17.9115 67.124 18.2843 66.7721 18.4851L58.3467 23.3563C57.5979 23.7906 56.6567 23.2498 56.6567 22.3812V22.3853Z" fill="url(#paint4_linear_599_10690)"/>
<path d="M52.352 26.1872V15.7975C52.352 14.9905 51.9223 14.2448 51.2267 13.8433L42.8013 8.97214C42.1056 8.57065 41.2463 8.57065 40.5466 8.97214L32.1253 13.8433C31.4297 14.2489 31 14.9905 31 15.7975V26.1872C31 26.5887 31.2128 26.9615 31.5647 27.1623L40.5507 32.3571C41.2463 32.7586 42.1056 32.7586 42.8013 32.3571L51.7873 27.1623C52.1351 26.9615 52.352 26.5887 52.352 26.1872Z" fill="url(#paint5_linear_599_10690)"/>
<path d="M50.662 13.5197L42.8013 8.97629C42.1057 8.5748 41.2464 8.5748 40.5507 8.97629L32.69 13.5197C31.9412 13.954 31.9412 15.0397 32.69 15.4739L40.5507 20.0174C41.2505 20.4189 42.1098 20.4189 42.8054 20.0174L50.6661 15.4739C51.415 15.0397 51.415 13.954 50.6661 13.5197H50.662Z" fill="url(#paint6_linear_599_10690)"/>
<path d="M41.676 31.0585V21.9716C41.676 21.1645 41.2463 20.4189 40.5507 20.0174L32.69 15.4739C31.9371 15.0397 31 15.5805 31 16.449V26.1873C31 26.5888 31.2128 26.9616 31.5647 27.1623L39.9901 32.0335C40.7389 32.4678 41.6801 31.927 41.6801 31.0585H41.676Z" fill="url(#paint7_linear_599_10690)"/>
<path d="M41.6758 31.0584V21.9715C41.6758 21.1645 42.1054 20.4188 42.8052 20.0132L50.6659 15.4698C51.4147 15.0355 52.3559 15.5763 52.3559 16.4449V26.1831C52.3559 26.5846 52.1431 26.9574 51.7912 27.1582L43.3658 32.0294C42.6169 32.4636 41.6758 31.9229 41.6758 31.0543V31.0584Z" fill="url(#paint8_linear_599_10690)"/>
<path d="M86.07 22.9753C86.0863 22.9466 86.1027 22.9139 86.1109 22.8852C86.1109 22.8811 86.1109 22.877 86.115 22.8688C86.115 22.8647 86.115 22.8565 86.1191 22.8524C86.1232 22.8319 86.1314 22.8155 86.1354 22.795C86.1395 22.7664 86.1436 22.7336 86.1436 22.7049C86.1436 22.7008 86.1436 22.6967 86.1436 22.6926V21.3652C86.1436 21.4185 86.1354 21.4718 86.1191 21.525C86.1191 21.5291 86.1191 21.5373 86.115 21.5414C86.0945 21.5947 86.07 21.652 86.029 21.7053L85.0879 23.0491V24.3764L86.029 23.0327C86.0413 23.0122 86.0536 22.9917 86.0659 22.9712L86.07 22.9753Z" fill="url(#paint9_linear_599_10690)"/>
<path d="M92.9853 33.4101C92.9771 33.5985 92.9566 33.787 92.928 33.9713C92.9239 34.0082 92.9157 34.0492 92.9075 34.086C92.8748 34.2745 92.8298 34.4671 92.7766 34.6555C92.7766 34.6678 92.7684 34.6801 92.7643 34.6924C92.7111 34.8726 92.6497 35.0488 92.5802 35.225C92.5638 35.2659 92.5474 35.3069 92.527 35.352C92.4492 35.5322 92.3715 35.7125 92.2774 35.8928C92.1914 36.0607 92.0932 36.2246 91.9909 36.3885C91.9541 36.4458 91.9214 36.5032 91.8845 36.5606C91.7659 36.7408 91.6431 36.9252 91.5122 37.1054C91.4794 37.1546 91.4344 37.1997 91.3894 37.2406C91.3362 37.2898 91.2707 37.3349 91.2012 37.3799C91.1602 37.4045 91.1193 37.425 91.0784 37.4455C91.058 37.4578 91.0375 37.466 91.017 37.4783C90.9475 37.5069 90.8779 37.5356 90.8042 37.5602C90.7142 37.5889 90.6201 37.6094 90.5219 37.6298C90.4605 37.6421 90.3991 37.6503 90.3378 37.6585C90.3214 37.6585 90.3091 37.6626 90.2927 37.6667C90.215 37.6749 90.1332 37.679 90.0554 37.679C90.039 37.679 90.0227 37.679 90.0063 37.679C89.9245 37.679 89.8426 37.679 89.7567 37.6667C89.6789 37.6585 89.6053 37.6462 89.5316 37.6339C89.5194 37.6339 89.5071 37.6339 89.4989 37.6298C89.4293 37.6176 89.3598 37.5971 89.2943 37.5807C89.2657 37.5725 89.2411 37.5643 89.2125 37.552C89.1715 37.5397 89.1306 37.5233 89.0938 37.5069C89.0161 37.4742 88.9424 37.4414 88.8769 37.4004C88.6109 37.2488 88.4432 37.0399 88.4063 36.8187V36.1877C88.4063 35.9583 88.3982 35.7248 88.3695 35.4913C88.2918 34.8481 88.0381 34.1762 87.6289 33.5698C87.3711 33.1888 87.0846 32.816 86.7327 32.4596C86.2499 31.9721 85.6852 31.5173 85.0509 31.0912C84.8054 30.9274 84.5476 30.7676 84.2857 30.616C84.0484 30.4767 83.7988 30.3456 83.5492 30.2186C83.4673 30.1776 83.3855 30.1367 83.3036 30.0957C83.1277 30.0096 82.9517 29.9236 82.7717 29.8417C82.6735 29.7966 82.5753 29.7515 82.4771 29.7106C82.3052 29.6327 82.1292 29.559 81.9492 29.4852C81.851 29.4443 81.7487 29.4033 81.6464 29.3623C81.5932 29.3419 81.54 29.3173 81.4868 29.2968C81.2863 29.219 81.0817 29.1411 80.8771 29.0633C80.6643 29.3664 80.4474 29.6737 80.2347 29.9769C80.1815 30.0506 80.1201 30.1162 80.0505 30.1817C80.026 30.2022 79.9973 30.2227 79.9687 30.2432C79.9196 30.2841 79.8664 30.321 79.8091 30.3538C79.7272 30.4029 79.6331 30.4439 79.5308 30.4767C79.5063 30.4849 79.4858 30.4972 79.4572 30.5095C79.4408 30.5136 79.4244 30.5177 79.4081 30.5218C79.2976 30.5545 79.1789 30.5832 79.0521 30.5996C78.917 30.616 78.782 30.6242 78.647 30.6201C78.647 30.6201 78.6429 30.6201 78.6388 30.6201C78.5078 30.6201 78.381 30.6037 78.2582 30.5832C78.2459 30.5832 78.2337 30.5832 78.2255 30.5791C78.1109 30.5586 78.0045 30.53 77.9022 30.4972C77.8818 30.4931 77.8654 30.4849 77.8449 30.4767C77.7385 30.4398 77.6362 30.3948 77.5462 30.3415C77.4971 30.3128 77.4521 30.2841 77.4112 30.2514L67.8687 23.1269C67.6395 22.9548 67.5372 22.7582 67.5372 22.5615V23.8889C67.5331 24.0856 67.6354 24.2822 67.8646 24.4543L77.4071 31.5788C77.448 31.6115 77.493 31.6402 77.5421 31.6689C77.6117 31.7099 77.6894 31.7467 77.7754 31.7795C77.7958 31.7877 77.8204 31.7959 77.8408 31.8041C77.8613 31.8123 77.8777 31.8164 77.8981 31.8246C77.9227 31.8328 77.9472 31.841 77.9759 31.8491C78.0332 31.8655 78.0905 31.8778 78.1518 31.8901C78.1764 31.8942 78.2009 31.8983 78.2255 31.9024C78.2378 31.9024 78.25 31.9024 78.2582 31.9065C78.2787 31.9065 78.2951 31.9147 78.3155 31.9147C78.3687 31.9229 78.4219 31.927 78.4751 31.9311C78.5283 31.9352 78.5815 31.9393 78.6347 31.9393C78.6347 31.9393 78.6347 31.9393 78.6388 31.9393C78.6388 31.9393 78.6429 31.9393 78.647 31.9393C78.6961 31.9393 78.7493 31.9393 78.7984 31.9393C78.8557 31.9393 78.917 31.9352 78.9743 31.927C78.9989 31.927 79.0234 31.9229 79.0521 31.9188C79.0971 31.9147 79.138 31.9065 79.1789 31.8983C79.2608 31.8819 79.3344 31.8614 79.4081 31.841C79.4244 31.8369 79.4408 31.8328 79.4572 31.8287C79.4572 31.8287 79.4654 31.8287 79.4694 31.8287C79.494 31.8205 79.5104 31.8082 79.5308 31.8C79.629 31.7631 79.7232 31.7221 79.8091 31.6771C79.8173 31.673 79.8295 31.6689 79.8377 31.6648C79.8868 31.6361 79.9278 31.5992 79.9687 31.5665C79.9932 31.546 80.026 31.5296 80.0505 31.505C80.0546 31.505 80.0587 31.4968 80.0628 31.4927C80.1119 31.4477 80.1569 31.3985 80.1978 31.3493C80.2101 31.3329 80.2224 31.3166 80.2347 31.3002C80.4474 30.997 80.6602 30.6897 80.8771 30.3866C81.139 30.4849 81.3927 30.5832 81.6464 30.6856C81.7487 30.7266 81.8469 30.7676 81.9492 30.8085C82.1252 30.8823 82.3011 30.956 82.4771 31.0339C82.5753 31.0789 82.6735 31.1199 82.7717 31.165C82.9517 31.2469 83.1277 31.3329 83.2995 31.419C83.3814 31.4599 83.4673 31.5009 83.5492 31.5419C83.7988 31.6689 84.0484 31.8041 84.2857 31.9393C84.5517 32.0909 84.8054 32.2506 85.0509 32.4145C85.6852 32.8406 86.2499 33.2953 86.7327 33.7829C87.0846 34.1393 87.3711 34.5121 87.6289 34.8931C88.0422 35.4954 88.2959 36.1673 88.3695 36.8146C88.3777 36.9006 88.3859 36.9907 88.39 37.0768V38.0477C88.39 38.3058 88.57 38.5434 88.8728 38.7196C88.9383 38.7565 89.012 38.7934 89.0897 38.8261C89.0979 38.8261 89.102 38.8343 89.1102 38.8343C89.1429 38.8466 89.1756 38.8548 89.2084 38.8671C89.237 38.8753 89.2616 38.8876 89.2902 38.8958C89.2984 38.8958 89.3025 38.8999 89.3107 38.904C89.3639 38.9204 89.4212 38.9327 89.4784 38.9449C89.4825 38.9449 89.4907 38.9449 89.4948 38.9449C89.5071 38.9449 89.5194 38.9449 89.5275 38.949C89.5644 38.9572 89.5971 38.9613 89.6339 38.9695C89.6708 38.9736 89.7117 38.9777 89.7526 38.9818C89.7649 38.9818 89.7772 38.9818 89.7894 38.9818C89.8385 38.9859 89.8917 38.99 89.9408 38.99C89.9613 38.99 89.9818 38.99 90.0022 38.99C90.0186 38.99 90.035 38.99 90.0513 38.99C90.0677 38.99 90.0841 38.99 90.1045 38.99C90.1659 38.99 90.2232 38.9859 90.2805 38.9777C90.2805 38.9777 90.2846 38.9777 90.2887 38.9777C90.305 38.9777 90.3173 38.9736 90.3337 38.9695C90.3869 38.9613 90.4401 38.9572 90.4892 38.949C90.4974 38.949 90.5055 38.9449 90.5178 38.9408C90.616 38.9204 90.7101 38.8999 90.8002 38.8712C90.8738 38.8466 90.9475 38.8179 91.0129 38.7893C91.0334 38.7811 91.0539 38.7688 91.0743 38.7565C91.1111 38.736 91.1521 38.7196 91.1848 38.6991C91.1889 38.6991 91.193 38.695 91.1971 38.6909C91.2666 38.65 91.328 38.6008 91.3853 38.5516C91.3853 38.5516 91.3853 38.5516 91.3894 38.5516C91.4262 38.5189 91.459 38.482 91.4876 38.4451C91.4958 38.4369 91.4999 38.4287 91.5081 38.4164C91.639 38.2362 91.7618 38.0518 91.8804 37.8716C91.9173 37.8142 91.95 37.7568 91.9868 37.6995C92.0441 37.6094 92.1055 37.5151 92.1587 37.425C92.1996 37.3513 92.2405 37.2775 92.2774 37.2038C92.3674 37.0276 92.4492 36.8473 92.527 36.663C92.5433 36.622 92.5597 36.581 92.5761 36.5401C92.5924 36.4991 92.6088 36.4622 92.6252 36.4213C92.6784 36.282 92.7234 36.1468 92.7643 36.0075C92.7643 35.9952 92.7725 35.9829 92.7766 35.9706C92.8216 35.8149 92.8625 35.6592 92.8912 35.4995C92.8993 35.4667 92.8993 35.4339 92.9075 35.4011C92.9157 35.3602 92.9198 35.3233 92.928 35.2823C92.9566 35.0939 92.9812 34.9054 92.9853 34.7211C92.9853 34.6965 92.9853 34.6678 92.9853 34.6432C92.9853 34.5695 92.9894 34.4916 92.9894 34.4179V33.0905C92.9894 33.1929 92.9894 33.2953 92.9853 33.3937V33.4101Z" fill="url(#paint10_linear_599_10690)"/>
<path d="M91.5121 37.1013C91.2298 37.4987 90.485 37.7322 89.7567 37.6626C89.417 37.6298 89.1101 37.5356 88.8769 37.4004C88.5618 37.2201 88.3736 36.9661 88.39 36.6957C88.4145 36.2901 88.4186 35.8968 88.3695 35.4912C88.2917 34.848 88.038 34.1761 87.6288 33.5698C87.371 33.1888 87.0846 32.816 86.7327 32.4595C86.2498 31.972 85.6852 31.5173 85.0509 31.0912C84.8054 30.9273 84.5476 30.7675 84.2857 30.616C83.2586 30.0219 82.0965 29.5139 80.8771 29.0632C80.6643 29.3664 80.4474 29.6737 80.2346 29.9768C80.0178 30.2841 79.629 30.5217 79.052 30.5996C78.5119 30.6692 77.9349 30.5709 77.5462 30.3456C77.4971 30.3169 77.4521 30.2882 77.4112 30.2554L67.8687 23.131C67.1198 22.5697 67.7132 21.7175 68.9285 21.6233L84.3102 20.4147C84.8381 20.3738 85.321 20.4844 85.6606 20.681C86.1025 20.935 86.2989 21.3324 86.0412 21.7011L85.1 23.0449C87.5102 24.4747 89.5603 26.1135 90.9965 27.9366C92.351 29.6573 93.0835 31.5173 92.9893 33.4059C92.9566 34.2417 92.6947 35.0856 92.2814 35.8886C92.0686 36.3024 91.8027 36.6998 91.5162 37.1013H91.5121Z" fill="url(#paint11_linear_599_10690)"/>
<path d="M60.1512 27.654C60.1512 27.654 60.1512 27.6458 60.1512 27.6417V26.3143C60.1512 26.3143 60.1512 26.3389 60.1512 26.3471C60.1472 26.429 60.1431 26.511 60.1431 26.5888C60.1431 26.6626 60.1431 26.7363 60.1431 26.8141V28.1415C60.1431 27.9859 60.1431 27.8302 60.1512 27.6745C60.1512 27.6663 60.1512 27.6622 60.1512 27.654Z" fill="url(#paint12_linear_599_10690)"/>
<path d="M63.4533 39.9938C61.0472 38.564 58.9971 36.9252 57.5567 35.1062C56.2718 33.4798 55.5475 31.7263 55.5557 29.9401V31.2675C55.5475 33.0537 56.2677 34.8072 57.5526 36.4336C58.9889 38.2567 61.039 39.8914 63.4451 41.3212V39.9938H63.4533Z" fill="url(#paint13_linear_599_10690)"/>
<path d="M80.9873 40.6247C80.9873 40.6247 80.9832 40.6411 80.9791 40.6493C80.9627 40.6985 80.9423 40.7435 80.9136 40.7886C80.9095 40.7968 80.9014 40.8091 80.8932 40.8173C80.8686 40.8541 80.84 40.8869 80.8113 40.9238C80.7991 40.9402 80.7868 40.9525 80.7704 40.9648C80.75 40.9852 80.7254 41.0057 80.7009 41.0221C80.6599 41.0549 80.619 41.0877 80.574 41.1163C80.5413 41.1368 80.5044 41.1614 80.4635 41.1819C80.4431 41.1942 80.4226 41.2065 80.398 41.2147C80.3408 41.2433 80.2794 41.2679 80.2139 41.2925C80.2016 41.2925 80.1934 41.3007 80.1812 41.3048C80.1607 41.313 80.1321 41.3171 80.1116 41.3253C80.042 41.3458 79.9725 41.3663 79.8947 41.3785C79.8047 41.3949 79.7106 41.4113 79.6124 41.4154L64.2306 42.624C64.1038 42.6322 63.981 42.6322 63.8623 42.624C63.8542 42.624 63.8419 42.624 63.8337 42.624C63.715 42.6158 63.5964 42.5994 63.4859 42.5789C63.4859 42.5789 63.4859 42.5789 63.4818 42.5789C63.3795 42.5584 63.2854 42.5298 63.1953 42.497C63.179 42.4929 63.1626 42.4888 63.1503 42.4806C63.0562 42.4437 62.9662 42.4028 62.8844 42.3577C62.5775 42.1815 62.3892 41.9357 62.3892 41.6776V43.005C62.3851 43.2631 62.5734 43.5048 62.8803 43.6851C62.9539 43.7261 63.0358 43.767 63.1217 43.7998C63.1299 43.7998 63.1381 43.8039 63.1462 43.808C63.1626 43.8121 63.179 43.8162 63.1913 43.8244C63.2322 43.8408 63.2731 43.8531 63.3181 43.8653C63.3713 43.8817 63.4245 43.894 63.4777 43.9063C63.4777 43.9063 63.4777 43.9063 63.4818 43.9063C63.5309 43.9186 63.5841 43.9268 63.6373 43.935C63.6864 43.9432 63.7355 43.9473 63.7887 43.9514C63.801 43.9514 63.8132 43.9514 63.8255 43.9514C63.8337 43.9514 63.846 43.9514 63.8542 43.9514C63.8828 43.9514 63.9114 43.9514 63.9401 43.9555C63.9933 43.9555 64.0465 43.9555 64.0997 43.9555C64.1406 43.9555 64.1815 43.9555 64.2224 43.9473L79.6042 42.7387C79.6042 42.7387 79.641 42.7387 79.6615 42.7346C79.7311 42.7264 79.8006 42.7182 79.8661 42.7059C79.8743 42.7059 79.8784 42.7059 79.8825 42.7018C79.9602 42.6854 80.0298 42.6691 80.0993 42.6486C80.1198 42.6445 80.1443 42.6404 80.1648 42.6322C80.1648 42.6322 80.1689 42.6322 80.173 42.6322C80.1853 42.6322 80.1934 42.624 80.2057 42.6199C80.2712 42.5953 80.3326 42.5707 80.3899 42.5421C80.4103 42.5298 80.4308 42.5216 80.4553 42.5093C80.4799 42.497 80.5044 42.4847 80.529 42.4724C80.5413 42.4642 80.5535 42.456 80.5658 42.4478C80.6108 42.4191 80.6518 42.3864 80.6927 42.3536C80.709 42.3413 80.7254 42.3331 80.7377 42.3208C80.7459 42.3126 80.754 42.3044 80.7581 42.2962C80.7745 42.284 80.7868 42.2676 80.7991 42.2512C80.8113 42.2348 80.8318 42.2225 80.8441 42.2061C80.8604 42.1856 80.8686 42.1692 80.8809 42.1488C80.8891 42.1406 80.8932 42.1283 80.9014 42.1201C80.9014 42.116 80.9095 42.1078 80.9136 42.1037C80.93 42.0709 80.9464 42.0381 80.9586 42.0054C80.9586 41.9972 80.9627 41.989 80.9668 41.9808C80.9668 41.9726 80.9709 41.9644 80.975 41.9562C80.975 41.9439 80.9832 41.9275 80.9873 41.9152C80.9955 41.8825 80.9955 41.8538 80.9996 41.821C80.9996 41.8169 80.9996 41.8128 80.9996 41.8087V40.4813C80.9996 40.5305 80.9955 40.5837 80.9791 40.6329L80.9873 40.6247Z" fill="url(#paint14_linear_599_10690)"/>
<path d="M80.6764 39.9077C81.4293 40.469 80.8319 41.3211 79.6207 41.4154L64.2389 42.6239C63.711 42.6649 63.2282 42.5502 62.8926 42.3577C62.4507 42.1036 62.2543 41.7062 62.5162 41.3375L63.4573 39.9938C61.0512 38.5639 59.0012 36.9252 57.5649 35.1062C56.2063 33.3896 55.478 31.5255 55.5721 29.6368C55.6007 28.797 55.8626 27.9571 56.2759 27.1541C56.4887 26.7403 56.7628 26.3429 57.0452 25.9415C57.3316 25.5441 58.0682 25.3064 58.8007 25.3802C59.1444 25.413 59.4472 25.5072 59.6804 25.6424C59.9955 25.8226 60.1797 26.0767 60.1633 26.343C60.1428 26.7444 60.1428 27.1418 60.1878 27.5474C60.2656 28.1906 60.5111 28.8625 60.9285 29.4648C61.1904 29.8458 61.4727 30.2186 61.8246 30.575C62.3075 31.0626 62.8763 31.5173 63.5105 31.9434C63.7601 32.1114 64.0179 32.2711 64.2839 32.4268C65.3069 33.0168 66.469 33.5248 67.6844 33.9795C67.8971 33.6723 68.1099 33.3691 68.3268 33.0618C68.5396 32.7505 68.9324 32.5169 69.5094 32.4391C70.0495 32.3695 70.6265 32.4678 71.0152 32.6972C71.0602 32.7259 71.1052 32.7546 71.1462 32.7832L80.6846 39.9077H80.6764Z" fill="url(#paint15_linear_599_10690)"/>
<path d="M126.2 44.3077V33.918C126.2 33.1109 125.771 32.3653 125.075 31.9638L116.65 27.0926C115.954 26.6911 115.095 26.6911 114.395 27.0926L105.97 31.9638C105.274 32.3653 104.844 33.1109 104.844 33.9139V44.3036C104.844 44.7051 105.057 45.0779 105.409 45.2787L114.395 50.4735C115.091 50.875 115.95 50.875 116.646 50.4735L125.632 45.2787C125.979 45.0779 126.196 44.7051 126.196 44.3036L126.2 44.3077Z" fill="url(#paint16_linear_599_10690)"/>
<path d="M124.51 31.6402L116.649 27.0968C115.954 26.6953 115.095 26.6953 114.399 27.0968L106.538 31.6402C105.789 32.0745 105.789 33.1602 106.538 33.5944L114.399 38.1379C115.099 38.5394 115.958 38.5394 116.654 38.1379L124.514 33.5944C125.263 33.1602 125.263 32.0745 124.514 31.6402H124.51Z" fill="url(#paint17_linear_599_10690)"/>
<path d="M115.52 49.179V40.0921C115.52 39.285 115.091 38.5394 114.395 38.1379L106.534 33.5944C105.785 33.1602 104.844 33.7009 104.844 34.5695V44.3078C104.844 44.7093 105.057 45.0821 105.409 45.2828L113.834 50.154C114.583 50.5883 115.524 50.0475 115.524 49.179H115.52Z" fill="url(#paint18_linear_599_10690)"/>
<path d="M115.52 49.1789V40.092C115.52 39.2849 115.95 38.5393 116.649 38.1337L124.51 33.5903C125.259 33.156 126.2 33.6968 126.2 34.5653V44.3036C126.2 44.7051 125.987 45.0779 125.635 45.2787L117.21 50.1499C116.461 50.5841 115.52 50.0433 115.52 49.1748V49.1789Z" fill="url(#paint19_linear_599_10690)"/>
<path d="M111.387 52.9153V42.5256C111.387 41.7185 110.958 40.9729 110.262 40.5714L101.837 35.7002C101.141 35.2987 100.282 35.2987 99.5819 35.7002L91.1565 40.5714C90.4609 40.9729 90.0312 41.7185 90.0312 42.5215V52.9112C90.0312 53.3126 90.244 53.6855 90.5959 53.8862L99.5819 59.0811C100.278 59.4826 101.137 59.4826 101.833 59.0811L110.819 53.8862C111.166 53.6855 111.383 53.3126 111.383 52.9112L111.387 52.9153Z" fill="url(#paint20_linear_599_10690)"/>
<path d="M109.702 40.2478L101.841 35.7043C101.145 35.3028 100.286 35.3028 99.5903 35.7043L91.7296 40.2478C90.9808 40.682 90.9808 41.7677 91.7296 42.202L99.5903 46.7454C100.29 47.1469 101.149 47.1469 101.845 46.7454L109.706 42.202C110.455 41.7677 110.455 40.682 109.706 40.2478H109.702Z" fill="url(#paint21_linear_599_10690)"/>
<path d="M100.711 57.7865V48.6996C100.711 47.8925 100.281 47.1469 99.5858 46.7454L91.7251 42.202C90.9763 41.7677 90.0352 42.3085 90.0352 43.177V52.9153C90.0352 53.3168 90.2479 53.6896 90.5998 53.8904L99.0252 58.7616C99.7741 59.1958 100.715 58.655 100.715 57.7865H100.711Z" fill="url(#paint22_linear_599_10690)"/>
<path d="M100.711 57.7864V48.6996C100.711 47.8925 101.141 47.1469 101.841 46.7413L109.702 42.1978C110.45 41.7636 111.392 42.3043 111.392 43.1729V52.9112C111.392 53.3127 111.179 53.6855 110.827 53.8862L102.401 58.7574C101.653 59.1917 100.711 58.6509 100.711 57.7823V57.7864Z" fill="url(#paint23_linear_599_10690)"/>
<path d="M96.5782 61.5228V51.1331C96.5782 50.326 96.1486 49.5804 95.4529 49.1789L87.0275 44.3077C86.3319 43.9062 85.4726 43.9062 84.7729 44.3077L76.3475 49.1789C75.6518 49.5804 75.2222 50.326 75.2222 51.129V61.5187C75.2222 61.9202 75.4349 62.293 75.7869 62.4938L84.7729 67.6886C85.4685 68.0901 86.3278 68.0901 87.0234 67.6886L96.0094 62.4938C96.3573 62.293 96.5741 61.9202 96.5741 61.5187L96.5782 61.5228Z" fill="url(#paint24_linear_599_10690)"/>
<path d="M94.8881 48.8553L87.0274 44.3119C86.3318 43.9104 85.4725 43.9104 84.7768 44.3119L76.9161 48.8553C76.1673 49.2896 76.1673 50.3752 76.9161 50.8095L84.7768 55.353C85.4765 55.7544 86.3359 55.7544 87.0315 55.353L94.8922 50.8095C95.641 50.3752 95.641 49.2896 94.8922 48.8553H94.8881Z" fill="url(#paint25_linear_599_10690)"/>
<path d="M85.9021 66.394V57.3072C85.9021 56.5001 85.4724 55.7545 84.7768 55.353L76.9161 50.8095C76.1672 50.3752 75.2261 50.916 75.2261 51.7846V61.5229C75.2261 61.9243 75.4389 62.2972 75.7908 62.4979L84.2162 67.3691C84.965 67.8034 85.9061 67.2626 85.9061 66.394H85.9021Z" fill="url(#paint26_linear_599_10690)"/>
<path d="M85.9023 66.394V57.3071C85.9023 56.5 86.332 55.7544 87.0317 55.3488L94.8924 50.8054C95.6413 50.3711 96.5824 50.9119 96.5824 51.7804V61.5187C96.5824 61.9202 96.3696 62.293 96.0177 62.4938L87.5923 67.3649C86.8435 67.7992 85.9023 67.2584 85.9023 66.3899V66.394Z" fill="url(#paint27_linear_599_10690)"/>
<defs>
<filter id="filter0_f_599_10690" x="0" y="0" width="158" height="108" filterUnits="userSpaceOnUse" color-interpolation-filters="sRGB">
<feFlood flood-opacity="0" result="BackgroundImageFix"/>
<feBlend mode="normal" in="SourceGraphic" in2="BackgroundImageFix" result="shape"/>
<feGaussianBlur stdDeviation="17.5" result="effect1_foregroundBlur_599_10690"/>
</filter>
<linearGradient id="paint0_linear_599_10690" x1="36.4187" y1="53.9933" x2="120.375" y2="53.9933" gradientUnits="userSpaceOnUse">
<stop stop-color="#7549FA"/>
<stop offset="1" stop-color="#E94CD7"/>
</linearGradient>
<linearGradient id="paint1_linear_599_10690" x1="45.9807" y1="11.9957" x2="67.3326" y2="11.9957" gradientUnits="userSpaceOnUse">
<stop stop-color="#8546ED"/>
<stop offset="1" stop-color="#DB41D0"/>
</linearGradient>
<linearGradient id="paint2_linear_599_10690" x1="47.4127" y1="5.82169" x2="65.6384" y2="5.82169" gradientUnits="userSpaceOnUse">
<stop stop-color="#7549FA"/>
<stop offset="1" stop-color="#E94CD7"/>
</linearGradient>
<linearGradient id="paint3_linear_599_10690" x1="45.8045" y1="18.2721" x2="55.7417" y2="12.5304" gradientUnits="userSpaceOnUse">
<stop stop-color="#5943E3"/>
<stop offset="1" stop-color="#6B35B3"/>
</linearGradient>
<linearGradient id="paint4_linear_599_10690" x1="57.2664" y1="23.049" x2="66.2108" y2="8.32613" gradientUnits="userSpaceOnUse">
<stop stop-color="#894BFE"/>
<stop offset="0.19" stop-color="#9E48F2"/>
<stop offset="0.53" stop-color="#BF44DF"/>
<stop offset="0.81" stop-color="#D341D4"/>
<stop offset="1" stop-color="#DB41D0"/>
</linearGradient>
<linearGradient id="paint5_linear_599_10690" x1="31" y1="20.6687" x2="52.352" y2="20.6687" gradientUnits="userSpaceOnUse">
<stop stop-color="#8546ED"/>
<stop offset="1" stop-color="#DB41D0"/>
</linearGradient>
<linearGradient id="paint6_linear_599_10690" x1="32.4363" y1="14.4948" x2="50.6579" y2="14.4948" gradientUnits="userSpaceOnUse">
<stop stop-color="#7549FA"/>
<stop offset="1" stop-color="#E94CD7"/>
</linearGradient>
<linearGradient id="paint7_linear_599_10690" x1="30.8281" y1="26.9452" x2="40.7612" y2="21.2035" gradientUnits="userSpaceOnUse">
<stop stop-color="#5943E3"/>
<stop offset="1" stop-color="#6B35B3"/>
</linearGradient>
<linearGradient id="paint8_linear_599_10690" x1="42.2855" y1="31.7221" x2="51.2298" y2="16.9992" gradientUnits="userSpaceOnUse">
<stop stop-color="#894BFE"/>
<stop offset="0.19" stop-color="#9E48F2"/>
<stop offset="0.53" stop-color="#BF44DF"/>
<stop offset="0.81" stop-color="#D341D4"/>
<stop offset="1" stop-color="#DB41D0"/>
</linearGradient>
<linearGradient id="paint9_linear_599_10690" x1="85.0879" y1="22.8729" x2="86.1518" y2="22.8729" gradientUnits="userSpaceOnUse">
<stop stop-color="#5943E3"/>
<stop offset="1" stop-color="#6B35B3"/>
</linearGradient>
<linearGradient id="paint10_linear_599_10690" x1="67.5331" y1="30.7881" x2="92.9935" y2="30.7881" gradientUnits="userSpaceOnUse">
<stop stop-color="#5943E3"/>
<stop offset="1" stop-color="#6B35B3"/>
</linearGradient>
<linearGradient id="paint11_linear_599_10690" x1="67.5372" y1="29.0428" x2="92.9934" y2="29.0428" gradientUnits="userSpaceOnUse">
<stop stop-color="#7549FA"/>
<stop offset="1" stop-color="#E94CD7"/>
</linearGradient>
<linearGradient id="paint12_linear_599_10690" x1="60.1349" y1="27.2238" x2="60.1553" y2="27.2238" gradientUnits="userSpaceOnUse">
<stop stop-color="#5943E3"/>
<stop offset="1" stop-color="#6B35B3"/>
</linearGradient>
<linearGradient id="paint13_linear_599_10690" x1="55.5516" y1="35.6306" x2="63.4533" y2="35.6306" gradientUnits="userSpaceOnUse">
<stop stop-color="#5943E3"/>
<stop offset="1" stop-color="#6B35B3"/>
</linearGradient>
<linearGradient id="paint14_linear_599_10690" x1="62.3933" y1="42.2184" x2="81.0118" y2="42.2184" gradientUnits="userSpaceOnUse">
<stop stop-color="#5943E3"/>
<stop offset="1" stop-color="#6B35B3"/>
</linearGradient>
<linearGradient id="paint15_linear_599_10690" x1="55.5557" y1="34" x2="81.0119" y2="34" gradientUnits="userSpaceOnUse">
<stop stop-color="#7549FA"/>
<stop offset="1" stop-color="#E94CD7"/>
</linearGradient>
<linearGradient id="paint16_linear_599_10690" x1="104.844" y1="38.7892" x2="126.2" y2="38.7892" gradientUnits="userSpaceOnUse">
<stop stop-color="#8546ED"/>
<stop offset="1" stop-color="#DB41D0"/>
</linearGradient>
<linearGradient id="paint17_linear_599_10690" x1="106.28" y1="32.6153" x2="124.506" y2="32.6153" gradientUnits="userSpaceOnUse">
<stop stop-color="#7549FA"/>
<stop offset="1" stop-color="#E94CD7"/>
</linearGradient>
<linearGradient id="paint18_linear_599_10690" x1="104.672" y1="45.0698" x2="114.61" y2="39.324" gradientUnits="userSpaceOnUse">
<stop stop-color="#5943E3"/>
<stop offset="1" stop-color="#6B35B3"/>
</linearGradient>
<linearGradient id="paint19_linear_599_10690" x1="116.134" y1="49.8467" x2="125.078" y2="35.1197" gradientUnits="userSpaceOnUse">
<stop stop-color="#894BFE"/>
<stop offset="0.19" stop-color="#9E48F2"/>
<stop offset="0.53" stop-color="#BF44DF"/>
<stop offset="0.81" stop-color="#D341D4"/>
<stop offset="1" stop-color="#DB41D0"/>
</linearGradient>
<linearGradient id="paint20_linear_599_10690" x1="90.0353" y1="47.3968" x2="111.387" y2="47.3968" gradientUnits="userSpaceOnUse">
<stop stop-color="#8546ED"/>
<stop offset="1" stop-color="#DB41D0"/>
</linearGradient>
<linearGradient id="paint21_linear_599_10690" x1="91.4718" y1="41.2228" x2="109.697" y2="41.2228" gradientUnits="userSpaceOnUse">
<stop stop-color="#7549FA"/>
<stop offset="1" stop-color="#E94CD7"/>
</linearGradient>
<linearGradient id="paint22_linear_599_10690" x1="89.8633" y1="53.6773" x2="99.7964" y2="47.9315" gradientUnits="userSpaceOnUse">
<stop stop-color="#5943E3"/>
<stop offset="1" stop-color="#6B35B3"/>
</linearGradient>
<linearGradient id="paint23_linear_599_10690" x1="101.321" y1="58.4542" x2="110.265" y2="43.7272" gradientUnits="userSpaceOnUse">
<stop stop-color="#894BFE"/>
<stop offset="0.19" stop-color="#9E48F2"/>
<stop offset="0.53" stop-color="#BF44DF"/>
<stop offset="0.81" stop-color="#D341D4"/>
<stop offset="1" stop-color="#DB41D0"/>
</linearGradient>
<linearGradient id="paint24_linear_599_10690" x1="75.2263" y1="56.0043" x2="96.5782" y2="56.0043" gradientUnits="userSpaceOnUse">
<stop stop-color="#8546ED"/>
<stop offset="1" stop-color="#DB41D0"/>
</linearGradient>
<linearGradient id="paint25_linear_599_10690" x1="76.6624" y1="49.8345" x2="94.884" y2="49.8345" gradientUnits="userSpaceOnUse">
<stop stop-color="#7549FA"/>
<stop offset="1" stop-color="#E94CD7"/>
</linearGradient>
<linearGradient id="paint26_linear_599_10690" x1="75.0542" y1="62.2849" x2="84.9873" y2="56.5391" gradientUnits="userSpaceOnUse">
<stop stop-color="#5943E3"/>
<stop offset="1" stop-color="#6B35B3"/>
</linearGradient>
<linearGradient id="paint27_linear_599_10690" x1="86.512" y1="67.0618" x2="95.4564" y2="52.3348" gradientUnits="userSpaceOnUse">
<stop stop-color="#894BFE"/>
<stop offset="0.19" stop-color="#9E48F2"/>
<stop offset="0.53" stop-color="#BF44DF"/>
<stop offset="0.81" stop-color="#D341D4"/>
<stop offset="1" stop-color="#DB41D0"/>
</linearGradient>
</defs>
</svg>
