<svg width="120" height="26" viewBox="0 0 120 26" fill="none" xmlns="http://www.w3.org/2000/svg">
<path d="M39.1979 18.0493L30.5829 3.09393C28.6943 -0.0231329 24.0885 -0.0562943 22.2661 3.22656L13.2205 18.7788C11.5306 21.6305 13.6181 25.2118 16.9978 25.2118H35.1223C38.5352 25.2118 41.0865 21.531 39.1979 18.0493Z" fill="#3156AA"/>
<path d="M26.7727 19.2098L26.2426 18.2814C25.7456 17.4192 24.6522 15.5622 24.6522 15.5622L17.3626 2.895C15.474 0.07638 11.0009 -0.155743 9.11219 3.3924L0.629801 18.0824C-1.12632 21.1663 0.961143 25.1786 4.7716 25.2119H22.7966H30.4838H35.0564C30.3845 25.245 28.8935 22.8243 26.7727 19.2098Z" fill="#1972E2"/>
<path d="M26.7733 19.2097L26.2432 18.2814C25.7462 17.4192 24.6527 15.5622 24.6527 15.5622L19.9476 7.27209L13.1882 18.8119C11.4985 21.6636 13.5859 25.2449 16.9656 25.2449H22.7641H30.4512H35.0569C30.3519 25.2118 28.8939 22.8243 26.7733 19.2097Z" fill="url(#paint0_linear_392_12594)"/>
<path d="M68.4434 23.8848V6.60834H82.7905V7.70263C82.7905 8.56479 82.0947 9.26115 81.2333 9.26115H72.0218V13.9036H81.2333V16.5565H72.0218V21.1988H81.2333C82.0947 21.1988 82.7905 21.8952 82.7905 22.7574V23.8517L68.4434 23.8848Z" fill="#EDEFF2"/>
<path d="M103.4 6.60834H100.02C99.3907 6.60834 98.8274 6.87362 98.4298 7.37102L94.3543 12.5109L90.2787 7.40418C89.8812 6.90678 89.3178 6.64149 88.6884 6.64149H85.3086L92.1674 15.2631L85.3086 23.8848H88.6884C89.3178 23.8848 89.8812 23.6196 90.2787 23.1222L94.3543 18.0155L98.4629 23.1553C98.8605 23.6196 99.4239 23.918 100.053 23.918H103.433L96.5743 15.2963L103.4 6.60834Z" fill="#EDEFF2"/>
<path d="M57.21 22.0622L61.915 13.8385V23.8529H65.4936V6.57642H63.2736C62.5778 6.57642 61.915 6.94117 61.5838 7.57122L55.9509 17.8509L50.3181 7.57122C49.9867 6.94117 49.324 6.57642 48.6281 6.57642H46.4082V23.8529H49.9867V13.8385L54.6917 22.0622H57.21Z" fill="#EDEFF2"/>
<path d="M112.744 24.0841C107.774 24.1504 103.731 20.2374 103.698 15.2634C103.698 12.5443 104.527 10.2894 106.084 8.73085C107.641 7.20548 109.894 6.37646 112.578 6.37646C115.726 6.37646 118.211 7.47076 120 9.59302L118.874 10.5547C118.178 11.1515 117.151 11.1847 116.389 10.621C115.395 9.85829 114.135 9.49353 112.711 9.49353C109.198 9.49353 107.111 11.6158 107.111 15.1971C107.111 18.8115 109.265 21.0333 112.711 21.0333C114.169 21.0333 115.395 20.6354 116.389 19.9059C117.118 19.3421 118.145 19.3753 118.874 19.9722L120 20.9338C118.211 23.0229 115.825 24.0841 112.744 24.0841Z" fill="#EDEFF2"/>
<defs>
<linearGradient id="paint0_linear_392_12594" x1="10.7826" y1="13.5685" x2="31.7268" y2="21.3022" gradientUnits="userSpaceOnUse">
<stop stop-color="#264CA2" stop-opacity="0"/>
<stop offset="1" stop-color="#234588"/>
</linearGradient>
</defs>
</svg>
