<svg width="114" height="32" viewBox="0 0 114 32" fill="none" xmlns="http://www.w3.org/2000/svg">
<path d="M0.273438 16.0512C0.273438 13.3328 1.18214 11.0932 2.99953 9.33222C4.81693 7.57127 7.1144 6.6908 9.89193 6.6908C12.7037 6.6908 15.0098 7.56272 16.81 9.30657C18.6274 11.0504 19.5361 13.2815 19.5361 15.9999C19.5361 18.7182 18.6274 20.9493 16.81 22.6932C14.9926 24.4371 12.6695 25.309 9.84049 25.309C7.06296 25.309 4.77407 24.4456 2.97382 22.7188C1.17356 20.975 0.273438 18.7524 0.273438 16.0512ZM6.29142 19.7697C7.23441 20.7271 8.42601 21.2058 9.86621 21.2058C11.3064 21.2058 12.5066 20.7271 13.4667 19.7697C14.4268 18.7952 14.9069 17.5471 14.9069 16.0255C14.9069 14.4697 14.4268 13.2131 13.4667 12.2557C12.5237 11.2812 11.3321 10.794 9.89193 10.794C8.45173 10.794 7.26013 11.2812 6.31714 12.2557C5.37415 13.2131 4.90266 14.4697 4.90266 16.0255C4.90266 17.5642 5.36558 18.8123 6.29142 19.7697Z" fill="white"/>
<path d="M41.8337 7.69095C41.8337 7.24644 42.0566 7.02418 42.5024 7.02418H45.6143C46.0772 7.02418 46.3086 7.24644 46.3086 7.69095V16.9231C46.3086 18.3079 46.6173 19.3679 47.2345 20.1031C47.8517 20.8382 48.7604 21.2058 49.9606 21.2058C51.1436 21.2058 52.0523 20.8382 52.6867 20.1031C53.3211 19.3679 53.6382 18.3079 53.6382 16.9231V7.69095C53.6382 7.24644 53.8611 7.02418 54.3069 7.02418H57.4188C57.8817 7.02418 58.1132 7.24644 58.1132 7.69095V17.2308C58.1132 19.8637 57.3588 21.8726 55.85 23.2574C54.3412 24.6251 52.3266 25.309 49.8063 25.309C47.3717 25.309 45.4342 24.6422 43.994 23.3087C42.5538 21.958 41.8337 19.9492 41.8337 17.2821V7.69095Z" fill="white"/>
<path d="M61.8792 19.8466C62.0335 19.5902 62.205 19.4619 62.3936 19.4619C62.5136 19.4619 62.6765 19.5389 62.8822 19.6928C64.2538 20.7356 65.7198 21.2571 67.28 21.2571C68.103 21.2571 68.7287 21.1289 69.1574 20.8724C69.6032 20.5989 69.826 20.2398 69.826 19.7953C69.826 19.3508 69.5946 19.0089 69.1317 18.7695C68.6859 18.5131 67.8372 18.231 66.5856 17.9233C64.6825 17.4616 63.2594 16.8205 62.3164 15.9999C61.3906 15.1622 60.9277 13.9739 60.9277 12.4353C60.9277 10.623 61.562 9.21254 62.8308 8.20384C64.0995 7.19515 65.754 6.6908 67.7943 6.6908C70.1604 6.6908 72.2607 7.42595 74.0952 8.89626C74.301 9.05013 74.4038 9.22109 74.4038 9.40915C74.4038 9.58012 74.3438 9.75109 74.2238 9.92205L72.835 12.1275C72.6807 12.3669 72.5178 12.4865 72.3464 12.4865C72.2092 12.4865 72.0463 12.4182 71.8577 12.2814C70.4518 11.2556 69.0888 10.7427 67.7686 10.7427C67.0828 10.7427 66.5427 10.8795 66.1484 11.153C65.754 11.4095 65.5569 11.7514 65.5569 12.1788C65.5569 12.6404 65.7712 12.9909 66.1998 13.2302C66.6456 13.4696 67.4429 13.726 68.5916 13.9996C70.5976 14.4954 72.0721 15.1707 73.0151 16.0255C73.9752 16.8633 74.4553 18.0258 74.4553 19.5132C74.4553 21.3084 73.8037 22.7274 72.5007 23.7703C71.1977 24.7961 69.4574 25.309 67.28 25.309C64.7253 25.309 62.5393 24.5824 60.7219 23.1292C60.4647 22.924 60.3361 22.7274 60.3361 22.5393C60.3361 22.3684 60.4047 22.1803 60.5419 21.9751L61.8792 19.8466Z" fill="white"/>
<path d="M38.6582 24.4258C38.6582 24.8703 38.4353 25.0925 37.9896 25.0925H34.8777C34.4148 25.0925 34.1833 24.8703 34.1833 24.4258V15.1936C34.1833 13.8088 33.8747 12.7488 33.2575 12.0136C32.6402 11.2785 31.7315 10.9109 30.5314 10.9109C29.3483 10.9109 28.4396 11.2785 27.8053 12.0136C27.1709 12.7488 26.8537 13.8088 26.8537 15.1936L26.8537 24.4258C26.8537 24.8703 26.6308 25.0925 26.1851 25.0925H23.0732C22.6103 25.0925 22.3788 24.8703 22.3788 24.4258L22.3788 14.8859C22.3788 12.253 23.1332 10.2441 24.642 8.85931C26.1508 7.49158 28.1653 6.80771 30.6857 6.80772C33.1203 6.80772 35.0577 7.47448 36.4979 8.80802C37.9381 10.1586 38.6582 12.1675 38.6582 14.8346V24.4258Z" fill="white"/>
<path fill-rule="evenodd" clip-rule="evenodd" d="M113.728 16C113.728 24.8366 106.564 32 97.7275 32C88.891 32 81.7275 24.8366 81.7275 16C81.7275 13.9042 82.1305 11.9026 82.8631 10.0683C83.079 9.52772 83.7271 9.32914 84.2312 9.6202L88.6203 12.1542C89.0533 12.4042 89.229 12.9343 89.0858 13.4133C88.8409 14.2327 88.7094 15.101 88.7094 16.0001C88.7094 20.9807 92.7469 25.0182 97.7275 25.0182C102.708 25.0182 106.746 20.9807 106.746 16.0001C106.746 15.1329 106.623 14.2944 106.395 13.5008C106.258 13.0244 106.435 12.5008 106.864 12.2529L111.261 9.71421C111.767 9.4219 112.418 9.62362 112.631 10.168C113.339 11.975 113.728 13.9421 113.728 16ZM110.298 6.1007C110.659 6.55813 110.507 7.21933 110.003 7.5106L105.615 10.0437C105.182 10.2937 104.635 10.181 104.293 9.8171C102.648 8.07158 100.315 6.98188 97.7275 6.98188C95.1729 6.98188 92.8663 8.04411 91.2255 9.75099C90.8819 10.1084 90.3399 10.217 89.9106 9.96912L85.5151 7.43138C85.0085 7.13886 84.8581 6.47373 85.2234 6.01678C88.1553 2.34931 92.6671 0 97.7275 0C102.827 0 107.368 2.38519 110.298 6.1007Z" fill="#0068FF"/>
</svg>
