<svg width="64" height="64" viewBox="0 0 64 64" fill="none" xmlns="http://www.w3.org/2000/svg">
<path d="M54.6249 9.37788C42.1237 -3.12311 21.8577 -3.13592 9.35197 9.3992C-3.11519 21.9002 -3.128 42.1187 9.37759 54.6239C21.8789 67.1248 42.1407 67.1331 54.6422 54.6023C67.118 42.1016 67.1263 21.8831 54.6249 9.37788ZM32.0013 58.3951C17.4456 58.3951 5.60628 46.5561 5.60628 32.0008C5.60628 17.4456 17.4456 5.60667 32.0013 5.60667C46.5571 5.60667 57.4522 16.4591 58.341 30.2798C59.3232 45.7617 47.0396 58.3951 32.0013 58.3951Z" fill="url(#paint0_linear_599_1191)"/>
<path d="M32.3347 57.5402C46.3741 57.5402 57.7553 46.1591 57.7553 32.1196C57.7553 18.0802 46.3741 6.6991 32.3347 6.6991C18.2953 6.6991 6.91406 18.0802 6.91406 32.1196C6.91406 46.1591 18.2953 57.5402 32.3347 57.5402Z" fill="url(#paint1_linear_599_1191)" stroke="#131419" stroke-width="4"/>
<path d="M37.7674 30.1276C36.9929 31.4504 35.7807 32.4549 34.3427 32.9681L36.0019 41.5911C36.0638 41.9053 36.0549 42.2282 35.9754 42.538C35.8957 42.8476 35.7497 43.1353 35.5506 43.3829C35.347 43.6307 35.0948 43.8298 34.8073 43.9626C34.5197 44.0997 34.2056 44.1706 33.887 44.1706H30.4845C30.166 44.1706 29.8519 44.0997 29.5643 43.9626C29.2767 43.8255 29.0201 43.6264 28.821 43.3829C28.6174 43.1353 28.4714 42.8476 28.3962 42.538C28.3165 42.2282 28.3077 41.9053 28.3697 41.5911L30.0333 32.9681C28.5953 32.4549 27.3785 31.4504 26.6087 30.1276C25.8344 28.8047 25.5557 27.2518 25.8123 25.7387C26.0689 24.2255 26.852 22.8583 28.0201 21.8673C29.1882 20.8807 30.6659 20.3364 32.1924 20.3364C33.7188 20.3364 35.1966 20.8762 36.3647 21.8673C37.5328 22.854 38.3159 24.2255 38.5725 25.7387C38.8291 27.2518 38.5505 28.8047 37.7761 30.1276H37.7674Z" fill="#131419"/>
<defs>
<linearGradient id="paint0_linear_599_1191" x1="4.06719e-06" y1="38.7162" x2="60.9089" y2="43.2428" gradientUnits="userSpaceOnUse">
<stop stop-color="#5EE6D0"/>
<stop offset="0.515056" stop-color="#BFC6FF"/>
<stop offset="1" stop-color="#FFBA69"/>
</linearGradient>
<linearGradient id="paint1_linear_599_1191" x1="8.11033" y1="37.2038" x2="54.2191" y2="40.6305" gradientUnits="userSpaceOnUse">
<stop stop-color="#5EE6D0"/>
<stop offset="0.515056" stop-color="#BFC6FF"/>
<stop offset="1" stop-color="#FFBA69"/>
</linearGradient>
</defs>
</svg>
