<svg width="1440" height="342" viewBox="0 0 1440 342" fill="none" xmlns="http://www.w3.org/2000/svg">
<g clip-path="url(#clip0_1_3611)">
<mask id="mask0_1_3611" style="mask-type:alpha" maskUnits="userSpaceOnUse" x="0" y="0" width="1441" height="342">
<rect width="1441" height="342" fill="url(#paint0_radial_1_3611)"/>
</mask>
<g mask="url(#mask0_1_3611)">
<path opacity="0.3" d="M120 171V146.581C120 141.059 124.477 136.581 130 136.581H186C191.523 136.581 196 132.104 196 126.581V0" stroke="url(#paint1_linear_1_3611)"/>
<path opacity="0.3" d="M600 171V146.581C600 141.059 595.523 136.581 590 136.581H534C528.477 136.581 524 132.104 524 126.581V0" stroke="url(#paint2_linear_1_3611)"/>
<path opacity="0.3" d="M1248 342.288L1248 204.788C1248 199.265 1252.48 194.788 1258 194.788H1310C1315.52 194.788 1320 190.311 1320 184.788V171.288" stroke="url(#paint3_linear_1_3611)"/>
<path opacity="0.3" d="M360 171V216.5C360 222.023 364.477 226.5 370 226.5H429C434.523 226.5 439 230.977 439 236.5V342" stroke="url(#paint4_linear_1_3611)"/>
<path opacity="0.3" d="M840 171V216.5C840 222.023 835.523 226.5 830 226.5H771C765.477 226.5 761 230.977 761 236.5V342" stroke="url(#paint5_linear_1_3611)"/>
<path opacity="0.3" d="M1080 171V125.5C1080 119.977 1084.48 115.5 1090 115.5H1215C1220.52 115.5 1225 111.023 1225 105.5V0" stroke="url(#paint6_linear_1_3611)"/>
<g style="mix-blend-mode:screen" filter="url(#filter0_f_1_3611)">
<circle cx="396" cy="226" r="3" fill="url(#paint7_linear_1_3611)"/>
</g>
<g style="mix-blend-mode:screen" filter="url(#filter1_f_1_3611)">
<circle cx="396" cy="226" r="1" fill="url(#paint8_linear_1_3611)"/>
</g>
<g style="mix-blend-mode:screen" filter="url(#filter2_f_1_3611)">
<circle cx="524" cy="65" r="3" fill="url(#paint9_linear_1_3611)"/>
</g>
<g style="mix-blend-mode:screen" filter="url(#filter3_f_1_3611)">
<circle cx="524" cy="65" r="1" fill="url(#paint10_linear_1_3611)"/>
</g>
<g style="mix-blend-mode:screen" filter="url(#filter4_f_1_3611)">
<circle cx="796" cy="226" r="3" fill="url(#paint11_linear_1_3611)"/>
</g>
<g style="mix-blend-mode:screen" filter="url(#filter5_f_1_3611)">
<circle cx="796" cy="226" r="1" fill="url(#paint12_linear_1_3611)"/>
</g>
<g style="mix-blend-mode:screen" filter="url(#filter6_f_1_3611)">
<circle cx="1248" cy="301.288" r="3" fill="url(#paint13_linear_1_3611)"/>
</g>
<g style="mix-blend-mode:screen" filter="url(#filter7_f_1_3611)">
<circle cx="1248" cy="301.288" r="1" fill="url(#paint14_linear_1_3611)"/>
</g>
<g style="mix-blend-mode:screen" filter="url(#filter8_f_1_3611)">
<path d="M1083 134C1083 135.657 1081.66 137 1080 137C1078.34 137 1077 135.657 1077 134C1077 132.343 1078.34 131 1080 131C1081.66 131 1083 132.343 1083 134Z" fill="url(#paint15_linear_1_3611)"/>
</g>
<g style="mix-blend-mode:screen" filter="url(#filter9_f_1_3611)">
<path d="M1081 134C1081 134.552 1080.55 135 1080 135C1079.45 135 1079 134.552 1079 134C1079 133.448 1079.45 133 1080 133C1080.55 133 1081 133.448 1081 134Z" fill="url(#paint16_linear_1_3611)"/>
</g>
<g style="mix-blend-mode:screen" filter="url(#filter10_f_1_3611)">
<circle cx="196" cy="102" r="3" fill="url(#paint17_linear_1_3611)"/>
</g>
<g style="mix-blend-mode:screen" filter="url(#filter11_f_1_3611)">
<circle cx="196" cy="102" r="1" fill="url(#paint18_linear_1_3611)"/>
</g>
<path opacity="0.3" d="M0 171H1440" stroke="url(#paint19_linear_1_3611)" stroke-width="2"/>
<g style="mix-blend-mode:screen" filter="url(#filter12_f_1_3611)">
<path d="M0 171H600" stroke="url(#paint20_linear_1_3611)" stroke-width="2"/>
</g>
<path d="M0 171H600" stroke="url(#paint21_linear_1_3611)" stroke-width="2"/>
<circle opacity="0.4" cx="120" cy="171" r="15" fill="url(#paint22_linear_1_3611)"/>
<circle opacity="0.4" cx="120" cy="171" r="10" fill="url(#paint23_linear_1_3611)"/>
<circle opacity="0.4" cx="120" cy="171" r="5" fill="url(#paint24_linear_1_3611)"/>
<circle opacity="0.5" cx="360" cy="171" r="15" fill="url(#paint25_linear_1_3611)"/>
<circle opacity="0.5" cx="360" cy="171" r="10" fill="url(#paint26_linear_1_3611)"/>
<circle opacity="0.5" cx="360" cy="171" r="5" fill="url(#paint27_linear_1_3611)"/>
<circle opacity="0.5" cx="600" cy="171" r="15" fill="url(#paint28_linear_1_3611)"/>
<circle opacity="0.5" cx="600" cy="171" r="10" fill="url(#paint29_linear_1_3611)"/>
<circle opacity="0.5" cx="600" cy="171" r="5" fill="url(#paint30_linear_1_3611)"/>
<g opacity="0.6">
<circle opacity="0.4" cx="840" cy="171" r="15" fill="url(#paint31_linear_1_3611)"/>
<circle opacity="0.4" cx="840" cy="171" r="10" fill="url(#paint32_linear_1_3611)"/>
<circle opacity="0.4" cx="840" cy="171" r="5" fill="url(#paint33_linear_1_3611)"/>
</g>
<g opacity="0.6">
<circle opacity="0.4" cx="1080" cy="171" r="15" fill="url(#paint34_linear_1_3611)"/>
<circle opacity="0.4" cx="1080" cy="171" r="10" fill="url(#paint35_linear_1_3611)"/>
<circle opacity="0.4" cx="1080" cy="171" r="5" fill="url(#paint36_linear_1_3611)"/>
</g>
<g opacity="0.6">
<circle opacity="0.4" cx="1320" cy="171" r="15" fill="url(#paint37_linear_1_3611)"/>
<circle opacity="0.4" cx="1320" cy="171" r="10" fill="url(#paint38_linear_1_3611)"/>
<circle opacity="0.4" cx="1320" cy="171" r="5" fill="url(#paint39_linear_1_3611)"/>
</g>
<path d="M104.783 225V223.776H96.0474L101.255 218.424C103.247 216.408 104.399 214.68 104.399 212.76C104.399 211.272 103.895 210.096 102.911 209.232C101.927 208.368 100.775 207.936 99.4074 207.936C97.1754 207.936 95.3034 209.04 94.3194 211.056L95.3994 211.704C96.1914 210 97.5354 209.16 99.4074 209.16C101.519 209.16 103.103 210.528 103.103 212.76C103.103 214.056 102.191 215.64 100.391 217.512L94.2234 223.848V225H104.783ZM117.805 222.912C118.909 221.352 119.461 219.24 119.461 216.6C119.461 213.96 118.909 211.848 117.805 210.288C116.701 208.728 115.165 207.936 113.173 207.936C111.181 207.936 109.645 208.728 108.541 210.288C107.437 211.848 106.885 213.96 106.885 216.6C106.885 219.24 107.437 221.352 108.541 222.912C109.645 224.472 111.181 225.264 113.173 225.264C115.165 225.264 116.701 224.472 117.805 222.912ZM109.501 222.096C108.613 220.776 108.181 218.952 108.181 216.6C108.181 214.248 108.613 212.424 109.501 211.128C110.389 209.808 111.613 209.16 113.173 209.16C114.733 209.16 115.957 209.808 116.845 211.128C117.733 212.424 118.165 214.248 118.165 216.6C118.165 218.952 117.733 220.776 116.845 222.096C115.957 223.392 114.733 224.04 113.173 224.04C111.613 224.04 110.389 223.392 109.501 222.096ZM132.088 225V223.776H123.352L128.56 218.424C130.552 216.408 131.704 214.68 131.704 212.76C131.704 211.272 131.2 210.096 130.216 209.232C129.232 208.368 128.08 207.936 126.712 207.936C124.48 207.936 122.608 209.04 121.624 211.056L122.704 211.704C123.496 210 124.84 209.16 126.712 209.16C128.824 209.16 130.408 210.528 130.408 212.76C130.408 214.056 129.496 215.64 127.696 217.512L121.528 223.848V225H132.088ZM144.744 225V223.776H136.008L141.216 218.424C143.208 216.408 144.36 214.68 144.36 212.76C144.36 211.272 143.856 210.096 142.872 209.232C141.888 208.368 140.736 207.936 139.368 207.936C137.136 207.936 135.264 209.04 134.28 211.056L135.36 211.704C136.152 210 137.496 209.16 139.368 209.16C141.48 209.16 143.064 210.528 143.064 212.76C143.064 214.056 142.152 215.64 140.352 217.512L134.184 223.848V225H144.744Z" fill="url(#paint40_linear_1_3611)"/>
<path d="M1304.97 133V131.776H1296.23L1301.44 126.424C1303.43 124.408 1304.58 122.68 1304.58 120.76C1304.58 119.272 1304.08 118.096 1303.1 117.232C1302.11 116.368 1300.96 115.936 1299.59 115.936C1297.36 115.936 1295.49 117.04 1294.5 119.056L1295.58 119.704C1296.38 118 1297.72 117.16 1299.59 117.16C1301.7 117.16 1303.29 118.528 1303.29 120.76C1303.29 122.056 1302.38 123.64 1300.58 125.512L1294.41 131.848V133H1304.97ZM1317.99 130.912C1319.09 129.352 1319.64 127.24 1319.64 124.6C1319.64 121.96 1319.09 119.848 1317.99 118.288C1316.88 116.728 1315.35 115.936 1313.36 115.936C1311.36 115.936 1309.83 116.728 1308.72 118.288C1307.62 119.848 1307.07 121.96 1307.07 124.6C1307.07 127.24 1307.62 129.352 1308.72 130.912C1309.83 132.472 1311.36 133.264 1313.36 133.264C1315.35 133.264 1316.88 132.472 1317.99 130.912ZM1309.68 130.096C1308.8 128.776 1308.36 126.952 1308.36 124.6C1308.36 122.248 1308.8 120.424 1309.68 119.128C1310.57 117.808 1311.8 117.16 1313.36 117.16C1314.92 117.16 1316.14 117.808 1317.03 119.128C1317.92 120.424 1318.35 122.248 1318.35 124.6C1318.35 126.952 1317.92 128.776 1317.03 130.096C1316.14 131.392 1314.92 132.04 1313.36 132.04C1311.8 132.04 1310.57 131.392 1309.68 130.096ZM1332.27 133V131.776H1323.54L1328.74 126.424C1330.74 124.408 1331.89 122.68 1331.89 120.76C1331.89 119.272 1331.38 118.096 1330.4 117.232C1329.42 116.368 1328.26 115.936 1326.9 115.936C1324.66 115.936 1322.79 117.04 1321.81 119.056L1322.89 119.704C1323.68 118 1325.02 117.16 1326.9 117.16C1329.01 117.16 1330.59 118.528 1330.59 120.76C1330.59 122.056 1329.68 123.64 1327.88 125.512L1321.71 131.848V133H1332.27ZM1343.86 128.272V122.992H1342.59V128.272H1334.96L1341.32 116.2H1339.92L1333.54 128.272V129.472H1342.59V133H1343.86V129.472H1346.02V128.272H1343.86Z" fill="url(#paint41_linear_1_3611)"/>
</g>
</g>
<defs>
<filter id="filter0_f_1_3611" x="388" y="218" width="16" height="16" filterUnits="userSpaceOnUse" color-interpolation-filters="sRGB">
<feFlood flood-opacity="0" result="BackgroundImageFix"/>
<feBlend mode="normal" in="SourceGraphic" in2="BackgroundImageFix" result="shape"/>
<feGaussianBlur stdDeviation="2.5" result="effect1_foregroundBlur_1_3611"/>
</filter>
<filter id="filter1_f_1_3611" x="394" y="224" width="4" height="4" filterUnits="userSpaceOnUse" color-interpolation-filters="sRGB">
<feFlood flood-opacity="0" result="BackgroundImageFix"/>
<feBlend mode="normal" in="SourceGraphic" in2="BackgroundImageFix" result="shape"/>
<feGaussianBlur stdDeviation="0.5" result="effect1_foregroundBlur_1_3611"/>
</filter>
<filter id="filter2_f_1_3611" x="516" y="57" width="16" height="16" filterUnits="userSpaceOnUse" color-interpolation-filters="sRGB">
<feFlood flood-opacity="0" result="BackgroundImageFix"/>
<feBlend mode="normal" in="SourceGraphic" in2="BackgroundImageFix" result="shape"/>
<feGaussianBlur stdDeviation="2.5" result="effect1_foregroundBlur_1_3611"/>
</filter>
<filter id="filter3_f_1_3611" x="522" y="63" width="4" height="4" filterUnits="userSpaceOnUse" color-interpolation-filters="sRGB">
<feFlood flood-opacity="0" result="BackgroundImageFix"/>
<feBlend mode="normal" in="SourceGraphic" in2="BackgroundImageFix" result="shape"/>
<feGaussianBlur stdDeviation="0.5" result="effect1_foregroundBlur_1_3611"/>
</filter>
<filter id="filter4_f_1_3611" x="788" y="218" width="16" height="16" filterUnits="userSpaceOnUse" color-interpolation-filters="sRGB">
<feFlood flood-opacity="0" result="BackgroundImageFix"/>
<feBlend mode="normal" in="SourceGraphic" in2="BackgroundImageFix" result="shape"/>
<feGaussianBlur stdDeviation="2.5" result="effect1_foregroundBlur_1_3611"/>
</filter>
<filter id="filter5_f_1_3611" x="794" y="224" width="4" height="4" filterUnits="userSpaceOnUse" color-interpolation-filters="sRGB">
<feFlood flood-opacity="0" result="BackgroundImageFix"/>
<feBlend mode="normal" in="SourceGraphic" in2="BackgroundImageFix" result="shape"/>
<feGaussianBlur stdDeviation="0.5" result="effect1_foregroundBlur_1_3611"/>
</filter>
<filter id="filter6_f_1_3611" x="1240" y="293.288" width="16" height="16" filterUnits="userSpaceOnUse" color-interpolation-filters="sRGB">
<feFlood flood-opacity="0" result="BackgroundImageFix"/>
<feBlend mode="normal" in="SourceGraphic" in2="BackgroundImageFix" result="shape"/>
<feGaussianBlur stdDeviation="2.5" result="effect1_foregroundBlur_1_3611"/>
</filter>
<filter id="filter7_f_1_3611" x="1246" y="299.288" width="4" height="4" filterUnits="userSpaceOnUse" color-interpolation-filters="sRGB">
<feFlood flood-opacity="0" result="BackgroundImageFix"/>
<feBlend mode="normal" in="SourceGraphic" in2="BackgroundImageFix" result="shape"/>
<feGaussianBlur stdDeviation="0.5" result="effect1_foregroundBlur_1_3611"/>
</filter>
<filter id="filter8_f_1_3611" x="1072" y="126" width="16" height="16" filterUnits="userSpaceOnUse" color-interpolation-filters="sRGB">
<feFlood flood-opacity="0" result="BackgroundImageFix"/>
<feBlend mode="normal" in="SourceGraphic" in2="BackgroundImageFix" result="shape"/>
<feGaussianBlur stdDeviation="2.5" result="effect1_foregroundBlur_1_3611"/>
</filter>
<filter id="filter9_f_1_3611" x="1078" y="132" width="4" height="4" filterUnits="userSpaceOnUse" color-interpolation-filters="sRGB">
<feFlood flood-opacity="0" result="BackgroundImageFix"/>
<feBlend mode="normal" in="SourceGraphic" in2="BackgroundImageFix" result="shape"/>
<feGaussianBlur stdDeviation="0.5" result="effect1_foregroundBlur_1_3611"/>
</filter>
<filter id="filter10_f_1_3611" x="188" y="94" width="16" height="16" filterUnits="userSpaceOnUse" color-interpolation-filters="sRGB">
<feFlood flood-opacity="0" result="BackgroundImageFix"/>
<feBlend mode="normal" in="SourceGraphic" in2="BackgroundImageFix" result="shape"/>
<feGaussianBlur stdDeviation="2.5" result="effect1_foregroundBlur_1_3611"/>
</filter>
<filter id="filter11_f_1_3611" x="194" y="100" width="4" height="4" filterUnits="userSpaceOnUse" color-interpolation-filters="sRGB">
<feFlood flood-opacity="0" result="BackgroundImageFix"/>
<feBlend mode="normal" in="SourceGraphic" in2="BackgroundImageFix" result="shape"/>
<feGaussianBlur stdDeviation="0.5" result="effect1_foregroundBlur_1_3611"/>
</filter>
<filter id="filter12_f_1_3611" x="-6" y="164" width="612" height="14" filterUnits="userSpaceOnUse" color-interpolation-filters="sRGB">
<feFlood flood-opacity="0" result="BackgroundImageFix"/>
<feBlend mode="normal" in="SourceGraphic" in2="BackgroundImageFix" result="shape"/>
<feGaussianBlur stdDeviation="3" result="effect1_foregroundBlur_1_3611"/>
</filter>
<radialGradient id="paint0_radial_1_3611" cx="0" cy="0" r="1" gradientUnits="userSpaceOnUse" gradientTransform="translate(720.5 171) rotate(90) scale(171 1085.18)">
<stop stop-color="#08071B"/>
<stop offset="0.843166" stop-color="#08071B" stop-opacity="0"/>
<stop offset="1" stop-color="#08071B" stop-opacity="0"/>
</radialGradient>
<linearGradient id="paint1_linear_1_3611" x1="196" y1="85.5" x2="121.636" y2="96.5312" gradientUnits="userSpaceOnUse">
<stop stop-color="#5EE6D0"/>
<stop offset="0.515056" stop-color="#BFC6FF"/>
<stop offset="1" stop-color="#FFBA69"/>
</linearGradient>
<linearGradient id="paint2_linear_1_3611" x1="546.79" y1="144.585" x2="604.791" y2="2.13058" gradientUnits="userSpaceOnUse">
<stop stop-color="#5FF2DD"/>
<stop offset="0.09" stop-color="#5DE3DF"/>
<stop offset="0.38" stop-color="#5AB5E6"/>
<stop offset="0.64" stop-color="#5793EC"/>
<stop offset="0.86" stop-color="#557FEF"/>
<stop offset="1" stop-color="#5578F1"/>
</linearGradient>
<linearGradient id="paint3_linear_1_3611" x1="1298.41" y1="315.873" x2="1238.16" y2="175.695" gradientUnits="userSpaceOnUse">
<stop stop-color="#5FF2DD"/>
<stop offset="0.09" stop-color="#5DE3DF"/>
<stop offset="0.38" stop-color="#5AB5E6"/>
<stop offset="0.64" stop-color="#5793EC"/>
<stop offset="0.86" stop-color="#557FEF"/>
<stop offset="1" stop-color="#5578F1"/>
</linearGradient>
<linearGradient id="paint4_linear_1_3611" x1="383.69" y1="315.585" x2="440.085" y2="171.605" gradientUnits="userSpaceOnUse">
<stop stop-color="#5FF2DD"/>
<stop offset="0.09" stop-color="#5DE3DF"/>
<stop offset="0.38" stop-color="#5AB5E6"/>
<stop offset="0.64" stop-color="#5793EC"/>
<stop offset="0.86" stop-color="#557FEF"/>
<stop offset="1" stop-color="#5578F1"/>
</linearGradient>
<linearGradient id="paint5_linear_1_3611" x1="816.31" y1="315.585" x2="759.915" y2="171.605" gradientUnits="userSpaceOnUse">
<stop stop-color="#5FF2DD"/>
<stop offset="0.09" stop-color="#5DE3DF"/>
<stop offset="0.38" stop-color="#5AB5E6"/>
<stop offset="0.64" stop-color="#5793EC"/>
<stop offset="0.86" stop-color="#557FEF"/>
<stop offset="1" stop-color="#5578F1"/>
</linearGradient>
<linearGradient id="paint6_linear_1_3611" x1="1123.48" y1="26.4153" x2="1157.38" y2="185.251" gradientUnits="userSpaceOnUse">
<stop stop-color="#5FF2DD"/>
<stop offset="0.09" stop-color="#5DE3DF"/>
<stop offset="0.38" stop-color="#5AB5E6"/>
<stop offset="0.64" stop-color="#5793EC"/>
<stop offset="0.86" stop-color="#557FEF"/>
<stop offset="1" stop-color="#5578F1"/>
</linearGradient>
<linearGradient id="paint7_linear_1_3611" x1="394.799" y1="228.073" x2="395.82" y2="222.431" gradientUnits="userSpaceOnUse">
<stop stop-color="#5FF2DD"/>
<stop offset="0.09" stop-color="#5DE3DF"/>
<stop offset="0.38" stop-color="#5AB5E6"/>
<stop offset="0.64" stop-color="#5793EC"/>
<stop offset="0.86" stop-color="#557FEF"/>
<stop offset="1" stop-color="#5578F1"/>
</linearGradient>
<linearGradient id="paint8_linear_1_3611" x1="395.6" y1="226.691" x2="395.94" y2="224.81" gradientUnits="userSpaceOnUse">
<stop stop-color="#5FF2DD"/>
<stop offset="0.09" stop-color="#5DE3DF"/>
<stop offset="0.38" stop-color="#5AB5E6"/>
<stop offset="0.64" stop-color="#5793EC"/>
<stop offset="0.86" stop-color="#557FEF"/>
<stop offset="1" stop-color="#5578F1"/>
</linearGradient>
<linearGradient id="paint9_linear_1_3611" x1="522.799" y1="67.0731" x2="523.82" y2="61.4309" gradientUnits="userSpaceOnUse">
<stop stop-color="#5FF2DD"/>
<stop offset="0.09" stop-color="#5DE3DF"/>
<stop offset="0.38" stop-color="#5AB5E6"/>
<stop offset="0.64" stop-color="#5793EC"/>
<stop offset="0.86" stop-color="#557FEF"/>
<stop offset="1" stop-color="#5578F1"/>
</linearGradient>
<linearGradient id="paint10_linear_1_3611" x1="523.6" y1="65.691" x2="523.94" y2="63.8103" gradientUnits="userSpaceOnUse">
<stop stop-color="#5FF2DD"/>
<stop offset="0.09" stop-color="#5DE3DF"/>
<stop offset="0.38" stop-color="#5AB5E6"/>
<stop offset="0.64" stop-color="#5793EC"/>
<stop offset="0.86" stop-color="#557FEF"/>
<stop offset="1" stop-color="#5578F1"/>
</linearGradient>
<linearGradient id="paint11_linear_1_3611" x1="794.799" y1="228.073" x2="795.82" y2="222.431" gradientUnits="userSpaceOnUse">
<stop stop-color="#5FF2DD"/>
<stop offset="0.09" stop-color="#5DE3DF"/>
<stop offset="0.38" stop-color="#5AB5E6"/>
<stop offset="0.64" stop-color="#5793EC"/>
<stop offset="0.86" stop-color="#557FEF"/>
<stop offset="1" stop-color="#5578F1"/>
</linearGradient>
<linearGradient id="paint12_linear_1_3611" x1="795.6" y1="226.691" x2="795.94" y2="224.81" gradientUnits="userSpaceOnUse">
<stop stop-color="#5FF2DD"/>
<stop offset="0.09" stop-color="#5DE3DF"/>
<stop offset="0.38" stop-color="#5AB5E6"/>
<stop offset="0.64" stop-color="#5793EC"/>
<stop offset="0.86" stop-color="#557FEF"/>
<stop offset="1" stop-color="#5578F1"/>
</linearGradient>
<linearGradient id="paint13_linear_1_3611" x1="1246.8" y1="303.361" x2="1247.82" y2="297.719" gradientUnits="userSpaceOnUse">
<stop stop-color="#5FF2DD"/>
<stop offset="0.09" stop-color="#5DE3DF"/>
<stop offset="0.38" stop-color="#5AB5E6"/>
<stop offset="0.64" stop-color="#5793EC"/>
<stop offset="0.86" stop-color="#557FEF"/>
<stop offset="1" stop-color="#5578F1"/>
</linearGradient>
<linearGradient id="paint14_linear_1_3611" x1="1247.6" y1="301.979" x2="1247.94" y2="300.099" gradientUnits="userSpaceOnUse">
<stop stop-color="#5FF2DD"/>
<stop offset="0.09" stop-color="#5DE3DF"/>
<stop offset="0.38" stop-color="#5AB5E6"/>
<stop offset="0.64" stop-color="#5793EC"/>
<stop offset="0.86" stop-color="#557FEF"/>
<stop offset="1" stop-color="#5578F1"/>
</linearGradient>
<linearGradient id="paint15_linear_1_3611" x1="1078.8" y1="136.073" x2="1079.82" y2="130.431" gradientUnits="userSpaceOnUse">
<stop stop-color="#5FF2DD"/>
<stop offset="0.09" stop-color="#5DE3DF"/>
<stop offset="0.38" stop-color="#5AB5E6"/>
<stop offset="0.64" stop-color="#5793EC"/>
<stop offset="0.86" stop-color="#557FEF"/>
<stop offset="1" stop-color="#5578F1"/>
</linearGradient>
<linearGradient id="paint16_linear_1_3611" x1="1079.6" y1="134.691" x2="1079.94" y2="132.81" gradientUnits="userSpaceOnUse">
<stop stop-color="#5FF2DD"/>
<stop offset="0.09" stop-color="#5DE3DF"/>
<stop offset="0.38" stop-color="#5AB5E6"/>
<stop offset="0.64" stop-color="#5793EC"/>
<stop offset="0.86" stop-color="#557FEF"/>
<stop offset="1" stop-color="#5578F1"/>
</linearGradient>
<linearGradient id="paint17_linear_1_3611" x1="194.799" y1="104.073" x2="195.82" y2="98.4309" gradientUnits="userSpaceOnUse">
<stop stop-color="#5FF2DD"/>
<stop offset="0.09" stop-color="#5DE3DF"/>
<stop offset="0.38" stop-color="#5AB5E6"/>
<stop offset="0.64" stop-color="#5793EC"/>
<stop offset="0.86" stop-color="#557FEF"/>
<stop offset="1" stop-color="#5578F1"/>
</linearGradient>
<linearGradient id="paint18_linear_1_3611" x1="195.6" y1="102.691" x2="195.94" y2="100.81" gradientUnits="userSpaceOnUse">
<stop stop-color="#5FF2DD"/>
<stop offset="0.09" stop-color="#5DE3DF"/>
<stop offset="0.38" stop-color="#5AB5E6"/>
<stop offset="0.64" stop-color="#5793EC"/>
<stop offset="0.86" stop-color="#557FEF"/>
<stop offset="1" stop-color="#5578F1"/>
</linearGradient>
<linearGradient id="paint19_linear_1_3611" x1="-5.87644e-05" y1="171.846" x2="0.00435309" y2="169.325" gradientUnits="userSpaceOnUse">
<stop stop-color="#5FF2DD"/>
<stop offset="0.09" stop-color="#5DE3DF"/>
<stop offset="0.38" stop-color="#5AB5E6"/>
<stop offset="0.64" stop-color="#5793EC"/>
<stop offset="0.86" stop-color="#557FEF"/>
<stop offset="1" stop-color="#5578F1"/>
</linearGradient>
<linearGradient id="paint20_linear_1_3611" x1="1.99122e-05" y1="171.5" x2="0.0149805" y2="174.496" gradientUnits="userSpaceOnUse">
<stop stop-color="#5EE6D0"/>
<stop offset="0.515056" stop-color="#BFC6FF"/>
<stop offset="1" stop-color="#FFBA69"/>
</linearGradient>
<linearGradient id="paint21_linear_1_3611" x1="1.99122e-05" y1="171.5" x2="0.0149805" y2="174.496" gradientUnits="userSpaceOnUse">
<stop stop-color="#5EE6D0"/>
<stop offset="0.515056" stop-color="#BFC6FF"/>
<stop offset="1" stop-color="#FFBA69"/>
</linearGradient>
<linearGradient id="paint22_linear_1_3611" x1="105" y1="171" x2="131.993" y2="180.009" gradientUnits="userSpaceOnUse">
<stop stop-color="#5EE6D0"/>
<stop offset="0.515056" stop-color="#BFC6FF"/>
<stop offset="1" stop-color="#FFBA69"/>
</linearGradient>
<linearGradient id="paint23_linear_1_3611" x1="110" y1="171" x2="127.995" y2="177.006" gradientUnits="userSpaceOnUse">
<stop stop-color="#5EE6D0"/>
<stop offset="0.515056" stop-color="#BFC6FF"/>
<stop offset="1" stop-color="#FFBA69"/>
</linearGradient>
<linearGradient id="paint24_linear_1_3611" x1="115" y1="171" x2="123.998" y2="174.003" gradientUnits="userSpaceOnUse">
<stop stop-color="#5EE6D0"/>
<stop offset="0.515056" stop-color="#BFC6FF"/>
<stop offset="1" stop-color="#FFBA69"/>
</linearGradient>
<linearGradient id="paint25_linear_1_3611" x1="345" y1="171" x2="371.993" y2="180.009" gradientUnits="userSpaceOnUse">
<stop stop-color="#5EE6D0"/>
<stop offset="0.515056" stop-color="#BFC6FF"/>
<stop offset="1" stop-color="#FFBA69"/>
</linearGradient>
<linearGradient id="paint26_linear_1_3611" x1="350" y1="171" x2="367.995" y2="177.006" gradientUnits="userSpaceOnUse">
<stop stop-color="#5EE6D0"/>
<stop offset="0.515056" stop-color="#BFC6FF"/>
<stop offset="1" stop-color="#FFBA69"/>
</linearGradient>
<linearGradient id="paint27_linear_1_3611" x1="355" y1="171" x2="363.998" y2="174.003" gradientUnits="userSpaceOnUse">
<stop stop-color="#5EE6D0"/>
<stop offset="0.515056" stop-color="#BFC6FF"/>
<stop offset="1" stop-color="#FFBA69"/>
</linearGradient>
<linearGradient id="paint28_linear_1_3611" x1="585" y1="171" x2="611.993" y2="180.009" gradientUnits="userSpaceOnUse">
<stop stop-color="#5EE6D0"/>
<stop offset="0.515056" stop-color="#BFC6FF"/>
<stop offset="1" stop-color="#FFBA69"/>
</linearGradient>
<linearGradient id="paint29_linear_1_3611" x1="590" y1="171" x2="607.995" y2="177.006" gradientUnits="userSpaceOnUse">
<stop stop-color="#5EE6D0"/>
<stop offset="0.515056" stop-color="#BFC6FF"/>
<stop offset="1" stop-color="#FFBA69"/>
</linearGradient>
<linearGradient id="paint30_linear_1_3611" x1="595" y1="171" x2="603.998" y2="174.003" gradientUnits="userSpaceOnUse">
<stop stop-color="#5EE6D0"/>
<stop offset="0.515056" stop-color="#BFC6FF"/>
<stop offset="1" stop-color="#FFBA69"/>
</linearGradient>
<linearGradient id="paint31_linear_1_3611" x1="833.996" y1="181.366" x2="839.101" y2="153.155" gradientUnits="userSpaceOnUse">
<stop stop-color="#5FF2DD"/>
<stop offset="0.09" stop-color="#5DE3DF"/>
<stop offset="0.38" stop-color="#5AB5E6"/>
<stop offset="0.64" stop-color="#5793EC"/>
<stop offset="0.86" stop-color="#557FEF"/>
<stop offset="1" stop-color="#5578F1"/>
</linearGradient>
<linearGradient id="paint32_linear_1_3611" x1="835.997" y1="177.91" x2="839.401" y2="159.103" gradientUnits="userSpaceOnUse">
<stop stop-color="#5FF2DD"/>
<stop offset="0.09" stop-color="#5DE3DF"/>
<stop offset="0.38" stop-color="#5AB5E6"/>
<stop offset="0.64" stop-color="#5793EC"/>
<stop offset="0.86" stop-color="#557FEF"/>
<stop offset="1" stop-color="#5578F1"/>
</linearGradient>
<linearGradient id="paint33_linear_1_3611" x1="837.999" y1="174.455" x2="839.7" y2="165.052" gradientUnits="userSpaceOnUse">
<stop stop-color="#5FF2DD"/>
<stop offset="0.09" stop-color="#5DE3DF"/>
<stop offset="0.38" stop-color="#5AB5E6"/>
<stop offset="0.64" stop-color="#5793EC"/>
<stop offset="0.86" stop-color="#557FEF"/>
<stop offset="1" stop-color="#5578F1"/>
</linearGradient>
<linearGradient id="paint34_linear_1_3611" x1="1074" y1="181.366" x2="1079.1" y2="153.155" gradientUnits="userSpaceOnUse">
<stop stop-color="#5FF2DD"/>
<stop offset="0.09" stop-color="#5DE3DF"/>
<stop offset="0.38" stop-color="#5AB5E6"/>
<stop offset="0.64" stop-color="#5793EC"/>
<stop offset="0.86" stop-color="#557FEF"/>
<stop offset="1" stop-color="#5578F1"/>
</linearGradient>
<linearGradient id="paint35_linear_1_3611" x1="1076" y1="177.91" x2="1079.4" y2="159.103" gradientUnits="userSpaceOnUse">
<stop stop-color="#5FF2DD"/>
<stop offset="0.09" stop-color="#5DE3DF"/>
<stop offset="0.38" stop-color="#5AB5E6"/>
<stop offset="0.64" stop-color="#5793EC"/>
<stop offset="0.86" stop-color="#557FEF"/>
<stop offset="1" stop-color="#5578F1"/>
</linearGradient>
<linearGradient id="paint36_linear_1_3611" x1="1078" y1="174.455" x2="1079.7" y2="165.052" gradientUnits="userSpaceOnUse">
<stop stop-color="#5FF2DD"/>
<stop offset="0.09" stop-color="#5DE3DF"/>
<stop offset="0.38" stop-color="#5AB5E6"/>
<stop offset="0.64" stop-color="#5793EC"/>
<stop offset="0.86" stop-color="#557FEF"/>
<stop offset="1" stop-color="#5578F1"/>
</linearGradient>
<linearGradient id="paint37_linear_1_3611" x1="1314" y1="181.366" x2="1319.1" y2="153.155" gradientUnits="userSpaceOnUse">
<stop stop-color="#5FF2DD"/>
<stop offset="0.09" stop-color="#5DE3DF"/>
<stop offset="0.38" stop-color="#5AB5E6"/>
<stop offset="0.64" stop-color="#5793EC"/>
<stop offset="0.86" stop-color="#557FEF"/>
<stop offset="1" stop-color="#5578F1"/>
</linearGradient>
<linearGradient id="paint38_linear_1_3611" x1="1316" y1="177.91" x2="1319.4" y2="159.103" gradientUnits="userSpaceOnUse">
<stop stop-color="#5FF2DD"/>
<stop offset="0.09" stop-color="#5DE3DF"/>
<stop offset="0.38" stop-color="#5AB5E6"/>
<stop offset="0.64" stop-color="#5793EC"/>
<stop offset="0.86" stop-color="#557FEF"/>
<stop offset="1" stop-color="#5578F1"/>
</linearGradient>
<linearGradient id="paint39_linear_1_3611" x1="1318" y1="174.455" x2="1319.7" y2="165.052" gradientUnits="userSpaceOnUse">
<stop stop-color="#5FF2DD"/>
<stop offset="0.09" stop-color="#5DE3DF"/>
<stop offset="0.38" stop-color="#5AB5E6"/>
<stop offset="0.64" stop-color="#5793EC"/>
<stop offset="0.86" stop-color="#557FEF"/>
<stop offset="1" stop-color="#5578F1"/>
</linearGradient>
<linearGradient id="paint40_linear_1_3611" x1="93" y1="219" x2="129.229" y2="243.649" gradientUnits="userSpaceOnUse">
<stop stop-color="#5EE6D0"/>
<stop offset="0.515056" stop-color="#BFC6FF"/>
<stop offset="1" stop-color="#FFBA69"/>
</linearGradient>
<linearGradient id="paint41_linear_1_3611" x1="1309.19" y1="135.984" x2="1311.38" y2="110.924" gradientUnits="userSpaceOnUse">
<stop stop-color="#5FF2DD"/>
<stop offset="0.09" stop-color="#5DE3DF"/>
<stop offset="0.38" stop-color="#5AB5E6"/>
<stop offset="0.64" stop-color="#5793EC"/>
<stop offset="0.86" stop-color="#557FEF"/>
<stop offset="1" stop-color="#5578F1"/>
</linearGradient>
<clipPath id="clip0_1_3611">
<rect width="1440" height="342" fill="white"/>
</clipPath>
</defs>
</svg>
