<svg width="273" height="273" viewBox="0 0 273 273" fill="none" xmlns="http://www.w3.org/2000/svg">
<g clip-path="url(#clip0_686_30899)">
<path d="M77.81 101.12L6.10352e-05 101.12L5.35264e-05 272.9L272.91 272.9L272.91 171.1L195.1 171.1L195.1 197.1L169.77 197.1L169.77 145.26L103.14 145.26L103.14 197.1L77.81 197.1L77.81 101.12Z" fill="black"/>
<path d="M195.1 171.1L272.91 171.1L272.91 9.15527e-05L6.10352e-05 7.96235e-05L5.65853e-05 101.8L77.81 101.8L77.81 75.7999L103.14 75.7999L103.14 124.27L169.77 124.27L169.77 75.7999L195.1 75.7999L195.1 171.1Z" fill="#ED2390"/>
</g>
<defs>
<clipPath id="clip0_686_30899">
<rect x="272.91" width="272.91" height="272.91" rx="136.455" transform="rotate(90 272.91 0)" fill="white"/>
</clipPath>
</defs>
</svg>
